<svg xmlns="http://www.w3.org/2000/svg" version="1.1" xmlns:xlink="http://www.w3.org/1999/xlink" xmlns:svgjs="http://svgjs.com/svgjs" width="512" height="512" x="0" y="0" viewBox="0 0 64 64" style="enable-background:new 0 0 512 512" xml:space="preserve" class=""><g><g id="Layer_34" data-name="Layer 34"><path d="m61.97 44.74-2.42-9.03a5.029 5.029 0 0 0 -4.84-3.71h-34a8.984 8.984 0 0 0 -6.92 3.25l-7.43 8.95-.49.25a6.95 6.95 0 0 0 -3.87 6.26v7.29a1 1 0 0 0 1 1h6.42a5 5 0 0 0 9.16 0h25.84a5 5 0 0 0 9.16 0h1.39a10.942 10.942 0 0 0 6.1-1.85l.48-.32a1 1 0 0 0 .45-.83v-11a1.153 1.153 0 0 0 -.03-.26zm-47.86-6.74h5.61l-1.5 6h-9.09zm-10.11 14h1a1 1 0 0 1 0 2h-1zm10 8a3 3 0 1 1 3-3 3.009 3.009 0 0 1 -3 3zm35 0a3 3 0 1 1 3-3 3.009 3.009 0 0 1 -3 3zm11-8h-1a1 1 0 0 1 0-2h1zm0-4h-1a3 3 0 0 0 0 6h1v1.46l-.03.03a9.009 9.009 0 0 1 -5 1.51h-.97a5 5 0 0 0 -10 0h-25a5 5 0 0 0 -10 0h-5v-1h1a3 3 0 0 0 0-6h-.95a4.969 4.969 0 0 1 2.72-3.77l.47-.23h11.76a1 1 0 0 0 .97-.76l2-8a1.022 1.022 0 0 0 -.18-.86 1 1 0 0 0 -.79-.38h-5.18a6.94 6.94 0 0 1 4.89-2h34a3.007 3.007 0 0 1 2.9 2.23l2.39 8.9z" fill="#000000" data-original="#000000" class=""></path><path d="m57.97 44.76-2-8a1 1 0 0 0 -.97-.76h-30a1 1 0 0 0 -.97.76l-2 8a1.022 1.022 0 0 0 .18.86 1 1 0 0 0 .79.38h34a1 1 0 0 0 .79-.38 1.022 1.022 0 0 0 .18-.86zm-23.97-.76h-9.72l1.5-6h8.22zm10 0h-8v-6h8zm2 0v-6h8.22l1.5 6z" fill="#000000" data-original="#000000" class=""></path><path d="m17 47h-2a1 1 0 0 0 0 2h2a1 1 0 0 0 0-2z" fill="#000000" data-original="#000000" class=""></path><path d="m44 50h-22a1 1 0 0 0 0 2h22a1 1 0 0 0 0-2z" fill="#000000" data-original="#000000" class=""></path></g></g></svg>