<svg xmlns="http://www.w3.org/2000/svg" version="1.1" xmlns:xlink="http://www.w3.org/1999/xlink" xmlns:svgjs="http://svgjs.com/svgjs" width="512" height="512" x="0" y="0" viewBox="0 0 64 64" style="enable-background:new 0 0 512 512" xml:space="preserve" class=""><g><path d="m53 20h6a4 4 0 1 0 -.126-8 4 4 0 0 0 -7.748 0 4.048 4.048 0 0 0 -2.426.763l-4.321-7.274a1 1 0 0 0 -1.722 0l-12.778 21.743-10.035-15.769a1.04 1.04 0 0 0 -1.688 0l-13.705 21.537h-3.451v2h22v-2h-16.178l5.378-8.458 2.3 3.058a1 1 0 0 0 .729.4h.07a1 1 0 0 0 .707-.293l4.184-4.185 2.31 3.078a1 1 0 0 0 1.729-.229l1.055-2.637 4.634 7.283a.991.991 0 0 0 -.918.983v2h-3a1 1 0 0 0 -1 1v3h-2a6.006 6.006 0 0 0 -6 6v5h-16v2h16v4a1 1 0 0 0 1 1h2.142a3.981 3.981 0 0 0 7.716 0h8.284a3.981 3.981 0 0 0 7.716 0h2.142a1 1 0 0 0 1-1v-4h16v-2h-16v-4a7.008 7.008 0 0 0 -7-7h-1v-6a1 1 0 0 0 -1-1h-5.724l-1.191-1.872 6.074-10.335 1.431 3.578a1 1 0 0 0 1.729.229l2.308-3.078 4.184 4.185a1 1 0 0 0 .707.293h.07a1 1 0 0 0 .729-.4l2.507-3.341 7.566 12.741h-16.39v2h21v-2h-2.283zm-29.97 3.977-1.93-2.577a1 1 0 0 0 -1.507-.107l-4.184 4.185-2.055-2.74 5.646-8.876 4.959 7.794zm3.97 12.023h6v2h-6zm18 9v2h-4v-3h3.9a5 5 0 0 1 .1 1zm-6 2h-4v-3h4zm-6 0h-4v-3h4zm-6 0h-5a1 1 0 0 0 -.6.2l-2.4 1.8v-5h8zm-3 10a2 2 0 1 1 2-2 2 2 0 0 1 -2 2zm16 0a2 2 0 1 1 2-2 2 2 0 0 1 -2 2zm3.858-3a3.981 3.981 0 0 0 -7.716 0h-8.284a3.981 3.981 0 0 0 -7.716 0h-1.142v-2.5l3.333-2.5h22.667v5zm.116-12h-24.418a3.987 3.987 0 0 1 3.444-2h17a4.977 4.977 0 0 1 3.974 2zm-6.974-4h-2v-3a1 1 0 0 0 -1-1h-3v-1h6zm14-24a1.958 1.958 0 0 1 .677.129 1 1 0 0 0 1.34-1c0-.025-.014-.1-.017-.128a2 2 0 0 1 4-.028c0 .025-.016.131-.017.156a1 1 0 0 0 1.34 1 1.958 1.958 0 0 1 .677-.129 2 2 0 0 1 0 4h-8a2 2 0 0 1 0-4zm-3.59 7.478-4.184-4.185a.973.973 0 0 0 -.778-.29 1 1 0 0 0 -.729.4l-1.932 2.577-1.339-3.348-.021.008 5.1-8.671 3.82 6.432a3.91 3.91 0 0 0 -.347 1.599 3.987 3.987 0 0 0 1.954 3.419z" fill="#000000" data-original="#000000" class=""></path><path d="m1 61h62v2h-62z" fill="#000000" data-original="#000000" class=""></path><path d="m57 55h4v2h-4z" fill="#000000" data-original="#000000" class=""></path><path d="m51 55h4v2h-4z" fill="#000000" data-original="#000000" class=""></path><path d="m10 55h4v2h-4z" fill="#000000" data-original="#000000" class=""></path><path d="m4 55h4v2h-4z" fill="#000000" data-original="#000000" class=""></path><path d="m47 39h4v2h-4z" fill="#000000" data-original="#000000" class=""></path><path d="m55 44h4v2h-4z" fill="#000000" data-original="#000000" class=""></path><path d="m12 39h4v2h-4z" fill="#000000" data-original="#000000" class=""></path><path d="m5 44h4v2h-4z" fill="#000000" data-original="#000000" class=""></path><path d="m5 12h8a4 4 0 1 0 -.126-8 4 4 0 0 0 -7.748 0 4 4 0 1 0 -.126 8zm0-6a1.958 1.958 0 0 1 .677.129 1 1 0 0 0 1.34-1c-.001-.029-.017-.104-.017-.129a2 2 0 0 1 4-.028c0 .025-.016.131-.017.156a1 1 0 0 0 1.34 1 1.958 1.958 0 0 1 .677-.128 2 2 0 0 1 0 4h-8a2 2 0 0 1 0-4z" fill="#000000" data-original="#000000" class=""></path></g></svg>