<svg xmlns="http://www.w3.org/2000/svg" version="1.1" xmlns:xlink="http://www.w3.org/1999/xlink" xmlns:svgjs="http://svgjs.com/svgjs" width="512" height="512" x="0" y="0" viewBox="0 0 16.933333 16.933334" style="enable-background:new 0 0 512 512" xml:space="preserve" class=""><g><g id="layer1" transform="translate(0 -280.067)"><path id="path989" d="m5.8518419 281.45442c-.7275 0-1.32447.59491-1.32447 1.3224 0 .7275.59697 1.32189 1.32447 1.32189.72749 0 1.3224-.59439 1.3224-1.32189 0-.72749-.59491-1.3224-1.3224-1.3224zm5.2916601 0c-.72749 0-1.3244601.59491-1.3244601 1.3224 0 .7275.5969701 1.32189 1.3244601 1.32189.7275 0 1.3224-.59439 1.3224-1.32189 0-.72749-.5949-1.3224-1.3224-1.3224zm-5.2916601.5271c.44151 0 .79271.35379.79271.7953s-.3512.79272-.79271.79272-.79479-.35121-.79479-.79272.35328-.7953.79479-.7953zm5.2916601 0c.44151 0 .79272.35379.79272.7953s-.35121.79272-.79272.79272-.79478-.35121-.79478-.79272.35327-.7953.79478-.7953zm-7.9674701 1.77044c-.72749 0-1.32446.59491-1.32447 1.3224 0 .7275.59698 1.32188 1.32447 1.32188s1.3224-.59438 1.3224-1.32188c0-.72749-.59491-1.3224-1.3224-1.3224zm10.5833301 0c-.72749 0-1.32446.59491-1.32446 1.3224 0 .7275.59697 1.32188 1.32446 1.32188.7275 0 1.3224-.59438 1.3224-1.32188 0-.72749-.5949-1.3224-1.3224-1.3224zm-10.5833301.5271c.44151 0 .79272.35379.79272.7953s-.35121.79272-.79272.79272-.79478-.35121-.79478-.79272.35327-.7953.79478-.7953zm10.5833301 0c.44152 0 .79272.35379.79272.7953s-.3512.79272-.79272.79272c-.4415 0-.79478-.35121-.79478-.79272s.35328-.7953.79478-.7953zm-7.9385301.34933c-.26936 0-.52495.0551-.76326.15245-.16272.0814-.1697.23467-.0966.36121s.22176.16247.3669.10698c.15808-.0572.32296-.0915.49299-.0915.63 0 1.20413.41308 1.54099 1.05885.0731.12652.23468.16972.36122.0966.12654-.0731.16452-.23156.0915-.35811-.41824-.79098-1.13984-1.32654-1.99368-1.32654zm5.2916701 0c-.85384 0-1.5754501.53556-1.9936801 1.32654-.0731.12655-.0351.28501.0915.35811.12654.0731.28814.0299.36122-.0966.33686-.64577.9109801-1.05885 1.5409901-1.05885.18133 0 .35648.0385.524.10335.12653.0731.29279.0211.36587-.10542.0731-.12655.0299-.28812-.0966-.36122-.24681-.10542-.51241-.16588-.79323-.16588zm-2.6448001 2.11718c-.7275 0-1.32447.59492-1.32447 1.32241s.59697 1.32188 1.32447 1.32188c.72749 0 1.3224-.59439 1.3224-1.32188s-.59491-1.32241-1.3224-1.32241zm-5.2927.18036c-1.35014 0-2.38124996 1.33101-2.38124996 2.91041v.57878a.26458337.26458337 0 0 0 .26457996.26458.26458337.26458337 0 0 0 .26458-.26458v-.57878c0-1.35219.85696-2.38125 1.85209-2.38125s1.85208 1.02906 1.85208 2.38125v2.25309h-.52968v-2.5554c.008-.36078-.53728-.36078-.52917 0v2.5554h-1.58698v-2.5554c.008-.36078-.53727-.36078-.52917 0v2.5554h-.52917v-.61598a.26458337.26458337 0 0 0 -.26458-.26458.26458337.26458337 0 0 0 -.26457996.26458v.88057c.00001.14612.11846.26457.26457996.26458h4.23333c.14612-.00001.26457-.11846.26459-.26458v-2.03295h1.05782c.14612 0 .26458-.11846.26458-.26459 0-.14612-.11846-.26458-.26458-.26458h-1.05937c-.0193-1.55967-1.04236-2.86597-2.3797-2.86597zm10.5833301 0c-1.33734 0-2.3604 1.3063-2.3797 2.86597h-1.05988c-.14613 0-.26459.11846-.26459.26458 0 .14613.11846.26459.26459.26459h1.05833v2.03295c.00001.14612.11847.26457.26458.26458h4.23334c.14612-.00001.26457-.11846.26458-.26458v-2.51768c0-1.5794-1.03111-2.91041-2.38125-2.91041zm-5.2906301.34675c.44151 0 .79271.35379.79271.7953s-.3512.79271-.79271.79271-.79479-.3512-.79479-.79271.35328-.7953.79479-.7953zm5.2906301.18241c.99513 0 1.85208 1.02906 1.85208 2.38125v2.25309h-.52968v-2.5554c.008-.36078-.53727-.36078-.52916 0v2.5554h-1.58699v-2.5554c.008-.36078-.53727-.36078-.52917 0v2.5554h-.52916v-2.25309c0-1.35219.85695-2.38125 1.85208-2.38125zm-5.2916701 2.46445c-1.35013 0-2.38125 1.33102-2.38125 2.91042v2.51767c.00002.14612.11847.26457.26459.26459h4.2333301c.14612-.00002.26457-.11847.26458-.26459v-2.51767c0-1.5794-1.0311101-2.91042-2.3812501-2.91042zm0 .52917c.99513 0 1.8520901 1.02906 1.8520901 2.38125v2.25309h-.5296801v-2.5554c.008-.36078-.53728-.36078-.52917 0v2.5554h-1.58699v-2.5554c.008-.36078-.53726-.36078-.52916 0v2.5554h-.52917v-2.25309c0-1.35219.85695-2.38125 1.85208-2.38125z" font-variant-ligatures="normal" font-variant-position="normal" font-variant-caps="normal" font-variant-numeric="normal" font-variant-alternates="normal" font-feature-settings="normal" text-indent="0" text-align="start" text-decoration-line="none" text-decoration-style="solid" text-decoration-color="rgb(0,0,0)" text-transform="none" text-orientation="mixed" white-space="normal" shape-padding="0" isolation="auto" mix-blend-mode="normal" solid-color="rgb(0,0,0)" solid-opacity="1" vector-effect="none" paint-order="normal" fill="#000000" data-original="#000000" class=""></path></g></g></svg>