<svg xmlns="http://www.w3.org/2000/svg" version="1.1" xmlns:xlink="http://www.w3.org/1999/xlink" xmlns:svgjs="http://svgjs.com/svgjs" width="512" height="512" x="0" y="0" viewBox="0 0 64 64" style="enable-background:new 0 0 512 512" xml:space="preserve" class=""><g><path d="m18 39h2v3h2v-8h-2v3h-2v-3h-2v8h2z" fill="#000000" data-original="#000000" class=""></path><path d="m26 42a3 3 0 0 0 3-3v-2a3 3 0 0 0 -6 0v2a3 3 0 0 0 3 3zm-1-5a1 1 0 0 1 2 0v2a1 1 0 0 1 -2 0z" fill="#000000" data-original="#000000" class=""></path><path d="m32 42h2v-6h2v-2h-6v2h2z" fill="#000000" data-original="#000000" class=""></path><path d="m38 42h4v-2h-3v-1h3v-2h-3v-1h3v-2h-4a1 1 0 0 0 -1 1v6a1 1 0 0 0 1 1z" fill="#000000" data-original="#000000" class=""></path><path d="m44 42h4v-2h-3v-6h-2v7a1 1 0 0 0 1 1z" fill="#000000" data-original="#000000" class=""></path><path d="m48 45a3 3 0 0 0 3-3v-8a3 3 0 0 0 -3-3h-32a3 3 0 0 0 -3 3v8a3 3 0 0 0 3 3zm-33-3v-8a1 1 0 0 1 1-1h32a1 1 0 0 1 1 1v8a1 1 0 0 1 -1 1h-32a1 1 0 0 1 -1-1z" fill="#000000" data-original="#000000" class=""></path><path d="m7 58a3 3 0 0 0 -3 3v1a1 1 0 0 0 1 1h54a1 1 0 0 0 1-1v-1a3 3 0 0 0 -3-3h-2v-48h.5a2.5 2.5 0 0 0 0-5h-13.5v-3a1 1 0 0 0 -1-1h-19a1 1 0 0 0 -1 1v3h-12.5a2.5 2.5 0 0 0 0 5h.5v48zm51 3h-52a1 1 0 0 1 1-1h50a1 1 0 0 1 1 1zm-15-3h-4v-10h4zm-6 0h-4v-10h4zm-6 0h-4v-10h4zm-6 0h-4v-10h4zm-2-55h17v2h-17zm-15 4.5a.5.5 0 0 1 .5-.5h47a.5.5 0 0 1 0 1h-47a.5.5 0 0 1 -.5-.5zm3 2.5h42v48h-8v-11a1 1 0 0 0 -1-1h-24a1 1 0 0 0 -1 1v11h-8z" fill="#000000" data-original="#000000" class=""></path><path d="m14 19h6a1 1 0 0 0 1-1v-6a1 1 0 0 0 -1-1h-6a1 1 0 0 0 -1 1v6a1 1 0 0 0 1 1zm1-6h4v4h-4z" fill="#000000" data-original="#000000" class=""></path><path d="m14 29h6a1 1 0 0 0 1-1v-6a1 1 0 0 0 -1-1h-6a1 1 0 0 0 -1 1v6a1 1 0 0 0 1 1zm1-6h4v4h-4z" fill="#000000" data-original="#000000" class=""></path><path d="m24 29h6a1 1 0 0 0 1-1v-6a1 1 0 0 0 -1-1h-6a1 1 0 0 0 -1 1v6a1 1 0 0 0 1 1zm1-6h4v4h-4z" fill="#000000" data-original="#000000" class=""></path><path d="m24 19h6a1 1 0 0 0 1-1v-6a1 1 0 0 0 -1-1h-6a1 1 0 0 0 -1 1v6a1 1 0 0 0 1 1zm1-6h4v4h-4z" fill="#000000" data-original="#000000" class=""></path><path d="m34 19h6a1 1 0 0 0 1-1v-6a1 1 0 0 0 -1-1h-6a1 1 0 0 0 -1 1v6a1 1 0 0 0 1 1zm1-6h4v4h-4z" fill="#000000" data-original="#000000" class=""></path><path d="m34 29h6a1 1 0 0 0 1-1v-6a1 1 0 0 0 -1-1h-6a1 1 0 0 0 -1 1v6a1 1 0 0 0 1 1zm1-6h4v4h-4z" fill="#000000" data-original="#000000" class=""></path><path d="m44 29h6a1 1 0 0 0 1-1v-6a1 1 0 0 0 -1-1h-6a1 1 0 0 0 -1 1v6a1 1 0 0 0 1 1zm1-6h4v4h-4z" fill="#000000" data-original="#000000" class=""></path><path d="m44 19h6a1 1 0 0 0 1-1v-6a1 1 0 0 0 -1-1h-6a1 1 0 0 0 -1 1v6a1 1 0 0 0 1 1zm1-6h4v4h-4z" fill="#000000" data-original="#000000" class=""></path></g></svg>