<svg xmlns="http://www.w3.org/2000/svg" version="1.1" xmlns:xlink="http://www.w3.org/1999/xlink" xmlns:svgjs="http://svgjs.com/svgjs" width="512" height="512" x="0" y="0" viewBox="0 0 480 480" style="enable-background:new 0 0 512 512" xml:space="preserve" class=""><g><path d="m208 0v54.105469l-113.160156 30.320312 40.871094 152.550781-24.679688 24.679688c-1.503906 1.492188-3.535156 2.335938-5.65625 2.34375h-9.375v-24h-96v240h96v-24h10.664062c1.730469.003906 3.414063.566406 4.800782 1.601562l23.457031 17.597657c4.15625 3.109375 9.207031 4.792969 14.398437 4.800781h330.679688v-480zm-13.222656 272-28.882813-107.832031c22.820313-9.804688 36.460938-33.460938 33.519531-58.121094l8.585938-2.277344v168.230469zm13.222656-201.335938v16.535157l-27.648438 7.359375 2.082032 7.753906c2.757812 10.242188 1.328125 21.160156-3.96875 30.351562-5.296875 9.191407-14.035156 15.894532-24.28125 18.640626l-7.742188 2.054687 31.773438 118.640625h-10.398438c-3.621094 0-6.789062-2.429688-7.726562-5.929688l-45.601563-170.335937zm-128 393.335938h-64v-208h64zm69.335938 0c-1.730469-.003906-3.414063-.566406-4.800782-1.601562l-23.457031-17.597657c-4.15625-3.109375-9.207031-4.792969-14.398437-4.800781h-10.679688v-160h9.375c6.371094.019531 12.480469-2.515625 16.96875-7.03125l18.152344-18.152344 4.121094 15.390625c2.808593 10.496094 12.320312 17.792969 23.183593 17.792969h184.199219c8.835938 0 16 7.164062 16 16s-7.164062 16-16 16h-104v16h136c8.835938 0 16 7.164062 16 16s-7.164062 16-16 16h-136v16h104c8.835938 0 16 7.164062 16 16s-7.164062 16-16 16h-104v16h72c8.835938 0 16 7.164062 16 16s-7.164062 16-16 16zm230.214843-80h4.449219c17.671875 0 32-14.328125 32-32s-14.328125-32-32-32h-4.449219c6.640625-11.0625 5.785157-25.074219-2.152343-35.246094 24.527343-18.359375 29.710937-53.035156 11.625-77.761718-18.085938-24.726563-52.703126-30.289063-77.628907-12.476563-24.921875 17.8125-30.867187 52.367187-13.332031 77.484375h-42.0625v-176.566406c24.558594-3.585938 43.847656-22.875 47.433594-47.433594h81.132812c3.585938 24.558594 22.875 43.847656 47.433594 47.433594v289.132812c-24.558594 3.585938-43.847656 22.875-47.433594 47.433594h-32.566406c17.671875 0 32-14.328125 32-32-.03125-5.632812-1.570312-11.15625-4.449219-16zm-59.382812-112c-14.1875-10.515625-19.800781-29.09375-13.808594-45.707031s22.171875-27.332031 39.804687-26.367188c17.636719.960938 32.550782 13.375 36.703126 30.539063 4.148437 17.167968-3.449219 35.023437-18.699219 43.933594-3.859375-1.589844-7.992188-2.402344-12.167969-2.398438zm143.832031 192h-116.449219c2.878907-4.84375 4.417969-10.367188 4.449219-16h48v-8c.027344-22.082031 17.917969-39.972656 40-40h8v-320h-8c-22.082031-.027344-39.972656-17.917969-40-40v-8h-112v8c-.027344 22.082031-17.917969 39.972656-40 40h-8v192h-16v-256h240zm0 0" fill="#000000" data-original="#000000" class=""></path><path d="m336 104h16v48h-16zm0 0" fill="#000000" data-original="#000000" class=""></path></g></svg>