<svg xmlns="http://www.w3.org/2000/svg" version="1.1" xmlns:xlink="http://www.w3.org/1999/xlink" xmlns:svgjs="http://svgjs.com/svgjs" width="512" height="512" x="0" y="0" viewBox="0 0 512 512" style="enable-background:new 0 0 512 512" xml:space="preserve" class="hovered-paths"><g><g><path d="m322.361 341.568v-110.58l4.423 3.731c4.302 3.629 9.759 5.368 15.368 4.889 5.608-.477 10.695-3.108 14.323-7.41l14.247-16.892v.001c7.49-8.879 6.36-22.197-2.519-29.688l-144.62-122.015c-7.87-6.638-19.295-6.641-27.169-.002l-144.633 122.02c-8.877 7.49-10.007 20.807-2.519 29.685l14.249 16.895c3.629 4.302 8.715 6.933 14.323 7.41.608.052 1.214.077 1.818.077 4.961 0 9.715-1.731 13.55-4.967l4.427-3.735v110.58c0 11.617 9.451 21.068 21.068 21.068h182.596c11.617.001 21.068-9.45 21.068-21.067zm-242.081-122.161c-.216.182-.471.26-.75.238-.282-.023-.518-.146-.7-.362l-14.249-16.895c-.365-.433-.31-1.084.123-1.449l144.629-122.018c.193-.162.429-.244.665-.244.235 0 .471.081.663.243l144.621 122.017c.433.366.489 1.016.123 1.449v.001l-14.248 16.892c-.182.217-.418.339-.7.362-.283.027-.535-.056-.751-.239l-123.25-103.982c-3.732-3.149-9.19-3.149-12.922 0zm145.32 123.19h-31.208v-40.43h31.208zm75.693 0h-55.654v-40.676c0-10.914-8.88-19.793-19.794-19.793h-31.698c-10.914 0-19.794 8.88-19.794 19.793v40.676h-55.656c-.568 0-1.029-.462-1.029-1.029v-127.486l92.328-77.894 92.327 77.894v127.486c-.001.567-.463 1.029-1.03 1.029z" fill="#000000" data-original="#000000" class="hovered-path"></path><path d="m209.993 181.874c-17.71 0-32.118 14.408-32.118 32.117s14.408 32.117 32.118 32.117c17.709 0 32.117-14.408 32.117-32.117s-14.408-32.117-32.117-32.117zm0 44.196c-6.66 0-12.079-5.419-12.079-12.078s5.418-12.078 12.079-12.078c6.66 0 12.078 5.419 12.078 12.078s-5.418 12.078-12.078 12.078z" fill="#000000" data-original="#000000" class="hovered-path"></path><path d="m20.049 420.632h233.514c5.534 0 10.02-4.486 10.02-10.02 0-5.533-4.486-10.02-10.02-10.02l-233.524-.011.01-379.896 379.896.011-.01 379.896h-55.402c-5.534 0-10.02 4.486-10.02 10.02 0 5.533 4.486 10.02 10.02 10.02h55.402c11.055 0 20.049-8.994 20.049-20.05v-379.885c0-11.056-8.994-20.05-20.049-20.05h-379.886c-11.055 0-20.049 8.994-20.049 20.05v379.886c0 11.055 8.994 20.049 20.049 20.049z" fill="#000000" data-original="#000000" class="hovered-path"></path><path d="m421.142 469.053-36.999-23.881c-4.65-3.002-10.851-1.666-13.852 2.984-3.001 4.649-1.665 10.85 2.984 13.851l8.232 5.313h-337.285l8.232-5.313c4.649-3.001 5.985-9.203 2.984-13.851-3.002-4.65-9.203-5.988-13.852-2.984l-37 23.881c-2.859 1.845-4.586 5.015-4.586 8.419 0 3.402 1.727 6.572 4.586 8.418l37 23.883c1.681 1.085 3.563 1.603 5.425 1.603 3.289 0 6.511-1.617 8.428-4.587 3.001-4.649 1.665-10.85-2.984-13.851l-8.639-5.576h338.099l-8.639 5.576c-4.649 3.001-5.985 9.203-2.984 13.851 1.917 2.97 5.138 4.587 8.428 4.587 1.861 0 3.745-.518 5.425-1.603l37-23.883c2.859-1.845 4.586-5.016 4.586-8.418-.003-3.404-1.73-6.574-4.589-8.419z" fill="#000000" data-original="#000000" class="hovered-path"></path><path d="m507.413 370.916c-4.649-3.002-10.851-1.666-13.852 2.984l-5.313 8.231v-337.284l5.313 8.231c3 4.649 9.202 5.986 13.852 2.984 4.649-3 5.986-9.203 2.985-13.851l-23.882-37c-1.845-2.859-5.016-4.586-8.418-4.586-3.403 0-6.573 1.727-8.418 4.586l-23.882 37c-3.001 4.649-1.665 10.85 2.984 13.851 1.681 1.085 3.563 1.603 5.425 1.603 3.289 0 6.511-1.617 8.428-4.587l5.576-8.638v338.099l-5.576-8.638c-3.002-4.651-9.203-5.988-13.852-2.984-4.649 3.001-5.985 9.203-2.984 13.851l23.882 37c1.845 2.859 5.016 4.586 8.418 4.586 3.403 0 6.573-1.727 8.418-4.586l23.882-37c2.999-4.649 1.663-10.852-2.986-13.852z" fill="#000000" data-original="#000000" class="hovered-path"></path><circle cx="299.023" cy="410.615" r="10.02" fill="#000000" data-original="#000000" class="hovered-path"></circle></g></g></svg>