<svg xmlns="http://www.w3.org/2000/svg" version="1.1" xmlns:xlink="http://www.w3.org/1999/xlink" xmlns:svgjs="http://svgjs.com/svgjs" width="512" height="512" x="0" y="0" viewBox="0 0 512 512" style="enable-background:new 0 0 512 512" xml:space="preserve" class=""><g>
<g xmlns="http://www.w3.org/2000/svg">
	<g>
		<g>
			<path style="" d="M503.467,460.8c-17.675,0-26.917,5.096-35.067,9.596c-7.275,4.008-13.558,7.471-26.833,7.471     c-13.283,0-19.567-3.463-26.842-7.475c-8.15-4.496-17.4-9.592-35.067-9.592c-17.658,0-26.9,5.096-35.05,9.596     c-7.267,4.008-13.542,7.471-26.808,7.471c-13.275,0-19.55-3.463-26.817-7.471c-8.158-4.5-17.4-9.596-35.067-9.596     c-17.658,0-26.9,5.096-35.05,9.596c-7.267,4.008-13.542,7.471-26.808,7.471c-13.258,0-19.533-3.463-26.792-7.471     c-8.15-4.496-17.392-9.596-35.05-9.596s-26.9,5.1-35.05,9.596c-7.258,4.008-13.533,7.471-26.792,7.471     s-19.533-3.463-26.792-7.471c-8.15-4.496-17.392-9.596-35.05-9.596C3.817,460.8,0,464.621,0,469.333s3.817,8.533,8.533,8.533     c13.267,0,19.542,3.462,26.8,7.471c8.15,4.5,17.383,9.596,35.042,9.596s26.892-5.096,35.042-9.596     c7.258-4.008,13.533-7.471,26.8-7.471s19.542,3.462,26.8,7.471c8.15,4.5,17.383,9.596,35.042,9.596     c17.667,0,26.908-5.1,35.058-9.596c7.267-4.008,13.533-7.471,26.8-7.471c13.275,0,19.55,3.462,26.817,7.471     c8.158,4.5,17.4,9.596,35.067,9.596s26.908-5.1,35.058-9.596c7.267-4.008,13.533-7.471,26.8-7.471     c13.275,0,19.558,3.462,26.833,7.471c8.15,4.5,17.4,9.596,35.075,9.596s26.917-5.096,35.067-9.596     c7.275-4.008,13.558-7.471,26.833-7.471c4.717,0,8.533-3.821,8.533-8.533S508.183,460.8,503.467,460.8z" fill="#333333" data-original="#333333" class=""></path>
			<path style="" d="M503.467,392.533c-17.675,0-26.917,5.096-35.067,9.596c-7.275,4.008-13.558,7.471-26.833,7.471     c-13.283,0-19.567-3.463-26.842-7.475c-8.15-4.496-17.4-9.592-35.067-9.592c-17.658,0-26.9,5.096-35.05,9.596     c-7.267,4.008-13.542,7.471-26.808,7.471c-13.275,0-19.55-3.463-26.817-7.471c-8.158-4.5-17.4-9.596-35.067-9.596     c-17.658,0-26.9,5.096-35.05,9.596c-7.267,4.008-13.542,7.471-26.808,7.471c-13.258,0-19.533-3.463-26.792-7.471     c-8.15-4.496-17.392-9.596-35.05-9.596s-26.9,5.1-35.05,9.596c-7.258,4.008-13.533,7.471-26.792,7.471     s-19.533-3.463-26.792-7.471c-8.15-4.496-17.392-9.596-35.05-9.596c-4.717,0-8.533,3.821-8.533,8.533     c0,4.713,3.817,8.533,8.533,8.533c13.267,0,19.542,3.462,26.8,7.471c8.15,4.5,17.383,9.596,35.042,9.596     s26.892-5.096,35.042-9.596c7.258-4.008,13.533-7.471,26.8-7.471s19.542,3.462,26.8,7.471c8.15,4.5,17.383,9.596,35.042,9.596     c17.667,0,26.908-5.1,35.058-9.596c7.267-4.008,13.533-7.471,26.8-7.471c13.275,0,19.55,3.462,26.817,7.471     c8.158,4.5,17.4,9.596,35.067,9.596s26.908-5.1,35.058-9.596c7.267-4.008,13.533-7.471,26.8-7.471     c13.275,0,19.558,3.462,26.833,7.471c8.15,4.5,17.4,9.596,35.075,9.596s26.917-5.096,35.067-9.596     c7.275-4.008,13.558-7.471,26.833-7.471c4.717,0,8.533-3.821,8.533-8.533C512,396.354,508.183,392.533,503.467,392.533z" fill="#333333" data-original="#333333" class=""></path>
			<path style="" d="M8.533,341.333c13.267,0,19.542,3.462,26.8,7.471c8.15,4.5,17.383,9.596,35.042,9.596     s26.892-5.096,35.042-9.596c7.258-4.008,13.533-7.471,26.8-7.471s19.542,3.462,26.8,7.471c8.15,4.5,17.383,9.596,35.042,9.596     c17.667,0,26.908-5.1,35.058-9.596c7.267-4.008,13.533-7.471,26.8-7.471c13.275,0,19.55,3.462,26.817,7.471     c8.158,4.5,17.4,9.596,35.067,9.596s26.908-5.1,35.058-9.596c7.267-4.008,13.533-7.471,26.8-7.471     c13.275,0,19.558,3.462,26.833,7.471c8.15,4.5,17.4,9.596,35.075,9.596s26.917-5.096,35.067-9.596     c7.275-4.008,13.558-7.471,26.833-7.471c4.717,0,8.533-3.821,8.533-8.533c0-4.713-3.817-8.533-8.533-8.533     c-17.675,0-26.917,5.096-35.067,9.596c-7.275,4.008-13.558,7.471-26.833,7.471c-13.283,0-19.567-3.463-26.842-7.475     c-8.15-4.496-17.4-9.592-35.067-9.592c-17.658,0-26.9,5.096-35.05,9.596c-7.267,4.008-13.542,7.471-26.808,7.471     c-13.275,0-19.55-3.463-26.817-7.471c-8.158-4.5-17.4-9.596-35.067-9.596c-17.658,0-26.9,5.096-35.05,9.596     c-7.267,4.008-13.542,7.471-26.808,7.471c-13.258,0-19.533-3.463-26.792-7.471c-8.15-4.496-17.392-9.596-35.05-9.596     s-26.9,5.1-35.05,9.596c-7.258,4.008-13.533,7.471-26.792,7.471s-19.533-3.463-26.792-7.471     c-8.15-4.496-17.392-9.596-35.05-9.596C3.817,324.267,0,328.087,0,332.8C0,337.513,3.817,341.333,8.533,341.333z" fill="#333333" data-original="#333333" class=""></path>
			<path style="" d="M293.133,264.917c31.342-11.796,57.775,1.45,67.717,20.612c1.517,2.917,4.492,4.604,7.583,4.604     c1.208,0,2.433-0.254,3.6-0.8c4.142-1.929,6.025-6.783,4.275-11.008c-10.775-25.938-1.467-58.933,21.183-75.113     c3.833-2.742,4.725-8.071,1.983-11.904c-2.742-3.833-8.075-4.717-11.9-1.987c-20.458,14.612-32.383,39.967-32.7,65.242     c-17.233-11.337-41.267-15.579-67.742-5.621c-4.417,1.658-6.65,6.579-4.983,10.992     C283.808,264.35,288.75,266.558,293.133,264.917z" fill="#333333" data-original="#333333" class=""></path>
			<path style="" d="M422.475,233.483c9.183-5.421,22.042-4.046,29.9,3.192c1.625,1.496,3.7,2.258,5.783,2.258     c1.625,0,3.258-0.463,4.692-1.408c3.275-2.154,4.658-6.263,3.358-9.958c-4.025-11.425-0.35-25.475,8.733-33.404     c3.55-3.1,3.917-8.492,0.817-12.042c-3.1-3.558-8.492-3.917-12.033-0.817c-9.675,8.446-15.375,20.892-16.125,33.629     c-11.15-3.317-23.625-2.154-33.808,3.858c-4.058,2.396-5.4,7.629-3.008,11.688C413.183,234.542,418.408,235.879,422.475,233.483z     " fill="#333333" data-original="#333333" class=""></path>
			<path style="" d="M153.6,204.8c37.642,0,68.267-30.625,68.267-68.267c0-37.642-30.625-68.267-68.267-68.267     c-37.642,0-68.267,30.625-68.267,68.267C85.333,174.175,115.958,204.8,153.6,204.8z M153.6,85.333     c28.233,0,51.2,22.967,51.2,51.2c0,28.233-22.967,51.2-51.2,51.2c-28.233,0-51.2-22.967-51.2-51.2     C102.4,108.3,125.367,85.333,153.6,85.333z" fill="#333333" data-original="#333333" class=""></path>
			<path style="" d="M153.6,59.733c4.717,0,8.533-3.821,8.533-8.533V25.6c0-4.713-3.817-8.533-8.533-8.533     c-4.717,0-8.533,3.821-8.533,8.533v25.6C145.067,55.913,148.883,59.733,153.6,59.733z" fill="#333333" data-original="#333333" class=""></path>
			<path style="" d="M145.067,221.867v25.6c0,4.713,3.817,8.533,8.533,8.533c4.717,0,8.533-3.821,8.533-8.533v-25.6     c0-4.713-3.817-8.533-8.533-8.533C148.883,213.333,145.067,217.154,145.067,221.867z" fill="#333333" data-original="#333333" class=""></path>
			<path style="" d="M230.4,136.533c0,4.713,3.817,8.533,8.533,8.533h25.6c4.717,0,8.533-3.821,8.533-8.533     S269.25,128,264.533,128h-25.6C234.217,128,230.4,131.821,230.4,136.533z" fill="#333333" data-original="#333333" class=""></path>
			<path style="" d="M42.667,145.067h25.6c4.717,0,8.533-3.821,8.533-8.533S72.983,128,68.267,128h-25.6     c-4.717,0-8.533,3.821-8.533,8.533S37.95,145.067,42.667,145.067z" fill="#333333" data-original="#333333" class=""></path>
			<path style="" d="M213.942,84.725c2.183,0,4.367-0.833,6.033-2.5l18.1-18.1c3.333-3.333,3.333-8.733,0-12.067     c-3.333-3.333-8.733-3.333-12.067,0l-18.1,18.1c-3.333,3.333-3.333,8.733,0,12.067C209.575,83.892,211.758,84.725,213.942,84.725     z" fill="#333333" data-original="#333333" class=""></path>
			<path style="" d="M87.225,190.842l-18.1,18.1c-3.333,3.333-3.333,8.733,0,12.067c1.667,1.667,3.85,2.5,6.033,2.5     c2.183,0,4.367-0.833,6.033-2.5l18.1-18.1c3.333-3.333,3.333-8.733,0-12.067S90.558,187.508,87.225,190.842z" fill="#333333" data-original="#333333" class=""></path>
			<path style="" d="M219.975,190.842c-3.333-3.333-8.733-3.333-12.067,0c-3.333,3.333-3.333,8.733,0,12.067l18.1,18.1     c1.667,1.667,3.85,2.5,6.033,2.5c2.183,0,4.367-0.833,6.033-2.5c3.333-3.333,3.333-8.733,0-12.067L219.975,190.842z" fill="#333333" data-original="#333333" class=""></path>
			<path style="" d="M87.225,82.225c1.667,1.667,3.85,2.5,6.033,2.5c2.183,0,4.367-0.833,6.033-2.5     c3.333-3.333,3.333-8.733,0-12.067l-18.1-18.1c-3.333-3.333-8.733-3.333-12.067,0c-3.333,3.333-3.333,8.733,0,12.067     L87.225,82.225z" fill="#333333" data-original="#333333" class=""></path>
		</g>
	</g>
</g>
<g xmlns="http://www.w3.org/2000/svg">
</g>
<g xmlns="http://www.w3.org/2000/svg">
</g>
<g xmlns="http://www.w3.org/2000/svg">
</g>
<g xmlns="http://www.w3.org/2000/svg">
</g>
<g xmlns="http://www.w3.org/2000/svg">
</g>
<g xmlns="http://www.w3.org/2000/svg">
</g>
<g xmlns="http://www.w3.org/2000/svg">
</g>
<g xmlns="http://www.w3.org/2000/svg">
</g>
<g xmlns="http://www.w3.org/2000/svg">
</g>
<g xmlns="http://www.w3.org/2000/svg">
</g>
<g xmlns="http://www.w3.org/2000/svg">
</g>
<g xmlns="http://www.w3.org/2000/svg">
</g>
<g xmlns="http://www.w3.org/2000/svg">
</g>
<g xmlns="http://www.w3.org/2000/svg">
</g>
<g xmlns="http://www.w3.org/2000/svg">
</g>
</g></svg>