<svg xmlns="http://www.w3.org/2000/svg" version="1.1" xmlns:xlink="http://www.w3.org/1999/xlink" xmlns:svgjs="http://svgjs.com/svgjs" width="512" height="512" x="0" y="0" viewBox="0 0 1.70666 1.70666" style="enable-background:new 0 0 512 512" xml:space="preserve" class=""><g><g xmlns="http://www.w3.org/2000/svg" id="Layer_x0020_1"><g id="_432901760"><path id="_432903008" d="m.259976.364079.135972.235504c.00228346.00394094.00329528.00850394.0028937.013063l-.0890866 1.00694c-.00103543.0116693.00465354.020563.00960236.0260118.00949606.0103543.0239449.0165394.0386535.0165394h.852622c.0147047 0 .0291614-.0061811.0386496-.0165787.00495669-.00540945.0106417-.0142992.00961024-.0259685l-.111083-1.25552h-.887835zm.950657 1.34258h-.852622c-.0269803 0-.0537087-.0115945-.0714882-.0310315-.0155394-.0169646-.0230354-.0382598-.0211181-.0599764l.0884724-.999917-.151732-.262787c-.00397638-.00691732-.00397638-.0153819 0-.0222598.00397638-.00691732.0113268-.0111299.0192795-.0111299h.946764c.0115315 0 .0211535.00881102.0221693.0202874l.112882 1.2758c.00192126.0217205-.00557874.0430157-.0211142.0599803-.0177835.019437-.0445079.0310315-.0714921.0310315z" fill="#000000" data-original="#000000"></path><path id="_432909128" d="m1.17994.496823h-.881858c-.0122953 0-.0222598-.0099685-.0222598-.0222559 0-.0122913.00996457-.0222598.0222598-.0222598l.881858-.00000394c.0122913 0 .0222598.00997244.0222598.0222638 0 .0122874-.0099685.0222598-.0222598.0222559z" fill="#000000" data-original="#000000"></path><path id="_432906296" d="m1.27524 1.57388h-.981831c-.0122953 0-.0222598-.00997244-.0222598-.0222598 0-.0122913.00996457-.0222598.0222598-.0222598l.981831-.00000394c.0122953 0 .0222638.00997244.0222638.0222638 0 .0122835-.0099685.0222598-.0222638.0222598z" fill="#000000" data-original="#000000"></path><path id="_432897656" d="m1.24317 1.21177c-.0116496 0-.0214409-.00907874-.0221969-.0208661-.00078347-.012252.00852756-.0228425.0207913-.0236142.0570945-.00367323.111-.0281339.151795-.0689409.0447638-.0447598.0694173-.104075.0694173-.166988v-.0978937c0-.0629134-.0246535-.122232-.0694173-.166984-.0447598-.0447559-.104063-.0694094-.166976-.0694094h-.0377756-.00000787c-.0122874 0-.022252-.0099685-.0222598-.0222598 0-.0122913.00996457-.0222598.0222559-.0222598h.0377835c.0748071 0 .145291.0292559.198461.0824331.0531732.0531732.0824567.123665.0824567.198484v.0978858c0 .0748189-.0292835.145307-.0824567.198484-.0484567.0484606-.112535.0775236-.180425.0818543-.00048819.00003543-.0009685.0000748-.00144488.0000748z" fill="#000000" data-original="#000000"></path><path id="_432906992" d="m1.23281 1.09463c-.0118386 0-.021689-.00931102-.0222205-.021252-.00054724-.0122913.0089685-.022685.021248-.0232244.0295433-.0013189.0574764-.0137205.0786535-.0348583.022563-.0225748.0349882-.0523661.0349882-.083937l.00000394-.0978937c0-.0315748-.0124291-.0613661-.0349921-.083937-.022563-.0225315-.0523661-.0349724-.0839055-.0349724l-.0273858-.00000394c-.0122913 0-.0222598-.00996457-.0222598-.0222559 0-.0122913.0099685-.0222598.0222598-.0222598l.0273858-.00000394c.0434331 0 .0844134.0170472.115382.0480394.0309764.0309528.0480315.0719606.0480315.115398l.00000394.0978858c0 .043437-.0170591.0844409-.0480315.115398-.029063.0290591-.0674764.0460669-.108154.0478819-.00033465-.00000394-.00067323 0-.00100787-.00000394z" fill="#000000" data-original="#000000"></path><path id="_432903728" d="m1.16819.364079c-.0122953 0-.0222598-.0099685-.0222598-.0222598 0-.0948346-.165598-.174909-.361602-.174909-.196012 0-.361606.0800748-.361606.174909 0 .0122874-.0099685.0222598-.0222598.0222598-.0122953 0-.0222598-.0099685-.0222598-.0222598 0-.123047.17839-.219429.406126-.219429.227728 0 .406118.0963819.406118.219429 0 .0122874-.00996457.0222598-.0222559.0222598z" fill="#000000" data-original="#000000"></path><path id="_432913088" d="m.860819.170811c-.0122953 0-.0222598-.0099685-.0222598-.0222598v-.049811c0-.0299134-.0243307-.0542205-.0542323-.0542205-.0299094 0-.0542402.0243071-.0542402.0542205v.049811c0 .0122874-.00996457.0222598-.0222559.0222598-.0122953 0-.0222598-.0099685-.0222598-.0222598v-.049811c0-.0544567.0442992-.0987402.0987559-.0987402.0544488 0 .098748.0442874.098748.0987402l.00000394.049811c0 .0122874-.00996457.0222598-.0222598.0222598z" fill="#000000" data-original="#000000"></path><path id="_432910568" d="m.678071 1.35804h.212508v-.689858h-.212508zm.234768.0444803h-.257028c-.0122953 0-.0222598-.00992913-.0222598-.0222559v-.734346c0-.0122874.00996457-.0222559.0222598-.0222559l.257028-.00000394c.0122913 0 .0222598.00997244.0222598.0222638v.734339c0 .0123307-.0099685.0222638-.0222598.0222598z" fill="#000000" data-original="#000000"></path><path id="_432908960" d="m.912839.782953h-.116083c-.0122913 0-.022252-.00996457-.022252-.0222559 0-.0122874.00996063-.0222598.022252-.0222598h.116083c.0122913 0 .0222598.00997244.0222598.0222598 0 .0122874-.0099685.0222598-.0222598.0222559z" fill="#000000" data-original="#000000"></path><path id="_432912176" d="m.912839.873736h-.0580433c-.0122913 0-.0222559-.00997244-.0222559-.0222598 0-.0122913.00996063-.0222598.0222559-.0222598h.0580433c.0122913 0 .0222598.0099685.0222598.0222598 0 .0122874-.0099685.0222598-.0222598.0222598z" fill="#000000" data-original="#000000"></path><path id="_432908816" d="m.912839.964516h-.116083c-.0122913 0-.022252-.00997244-.022252-.0222598 0-.0123307.00996063-.0222598.022252-.0222598h.116083c.0122913 0 .0222598.00992913.0222598.0222598 0 .0122835-.0099685.0222598-.0222598.0222598z" fill="#000000" data-original="#000000"></path><path id="_432899528" d="m.912839 1.05525h-.0580433c-.0122913 0-.0222559-.00992913-.0222559-.0222559 0-.0122913.00996063-.0222598.0222559-.0222598l.0580433-.00000394c.0122913 0 .0222598.00997244.0222598.0222638 0 .0123228-.0099685.0222598-.0222598.0222559z" fill="#000000" data-original="#000000"></path><path id="_432912416" d="m.912839 1.14603h-.116083c-.0122913 0-.022252-.00992913-.022252-.0222598 0-.0122913.00996063-.0222598.022252-.0222598h.116083c.0122913 0 .0222598.00997244.0222598.0222598 0 .0123268-.0099685.0222598-.0222598.0222598z" fill="#000000" data-original="#000000"></path><path id="_432903608" d="m.912839 1.23681h-.0580433c-.0122913 0-.0222559-.00997244-.0222559-.0222598 0-.0122913.00996063-.0222598.0222559-.0222598h.0580433c.0122913 0 .0222598.0099685.0222598.0222598 0 .0122874-.0099685.0222598-.0222598.0222598z" fill="#000000" data-original="#000000"></path><path id="_432908744" d="m.912839 1.32759h-.116083c-.0122913 0-.022252-.00997244-.022252-.0222598 0-.0122913.00996063-.0222598.022252-.0222598h.116083c.0122913 0 .0222598.0099685.0222598.0222598 0 .0122835-.0099685.0222598-.0222598.0222598z" fill="#000000" data-original="#000000"></path></g></g></g></svg>