<?xml version="1.0" encoding="utf-8"?>
<!-- Generator: Adobe Illustrator 25.2.1, SVG Export Plug-In . SVG Version: 6.00 Build 0)  -->
<svg version="1.1" id="Слой_1" xmlns="http://www.w3.org/2000/svg" xmlns:xlink="http://www.w3.org/1999/xlink" x="0px" y="0px"
	 viewBox="0 0 1920 1080" style="enable-background:new 0 0 1920 1080;" xml:space="preserve">
<style type="text/css">
	.st0{fill:#FFFFFF;}
</style>
<g>
	<path class="st0" d="M867,487c61.7,0,123.3,0,185,0c0,35.3,0,70.7,0,106c-61.7,0-123.3,0-185,0C867,557.7,867,522.3,867,487z
		 M951.3,563.4C951.3,563.4,951.3,563.5,951.3,563.4c-0.1-0.2-0.1-0.5-0.2-0.7c-0.2,0-0.4,0-0.6,0c-0.3-0.7,0.9-1.1,0.4-1.9
		c-0.3,0.2-0.5,0.3-0.9,0.5c0.1-0.3,0.2-0.6,0.2-0.9c0-0.2-0.1-0.4-0.2-0.7c-0.5,0.2-0.4-0.2-0.4-0.4c-0.1-0.3-0.2-0.6-0.4-0.9
		c-0.1,0-0.2,0-0.3,0c-0.2,0.5-0.3,1-0.5,1.5c-0.2-0.1-0.5-0.1-0.9-0.3c0.3,0.7,0.4,1.2,0.7,1.8c-0.3,0-0.6,0-0.9,0
		c0.2,0.5,0.4,0.9,0.6,1.4c-0.4-0.1-0.7-0.2-1.3-0.3c0.4,0.7,0.7,1.3,1.1,1.9c-0.4-0.1-0.7-0.1-1-0.1c0,0,0,0,0,0
		c-0.3-0.2-0.8-0.4-0.8-0.7c0-1.3-0.9-2.3-1.2-3.6c-0.7,1-0.5,2.2-1.4,2.9c0.2,0.8,0.1,1-0.7,1.1c0.1,0.4,0.1,0.8,0.2,1.2
		c-0.2,0-0.4-0.1-0.5-0.1c-0.2,0-0.3,0-0.5,0c0.4-1.1,0.4-1.1-0.4-1.2c0.2-0.4,0.3-0.9,0.6-1.6c-1.1,0.7-1.1-0.2-1.5-0.7
		c-0.2,0.3-0.2,0.6-0.4,0.7c-0.6,0.4-0.8,0.9-0.3,1.6c-0.4-0.2-0.6-0.3-0.8-0.4c-0.1,0-0.1,0.1-0.2,0.1c0.2,0.5,0.4,0.9,0.6,1.5
		c-0.3,0-0.5-0.1-0.9-0.1c0.4,0.7,0.7,1.2,1,1.8c-0.4-0.1-0.7-0.1-0.9-0.1c-0.4-0.1-0.8,0-0.7-0.7c0.1-0.5,0-1.1-0.1-1.5
		c-0.2-0.2-0.6-0.4-0.6-0.5c0.3-0.6-0.3-0.9-0.4-1.3c-0.2-0.7-0.5-1.3-0.9-2.1c-0.2,0.5-0.3,0.8-0.5,1c-0.1,0.3-0.2,0.9-0.4,0.9
		c-0.7,0.2-0.3,0.7-0.4,1.1c0,0.2,0,0.4,0,0.6c-0.2,0.1-0.6,0.1-0.6,0.2c0.1,0.5,0.2,0.9,0.3,1.3c-0.2,0.1-0.6,0.1-0.9,0.2
		c0.1,0.2,0.3,0.4,0.4,0.7c0.1,0.2,0,0.5-0.1,0.8c0,0.1-0.4,0.1-0.6,0.1c-0.2,0-0.4-0.1-0.5-0.1c-0.1-0.4-0.1-0.8-0.2-1.2
		c-0.1-0.2-0.3-0.3-0.4-0.5c-0.3-1-0.7-2-1-3c-0.1,0-0.2,0-0.3,0c-0.2,0.6-0.4,1.1-0.6,1.7c-0.2,0.6-0.8,1.1-0.7,1.8
		c0,0-0.4,0.1-0.5,0.1c0,0.5-0.1,0.9-0.1,1.3c0,0.7-0.5,1.4,0,2.2c0,0-0.1,0.1-0.2,0.2c-0.1-0.2-0.2-0.4-0.2-0.6c-0.3,0-0.6,0-0.9,0
		c0.3-0.5,0.6-1,0.9-1.6c-0.4,0-0.6,0-0.8,0c0-0.5,0.9-0.8,0.3-1.5c-0.2,0.1-0.5,0.2-0.8,0.4c0.6-1.2-0.6-1.7-0.8-2.6
		c-0.2,0.3-0.1,0.8-0.3,1c-0.2,0.2-0.6,0.2-1,0.3c0.2,0.4,0.4,0.9,0.6,1.4c-0.3,0-0.5,0-0.8,0.1c0.2,0.4,0.3,0.7,0.4,1.1
		c-0.3,0-0.5,0-0.8,0c0.1,0.3,0.2,0.5,0.3,0.8c0.1,0.2,0.3,0.5,0.5,0.8c-0.4,0-0.6,0-0.8,0c0.1,0.3,0.1,0.5,0.2,0.7
		c0.1,0.2,0.2,0.4,0.3,0.7c-0.3-0.1-0.6-0.2-0.9-0.3c0.2,0.5,0.3,0.8,0.4,1.1c-0.8,0.1-0.9-0.3-0.6-2.1c-0.5,0-0.9-0.1-0.6-0.8
		c0-0.1,0-0.3-0.1-0.4c-0.5-0.3-0.6-0.7-0.7-1.1c-0.1-0.5-0.4-1-0.6-1.5c-0.1,0-0.1,0-0.2,0c-0.3,1.1-0.7,2.3-1,3.4
		c-0.1,0.2-0.3,0.4-0.5,0.6c-0.1,0-0.1-0.1-0.2-0.1c0.1,0.4,0.1,0.8,0.2,1.1c-0.2,0.1-0.5,0.2-0.6,0.3c0.1,0.6,0.3,1.1,0.4,1.7
		c-0.6-0.2-1-0.3-1.4-0.4c0.4-0.8,0.4-0.8-0.2-1.3c-0.1,0-0.1-0.1-0.1-0.2c0.2-0.7-0.2-1.2-0.5-1.7c-0.2-0.5-0.4-1-0.7-1.7
		c-0.3,0.5-0.5,0.9-0.7,1.3c-0.2,0.5-0.6,1-0.6,1.6c0,0.6-0.2,0.8-0.7,0.9c0.3,1.2,0.3,1.8-0.2,2.2c0.1,0.5,0.1,0.9,0.2,1.3
		c-0.4-0.2-0.7-0.3-0.9-0.5c-0.1-0.1-0.2-0.2-0.3-0.3c-0.1-0.2-0.2-0.4-0.2-0.6c-0.1-0.1-0.2-0.4-0.1-0.4c0.5-0.4,0-0.6-0.1-0.9
		c-0.2-0.4-0.3-0.7-0.4-1.1c-0.1-0.2-0.2-0.4-0.3-0.6c-0.6,1.3-1.1,2.4-1.6,3.7c-0.8-0.6,0.1-1.2-0.2-1.8c-1.3,0.3-0.6-1.4-1.4-1.6
		c-0.2,0.5-0.4,1-0.7,1.3c-0.5,0.5-0.5,1-0.4,1.5c0,0.1,0,0.3,0,0.4c-0.4-0.1-0.8-0.2-1.1-0.3c0.1-0.1,0.2-0.3,0.3-0.5
		c-1.2-1-1.5-2.3-2.2-3.7c-0.2,0.9-0.5,1.5-0.6,2.2c-0.1,0.5-0.5,0.9-1,0.9c-0.2,0-0.5-0.5-0.7-0.9c-0.3-0.7-0.5-1.5-0.8-2.2
		c-1,0.8-0.5,2.2-1.4,2.9c-0.2,0.2-0.3,0.4-0.5,0.8c0,0,0.1,0.3,0.2,0.4c-0.4,0.2-0.7,0.3-1.1,0.5c0.1-0.5,0.2-1,0.2-1.5
		c-0.9-0.2-0.6-1.1-1.2-1.5c-0.1,0.4-0.4,0.7-0.4,1c0,0.5-0.3,0.5-0.6,0.5c-0.1,0-0.3,0-0.5-0.1c0.2,0.6,0.4,1.1,0.5,1.4
		c-0.3,0.4-0.7,0.6-0.7,0.7c0.1,0.3,0.3,0.6,0.5,1c-0.9,0-0.7-0.6-0.7-1.1c-0.9,0.1-0.5-0.6-0.7-1c-0.3-0.4-0.4-0.9-0.6-1.5
		c-0.5,1.2-1,2.2-1.4,3.2c0,0-0.1-0.1-0.1-0.1c-0.1,0.4-0.1,0.8-0.2,1.1c-0.1,0-0.2,0-0.3,0c-0.2-0.4-0.5-0.9-0.7-1.3
		c-0.2-0.5-0.4-1-0.7-1.7c-0.5,1.2-0.9,2.2-1.4,3.2c-0.1,0-0.2-0.1-0.2-0.1c0.1-0.3,0.1-0.6,0.1-0.7c-0.4-0.6-0.7-1.1-1-1.6
		c-0.3,0.8-0.7,1.5-1,2.4c-0.5-0.6-0.9-1.2-1.4-1.7c-0.3,0.7-0.6,1.4-0.9,2.1c0,0-0.3,0-0.5-0.1c0,0.2,0,0.4,0.1,0.6
		c0,0.2,0.1,0.4,0.2,0.6c-0.1,0-0.1,0-0.2,0.1c-0.4-0.8-0.8-1.6-1.2-2.4c-0.7,0.8-0.3,2.1-1.5,2.5c-0.1-0.2-0.3-0.5-0.5-0.8
		c-0.1,0.4-0.2,0.7-0.3,0.9c-0.1,0-0.1,0-0.3,0.7c-0.2,0.1-0.4,0.2-0.5,0.3c-0.1-0.3-0.3-0.7-0.5-1.2c-0.6,1.3-1,2.4-1.6,3.7
		c-2.3,0-4.8,0-7.3,0c0,0.1,0,0.2,0,0.3c0.7,0.2,1.5,0.6,2.2,0.7c1.9,0.1,3.8,0.2,5.6,0.1c2.2-0.1,4.3-0.5,6.5-0.6
		c0.7,0,1.5,0.2,2.2,0.3c0.2,0,0.5,0.1,0.7,0.1c1.8-0.4,3.6-1,5.4-1.3c3-0.6,6-0.8,9-0.2c0.6,0.1,1.2,0.4,1.8,0.6c0,0.1,0,0.2,0,0.2
		c-6.2,2.3-12.6,3.8-19.3,4.2c2.3,0.2,4.6,0.4,6.9,0.3c2.8-0.1,5.6-0.4,8.3-0.9c3.3-0.6,6.5-1.9,9.7-3.1c3.1-1.2,6.2-2.2,9.3-3.3
		c0,0.1,0.1,0.1,0.1,0.2c-2,1.3-3.6,2.9-4.7,5c0.9-0.4,1.7-0.9,2.5-1.3c2.3-1.1,4.6-2.2,7-3.2c3.3-1.3,6.7-2.3,10.2-2.8
		c2.4-0.4,4.8-0.8,7.3-1c2.9-0.2,5.9-0.1,8.8,0c2.2,0.1,4.4,0.2,6.5,0.5c3.7,0.6,7.4,1.2,11,2.1c3.1,0.8,6.2,1.8,9.3,3
		c3.5,1.4,6.9,3,10.4,4.5c0.5,0.2,1,0.4,1.5,0.6c0-0.1,0.1-0.1,0.1-0.2c-3.1-2.9-6.7-5.1-10.6-7.2c4.6-1.2,9.1-1.4,13.7-1
		c-2.2,0.6-4.5,1.2-6.6,2.5c0.5,0.1,0.7,0.2,1,0.2c1.9,0.2,3.9,0.4,5.8,0.7c4.5,0.6,8.8,2.4,13.1,3.6c2.5,0.7,5,1.5,7.6,1.9
		c2.2,0.4,4.4,0.4,6.6,0.3c2.1,0,4.2-0.4,6.3-0.6c0.9-0.1,1.8-0.4,2.6-0.6c0-0.1,0-0.2-0.1-0.3c-1.2,0.1-2.4,0.2-3.7,0.2
		c-2.9-0.1-5.8-0.1-8.6-0.5c-2.7-0.4-5.4-1.2-8.1-2.1c-3.4-1.2-6.7-2.7-10.4-3.5c4.4-0.8,8.5-0.9,12.8-0.4c-0.2-0.2-0.4-0.4-0.6-0.4
		c-1-0.4-2-0.7-3-1.1c-3.1-1.1-6.3-1.9-9.6-2.5c-2.8-0.5-5.5-0.9-8.3-0.9c-2.8,0-5.6-0.1-8.4,0.4c-2.2,0.5-4.5,0.8-6.6,1.4
		c-1.4,0.4-2.2-0.4-3.3-0.7c0.2-0.2,0.4-0.2,0.6-0.3c5-2.1,10.2-2.9,15.5-3c1.6,0,3.3,0.1,4.9,0.3c2.3,0.3,4.6,0.5,6.8,1
		c3.5,0.8,7,1.7,10.5,2.7c3.4,1,6.7,2.3,10.1,3.4c4.1,1.3,8.3,2.7,12.4,3.9c3.5,1,7.2,1.5,10.9,0.8c0.9-0.2,1.8-0.6,2.7-0.8
		c0-0.1,0-0.2-0.1-0.3c-0.4,0-0.7,0-1.1,0c-1.9,0.3-3.8,0.2-5.7-0.1c-0.5-0.1-0.6-0.3-0.6-0.8c0-0.2,0.1-0.4,0.1-0.5
		c-0.2-0.1-0.5-0.2-0.5-0.3c0-0.6-0.4-1-0.7-1.5c-0.2-0.5-0.4-1-0.6-1.5c-0.6,0.4-0.3,1.4-1.3,1.2c0.2-0.4,0.3-0.9,0.5-1.5
		c-1.1,0.7-1-0.3-1.3-0.7c-0.4,0.6-0.8,1.1-1.1,1.6c-0.1,0-0.2,0-0.3-0.1c0-0.4,0.1-0.7,0.1-1.1c-0.1,0-0.3-0.1-0.3-0.1
		c-0.4-1.1-0.8-2.1-1.2-3.1c-0.1,0-0.2,0-0.2,0c-0.3,0.7-0.5,1.4-0.8,2c-0.3,0-0.7,0-1.1,0.1c0-0.4,0.1-1,0-1.4
		c-0.3-0.6-0.7-1.1-1.2-1.8c-0.1,0.4-0.2,0.8-0.4,1.2c-0.2,0.3-0.6,0.5-0.9,0.7c-0.2-0.3-0.4-0.5-0.4-0.8c0-0.4,0.1-0.7,0.2-1.1
		c-0.1,0-0.2,0.1-0.2,0.1c-0.2-0.3-0.6-0.6-0.7-0.9c-0.3-0.8-0.5-1.7-0.8-2.5c-0.1,0-0.1,0-0.2,0.1c-0.6,1.2-1.3,2.3-1.9,3.6
		c-0.2,0.1-0.6,0.3-1.1,0.5c0.3-0.9-0.4-1.5-0.1-2.4c0.1-0.2,0.1-0.8-0.5-0.9c-0.1,0-0.2-0.2-0.2-0.4c-0.3-0.8-0.6-1.6-0.9-2.5
		c-0.1,0-0.2,0-0.3,0c-0.1,0.3-0.1,0.5-0.2,0.8c0,0.2,0,0.4-0.1,0.6c-0.2,0.4-0.8,0.7-0.5,1.4c0,0.1-0.2,0.3-0.3,0.4
		c-0.1,0.1-0.2,0.2-0.2,0.3c0,0.5,0,0.5-0.6,0.5c0.3-0.6,0.3-0.5-0.3-0.9c-0.2-0.1-0.2-0.5-0.2-0.8c0-0.2,0.3-0.4,0.5-0.7
		c-0.5-0.1-0.8-0.1-1-0.2c0.1-0.4,0.3-0.9,0.4-1.2c-0.4-0.2-0.7-0.4-0.7-0.4c0.2-0.7,0-1.2-0.5-1.7c-0.1-0.1-0.1-0.3-0.2-0.4
		c-0.1-0.3-0.3-0.7-0.4-1c-0.1,0-0.1,0-0.2,0c-0.2,0.6-0.4,1.2-0.7,1.8c-0.2,0.4-0.7,0.8-0.4,1.3c-0.2,0.1-0.5,0.2-0.7,0.2
		c-0.1,0-0.3-0.3-0.3-0.5c0-0.6,0-1.3,0-1.9c-0.7,0-0.8-0.2-0.6-0.7c-0.5-1.2-0.9-2.1-1.2-3c-0.5,1.3-1.5,2.3-1.4,3.7
		c-0.2,0.2-0.5,0.4-0.5,0.6c0.1,0.6-0.2,0.6-0.7,0.7c0.2-0.4,0.4-0.8,0.6-1.2c-0.4,0-0.7,0.1-1.1,0.1c0.3-0.6,0.6-1.1,0.9-1.7
		c-0.4,0.1-0.6,0.1-0.8,0.1c0.2-0.5,0.4-1,0.6-1.5c-0.1,0-0.1-0.1-0.2-0.1c-0.2,0.1-0.4,0.2-0.8,0.4c0.6-1.1-0.5-1.6-0.7-2.4
		c-0.6,0.3-0.2,1.6-1.4,0.9c0.2,0.6,0.3,1,0.5,1.5c-1.4,0-0.2,0.8-0.4,1.2c-0.5-0.2-1-0.4-1.5-0.6c0.1-0.4,0.1-0.9,0.1-1.2
		c-0.3-0.2-0.7-0.4-0.7-0.5c0.4-1.3-0.7-2.1-1-3.1c0-0.2-0.2-0.4-0.4-0.7c-0.4,1-0.6,1.8-0.9,2.6c-0.1,0.3-0.5,0.5-0.4,0.8
		c0.1,0.7-0.2,0.9-0.7,0.9c0.2,2,0.2,2-1,2.3c0.2-0.6,0.3-1.1,0.4-1.6c-0.2-0.1-0.4-0.2-0.4-0.2c-0.1-0.6-0.3-1.1-0.2-1.5
		c0.2-0.5,0.3-0.8-0.3-1.1c-0.2-0.1-0.2-0.5-0.3-0.7c0-0.1,0-0.3-0.1-0.5c-0.2-0.4-0.4-0.8-0.6-1.2c-0.3-0.6-0.5-1.2-0.8-1.8
		c-0.1,0-0.2,0-0.2,0c-0.3,1.5-1.6,2.6-1.2,4.3c-0.3-0.2-0.5-0.2-0.7-0.3c-0.1,0-0.1,0.1-0.2,0.1c0.2,0.6,0.4,1.1,0.5,1.7
		c-0.4,0.1-0.7,0.1-1.2,0.2c0.2,0.4,0.4,0.5,0.5,0.7c0.1,0.2,0.2,0.5,0.2,0.8c0,0.2-0.2,0.3-0.4,0.4c-0.1,0-0.4-0.1-0.4-0.1
		c0-0.2,0.1-0.3,0.2-0.5c0-0.1,0.1-0.2,0.2-0.4c-0.4,0-0.8,0.1-1.3,0.1c0.4-0.8,0.8-1.4,1.1-2.1c-0.1,0-0.1-0.1-0.2-0.1
		c-0.3,0.1-0.6,0.2-0.9,0.4c-0.2-0.8,1-1.2,0.5-2c-0.3,0.1-0.6,0.2-1,0.4c0.1-0.4,0.2-0.6,0.2-0.9c0-0.2-0.1-0.5-0.2-0.6
		c-0.1-0.2-0.4-0.3-0.5-0.5c-0.1-0.3-0.2-0.6-0.3-0.9c-0.1,0-0.2,0-0.2,0c-0.1,0.3-0.2,0.6-0.3,0.9c-0.1,0.5-0.2,0.9-0.8,0.5
		c-0.1,0-0.2,0-0.4,0c0.2,0.6,0.4,1.1,0.6,1.7c-0.4,0-0.6,0-1-0.1c0.3,0.6,0.5,1,0.7,1.5c-0.4,0-0.8-0.1-1.3-0.2
		c0.4,0.7,0.7,1.3,1.1,2c-0.7-0.2-1.2-0.4-1.7-0.6c0.1-0.5,0.2-0.9,0.2-1.4c-0.3,0-0.5,0.1-0.7,0.1c-0.1-1.6-0.7-3-1.5-4.4
		c-0.6,1-0.5,2.4-1.5,3.2c0.2,1.1,0,1.2-0.8,1.2c0.2,1,0.4,2-0.3,2.8c0.1,0.4,0.1,0.8,0.2,1.3c-1-0.1-1.1-0.2-0.7-1
		c-0.5-0.8-0.5-1.6-0.4-2.3c-0.3-0.2-0.6-0.4-0.6-0.5c0.2-0.6-0.3-0.9-0.5-1.3c-0.2-0.6-0.5-1.2-0.8-2.1c-0.2,0.5-0.4,0.8-0.5,1.1
		c-0.1,0.2-0.1,0.6-0.3,0.7c-0.7,0.4-0.4,1-0.3,1.6c-1.4,0.2-0.7,1-0.4,1.5c-0.4,0.1-0.7,0.2-1,0.3c0.7,1.4,0.7,1.4-0.7,1.9
		c0.1-0.5,0-0.5-0.4-1.3c-0.1-0.1,0-0.2,0-0.4c-0.3-1.1-0.7-2.1-1-3.2c-0.8,1.3-0.9,2.8-1.9,3.8c0,0.6-0.1,1.3-0.1,1.8
		c-0.5-0.1-0.9-0.2-1.3-0.2c0.5-1,0.5-1-0.3-1.2c0.1-0.4,0.2-0.8,0.4-1.3c-1.3,0.4-0.6-1-1.4-1.2c0,0.9-1.2,1.4-0.6,2.5
		c-0.3-0.1-0.6-0.2-1-0.3c0.2,0.6,0.4,1.1,0.6,1.5c-0.5,0.2-1,0.5-1.4,0.6c0-0.4,0.1-0.8,0.1-1.1c0-0.2-0.1-0.5-0.1-0.7
		c0.1-0.3,0.2-0.6,0.3-0.9c-1,0-1.1-0.3-0.9-1.1c-0.3-0.5-0.9-0.9-0.8-1.2c0.2-1-0.8-1.4-0.9-2.2c-0.4,0.8-0.6,1.5-0.9,2.3
		c-0.1,0.2-0.3,0.3-0.5,0.5c0,0.3-0.1,0.6-0.1,0.9c-0.4,0-0.6,0-0.8,0c0.1-0.6,0.2-1.2,0.3-1.9c-0.3,0.1-0.5,0.2-0.7,0.3
		c-0.2-1.9-1-3.7-1.9-5.5c-0.1,0.4-0.2,0.6-0.3,0.8c-0.1,0.3-0.2,0.5-0.3,0.8c-0.1,0.2-0.4,0.5-0.4,0.6c0.2,0.8-0.2,1.3-0.6,1.6
		c-0.1,0.6-0.1,1.1-0.2,1.5c0,0.1-0.5,0.1-0.8,0.1c0,0,0.1,0.1,0.1,0.1c-0.3,0.2-0.6,0.4-0.9,0.6c-0.3-1,1.1-1.3,0.5-2.3
		c-0.3,0.2-0.6,0.3-0.9,0.5c0-0.6,0.1-1.1,0.1-1.8c-0.3,0.1-0.4,0.2-0.5,0.3c-0.2-0.6-0.4-1.3-0.6-2.1c-0.3,0.8-0.6,1.5-0.8,2.1
		c-0.3-0.1-0.5-0.2-0.7-0.3c-0.1,0-0.1,0.1-0.2,0.1c0.1,0.3,0.3,0.6,0.4,0.9c0.1,0.3,0.1,0.6,0.2,0.8c-0.3,0-0.5,0.1-1,0.1
		c0.2,0.5,0.5,1,0.7,1.5c-0.4-0.1-0.8-0.2-1.4-0.3c0.5,0.9,0.8,1.6,1.2,2.3c-0.7-0.2-1.2-0.4-1.9-0.6c0-0.5-0.1-1-0.1-1.6
		c-0.9-0.6-0.7-1.8-1.4-2.7c-0.1,0.4-0.1,0.8-0.2,1.1c-0.3,0.2-0.5,0.4-0.6,0.7c-0.1,0.3-0.1,0.9-0.3,1c-0.4,0.3-0.3,0.5-0.3,0.8
		C952.2,563.2,951.9,563.6,951.3,563.4z M905.2,558.3c0.4-0.3,0.7-0.6,1-0.9c0.9-1,1.7-2,2.6-3c0.9-1.1,1.9-2.1,2.9-3.2
		c0.7-0.8,1.3-1.6,2.1-2.3c0.9-0.9,1.9-1.6,2.9-2.4c0.5-0.4,0.9-0.9,1.4-1.3c0.3-0.2,0.6-0.4,0.8-0.7c0.1-0.1,0.1-0.2,0.2-0.3
		c0.5-0.3,1-0.6,1.5-0.9c0.2-0.1,0.5-0.3,0.9-0.5c-0.1,0.4-0.2,0.6-0.3,0.8c-0.4,1.1-0.6,2.2-1.1,3.3c-0.3,0.7-0.9,1.2-1.3,1.8
		c-0.3,0.3-0.5,0.7-0.8,1c-0.6,0.6-1.2,1.2-1.7,1.8c0,0.1,0,0.2,0.1,0.3c0.3,0,0.6,0.1,0.9,0c0.7-0.2,1.4-0.4,2.2-0.6
		c0.7-0.2,1.4-0.3,2.1-0.5c0.5-0.1,1.1-0.3,1.8-0.6c-0.7,0.8-1.2,1.4-1.8,2c-0.5,0.5-1,0.9-1.6,1.3c-0.9,0.8-1.9,1.6-2.9,2.3
		c-0.8,0.6-1.8,1-2.6,1.6c-0.2,0.1-0.4,0.4-0.7,0.5c-0.8,0.4-1.6,0.7-2.3,1.1c-0.2,0.1-0.3,0.4-0.4,0.6c0.3,0.1,0.6,0.3,0.9,0.4
		c1.1,0,2.1,0,3.2-0.1c1.2-0.1,2.4-0.4,3.7-0.7c-2.9,4.6-7.3,7.4-11.7,10.3c0.2,0.1,0.3,0.1,0.4,0.1c1.6,0.2,3-0.4,4.4-1
		c1.8-0.7,3.8-1,5.4-2.3c0.8-0.6,1.8-0.6,2.7-1.2c1-0.7,2.2-1.1,3.4-1.6c0.6-0.3,1.2-0.6,1.7-1c1.1-0.7,2.1-1.4,3.1-2.1
		c0.7-0.4,1.3-0.9,2-1.4c0,0,0.1,0.1,0.1,0.1c-0.4,0.7-0.9,1.3-1.4,2.1c0.3,0.1,0.5,0.3,0.7,0.3c0.9-0.1,1.8-0.3,2.7-0.6
		c0.7-0.2,1.4-0.6,2-0.9c1.1-0.5,2.2-0.9,3.2-1.4c0.4-0.2,0.7-0.6,1.1-0.8c1.5-0.9,3-1.7,4.6-2.5c-0.2,0.6-0.3,1.4-0.6,2.1
		c-0.3,0.7-0.6,1.3-1,1.9c-0.2,0.4-0.4,0.8,0.3,1c0.3-0.2,0.7-0.4,1-0.6c0.9-0.9,1.7-1.9,2.6-2.9c0.5-0.6,1.3-1.1,1.6-1.7
		c0.7-1.4,2-2.3,2.8-3.5c0.3-0.4,0.5-0.9,0.8-1.3c0.5-0.7,1.1-1.3,1.6-1.9c0.3-0.4,0.6-0.7,1-1c0.7-0.7,1.5-1.4,2.2-2.2
		c0.6-0.7,1.2-1.5,1.9-2.1c0.7-0.6,1.5-1.1,2.2-1.6c0.7-0.5,1.4-1.1,2.1-1.6c0-0.1-0.1-0.1-0.1-0.2c-0.2,0-0.4-0.1-0.6-0.1
		c-0.9,0.2-1.9,0.3-2.8,0.7c-1.4,0.6-2.8,0.9-4.1,1.7c-0.6,0.4-1.4,0.7-2.1,1c-0.2,0.1-0.4,0.2-0.6,0.3c0-1.5,1.3-2.1,2-3
		c0.5-0.7,1.2-1.2,1.9-1.8c0-0.1-0.1-0.2-0.1-0.3c-0.2,0-0.5-0.2-0.7-0.1c-0.5,0.1-0.9,0.4-1.4,0.5c-0.8,0.2-1.6,0.4-2.2,1
		c-0.3,0.3-0.7,0.4-1.3,0.6c0.3-0.5,0.5-0.9,0.8-1.2c1.1-1.1,2.1-2.2,3.3-3.2c0.5-0.4,0.8-1.1,1.5-1.3c0.4-0.1,0.6-0.7,0.9-1
		c1-0.8,2-1.5,2.9-2.2c0.5-0.4,0.9-0.9,1.4-1.2c0.9-0.6,1.8-1,2.7-1.6c0.4-0.3,0.8-0.7,1.2-1.1c-0.3-0.1-0.5-0.2-0.7-0.2
		c-0.6,0.1-1.2,0.2-1.7,0.3c-1.2,0.4-2.3,0.8-3.5,1.2c-1.2,0.5-2.4,1.1-3.6,1.7c-0.3,0.1-0.5,0.3-0.8,0.4c1.5-2.1,3.9-3.2,5.7-4.9
		c-0.4-0.5-1.4-0.6-1.8-0.2c-0.2,0.2-0.5,0.3-0.8,0.3c-0.4,0.1-0.8,0.2-1.1,0.3c-1.3,0.5-2.7,1-4,1.5c-0.1-2.1,7.9-12.6,10.9-14.5
		c-0.2,0.4-0.5,0.8-0.6,1.3c-0.1,0.3-0.1,0.7-0.1,1c0,0.1-0.1,0.4,0,0.4c0.1,0.1,0.3,0.1,0.5,0c0.8-0.4,1.5-0.8,2.5-1.3
		c-0.6,0.9-1,1.7-1.5,2.4c-0.7,1-1.5,2-2.2,3c-0.3,0.4-0.1,0.7,0.1,0.8c2.3-1.2,4.4-2.4,6.6-3.7c0,0,0.1,0.1,0.1,0.1
		c-0.2,0.2-0.4,0.4-0.6,0.7c-0.5,0.6-0.8,1.4-1.4,1.9c-0.7,0.5-0.9,1.3-1.3,1.9c-0.2,0.3-0.1,0.7,0.3,0.6c0.5-0.1,0.9-0.5,1.3-0.8
		c0.3-0.2,0.5-0.5,0.8-0.6c0.5-0.3,1.1-0.6,1.7-0.9c0.3-0.2,1.6-0.5,1.7-0.3c0.4,0.5,0.8,1.1,1.2,1.6c0.9,1.1,1.7,2.3,2.8,3.2
		c0.7,0.6,1.4,1.3,2,2c0.1,0.1,0.2,0.5,0.1,0.7c-0.5,0.8-1.1,1.5-1.7,2.3c-0.6,0.8-1.3,1.5-1.9,2.3c-1.2,1.5-2.4,3-3.6,4.4
		c-0.2,0.3-0.5,0.4-0.7,0.7c-0.1,0.1-0.1,0.4-0.1,0.4c0.1,0.1,0.3,0.2,0.5,0.1c0.6-0.3,1.1-0.5,1.6-0.9c1.4-1,2.8-2.1,4.2-3.2
		c0.8-0.6,1.5-1.2,2.2-1.8c0.1,0.1,0.1,0.1,0.2,0.2c-0.7,0.5-0.6,1.5-1.4,2.1c-0.9,0.7-1.4,1.8-2,2.7c-0.1,0.1-0.1,0.5,0,0.6
		c0.1,0.1,0.4,0.1,0.6,0c0.4-0.2,0.8-0.4,1.2-0.6c0.9-0.5,1.8-1,2.7-1.5c0.7-0.4,1.4-0.9,2.2-1.3c-1.3,1.9-2.8,3.5-4.1,5.3
		c-1.3,1.7-2.5,3.6-3.9,5.3c-1.4,1.7-2.9,3.4-4.4,5.1c0.1,0.1,0.2,0.2,0.3,0.3c3.9-2.4,7.4-5.3,11-8.1c-0.5,0.7-1.1,1.4-1.6,2
		c-0.8,1-1.8,2-2.5,3c-0.7,0.9-1.3,1.8-1.8,2.8c-0.3,0.4-0.4,1-0.5,1.5c0.5-0.2,1-0.3,1.5-0.6c1.1-0.5,2.2-1,3.3-1.5
		c0.1,0.1,0.1,0.1,0.2,0.2c-0.3,1.2-0.6,2.4-0.9,3.6c-0.1,0.3-0.2,0.6-0.4,0.7c-1.6,1.3-2.6,3.1-3.8,4.7c-0.8,1.1-1.4,2.4-2.1,3.6
		c-0.1,0.2-0.2,0.7-0.1,0.8c0.2,0.2,0.6,0.4,1,0c1.2-1,2.4-2,3.8-2.6c0.1-0.1,0.2-0.2,0.3-0.2c0.7-0.5,1.4-1,2-1.5
		c0.7-0.5,1.4-1,2.1-1.4c0.2-0.1,0.4-0.2,0.6-0.3c0.8-0.4,1.7-0.8,2.5-1.2c0.6-0.3,1.1-0.6,1.7-0.8c-0.5,1-1.1,2-1.6,3
		c-0.1,0.1-0.1,0.3,0,0.4c0.1,0.2,0.1,0.4,0.3,0.5c0.1,0,0.4-0.1,0.5-0.2c0.2-0.2,0.4-0.5,0.6-0.7c0.6-0.5,1.3-0.9,1.9-1.4
		c1.1-0.8,2-1.7,3.1-2.4c0.9-0.6,2-1.1,3-1.5c0.4-0.2,0.9-0.3,1.3-0.5c0.4-0.2,0.8-0.4,1.2-0.6c-0.3,0.6-0.6,1.1-0.9,1.5
		c-0.6,0.8-1.3,1.7-1.8,2.5c-0.2,0.4-0.5,1,0.1,1.2c1.7-1,3.1-2.1,4.8-2.7c1.6-0.6,3.4-1.2,5.2-0.7c-0.5,0.7-0.9,1.2-1.3,1.8
		c-0.1,0.1-0.1,0.4-0.1,0.5c0.2,0,0.4,0.1,0.6,0.1c0.4-0.1,0.8-0.3,1.2-0.4c0.4-0.1,0.8-0.3,1.1-0.3c0.9,0.2,1.9,0.5,2.8,0.8
		c0.3,0.1,0.6,0.4,0.9,0.7c0.4,0.3,0.9,0.6,1.2,0.9c0.9,0.8,1.7,1.7,2.6,2.6c0.1,0.1,0.1,0.5,0,0.7c-0.1,0.2-0.5,0.2-0.6,0.3
		c-0.2,0.1-0.3,0.3-0.5,0.6c0,0.1,0.1,0.3,0.2,0.4c0.4,0.2,0.7,0.3,1.1,0.5c0.9,0.4,1.8,0.7,2.6,1.1c0.8,0.5,1.6,0.8,2.3,1.5
		c0.7,0.7,1.7,1.2,2.6,1.7c0.5,0.3,1.1,0.5,1.7,0.8c0.6,0.3,1.1,0.7,1.6,0.9c0.6,0.2,1.2,0.6,1.9,0c-0.1-0.2-0.2-0.6-0.4-0.7
		c-0.9-0.6-1.7-1.3-2.5-2.2c-0.6-0.8-1.5-1.3-2.2-2.1c-0.7-0.8-1.6-1.5-2.3-2.3c-0.8-0.9-1.4-1.9-2.1-2.9c0-0.1,0-0.1-0.1-0.2
		c-0.6-0.9-1-1.8-1.7-2.6c-0.3-0.4-0.2-0.6,0-0.9c3.4,0.4,6.7,0.9,9.9,2.4c-1.7,0.4-3.6,0.2-5.2,1.5c0.4,0.2,0.6,0.4,0.9,0.4
		c0.9,0.1,1.9,0.1,2.8,0.2c1,0.2,1.9,0.6,2.9,0.8c0.5,0.2,1.1,0.2,1.6,0.4c0.8,0.3,1.5,0.7,2.2,1.1c0.2,0.1,0.5,0,0.7,0.2
		c0.6,0.3,1.1,0.7,1.6,1.1c1.2,0.8,2.4,1.5,3.5,2.3c0.4,0.3,0.9,0.6,1.3,0.9c0.6,0.4,1.2,0.9,1.8,1.4c0.6,0.5,1.2,1,1.8,1.4
		c0.8,0.6,1.7,1.1,2.5,1.7c1.6,1.1,3.2,2.3,4.8,3.4c0.3,0.2,0.7,0.2,0.9,0.4c1.2,1,2.7,1.5,4.2,2c0.2-0.5,0.2-0.8-0.3-1.2
		c-1.1-0.8-2.1-1.6-3.1-2.4c-0.4-0.3-0.7-0.7-1.1-1c-0.7-0.5-1.4-0.9-2-1.5c-0.9-0.8-1.7-1.7-2.5-2.6c-0.8-0.8-1.6-1.6-2.4-2.5
		c-0.9-0.9-1.7-1.9-2.6-2.9c-0.6-0.6-1.2-1.3-1.8-1.9c-0.9-1-1.7-2-2.7-2.9c-0.8-0.9-1.7-1.7-2.5-2.5c-0.2-0.2-0.3-0.5-0.5-0.7
		c-0.8-0.6-1.6-1.3-2.1-2.2c0-0.1-0.1-0.2-0.2-0.2c-0.6-0.4-1.3-0.7-1.9-1.3c-1.1-1.1-2.5-1.4-3.8-1.9c-0.6-0.2-1.1-0.5-1.6-0.9
		c-0.6-0.5-1-1.2-1.5-1.8c-0.9-1.1-1.9-2.1-2.9-3.2c-0.5-0.5-1.1-0.9-1.6-1.4c-0.6-0.7-1.3-1.2-2.3-1.2c-0.2,0-0.5,0.2-0.6,0.1
		c-0.5-0.4-1-0.8-1.5-1.2c-0.6-0.5-1.3-1.1-2-1.5c-1-0.5-2-0.9-3-1.4c-0.6-0.3-1.3-0.4-1.9-0.8c-0.7-0.4-1.5-0.9-2.1-1.4
		c-0.6-0.5-1.1-1.2-1.6-1.8c0.3-0.2,0.7-0.7,1.2-0.8c1.3-0.3,2-1.4,2.9-2.1c1.1-0.9,2.3-1.8,2.9-3.2c0-0.1,0.2-0.2,0.3-0.3
		c0.4-0.5,0.9-1,1.3-1.6c0.3-0.5,0.6-1,1.2-1c0.5,0,1,0.1,1.5,0.1c1.2,0.2,2.4,0.5,3.7,0.7c0.9,0.2,1.9,0.2,2.8,0.4
		c1.6,0.4,3.1,0.8,4.6,1.2c1,0.3,2.1,0.5,3.1,0.8c0.7,0.2,1.4,0.5,2.1,0.7c1,0.3,2,0.7,3,1c0.4,0.1,0.9,0.1,1.4,0.2
		c0-0.1,0.1-0.2,0.1-0.3c-0.4-0.3-0.7-0.6-1.1-0.8c-1.5-0.7-3-1.5-4.5-2.2c-0.8-0.4-1.7-0.6-2.5-0.9c-0.3-0.1-0.6-0.2-0.9-0.3
		c-1-0.3-2.1-0.7-3.1-1c-1.3-0.3-2.6-0.6-3.9-0.8c-1.5-0.2-2.9-0.4-4.4-0.6c-0.5-0.1-1.2-0.6-1.1-1c0.2-0.4,0.4-0.9,0.6-1.4
		c0.8,0.2,1.7,0.4,2.5,0.6c0.9,0.2,1.7,0.3,2.6,0.4c0.5,0.1,1,0.2,1.5,0.3c0.5,0.1,0.9,0.3,1.4,0.5c0.8,0.2,1.7,0.4,2.5,0.7
		c1,0.3,1.9,0.7,2.8,1c1.5,0.5,3,1,4.4,1.5c0.5,0.2,1,0.4,1.4,0.6c0.6,0.3,1.1,0.6,1.7,0.8c0.8,0.4,1.6,0.7,2.4,1.1
		c1.3,0.6,2.5,1.3,3.7,1.9c0.3,0.1,0.6,0.1,0.9,0.1c0-0.1,0.1-0.1,0.1-0.2c-0.6-0.6-1.1-1.2-1.7-1.7c-0.6-0.5-1.3-1-2-1.3
		c-0.9-0.4-1.7-1.2-2.7-1.4c-0.6-0.1-1.1-0.7-1.7-1c-0.6-0.3-1.2-0.5-1.8-0.7c-1-0.4-1.9-0.8-2.9-1.2c-1.3-0.5-2.6-1-3.8-1.4
		c-0.1,0-0.2-0.1-0.3-0.1c-0.9-0.2-1.8-0.4-2.6-0.6c-1-0.3-2.1-0.5-3.1-0.8c-0.5-0.1-1.1-0.2-1.6-0.3c-0.8-0.2-1.6-0.6-2.4-0.7
		c-0.8-0.1-0.6-0.6-0.6-1.1c0.2-1.3,0.5-2.5,0.6-3.8c0.1-1.2-0.1-2.4-0.3-3.7c-0.1-0.8-0.3-1.6-0.5-2.4c-0.1-0.4-0.1-0.7-0.2-1.1
		c-0.3-0.9-0.7-1.8-1-2.7c-0.5-1.4-1.1-2.7-2.1-3.7c-0.4-0.4-0.8-0.8-1-1.3c-0.4-1.1-1.4-1.7-2.1-2.5c-0.6-0.6-1.3-1.1-2-1.6
		c-1-0.7-2-1.5-3-2.2c-0.2-0.1-0.5-0.1-0.7-0.3c-0.6-0.3-1.2-0.8-1.8-1c-0.9-0.3-1.8-0.8-2.8-0.8c-1.1,0-2.3-0.6-3.4-0.7
		c-2.7-0.2-5.4-0.2-8,0.5c-1.5,0.4-3,0.7-4.3,1.4c-1,0.5-1.9,1.2-2.8,1.8c-0.9,0.5-1.8,1-2.5,1.7c-0.8,0.6-1.5,1.4-2.2,2.2
		c-0.3,0.3-0.6,0.6-0.8,0.9c-0.5,0.6-0.9,1.3-1.4,2c-0.6,0.9-1.2,1.8-1.7,2.8c-0.4,0.8-0.7,1.6-1,2.4c-0.2,0.6-0.4,1.2-0.7,1.8
		c-0.9-1.2-1.8-2.2-2.4-3.3c-0.6-1-1.1-2.1-2-2.8c-0.5-0.4-1-0.5-1.4-0.1c-1,1-1.9,2-2.9,3.1c-0.5,0.6-0.8,1.2-1.3,1.8
		c-0.7,0.9-1.5,1.8-2.3,2.6c-0.2,0.2-0.3,0.4-0.5,0.6c-0.8,0.8-1.8,0.5-2.8,0.7c-1.2,0.2-2.5,0.2-3.7,0.3c-0.7,0.1-1.3,0.2-2,0.3
		c-0.4,0.1-0.8,0.1-1.2,0.1c-0.2,0-0.5,0-0.7,0c-0.2,0-0.5,0.2-0.7,0.2c-0.6,0-1.2,0-1.8,0.1c-0.8,0.1-1.7,0.2-2.5,0.3
		c-0.5,0.1-1.1,0.2-1.6,0.3c-0.6,0.1-1.3,0-1.9,0.1c-1.1,0.1-2.2,0.4-3.3,0.5c-1.6,0.2-3.2,0.5-4.8,0.6c-1,0.1-2.1,0.4-3.1,0.6
		c-0.8,0.1-1.6,0.2-2.5,0.2c0-0.1,0-0.1-0.1-0.2c0.3-0.2,0.5-0.3,0.8-0.5c0.4-0.3,0.9-0.6,1.3-0.8c0.3-0.1,0.6-0.1,0.9-0.3
		c0.5-0.2,1-0.7,1.5-0.8c1-0.1,1.8-0.5,2.5-1.2c0.3-0.3,0.6-0.4,0.9-0.6c0.5-0.3,1-0.6,1.5-1c0.7-0.6,0.7-1.2-0.1-1.6
		c-1.1-0.5-2.3-0.9-3.4-0.9c-2.7,0-5.5,0.1-8.2,0.5c-3.7,0.5-7.3,1.2-10.9,2.1c-4.7,1.1-9.3,2.6-13.8,4.3c-4,1.6-8,3.3-11.6,5.7
		c-0.3,0.2-0.5,0.4-0.8,0.6c0.3,0.1,0.5,0,0.7-0.1c1.8-0.8,3.7-1.7,5.5-2.4c4.7-1.7,9.3-3.5,14.1-4.9c4.9-1.5,10-2.7,15.1-3.5
		c3.1-0.5,6.2-0.6,9.3-0.5c0.5,0,1,0.2,1.4,0.3c0,0.1,0,0.2,0,0.3c-0.5,0.1-1,0.2-1.5,0.4c-0.7,0.2-1.4,0.4-2,0.7
		c-0.7,0.3-1.3,0.7-2,1c-0.9,0.4-1.8,0.7-2.6,1.2c-0.5,0.3-1,0.6-1.3,1c-0.4,0.4-0.7,0.9-0.9,1.4c-0.2,0.7,0.7,1.8,1.5,1.8
		c0.1,0,0.3,0,0.4,0c1.4,0.6,2.8,0.2,4.2,0.2c1.3-0.1,2.6-0.4,3.9-0.7c1.5-0.3,2.9-0.5,4.4-0.7c1-0.1,2-0.1,3-0.3
		c1-0.1,1.9-0.4,2.9-0.5c2-0.3,3.9-0.5,5.9-0.8c1.8-0.2,3.6-0.4,5.5-0.6c0.5-0.1,1.1-0.4,1.6,0.2c-1,1.1-1.9,2.2-3,3.4
		c-6-0.4-12,0.7-18.1,1.5c-6.2,0.8-12.4,2.2-18.3,4.5c1.1-0.1,2.1-0.2,3.1-0.4c2.8-0.5,5.7-1,8.5-1.5c1.7-0.3,3.5-0.6,5.2-0.8
		c1.5-0.2,2.9-0.5,4.4-0.7c1.8-0.2,3.6-0.5,5.4-0.6c2-0.1,4.1,0,6.1-0.5c0.7-0.2,1.5-0.1,2.5-0.2c-1.1,1.6-2.6,2.8-3.9,4.1
		c-1.3,1.3-2.7,2.6-3.9,3.9c-1.4-1.4-2.5-3-4.2-3.9c-0.5-0.3-2-0.1-2.4,0.3c-0.7,0.7-1.4,1.5-2.1,2.2c-0.8,0.9-1.6,1.7-2.4,2.6
		c-0.7,0.7-1.4,1.6-2.3,2.2c-0.9,0.6-1.1,2-2.3,2.3c-0.1,0-0.2,0.3-0.2,0.5c-0.1,0.2-0.1,0.3-0.3,0.4c-1,1-2.1,1.9-3.1,2.9
		c-0.9,0.9-1.8,1.7-2.7,2.6c-1.4,1.3-2.8,2.5-4.1,3.7c-0.9,0.9-1,0.9-2,0c-0.9-0.9-1.9-1.1-3-0.3c-0.4,0.3-0.7,0.7-1.1,1
		c-1.1,1.2-2.4,2.2-3.4,3.5c-0.4,0.5-0.9,1-1.4,1.5c-1.2,1.2-2.4,2.4-3.6,3.6c-0.8,0.8-1.6,1.7-2.3,2.6c-0.7-0.6-1.7-0.6-2-0.1
		c-0.5,0.7-0.9,1.4-1.4,2c-0.6,0.8-1.3,1.5-1.9,2.2c-0.5,0.6-0.9,1.2-1.4,1.8c-0.8,0.9-1.6,1.7-2.4,2.6c-0.7,0.7-1.3,1.5-1.9,2.2
		c-0.2,0.2-0.5,0.4-0.7,0.6c-0.3,0.3-0.4,0.7-0.7,1c-0.5,0.6-1.1,1.1-1.7,1.6c-0.4,0.4-0.8,0.9-1.3,1.3c-1,0.7-1.9,1.5-2.6,2.5
		c-0.1,0.1-0.3,0.2-0.4,0.3c-0.5,0.4-1,0.7-1.5,1.1c-0.8,0.7-1.6,1.5-2.5,2.2c-0.7,0.6-1.6,1-2.4,1.6c-0.3,0.2-0.4,0.6-0.7,0.7
		c-0.9,0.4-0.9,0.4-0.7,1.5c1.1-0.2,2-0.8,2.8-1.4c0.5-0.3,1-0.6,1.5-0.8c0.6-0.3,1.2-0.5,1.7-0.9c1-0.6,1.9-1.3,2.8-1.9
		c1.3-0.9,2.5-1.8,3.7-2.8c1.1-0.8,2.1-1.7,3.1-2.7c0.9-0.9,1.8-1.8,2.7-2.7c0.6-0.7,1.2-1.4,1.9-2c0.6-0.6,1.2-1.1,1.7-1.6
		c0.7-0.7,1.3-1.3,1.9-2c0.3,0.4,0.6,0.7,0.9,1.1c3.3-4.2,6.6-8.4,10.8-11.5c0.1,0.1,0.1,0.1,0.2,0.2c-0.4,0.5-0.8,1-1.4,1.7
		c0.4,0.1,0.8,0.4,1,0.3c0.5-0.1,0.9-0.4,1.3-0.6c0.8-0.4,1.6-0.7,2.4-1.2c0.6-0.4,1.2-0.8,1.9-1.2c0.1-0.1,0.1-0.2,0.2-0.2
		c0.1,0,0.2,0,0.3,0c0,0.7-1.2,1.1-0.1,1.9c0.5-0.3,1-0.6,1.5-0.9c-0.5,0.8-1,1.7-1.7,2.3c-0.9,0.7-2,1.3-3.1,1.8
		c-0.4,0.2-1,0.2-1.5,0.1c-0.9-0.3-1.7-0.7-2.6-1.1c-0.1,0.1-0.3,0.4-0.5,0.6c-0.5,0.5-1.1,0.9-1.5,1.4c-0.7,1-1.3,2.1-2,3.1
		c-0.7,1-1.5,1.9-2.3,2.9c-0.9,1.1-1.7,2.3-2.7,3.3c-1.3,1.2-2.8,2.2-4.3,3.3c-0.7,0.5-1.4,0.9-2.1,1.3c0,0.1,0,0.2,0.1,0.3
		c0.3,0.1,0.6,0.2,0.8,0.2c0.7-0.2,1.3-0.4,1.9-0.6c1.4-0.6,2.9-1.1,4.2-1.9c0.5-0.3,1.1-0.7,1.6-1.1c0.8-0.6,1.5-1.3,2.2-2
		c0.2-0.2,0.4-0.5,0.7-0.7c0.8-0.7,1.7-1.3,2.5-2c1-0.8,2-1.6,2.8-2.3C904.7,556.3,904.1,557.6,905.2,558.3z M915.3,582.8
		c-0.1-0.1-0.2-0.2-0.2-0.3c-7,3.3-14.3,5.4-22,5.7c4.3,1,8.7,0.9,13.1,0.5c0,0.1,0.1,0.2,0.1,0.3c-1.3,0.9-2.5,1.7-4,2.7
		c0.9,0.1,1.7,0.2,2.4,0.1c1.5,0,3.1,0,4.6-0.2c1.8-0.1,3.6-0.3,5.4-0.6c3-0.7,6-1.5,9-2.3c5.5-1.6,11-3.7,16.7-4.8
		c1.7-0.3,3.5-0.7,5.3-0.8c2-0.2,4-0.1,6-0.2c0.8,0,1.5,0.1,2.3,0.1c1,0.1,2,0.1,2.9,0.2c0-0.1,0-0.1,0-0.2
		c-0.2-0.1-0.5-0.2-0.7-0.3c-0.9-0.2-1.9-0.4-2.8-0.5c-2-0.3-4.1-0.6-6.1-0.7c-2-0.1-3.9,0-5.9,0.1c-1.8,0.1-3.7,0.2-5.5,0.6
		c-3.2,0.7-6.4,1.5-9.5,2.3c-2.4,0.7-4.8,1.5-7.2,2.2c-2.7,0.8-5.5,1.5-8.3,1.6C912.2,586.6,913.7,584.7,915.3,582.8z M980.4,584.7
		C980.4,584.6,980.4,584.6,980.4,584.7c-0.1-0.2-0.2-0.2-0.3-0.3c-3.6-1.9-7.5-3.1-11.5-4.2c-2.9-0.8-6-1.4-9-1.8
		c-2.7-0.4-5.4-0.8-8.1-0.9c-2.9-0.1-5.8,0-8.7,0.1c-2.3,0.1-4.7,0.4-7,0.8c-2.2,0.4-4.3,0.9-6.4,1.5c-4.6,1.2-8.9,3.1-12.9,5.6
		c-0.2,0.1-0.4,0.3-0.5,0.4c0.3,0.1,0.6,0.1,0.8,0c2.6-0.9,5.1-1.9,7.8-2.8c5-1.7,10.2-2.7,15.4-3.2c2.5-0.2,5.1-0.3,7.7-0.2
		c2.8,0.1,5.5,0.4,8.2,0.8c3.2,0.5,6.3,1.4,9.3,2.8c0.4,0.2,0.8,0.4,1.2,0.3c2.9-0.5,5.8-0.2,8.7,0.2
		C976.9,584,978.6,584.3,980.4,584.7z M934.1,500.6c-0.6-1.4-1.8-2.2-3.1-3.3c3.1-0.7,6-0.6,8.9,0.1c2.9,0.7,5.5,2.2,7.7,4.2
		c0-0.2-0.1-0.4-0.2-0.5c-1.2-1.5-2.6-2.6-4.3-3.5c-1.8-0.9-3.7-1.6-5.8-1.8c-2-0.1-4.1-0.2-6.2,0c-1.3,0.1-2.4,0.4-3.6-0.3
		c-0.2-0.1-0.5-0.2-0.8-0.3c-3.2-1.1-6.6-1.6-10-1.4c-2.6,0.2-5.2,0.5-7.8,1.4c-3.6,1.2-6.8,3-9.2,6c-0.8,1-1.6,2-1.8,3.4
		c4.3-5.7,10.2-8.3,17.1-9C922.2,495,928.6,496.2,934.1,500.6z M902.7,562.2c0.4,1.9,1.9,4.1,2.8,4.5c0.7-2.5,1.5-4.9,3.6-6.6
		c-0.1-0.1-0.1-0.1-0.2-0.2c-0.5,0.1-0.9,0.2-1.4,0.2c-0.1-0.1-0.1-0.1-0.2-0.2c0.9-1.3,1.7-2.7,2.7-4.1c-2.6,1.2-4.1,3-5.3,5.6
		c-0.4-1.2-0.7-2.3-1-3.4c-0.3,0.4-0.5,0.7-0.8,1.1c-0.1-0.7-0.2-1.3-0.3-2.1c-1.3,1.9-2.7,3.6-4.5,4.8c-1.8,1.2-3.6,2.3-5.5,3.4
		C896.5,565.6,899.7,564.3,902.7,562.2z M1021.4,562.1c0.1,2.6,7.9,6.7,10.7,5.6c-1.1-0.5-2.2-0.9-3.3-1.3c0-0.1,0-0.1,0.1-0.2
		c0.3,0,0.7,0.1,1.1,0.1c-0.1-0.4-0.2-0.6-0.3-1c0.7,0.3,1.3,0.5,1.8,0.8c2.4,1.4,4.8,2.9,7.2,4.3c1.6,0.9,3.1,2,4.9,2.4
		c-0.4-0.4-0.9-0.8-1.4-1.2c-3-2.3-6.1-4.7-9.1-7c-2.1-1.5-4.4-2.7-7-3.3c-0.3-0.1-0.6-0.1-1-0.1c0.7,0.7,1.2,1.3,1.8,1.9
		C1024.7,563.4,1023.1,562.8,1021.4,562.1z M1021,589.2c-1.7-0.1-3.8-0.1-5.8-0.5c-2.7-0.5-5.4-1.2-8.1-1.9
		c-2.6-0.7-5.2-1.7-7.8-2.4c-2.3-0.6-4.6-1.1-6.9-1.6c-1.1-0.2-2.2,0-3.3,0c0,0.1,0,0.2,0,0.3c2.8,0.5,5.7,1.2,8.5,2.4
		c-1.4,0.1-2.6,0.1-3.7,0.8c1,0.2,2,0.2,3,0.3c3.8,0.7,7.6,1.5,11.4,2.2c2.1,0.4,4.2,0.7,6.2,0.9
		C1016.8,590,1019.1,589.8,1021,589.2z M960.6,544.7c-1.9,0.8-8.9,8.5-9,9.9c1.3-0.9,2.7-1.7,4-2.6c-0.8,1.7-1.7,3.2-2.1,5
		c2.9-3.7,6.2-7.1,10-9.9c-0.1-0.1-0.1-0.2-0.2-0.3c-1.4,0.6-2.9,1.1-4.3,1.7c0-0.1-0.1-0.1-0.1-0.2c1.7-1.6,3.3-3.2,5-4.8
		c-0.1-0.1-0.1-0.2-0.2-0.2c-1.1,0.7-2.2,1.3-3.3,2C960.5,545.2,960.6,544.9,960.6,544.7z M1022.5,516.5c0.1,0,0.1,0.1,0.2,0.1
		c3.5-3.2,10.5-2.1,13.5,2.7c-0.3-0.9-0.5-1.8-1-2.5c-2.3-3-7.1-3.9-10.2-2.6c-0.3,0.1-0.7,0-1-0.1c-2.5-1.4-5-1.5-7.6-0.2
		c-0.5,0.3-0.9,0.7-1.4,1.1c1.5-0.4,2.9-0.8,4.3-1c1.5-0.2,2.9,0.3,4.1,1.1C1023,515.6,1022.7,516.1,1022.5,516.5z M896.9,528.9
		c9.3-3.2,18.7-5.8,28.2-8.1C915.2,521.7,905.8,524.3,896.9,528.9z M915.1,561.5c-0.1-0.1-0.1-0.2-0.2-0.3c-0.9,0.1-1.7,0.2-2.7,0.3
		c0.3,0.3,0.4,0.4,0.6,0.6c-1.1,1.3-2.1,2.6-3.2,3.8c0.1,0.1,0.2,0.2,0.3,0.2C911.6,564.6,913.4,563.1,915.1,561.5z M973.1,556.3
		c1-1.1,1.8-2.3,2.9-3.2c0.8-0.7,0.7-1.5,0.7-2.5C975.1,552,974.1,553.6,973.1,556.3z M1030.3,571c0,0.1,0.1,0.2,0.1,0.3
		c1.5-0.4,3-0.8,4.5-1.2c-0.6-0.3-1.4-0.8-1.9-0.6C1032.1,569.8,1031.2,570.5,1030.3,571z M915.2,555.8c0,0,0.1,0.1,0.1,0.1
		c1.4-1,2.7-2,4.1-3c0-0.1-0.1-0.1-0.1-0.2c-0.4,0.1-0.7,0.1-1.1,0.2c-0.3,0.1-0.8,0.2-1,0.4C916.5,554.1,915.8,555,915.2,555.8z
		 M1037.9,571.7c-1.4-1-3.2-0.6-4.1,0.7C1035.2,572.1,1036.6,571.9,1037.9,571.7z M882.1,572.2c-1.4-1.5-2.7-1.6-4-0.7
		C879.4,571.7,880.6,571.9,882.1,572.2z M881.4,569.9c1.3,0.4,2.7,0.7,4.2,1.1C884.2,570,883.1,568.6,881.4,569.9z M1040.9,573.2
		c-1.2-1-2.8-0.8-3.9,0.3C1038.3,573.4,1039.5,573.3,1040.9,573.2z M875,573.1c1.1,0,2.3,0,3.4,0C877.3,572.2,876.2,572.2,875,573.1
		z"/>
	<path d="M905.2,558.3c-1.1-0.8-0.5-2.1-1.3-2.9c-0.9,0.7-1.9,1.5-2.8,2.3c-0.8,0.7-1.7,1.3-2.5,2c-0.2,0.2-0.4,0.5-0.7,0.7
		c-0.7,0.7-1.5,1.3-2.2,2c-0.5,0.4-1.1,0.8-1.6,1.1c-1.3,0.8-2.8,1.3-4.2,1.9c-0.6,0.3-1.3,0.5-1.9,0.6c-0.2,0.1-0.5-0.1-0.8-0.2
		c0-0.1,0-0.2-0.1-0.3c0.7-0.4,1.4-0.9,2.1-1.3c1.4-1.1,3-2,4.3-3.3c1-1,1.8-2.2,2.7-3.3c0.8-0.9,1.5-1.9,2.3-2.9
		c0.7-1,1.3-2.1,2-3.1c0.4-0.5,1-0.9,1.5-1.4c0.2-0.2,0.4-0.5,0.5-0.6c0.9,0.4,1.7,0.8,2.6,1.1c0.4,0.1,1,0.1,1.5-0.1
		c1.1-0.5,2.2-1,3.1-1.8c0.7-0.6,1.2-1.4,1.7-2.3c-0.5,0.3-1,0.6-1.5,0.9c-1-0.8,0.1-1.3,0.1-1.9c-0.1,0-0.2-0.1-0.3,0
		c-0.1,0-0.1,0.2-0.2,0.2c-0.6,0.4-1.2,0.9-1.9,1.2c-0.8,0.4-1.6,0.8-2.4,1.2c-0.4,0.2-0.9,0.5-1.3,0.6c-0.3,0.1-0.6-0.2-1-0.3
		c0.6-0.7,1-1.2,1.4-1.7c-0.1-0.1-0.1-0.1-0.2-0.2c-4.3,3.1-7.5,7.3-10.8,11.5c-0.3-0.4-0.6-0.7-0.9-1.1c-0.6,0.6-1.2,1.3-1.9,2
		c-0.6,0.6-1.2,1-1.7,1.6c-0.6,0.7-1.2,1.4-1.9,2c-0.9,0.9-1.8,1.9-2.7,2.7c-1,0.9-2.1,1.8-3.1,2.7c-1.2,1-2.5,1.9-3.7,2.8
		c-0.9,0.7-1.9,1.3-2.8,1.9c-0.5,0.3-1.1,0.6-1.7,0.9c-0.5,0.3-1,0.5-1.5,0.8c-0.9,0.6-1.7,1.2-2.8,1.4c-0.2-1.1-0.2-1.1,0.7-1.5
		c0.3-0.1,0.4-0.5,0.7-0.7c0.8-0.6,1.6-1,2.4-1.6c0.9-0.7,1.6-1.5,2.5-2.2c0.5-0.4,1-0.7,1.5-1.1c0.1-0.1,0.3-0.2,0.4-0.3
		c0.7-1,1.6-1.9,2.6-2.5c0.5-0.3,0.8-0.8,1.3-1.3c0.6-0.5,1.1-1.1,1.7-1.6c0.3-0.3,0.5-0.7,0.7-1c0.2-0.2,0.5-0.4,0.7-0.6
		c0.6-0.7,1.3-1.5,1.9-2.2c0.8-0.9,1.7-1.7,2.4-2.6c0.5-0.6,0.9-1.2,1.4-1.8c0.6-0.7,1.3-1.4,1.9-2.2c0.5-0.6,1-1.3,1.4-2
		c0.4-0.6,1.3-0.5,2,0.1c0.8-0.9,1.5-1.7,2.3-2.6c1.2-1.2,2.4-2.4,3.6-3.6c0.5-0.5,1-0.9,1.4-1.5c1-1.3,2.2-2.4,3.4-3.5
		c0.3-0.4,0.7-0.8,1.1-1c1.1-0.7,2.1-0.6,3,0.3c0.9,0.9,1,0.9,2,0c1.3-1.3,2.8-2.5,4.1-3.7c0.9-0.8,1.8-1.7,2.7-2.6
		c1-1,2.1-1.9,3.1-2.9c0.1-0.1,0.2-0.3,0.3-0.4c0.1-0.2,0.1-0.4,0.2-0.5c1.2-0.3,1.3-1.7,2.3-2.3c0.9-0.6,1.5-1.4,2.3-2.2
		c0.8-0.8,1.6-1.7,2.4-2.6c0.7-0.7,1.4-1.5,2.1-2.2c0.4-0.4,1.9-0.6,2.4-0.3c1.7,0.9,2.8,2.5,4.2,3.9c1.3-1.3,2.6-2.6,3.9-3.9
		c1.3-1.3,2.8-2.5,3.9-4.1c-0.9,0.1-1.7,0-2.5,0.2c-2,0.5-4.1,0.3-6.1,0.5c-1.8,0.1-3.6,0.4-5.4,0.6c-1.5,0.2-2.9,0.5-4.4,0.7
		c-1.7,0.3-3.5,0.5-5.2,0.8c-2.8,0.5-5.7,1.1-8.5,1.5c-1,0.2-2,0.3-3.1,0.4c5.9-2.3,12.1-3.6,18.3-4.5c6.1-0.8,12.1-1.9,18.1-1.5
		c1.1-1.2,2-2.3,3-3.4c-0.5-0.6-1.1-0.3-1.6-0.2c-1.8,0.2-3.6,0.4-5.5,0.6c-2,0.2-3.9,0.5-5.9,0.8c-1,0.1-1.9,0.4-2.9,0.5
		c-1,0.1-2,0.1-3,0.3c-1.5,0.2-2.9,0.5-4.4,0.7c-1.3,0.2-2.6,0.6-3.9,0.7c-1.4,0.1-2.8,0.5-4.2-0.2c-0.1-0.1-0.3,0-0.4,0
		c-0.8,0-1.7-1.1-1.5-1.8c0.2-0.5,0.5-1,0.9-1.4c0.4-0.4,0.8-0.8,1.3-1c0.8-0.4,1.7-0.8,2.6-1.2c0.7-0.3,1.3-0.7,2-1
		c0.6-0.3,1.3-0.5,2-0.7c0.5-0.2,1-0.3,1.5-0.4c0-0.1,0-0.2,0-0.3c-0.5-0.1-1-0.3-1.4-0.3c-3.1-0.1-6.2,0.1-9.3,0.5
		c-5.1,0.8-10.2,1.9-15.1,3.5c-4.7,1.5-9.4,3.2-14.1,4.9c-1.9,0.7-3.7,1.6-5.5,2.4c-0.2,0.1-0.4,0.2-0.7,0.1
		c0.3-0.2,0.5-0.5,0.8-0.6c3.7-2.4,7.6-4.1,11.6-5.7c4.5-1.7,9.1-3.2,13.8-4.3c3.6-0.8,7.3-1.5,10.9-2.1c2.7-0.4,5.5-0.5,8.2-0.5
		c1.1,0,2.3,0.4,3.4,0.9c0.8,0.3,0.8,1,0.1,1.6c-0.4,0.4-1,0.7-1.5,1c-0.3,0.2-0.7,0.4-0.9,0.6c-0.7,0.7-1.5,1.1-2.5,1.2
		c-0.5,0-1,0.5-1.5,0.8c-0.3,0.1-0.6,0.1-0.9,0.3c-0.5,0.2-0.9,0.5-1.3,0.8c-0.3,0.2-0.5,0.3-0.8,0.5c0,0.1,0,0.1,0.1,0.2
		c0.8-0.1,1.7-0.1,2.5-0.2c1-0.2,2.1-0.5,3.1-0.6c1.6-0.1,3.2-0.4,4.8-0.6c1.1-0.2,2.2-0.4,3.3-0.5c0.6-0.1,1.3,0,1.9-0.1
		c0.5-0.1,1.1-0.2,1.6-0.3c0.8-0.1,1.7-0.3,2.5-0.3c0.6-0.1,1.2,0,1.8-0.1c0.2,0,0.5-0.2,0.7-0.2c0.2,0,0.5,0,0.7,0
		c0.4,0,0.8-0.1,1.2-0.1c0.7-0.1,1.3-0.2,2-0.3c1.2-0.1,2.5-0.1,3.7-0.3c0.9-0.2,2,0.1,2.8-0.7c0.2-0.2,0.4-0.4,0.5-0.6
		c0.8-0.9,1.6-1.7,2.3-2.6c0.5-0.6,0.8-1.3,1.3-1.8c0.9-1.1,1.9-2.1,2.9-3.1c0.4-0.4,0.9-0.4,1.4,0.1c1,0.7,1.5,1.8,2,2.8
		c0.6,1.1,1.5,2.1,2.4,3.3c0.2-0.7,0.4-1.3,0.7-1.8c0.3-0.8,0.6-1.6,1-2.4c0.5-1,1.1-1.9,1.7-2.8c0.4-0.7,0.9-1.3,1.4-2
		c0.2-0.3,0.5-0.6,0.8-0.9c0.7-0.7,1.4-1.5,2.2-2.2c0.8-0.6,1.7-1.1,2.5-1.7c0.9-0.6,1.9-1.2,2.8-1.8c1.3-0.7,2.8-1,4.3-1.4
		c2.7-0.7,5.4-0.7,8-0.5c1.2,0.1,2.3,0.7,3.4,0.7c1,0,1.9,0.5,2.8,0.8c0.6,0.2,1.2,0.7,1.8,1c0.2,0.1,0.5,0.1,0.7,0.3
		c1,0.7,2,1.5,3,2.2c0.7,0.5,1.4,1,2,1.6c0.7,0.8,1.7,1.4,2.1,2.5c0.2,0.5,0.6,0.9,1,1.3c1,1.1,1.6,2.4,2.1,3.7
		c0.3,0.9,0.7,1.8,1,2.7c0.1,0.3,0.1,0.7,0.2,1.1c0.2,0.8,0.4,1.6,0.5,2.4c0.2,1.2,0.3,2.4,0.3,3.7c-0.1,1.3-0.4,2.5-0.6,3.8
		c-0.1,0.4-0.2,0.9,0.6,1.1c0.8,0.1,1.6,0.5,2.4,0.7c0.5,0.2,1.1,0.2,1.6,0.3c1,0.2,2.1,0.5,3.1,0.8c0.9,0.2,1.8,0.4,2.6,0.6
		c0.1,0,0.2,0.1,0.3,0.1c1.3,0.5,2.6,0.9,3.8,1.4c1,0.4,1.9,0.8,2.9,1.2c0.6,0.2,1.2,0.4,1.8,0.7c0.6,0.3,1.1,0.9,1.7,1
		c1.1,0.2,1.8,1,2.7,1.4c0.7,0.3,1.4,0.8,2,1.3c0.6,0.5,1.2,1.1,1.7,1.7c0,0.1-0.1,0.1-0.1,0.2c-0.3,0-0.6,0-0.9-0.1
		c-1.3-0.6-2.5-1.3-3.7-1.9c-0.8-0.4-1.6-0.7-2.4-1.1c-0.6-0.3-1.1-0.6-1.7-0.8c-0.5-0.2-0.9-0.4-1.4-0.6c-1.5-0.5-3-1-4.4-1.5
		c-1-0.3-1.9-0.7-2.8-1c-0.8-0.3-1.7-0.5-2.5-0.7c-0.5-0.1-0.9-0.3-1.4-0.5c-0.5-0.1-1-0.2-1.5-0.3c-0.9-0.2-1.8-0.3-2.6-0.4
		c-0.9-0.2-1.7-0.4-2.5-0.6c-0.2,0.5-0.5,0.9-0.6,1.4c-0.1,0.4,0.6,1,1.1,1c1.5,0.2,3,0.3,4.4,0.6c1.3,0.2,2.6,0.5,3.9,0.8
		c1.1,0.3,2.1,0.7,3.1,1c0.3,0.1,0.6,0.2,0.9,0.3c0.8,0.3,1.7,0.5,2.5,0.9c1.5,0.7,3,1.4,4.5,2.2c0.4,0.2,0.8,0.5,1.1,0.8
		c0,0.1-0.1,0.2-0.1,0.3c-0.5-0.1-0.9,0-1.4-0.2c-1-0.3-2-0.7-3-1c-0.7-0.2-1.4-0.5-2.1-0.7c-1-0.3-2.1-0.6-3.1-0.8
		c-1.5-0.4-3.1-0.9-4.6-1.2c-0.9-0.2-1.9-0.2-2.8-0.4c-1.2-0.2-2.4-0.5-3.7-0.7c-0.5-0.1-1-0.2-1.5-0.1c-0.7,0-0.9,0.5-1.2,1
		c-0.3,0.6-0.8,1.1-1.3,1.6c-0.1,0.1-0.3,0.2-0.3,0.3c-0.6,1.4-1.8,2.3-2.9,3.2c-0.9,0.7-1.6,1.8-2.9,2.1c-0.5,0.1-0.9,0.6-1.2,0.8
		c0.5,0.6,1,1.3,1.6,1.8c0.6,0.6,1.4,1,2.1,1.4c0.6,0.3,1.3,0.5,1.9,0.8c1,0.4,2,0.8,3,1.4c0.7,0.4,1.3,1,2,1.5
		c0.5,0.4,1,0.8,1.5,1.2c0.1,0.1,0.4-0.1,0.6-0.1c1,0,1.7,0.5,2.3,1.2c0.5,0.5,1.1,0.9,1.6,1.4c1,1,1.9,2.1,2.9,3.2
		c0.5,0.6,1,1.2,1.5,1.8c0.4,0.4,1,0.8,1.6,0.9c1.4,0.4,2.8,0.8,3.8,1.9c0.5,0.5,1.3,0.8,1.9,1.3c0.1,0.1,0.2,0.1,0.2,0.2
		c0.5,0.9,1.3,1.5,2.1,2.2c0.2,0.2,0.3,0.5,0.5,0.7c0.8,0.8,1.7,1.6,2.5,2.5c0.9,0.9,1.8,1.9,2.7,2.9c0.6,0.6,1.2,1.3,1.8,1.9
		c0.9,1,1.7,1.9,2.6,2.9c0.8,0.8,1.6,1.7,2.4,2.5c0.8,0.9,1.7,1.8,2.5,2.6c0.6,0.6,1.4,1,2,1.5c0.4,0.3,0.7,0.7,1.1,1
		c1,0.8,2,1.6,3.1,2.4c0.4,0.3,0.5,0.6,0.3,1.2c-1.5-0.5-2.9-1-4.2-2c-0.3-0.2-0.7-0.2-0.9-0.4c-1.6-1.1-3.2-2.3-4.8-3.4
		c-0.8-0.6-1.7-1.1-2.5-1.7c-0.6-0.4-1.2-1-1.8-1.4c-0.6-0.5-1.2-0.9-1.8-1.4c-0.4-0.3-0.8-0.6-1.3-0.9c-1.2-0.8-2.3-1.5-3.5-2.3
		c-0.6-0.4-1.1-0.8-1.6-1.1c-0.2-0.1-0.5-0.1-0.7-0.2c-0.8-0.3-1.5-0.8-2.2-1.1c-0.5-0.2-1-0.3-1.6-0.4c-1-0.3-1.9-0.7-2.9-0.8
		c-0.9-0.2-1.9-0.1-2.8-0.2c-0.3,0-0.5-0.2-0.9-0.4c1.6-1.4,3.5-1.1,5.2-1.5c-3.1-1.5-6.5-2-9.9-2.4c-0.2,0.3-0.3,0.5,0,0.9
		c0.7,0.8,1.1,1.7,1.7,2.6c0,0.1,0,0.1,0.1,0.2c0.7,1,1.3,2,2.1,2.9c0.7,0.8,1.6,1.5,2.3,2.3c0.6,0.8,1.5,1.3,2.2,2.1
		c0.7,0.9,1.5,1.5,2.5,2.2c0.2,0.1,0.3,0.4,0.4,0.7c-0.7,0.6-1.3,0.2-1.9,0c-0.6-0.2-1.1-0.6-1.6-0.9c-0.5-0.3-1.1-0.5-1.7-0.8
		c-0.9-0.5-1.9-1-2.6-1.7c-0.7-0.7-1.5-1-2.3-1.5c-0.8-0.5-1.7-0.8-2.6-1.1c-0.4-0.2-0.7-0.3-1.1-0.5c-0.1-0.1-0.2-0.3-0.2-0.4
		c0.1-0.2,0.3-0.4,0.5-0.6c0.2-0.1,0.5-0.1,0.6-0.3c0.1-0.2,0.1-0.6,0-0.7c-0.8-0.9-1.7-1.8-2.6-2.6c-0.4-0.4-0.8-0.6-1.2-0.9
		c-0.3-0.2-0.6-0.6-0.9-0.7c-0.9-0.3-1.8-0.6-2.8-0.8c-0.3-0.1-0.8,0.2-1.1,0.3c-0.4,0.1-0.8,0.3-1.2,0.4c-0.2,0-0.4-0.1-0.6-0.1
		c0-0.2,0-0.4,0.1-0.5c0.4-0.6,0.8-1.2,1.3-1.8c-1.9-0.5-3.6,0.1-5.2,0.7c-1.6,0.6-3.1,1.7-4.8,2.7c-0.6-0.2-0.3-0.8-0.1-1.2
		c0.5-0.9,1.2-1.7,1.8-2.5c0.3-0.5,0.7-0.9,0.9-1.5c-0.4,0.2-0.8,0.4-1.2,0.6c-0.4,0.2-0.9,0.3-1.3,0.5c-1,0.5-2.1,0.9-3,1.5
		c-1.1,0.7-2.1,1.6-3.1,2.4c-0.6,0.5-1.3,0.9-1.9,1.4c-0.2,0.2-0.4,0.5-0.6,0.7c-0.1,0.1-0.4,0.3-0.5,0.2c-0.1,0-0.2-0.3-0.3-0.5
		c0-0.1,0-0.3,0-0.4c0.5-1,1-2,1.6-3c-0.5,0.3-1.1,0.6-1.7,0.8c-0.8,0.4-1.7,0.8-2.5,1.2c-0.2,0.1-0.4,0.2-0.6,0.3
		c-0.7,0.5-1.4,1-2.1,1.4c-0.7,0.5-1.4,1-2,1.5c-0.1,0.1-0.2,0.2-0.3,0.2c-1.4,0.7-2.7,1.6-3.8,2.6c-0.4,0.4-0.7,0.2-1,0
		c-0.1-0.1,0-0.6,0.1-0.8c0.7-1.2,1.3-2.5,2.1-3.6c1.2-1.6,2.2-3.4,3.8-4.7c0.2-0.2,0.3-0.5,0.4-0.7c0.3-1.2,0.6-2.4,0.9-3.6
		c-0.1-0.1-0.1-0.1-0.2-0.2c-1.1,0.5-2.2,1-3.3,1.5c-0.5,0.2-1,0.4-1.5,0.6c0.2-0.5,0.3-1,0.5-1.5c0.6-1,1.1-1.9,1.8-2.8
		c0.8-1,1.7-2,2.5-3c0.6-0.7,1.1-1.3,1.6-2c-3.6,2.8-7.1,5.7-11,8.1c-0.1-0.1-0.2-0.2-0.3-0.3c1.5-1.7,3-3.3,4.4-5.1
		c1.4-1.7,2.6-3.5,3.9-5.3c1.4-1.7,2.8-3.4,4.1-5.3c-0.7,0.4-1.4,0.9-2.2,1.3c-0.9,0.5-1.8,1-2.7,1.5c-0.4,0.2-0.8,0.4-1.2,0.6
		c-0.2,0.1-0.5,0.1-0.6,0c-0.1-0.1-0.1-0.4,0-0.6c0.6-0.9,1.2-2.1,2-2.7c0.8-0.6,0.7-1.5,1.4-2.1c-0.1-0.1-0.1-0.1-0.2-0.2
		c-0.7,0.6-1.5,1.2-2.2,1.8c-1.4,1.1-2.8,2.2-4.2,3.2c-0.5,0.4-1.1,0.6-1.6,0.9c-0.1,0.1-0.4,0-0.5-0.1c-0.1-0.1,0-0.3,0.1-0.4
		c0.2-0.3,0.5-0.4,0.7-0.7c1.2-1.5,2.4-3,3.6-4.4c0.6-0.8,1.3-1.5,1.9-2.3c0.6-0.7,1.1-1.5,1.7-2.3c0.1-0.1,0-0.5-0.1-0.7
		c-0.6-0.7-1.3-1.4-2-2c-1.2-0.9-1.9-2.1-2.8-3.2c-0.4-0.5-0.8-1.1-1.2-1.6c-0.2-0.2-1.4,0-1.7,0.3c-0.5,0.3-1.1,0.6-1.7,0.9
		c-0.3,0.2-0.5,0.5-0.8,0.6c-0.4,0.3-0.9,0.6-1.3,0.8c-0.4,0.1-0.5-0.2-0.3-0.6c0.4-0.7,0.6-1.4,1.3-1.9c0.6-0.4,0.9-1.2,1.4-1.9
		c0.2-0.2,0.4-0.5,0.6-0.7c0,0-0.1-0.1-0.1-0.1c-2.2,1.2-4.3,2.4-6.6,3.7c-0.3-0.2-0.5-0.4-0.1-0.8c0.8-1,1.5-2,2.2-3
		c0.5-0.7,0.9-1.5,1.5-2.4c-0.9,0.5-1.7,0.9-2.5,1.3c-0.1,0.1-0.3,0-0.5,0c-0.1,0,0-0.3,0-0.4c0-0.4,0-0.7,0.1-1
		c0.2-0.5,0.4-0.9,0.6-1.3c-3,1.9-11,12.4-10.9,14.5c1.3-0.5,2.7-1,4-1.5c0.4-0.1,0.8-0.2,1.1-0.3c0.3-0.1,0.5-0.2,0.8-0.3
		c0.5-0.4,1.4-0.4,1.8,0.2c-1.8,1.7-4.2,2.8-5.7,4.9c0.3-0.1,0.5-0.3,0.8-0.4c1.2-0.6,2.4-1.2,3.6-1.7c1.1-0.5,2.3-0.9,3.5-1.2
		c0.6-0.2,1.2-0.3,1.7-0.3c0.2,0,0.4,0.1,0.7,0.2c-0.5,0.5-0.8,0.9-1.2,1.1c-0.9,0.6-1.8,1-2.7,1.6c-0.5,0.3-0.9,0.8-1.4,1.2
		c-1,0.7-2,1.4-2.9,2.2c-0.4,0.3-0.6,0.9-0.9,1c-0.7,0.3-1,0.9-1.5,1.3c-1.1,1-2.2,2.1-3.3,3.2c-0.3,0.3-0.5,0.7-0.8,1.2
		c0.6-0.3,1-0.3,1.3-0.6c0.6-0.6,1.4-0.8,2.2-1c0.5-0.1,0.9-0.4,1.4-0.5c0.2-0.1,0.5,0.1,0.7,0.1c0,0.1,0.1,0.2,0.1,0.3
		c-0.6,0.6-1.3,1.1-1.9,1.8c-0.7,0.9-2,1.5-2,3c0.2-0.1,0.4-0.2,0.6-0.3c0.7-0.4,1.5-0.7,2.1-1c1.3-0.8,2.8-1.1,4.1-1.7
		c0.9-0.4,1.9-0.5,2.8-0.7c0.2,0,0.4,0.1,0.6,0.1c0,0.1,0.1,0.1,0.1,0.2c-0.7,0.5-1.4,1.1-2.1,1.6c-0.7,0.5-1.5,1-2.2,1.6
		c-0.7,0.6-1.2,1.4-1.9,2.1c-0.7,0.7-1.5,1.4-2.2,2.2c-0.3,0.3-0.7,0.7-1,1c-0.6,0.6-1.1,1.3-1.6,1.9c-0.3,0.4-0.6,0.8-0.8,1.3
		c-0.8,1.3-2.2,2.1-2.8,3.5c-0.3,0.7-1.1,1.1-1.6,1.7c-0.9,1-1.7,2-2.6,2.9c-0.3,0.3-0.7,0.4-1,0.6c-0.6-0.2-0.5-0.6-0.3-1
		c0.3-0.6,0.7-1.3,1-1.9c0.3-0.7,0.4-1.4,0.6-2.1c-1.5,0.9-3.1,1.7-4.6,2.5c-0.4,0.2-0.7,0.6-1.1,0.8c-1.1,0.5-2.2,0.9-3.2,1.4
		c-0.7,0.3-1.3,0.7-2,0.9c-0.9,0.3-1.8,0.4-2.7,0.6c-0.2,0-0.4-0.2-0.7-0.3c0.5-0.8,0.9-1.4,1.4-2.1c0,0-0.1-0.1-0.1-0.1
		c-0.7,0.5-1.3,0.9-2,1.4c-1,0.7-2.1,1.4-3.1,2.1c-0.5,0.3-1.1,0.7-1.7,1c-1.1,0.5-2.4,0.9-3.4,1.6c-0.9,0.6-1.9,0.6-2.7,1.2
		c-1.6,1.2-3.6,1.5-5.4,2.3c-1.4,0.5-2.8,1.2-4.4,1c-0.1,0-0.2,0-0.4-0.1c4.4-2.9,8.8-5.7,11.7-10.3c-1.3,0.3-2.5,0.6-3.7,0.7
		c-1.1,0.1-2.1,0.1-3.2,0.1c-0.3,0-0.6-0.2-0.9-0.4c0.1-0.2,0.2-0.5,0.4-0.6c0.8-0.4,1.6-0.7,2.3-1.1c0.2-0.1,0.4-0.4,0.7-0.5
		c0.9-0.5,1.8-1,2.6-1.6c1-0.7,1.9-1.5,2.9-2.3c0.5-0.4,1.1-0.8,1.6-1.3c0.6-0.6,1.1-1.2,1.8-2c-0.7,0.2-1.3,0.4-1.8,0.6
		c-0.7,0.2-1.4,0.4-2.1,0.5c-0.7,0.2-1.4,0.4-2.2,0.6c-0.3,0.1-0.6,0-0.9,0c0-0.1,0-0.2-0.1-0.3c0.6-0.6,1.2-1.2,1.7-1.8
		c0.3-0.3,0.6-0.7,0.8-1c0.5-0.6,1-1.2,1.3-1.8c0.5-1.1,0.8-2.2,1.1-3.3c0.1-0.2,0.1-0.4,0.3-0.8c-0.4,0.2-0.7,0.3-0.9,0.5
		c-0.5,0.3-1,0.6-1.5,0.9c-0.1,0.1-0.1,0.2-0.2,0.3c-0.3,0.2-0.6,0.4-0.8,0.7c-0.5,0.4-0.9,0.9-1.4,1.3c-0.9,0.8-2,1.6-2.9,2.4
		c-0.7,0.7-1.4,1.5-2.1,2.3c-1,1.1-1.9,2.1-2.9,3.2c-0.9,1-1.7,2-2.6,3C905.9,557.8,905.5,558,905.2,558.3z M1006.3,515.7
		c0,0,0,0.1,0,0.1c0.8,0.1,1.7,0.2,2.6,0.3c0.1-0.7,0.1-1.3,0.1-1.8c0.1-0.9,0.4-1.9,0.3-2.8c-0.1-1.4-0.3-2.8-0.5-4.2
		c-0.1-0.5,0-1.1-0.3-1.5c-0.7-1.2-0.6-2.7-1.6-3.7c-0.1-0.1-0.2-0.3-0.2-0.5c0.1-1.3-1.2-1.7-1.5-2.7c-0.3-0.7-0.9-1.2-1.5-1.8
		c-1-1-2-2-3.1-2.9c-0.6-0.5-1.4-0.7-2-1.2c-1-0.6-2-1.1-3.2-1.5c-0.7-0.2-1.4-0.5-2.1-0.6c-1.1-0.2-2.1-0.4-3.2-0.6
		c-0.7-0.1-1.4,0-2.1-0.1c-0.6,0-1.3-0.1-1.9-0.1c-0.9,0.1-1.8,0.4-2.7,0.5c-0.3,0.1-0.6,0-0.8,0.1c-0.8,0.3-1.7,0.6-2.5,0.9
		c-0.9,0.4-1.8,0.7-2.7,1.2c-0.8,0.4-1.4,1-2.1,1.5c-0.5,0.4-1.1,0.7-1.6,1.1c-0.6,0.6-1.2,1.3-1.8,2c-0.6,0.7-1.2,1.3-1.6,2
		c-0.6,1-1.1,2.1-1.6,3.1c-0.1,0.3-0.2,0.6-0.4,0.9c-0.2,0.7-0.4,1.4-0.7,2c-0.4,0.6,0,0.7,0.4,0.9c0.3,0.1,0.6,0,0.9,0
		c1.3-0.1,2.6-0.3,4-0.3c0.7,0,1.3,0.3,2,0.2c1.9-0.3,3.8-0.2,5.7,0c2.8,0.3,5.6-0.1,8.4,0.3c0.6,0.1,1.2,0,1.8,0
		c0.9,0.1,1.8,0.3,2.7,0.4c1.1,0.2,2.3,0.4,3.4,0.6c0.5,0.1,1,0.4,1.6,0.5c1.6,0.4,3.2,0.7,4.3,2.1c0.8,0.9,0.8,2.3-0.3,2.9
		c-0.9,0.5-1.8,1-2.8,1.4c-0.2,0.1-0.4,0.2-0.6,0.2c0,0.1,0,0.2,0,0.2C1001.5,515.3,1003.9,515.5,1006.3,515.7z M968.2,508.7
		c-0.1,0.1-0.1,0.1-0.2,0.2c0.5,0.5,1,1.1,1.4,1.6c1.1,1.3,2.2,2.7,3.3,4c1,1.1,2.1,2.2,3.2,3.3c0.7,0.7,1.4,1.5,2,2.3
		c0.9,1,1.6,2.1,2.5,3.2c0.2,0.2,0.7,0.5,0.9,0.4c0.7-0.4,1.5-0.9,2-1.5c1.1-1.3,2.3-2.3,3.8-2.9c0.8-0.3,1.6-0.1,2.1,0.5
		c0.2,0.3,0.5,0.5,0.8,0.8c0.5,0.6,1,1.3,1.5,1.9c0.6,0.9,1.2,1.8,1.8,2.6c0.4,0.5,1,0.9,1.3,1.5c0.2,0.5,0.8,0.8,1.2,1.3
		c0.7,0.8,1.5,1.5,2.1,2.3c0.7-0.4,1.2-0.6,1.7-0.9c0.7-0.5,1.4-1,2.1-1.6c0.7-0.6,1.4-1.2,2-1.9c0.7-0.8,1.3-1.6,1.9-2.4
		c0.2-0.3,0.4-0.7,0.5-1c-1-0.2-1.7-0.5-2.5-0.5c-1.8,0.1-3.5-0.2-5.3-0.3c-0.5,0-1,0-1.5,0.1c-0.6,0.1-1.4-0.1-1.8-0.6
		c0.5-0.1,1-0.4,1.6-0.4c0.8-0.1,1.6,0,2.4-0.1c1.2-0.1,2.4-0.3,3.5-0.3c0.6,0,1.2,0.1,1.7,0.2c0.3,0,0.7-0.2,0.9-0.1
		c1,0.5,1.7,0.3,2.2-0.6c0.2-0.3,0.3-0.8,0.2-1.1c-0.1-0.2-0.6-0.3-1-0.4c-0.4-0.1-0.8,0-1.2-0.1c-1-0.1-2-0.4-2.9-0.5
		c-0.4-0.1-0.9,0.1-1.3,0.1c-0.6,0-1.1-0.3-1.7-0.2c-0.9,0.1-1.7,0.1-2.5-0.2c-1.3-0.5-2-1.6-1.3-2.8c0.4-0.8,1.2-1.3,2.1-1.7
		c0.9-0.3,1.7-0.8,2.5-1.1c0-0.1,0-0.3,0-0.4c-1.2-0.4-2.5-0.8-3.7-1.1c-0.8-0.2-1.6-0.3-2.4-0.5c-0.9-0.2-1.9-0.5-2.8-0.6
		c-1.4-0.2-2.8-0.3-4.2-0.4c-1-0.1-1.9-0.1-2.9,0c-0.5,0-1,0.1-1.4-0.2c-0.1-0.1-0.5,0-0.7,0c-0.2,0-0.4,0.2-0.6,0.1
		c-1-0.1-1.9-0.3-2.9-0.2c-1.4,0-2.8,0.2-4.2,0.2c-1.1,0-2.2-0.2-3.3,0.1C970.3,508.9,969.2,508.7,968.2,508.7z M1012.7,544.4
		c0-0.1,0.1-0.1,0.1-0.2c-0.3-0.4-0.7-0.8-1-1.1c-0.4-0.4-1-0.7-1.4-1.1c-0.8-0.6-1.3-1.4-2.3-1.7c-1.2-0.4-2.3-1.1-3.4-1.6
		c-1.4-0.5-2.8-1-4.2-1.4c-0.6-0.2-1.3-0.2-2-0.4c-0.6-0.1-0.7-0.6-0.3-1c0.3-0.3,0.4-0.6-0.1-0.8c-0.1-0.1-0.2-0.2-0.3-0.3
		c-0.8-0.9-1.5-1.7-2.3-2.6c-0.6-0.7-1.5-1.3-2-2c-0.5-0.7-1.3-1.3-1.6-2.2c-0.1-0.3-0.6-0.5-0.8-0.7c-0.5-0.7-1-1.4-1.6-2.1
		c-0.1-0.1-0.3-0.1-0.5-0.2c-0.3-0.1-0.7-0.2-0.9-0.4c-0.3-0.2-0.5-0.5-0.8-0.9c-1,0.9-2,1.8-3,2.7c0.1,0.1,0.1,0.2,0.2,0.3
		c0.3-0.1,0.7-0.3,1-0.3c0.4,0,0.7,0,1.1,0.1c0,0.1,0,0.1,0,0.2c-0.9,0.9-1.7,1.7-2.6,2.6c1.1-0.2,2-0.6,2.9-0.8
		c0.6-0.1,1.3-0.7,1.8,0.2c-0.5,0.5-1,1.1-1.5,1.6c-0.5,0.5-1,1.1-1.5,1.5c-0.5,0.5-1.2,0.8-1.3,1.5c0.8-0.4,1.5-0.7,2.2-1.1
		c0.5-0.2,1.2-0.2,1.4-0.6c0.4-0.7,1.2-0.6,1.7-0.8c0.2-0.1,1-0.4,1.3,0.4c-0.4,0.4-0.9,0.8-1.5,1.4c0.8-0.1,1.3,0,1.8-0.2
		c0.7-0.2,1.5-0.1,2,0.4c-0.1,1.1-1.6,1-1.7,2c0,0-0.1,0-0.1,0c-0.2,0.1-0.4,0.3-0.5,0.4c-0.3,0.3-0.5,0.7-0.8,0.9
		c-1,0.7-1.6,1.7-2.4,2.5c-0.9,0.9-1.7,2-2.5,3c0.2,0.3,0.6,0.3,1-0.1c0.5-0.5,1.1-1,1.7-1.4c0.6-0.4,1.2-0.7,1.8-1
		c0.9-0.6,1.7-1.1,2.6-1.7c0.1-0.1,0.3,0,0.4,0c0.1,0.1,0.1,0.3,0.1,0.4c-0.2,0.5-0.5,0.9-0.7,1.4c-0.2,0.4-0.5,0.8-0.7,1.2
		c0.1,0,0.1,0.1,0.2,0.1c0.5-0.3,0.9-0.8,1.4-1c0.8-0.4,1.4-1.4,2.6-0.8c0.1,0.1,0.3,0,0.4,0c0.8-0.2,1.7-0.5,2.5-0.6
		c0.3,0,0.6,0.3,0.9,0.5c0,0,0,0.3-0.1,0.4c-0.3,0.2-0.6,0.3-0.9,0.5c-0.3,0.3-0.6,0.6-1,1.1c0.4-0.1,0.7-0.1,0.9-0.1
		c1.1,0,2.2-0.1,3.3-0.1c0.8,0,1.6,0.2,2.4,0.4c0.3,0.1,0.6,0.3,0.9,0.5c0.1,0.1,0.3,0.3,0.3,0.5c0,0.1-0.3,0.3-0.4,0.3
		c-0.3,0.1-0.5,0.2-0.8,0.3c0,0.1,0,0.2,0.1,0.3c1.5,0,2.9-0.2,4.4,0.1C1010.1,543.3,1011.4,544,1012.7,544.4z M940.1,533.1
		c0-0.2,0-0.3,0-0.4c0.6-0.8,1.1-1.5,1.7-2.3c0.7-0.8,1.5-1.6,2.2-2.4c0.4-0.4,0.8-0.7,1.1-1.1c0.6-0.7,1.1-1.5,1.7-2.2
		c0.5-0.7,1.2-1.3,1.7-2c0.9-1.2,1.7-2.5,2.5-3.7c0.1-0.2,0.3-0.3,0.5-0.5c0,0-0.1-0.1-0.1-0.1c-1.4,1.2-2.8,2.3-4.2,3.5
		c-0.2-0.2-0.3-0.4-0.5-0.5c1.1-1.9,2.2-3.7,3.3-5.5c-0.1-0.1-0.1-0.1-0.2-0.2c-2.6,2.8-5.1,5.7-7.8,8.4c-2.8,2.9-5.7,5.8-8.5,8.6
		c0,0.1,0.1,0.1,0.1,0.2c1.3-0.8,2.6-1.6,4-2.3c0.3-0.2,0.7-0.3,1-0.4c0.1,0,0.3,0.3,0.3,0.3c-0.3,0.5-0.5,1-0.9,1.4
		c-0.7,0.8-1.5,1.5-2.2,2.2c-0.2,0.2-0.4,0.5-0.6,0.7c-0.6,0.6-1.2,1.2-1.8,1.8c-0.6,0.6-1.2,1.2-1.8,1.8c-0.6,0.5-1.3,1-1.9,1.5
		c-0.1,0.1-0.1,0.3-0.2,0.5c0.9-0.5,1.7-1,2.5-1.4c0.1,0,0.3,0,0.4,0.1c0.1,0.1,0.1,0.3,0.1,0.4c-0.2,0.3-0.4,0.6-0.6,0.8
		c-0.8,0.7-1.6,1.3-2.4,2c-0.3,0.3-0.6,0.5-0.9,0.8c0,0.1,0.1,0.1,0.1,0.2c5.2-2.9,9.9-6.5,13.7-11c0-0.1-0.1-0.1-0.1-0.2
		C941.6,532.4,940.9,532.8,940.1,533.1z M932,528.1c0-0.1-0.1-0.1-0.1-0.2c-0.3,0.3-0.7,0.5-1,0.8c-0.4,0.3-0.8,0.6-1.2,0.8
		c-0.2,0.1-0.6,0-0.9-0.2c-0.1,0-0.1-0.6,0-0.6c0.6-0.2,0.4-0.8,0.6-1.2c0.3-0.5,0.6-1.1,0.9-1.7c0,0-0.1,0-0.1,0
		c-3.2,3-6.3,5.9-9.5,8.9c1.1-0.5,2.3-0.9,3.1-1.8c0.1-0.1,0.4-0.2,0.6-0.2c0.4,0,0.7,0.2,0.4,0.6c-0.7,1.1-1.5,2.1-2.3,3.2
		c-0.5,0.6-1,1.2-1.6,1.8c0.2,0.1,0.3,0.2,0.4,0.1c3-2.3,6-4.7,8.6-7.5C930.8,530,931.4,529,932,528.1z"/>
	<path d="M946.7,564.3c0.3,0,0.6,0.1,1,0.1c-0.4-0.6-0.7-1.2-1.1-1.9c0.5,0.1,0.9,0.2,1.3,0.3c-0.2-0.4-0.4-0.9-0.6-1.4
		c0.4,0,0.6,0,0.9,0c-0.2-0.6-0.4-1.1-0.7-1.8c0.5,0.2,0.7,0.2,0.9,0.3c0.2-0.5,0.3-1,0.5-1.5c0.1,0,0.2,0,0.3,0
		c0.1,0.3,0.2,0.6,0.4,0.9c0.1,0.2,0,0.6,0.4,0.4c0.1,0.2,0.2,0.4,0.2,0.7c0,0.3-0.1,0.5-0.2,0.9c0.3-0.2,0.6-0.3,0.9-0.5
		c0.5,0.8-0.7,1.1-0.4,1.9c0.1,0,0.3,0,0.6,0c0.1,0.3,0.2,0.5,0.2,0.7c-0.4,0.3-0.7,0.6-1.1,0.9c0,0.1,0.1,0.2,0.1,0.3
		c0.3,0,0.7-0.1,1-0.1c0-0.4-0.1-0.7-0.1-1c0.6,0.2,0.9-0.2,0.8-0.7c0-0.4-0.1-0.6,0.3-0.8c0.2-0.1,0.2-0.7,0.3-1
		c0.1-0.3,0.3-0.6,0.6-0.7c0.1-0.4,0.1-0.7,0.2-1.1c0.8,0.9,0.6,2.1,1.4,2.7c0,0.6,0.1,1.1,0.1,1.6c0.7,0.2,1.2,0.4,1.9,0.6
		c-0.4-0.7-0.7-1.4-1.2-2.3c0.6,0.1,1,0.2,1.4,0.3c-0.3-0.5-0.5-1-0.7-1.5c0.5-0.1,0.7-0.1,1-0.1c-0.1-0.3-0.1-0.6-0.2-0.8
		c-0.1-0.3-0.3-0.6-0.4-0.9c0.1,0,0.1-0.1,0.2-0.1c0.2,0.1,0.4,0.2,0.7,0.3c0.3-0.6,0.5-1.3,0.8-2.1c0.3,0.9,0.5,1.5,0.6,2.1
		c0.1,0,0.2-0.1,0.5-0.3c0,0.7-0.1,1.2-0.1,1.8c0.3-0.2,0.6-0.3,0.9-0.5c0.6,0.9-0.8,1.3-0.5,2.3c0.3-0.2,0.6-0.4,0.9-0.6
		c0,0-0.1-0.1-0.1-0.1c0.3,0,0.8,0,0.8-0.1c0.1-0.4,0.1-0.9,0.2-1.5c0.5-0.3,0.9-0.7,0.6-1.6c0-0.2,0.3-0.4,0.4-0.6
		c0.1-0.2,0.2-0.5,0.3-0.8c0.1-0.2,0.2-0.5,0.3-0.8c0.8,1.9,1.6,3.6,1.9,5.5c0.3-0.1,0.4-0.2,0.7-0.3c-0.1,0.7-0.2,1.3-0.3,1.9
		c0.2,0,0.5,0,0.8,0c0-0.3,0.1-0.7,0.1-0.9c0.2-0.2,0.4-0.3,0.5-0.5c0.3-0.7,0.5-1.5,0.9-2.3c0,0.9,1.1,1.2,0.9,2.2
		c-0.1,0.3,0.5,0.8,0.8,1.2c-0.2,0.8-0.1,1.1,0.9,1.1c-0.1,0.3-0.3,0.6-0.3,0.9c0,0.2,0.1,0.5,0.1,0.7c0,0.4-0.1,0.7-0.1,1.1
		c0.3-0.2,0.8-0.4,1.4-0.6c-0.2-0.4-0.4-0.9-0.6-1.5c0.4,0.1,0.7,0.2,1,0.3c-0.6-1.1,0.7-1.6,0.6-2.5c0.8,0.2,0.1,1.7,1.4,1.2
		c-0.2,0.5-0.3,0.9-0.4,1.3c0.9,0.2,0.9,0.2,0.3,1.2c0.4,0.1,0.7,0.1,1.3,0.2c0-0.6,0.1-1.2,0.1-1.8c1-1.1,1.1-2.6,1.9-3.8
		c0.3,1.1,0.7,2.1,1,3.2c0,0.1,0,0.3,0,0.4c0.5,0.8,0.5,0.8,0.4,1.3c1.4-0.5,1.4-0.5,0.7-1.9c0.3-0.1,0.6-0.2,1-0.3
		c-0.2-0.6-0.9-1.3,0.4-1.5c-0.1-0.6-0.4-1.2,0.3-1.6c0.2-0.1,0.2-0.5,0.3-0.7c0.1-0.3,0.3-0.6,0.5-1.1c0.3,0.8,0.6,1.4,0.8,2.1
		c0.2,0.4,0.7,0.7,0.5,1.3c0,0.1,0.4,0.3,0.6,0.5c-0.1,0.7-0.1,1.5,0.4,2.3c-0.4,0.8-0.3,0.8,0.7,1c-0.1-0.5-0.2-0.9-0.2-1.3
		c0.7-0.9,0.5-1.9,0.3-2.8c0.8,0,1-0.1,0.8-1.2c1-0.8,0.9-2.1,1.5-3.2c0.8,1.5,1.4,2.9,1.5,4.4c0.2,0,0.4-0.1,0.7-0.1
		c-0.1,0.5-0.2,1-0.2,1.4c0.5,0.2,1,0.3,1.7,0.6c-0.4-0.7-0.7-1.3-1.1-2c0.5,0.1,0.9,0.1,1.3,0.2c-0.2-0.5-0.4-0.9-0.7-1.5
		c0.4,0,0.7,0,1,0.1c-0.2-0.6-0.4-1.1-0.6-1.7c0.2,0,0.3-0.1,0.4,0c0.6,0.4,0.7,0,0.8-0.5c0-0.3,0.2-0.6,0.3-0.9c0.1,0,0.2,0,0.2,0
		c0.1,0.3,0.1,0.6,0.3,0.9c0.1,0.2,0.4,0.3,0.5,0.5c0.1,0.2,0.2,0.4,0.2,0.6c0,0.3-0.1,0.5-0.2,0.9c0.4-0.1,0.7-0.2,1-0.4
		c0.5,0.8-0.7,1.2-0.5,2c0.3-0.1,0.6-0.2,0.9-0.4c0.1,0,0.1,0.1,0.2,0.1c-0.3,0.6-0.7,1.3-1.1,2.1c0.5-0.1,0.9-0.1,1.3-0.1
		c-0.1,0.2-0.1,0.3-0.2,0.4c-0.1,0.2-0.1,0.3-0.2,0.5c0,0,0.3,0.2,0.4,0.1c0.2-0.1,0.4-0.3,0.4-0.4c0-0.2-0.1-0.5-0.2-0.8
		c-0.1-0.2-0.2-0.4-0.5-0.7c0.5-0.1,0.9-0.1,1.2-0.2c-0.2-0.5-0.4-1.1-0.5-1.7c0.1,0,0.1-0.1,0.2-0.1c0.2,0.1,0.4,0.2,0.7,0.3
		c-0.4-1.7,1-2.8,1.2-4.3c0.1,0,0.2,0,0.2,0c0.3,0.6,0.5,1.2,0.8,1.8c0.2,0.4,0.4,0.8,0.6,1.2c0.1,0.1,0,0.3,0.1,0.5
		c0.1,0.3,0.1,0.7,0.3,0.7c0.6,0.3,0.5,0.6,0.3,1.1c-0.1,0.4,0.1,0.9,0.2,1.5c0,0,0.2,0.1,0.4,0.2c-0.1,0.5-0.2,1-0.4,1.6
		c1.2-0.4,1.2-0.4,1-2.3c0.6,0,0.9-0.2,0.7-0.9c0-0.2,0.3-0.5,0.4-0.8c0.3-0.8,0.6-1.6,0.9-2.6c0.2,0.4,0.3,0.5,0.4,0.7
		c0.2,1.1,1.3,1.9,1,3.1c0,0.1,0.4,0.3,0.7,0.5c0,0.3-0.1,0.7-0.1,1.2c0.5,0.2,1,0.4,1.5,0.6c0.3-0.4-0.9-1.1,0.4-1.2
		c-0.2-0.5-0.3-0.9-0.5-1.5c1.2,0.7,0.8-0.7,1.4-0.9c0.2,0.8,1.3,1.3,0.7,2.4c0.3-0.1,0.5-0.2,0.8-0.4c0.1,0,0.1,0.1,0.2,0.1
		c-0.2,0.5-0.4,1-0.6,1.5c0.2,0,0.4-0.1,0.8-0.1c-0.3,0.6-0.6,1.1-0.9,1.7c0.4,0,0.7-0.1,1.1-0.1c-0.2,0.4-0.4,0.8-0.6,1.2
		c0.5,0,0.9,0,0.7-0.7c0-0.2,0.2-0.4,0.5-0.6c0-1.4,0.9-2.4,1.4-3.7c0.4,0.9,0.8,1.9,1.2,3c-0.2,0.5,0,0.7,0.6,0.7
		c0,0.6,0,1.3,0,1.9c0,0.2,0.2,0.5,0.3,0.5c0.3,0,0.5-0.2,0.7-0.2c-0.2-0.6,0.3-0.9,0.4-1.3c0.2-0.6,0.4-1.2,0.7-1.8
		c0.1,0,0.1,0,0.2,0c0.1,0.3,0.3,0.7,0.4,1c0.1,0.1,0.1,0.3,0.2,0.4c0.5,0.5,0.7,1,0.5,1.7c0,0.1,0.3,0.2,0.7,0.4
		c-0.1,0.3-0.3,0.8-0.4,1.2c0.3,0.1,0.6,0.1,1,0.2c-0.2,0.3-0.5,0.5-0.5,0.7c0,0.3,0,0.7,0.2,0.8c0.6,0.4,0.6,0.4,0.3,0.9
		c0.6,0,0.6,0,0.6-0.5c0-0.1,0.1-0.2,0.2-0.3c0.1-0.1,0.3-0.3,0.3-0.4c-0.3-0.6,0.2-0.9,0.5-1.4c0.1-0.2,0.1-0.4,0.1-0.6
		c0.1-0.3,0.1-0.5,0.2-0.8c0.1,0,0.2,0,0.3,0c0.3,0.8,0.6,1.6,0.9,2.5c0.1,0.1,0.1,0.4,0.2,0.4c0.5,0.1,0.5,0.7,0.5,0.9
		c-0.3,0.8,0.4,1.5,0.1,2.4c0.5-0.3,0.9-0.4,1.1-0.5c0.7-1.2,1.3-2.4,1.9-3.6c0.1,0,0.1,0,0.2-0.1c0.2,0.8,0.4,1.7,0.8,2.5
		c0.1,0.4,0.5,0.6,0.7,0.9c0.1,0,0.2-0.1,0.2-0.1c-0.1,0.4-0.2,0.7-0.2,1.1c0,0.3,0.3,0.5,0.4,0.8c0.3-0.2,0.7-0.4,0.9-0.7
		c0.2-0.3,0.3-0.8,0.4-1.2c0.4,0.7,0.9,1.2,1.2,1.8c0.2,0.4,0,0.9,0,1.4c0.4,0,0.8,0,1.1-0.1c0.2-0.6,0.5-1.3,0.8-2
		c0.1,0,0.2,0,0.2,0c0.4,1,0.8,2,1.2,3.1c0.1,0,0.2,0.1,0.3,0.1c0,0.4-0.1,0.7-0.1,1.1c0.1,0,0.2,0,0.3,0.1c0.4-0.5,0.7-1,1.1-1.6
		c0.3,0.4,0.2,1.4,1.3,0.7c-0.2,0.6-0.4,1-0.5,1.5c1,0.2,0.7-0.9,1.3-1.2c0.2,0.5,0.4,1,0.6,1.5c0.2,0.5,0.7,0.9,0.7,1.5
		c0,0.1,0.3,0.2,0.5,0.3c0,0.1,0,0.3-0.1,0.5c-0.1,0.5,0.1,0.7,0.6,0.8c1.9,0.3,3.8,0.4,5.7,0.1c0.4-0.1,0.7,0,1.1,0
		c0,0.1,0,0.2,0.1,0.3c-0.9,0.3-1.8,0.7-2.7,0.8c-3.7,0.6-7.3,0.2-10.9-0.8c-4.2-1.2-8.3-2.6-12.4-3.9c-3.4-1.1-6.7-2.4-10.1-3.4
		c-3.5-1-6.9-1.9-10.5-2.7c-2.2-0.5-4.5-0.7-6.8-1c-1.6-0.2-3.3-0.3-4.9-0.3c-5.3,0.1-10.6,0.9-15.5,3c-0.2,0.1-0.4,0.1-0.6,0.3
		c1.1,0.4,2,1.1,3.3,0.7c2.2-0.6,4.4-1,6.6-1.4c2.8-0.6,5.6-0.5,8.4-0.4c2.8,0,5.5,0.4,8.3,0.9c3.3,0.6,6.5,1.4,9.6,2.5
		c1,0.3,2,0.7,3,1.1c0.2,0.1,0.4,0.2,0.6,0.4c-4.2-0.4-8.4-0.4-12.8,0.4c3.7,0.8,7,2.3,10.4,3.5c2.6,0.9,5.3,1.7,8.1,2.1
		c2.8,0.4,5.7,0.4,8.6,0.5c1.2,0,2.4-0.1,3.7-0.2c0,0.1,0,0.2,0.1,0.3c-0.9,0.2-1.7,0.5-2.6,0.6c-2.1,0.3-4.2,0.6-6.3,0.6
		c-2.2,0-4.4,0-6.6-0.3c-2.6-0.4-5.1-1.2-7.6-1.9c-4.4-1.3-8.6-3-13.1-3.6c-1.9-0.3-3.9-0.4-5.8-0.7c-0.3,0-0.6-0.1-1-0.2
		c2.1-1.4,4.4-2,6.6-2.5c-4.6-0.4-9.1-0.2-13.7,1c3.9,2.1,7.5,4.3,10.6,7.2c0,0.1-0.1,0.1-0.1,0.2c-0.5-0.2-1-0.4-1.5-0.6
		c-3.5-1.5-6.9-3.1-10.4-4.5c-3-1.2-6.1-2.2-9.3-3c-3.6-0.9-7.3-1.6-11-2.1c-2.2-0.3-4.4-0.5-6.5-0.5c-2.9-0.1-5.9-0.1-8.8,0
		c-2.4,0.1-4.9,0.6-7.3,1c-3.5,0.5-6.9,1.5-10.2,2.8c-2.4,0.9-4.7,2.1-7,3.2c-0.8,0.4-1.6,0.9-2.5,1.3c1.1-2.1,2.8-3.7,4.7-5
		c0-0.1-0.1-0.1-0.1-0.2c-3.1,1.1-6.2,2.1-9.3,3.3c-3.2,1.2-6.3,2.5-9.7,3.1c-2.7,0.5-5.5,0.8-8.3,0.9c-2.3,0.1-4.6-0.2-6.9-0.3
		c6.7-0.4,13.1-1.9,19.3-4.2c0-0.1,0-0.2,0-0.2c-0.6-0.2-1.2-0.5-1.8-0.6c-3-0.6-6-0.4-9,0.2c-1.8,0.4-3.6,0.9-5.4,1.3
		c-0.2,0.1-0.5,0-0.7-0.1c-0.7-0.1-1.5-0.4-2.2-0.3c-2.2,0.1-4.3,0.5-6.5,0.6c-1.9,0.1-3.8,0-5.6-0.1c-0.7-0.1-1.5-0.4-2.2-0.7
		c0-0.1,0-0.2,0-0.3c2.5,0,5,0,7.3,0c0.6-1.3,1.1-2.4,1.6-3.7c0.2,0.5,0.4,0.9,0.5,1.2c0.2-0.1,0.3-0.2,0.5-0.3
		c0.1-0.8,0.1-0.8,0.3-0.7c0.1-0.3,0.2-0.5,0.3-0.9c0.2,0.3,0.4,0.6,0.5,0.8c1.2-0.4,0.8-1.7,1.5-2.5c0.4,0.9,0.8,1.6,1.2,2.4
		c0.1,0,0.1,0,0.2-0.1c-0.1-0.2-0.1-0.4-0.2-0.6c0-0.2,0-0.4-0.1-0.6c0.2,0,0.4,0.1,0.5,0.1c0.3-0.7,0.6-1.4,0.9-2.1
		c0.4,0.6,0.9,1.1,1.4,1.7c0.4-0.9,0.7-1.6,1-2.4c0.3,0.5,0.6,1,1,1.6c0,0.1-0.1,0.4-0.1,0.7c0.1,0,0.2,0.1,0.2,0.1
		c0.4-1,0.9-2,1.4-3.2c0.3,0.7,0.5,1.2,0.7,1.7c0.2,0.5,0.4,0.9,0.7,1.3c0.1,0,0.2,0,0.3,0c0.1-0.4,0.1-0.8,0.2-1.1
		c0,0,0.1,0.1,0.1,0.1c0.4-1,0.9-2,1.4-3.2c0.2,0.6,0.3,1.1,0.6,1.5c0.2,0.3-0.2,1.1,0.7,1c0,0.5-0.2,1.1,0.7,1.1
		c-0.2-0.3-0.4-0.6-0.5-1c0-0.2,0.3-0.4,0.7-0.7c-0.1-0.3-0.3-0.8-0.5-1.4c0.2,0,0.4,0.1,0.5,0.1c0.4,0.1,0.6,0,0.6-0.5
		c0-0.3,0.2-0.6,0.4-1c0.6,0.4,0.3,1.4,1.2,1.5c-0.1,0.4-0.1,0.9-0.2,1.5c0.4-0.2,0.7-0.3,1.1-0.5c-0.1-0.2-0.2-0.4-0.2-0.4
		c0.2-0.4,0.3-0.6,0.5-0.8c0.9-0.8,0.4-2.1,1.4-2.9c0.3,0.8,0.5,1.5,0.8,2.2c0.1,0.3,0.4,0.8,0.7,0.9c0.4,0,0.8-0.3,1-0.9
		c0.2-0.7,0.4-1.3,0.6-2.2c0.7,1.4,1,2.7,2.2,3.7c-0.1,0.1-0.2,0.4-0.3,0.5c0.4,0.1,0.7,0.2,1.1,0.3c0-0.1,0-0.2,0-0.4
		c-0.1-0.6-0.1-1.1,0.4-1.5c0.3-0.3,0.4-0.8,0.7-1.3c0.8,0.2,0.1,1.9,1.4,1.6c0.3,0.6-0.6,1.1,0.2,1.8c0.5-1.3,1.1-2.4,1.6-3.7
		c0.1,0.3,0.2,0.4,0.3,0.6c0.1,0.4,0.2,0.8,0.4,1.1c0.2,0.3,0.6,0.6,0.1,0.9c0,0,0.1,0.3,0.1,0.4c0.1,0.2,0.1,0.4,0.2,0.6
		c0.1,0.1,0.2,0.2,0.3,0.3c0.2,0.1,0.5,0.3,0.9,0.5c-0.1-0.4-0.1-0.8-0.2-1.3c0.4-0.4,0.5-1,0.2-2.2c0.5,0,0.7-0.3,0.7-0.9
		c0-0.5,0.4-1.1,0.6-1.6c0.2-0.4,0.4-0.7,0.7-1.3c0.3,0.6,0.4,1.2,0.7,1.7c0.3,0.5,0.6,1,0.5,1.7c0,0.1,0,0.2,0.1,0.2
		c0.6,0.5,0.6,0.5,0.2,1.3c0.4,0.1,0.8,0.2,1.4,0.4c-0.1-0.5-0.2-1-0.4-1.7c0.1-0.1,0.4-0.2,0.6-0.3c0-0.3-0.1-0.7-0.2-1.1
		c0.1,0,0.1,0.1,0.2,0.1c0.2-0.2,0.4-0.4,0.5-0.6c0.4-1.1,0.7-2.3,1-3.4c0.1,0,0.1,0,0.2,0c0.2,0.5,0.5,1,0.6,1.5
		c0.1,0.5,0.2,0.9,0.7,1.1c0.1,0,0.1,0.3,0.1,0.4c-0.3,0.7,0.1,0.8,0.6,0.8c-0.3,1.8-0.2,2.2,0.6,2.1c-0.1-0.3-0.2-0.7-0.4-1.1
		c0.4,0.1,0.6,0.2,0.9,0.3c-0.1-0.3-0.2-0.5-0.3-0.7c-0.1-0.2-0.1-0.4-0.2-0.7c0.2,0,0.5,0,0.8,0c-0.2-0.3-0.3-0.5-0.5-0.8
		c-0.1-0.3-0.2-0.5-0.3-0.8c0.3,0,0.5,0,0.8,0c-0.1-0.3-0.3-0.6-0.4-1.1c0.3,0,0.5,0,0.8-0.1c-0.2-0.5-0.4-0.9-0.6-1.4
		c0.4-0.1,0.8-0.1,1-0.3c0.2-0.2,0.1-0.6,0.3-1c0.2,0.9,1.4,1.4,0.8,2.6c0.3-0.1,0.5-0.2,0.8-0.4c0.5,0.7-0.3,1-0.3,1.5
		c0.2,0,0.4,0,0.8,0c-0.3,0.6-0.6,1.1-0.9,1.6c0.4,0,0.7,0,0.9,0c0.1,0.2,0.2,0.4,0.2,0.6c0.1-0.1,0.2-0.1,0.2-0.2
		c-0.4-0.7,0-1.4,0-2.2c0-0.4,0.1-0.8,0.1-1.3c0.1,0,0.5-0.1,0.5-0.1c-0.1-0.7,0.5-1.2,0.7-1.8c0.2-0.6,0.4-1.1,0.6-1.7
		c0.1,0,0.2,0,0.3,0c0.3,1,0.6,2,1,3c0.1,0.2,0.3,0.3,0.4,0.5c0.1,0.3,0.2,0.7,0.2,1.2c0.1,0,0.3,0.1,0.5,0.1c0.2,0,0.5,0,0.6-0.1
		c0.1-0.2,0.1-0.5,0.1-0.8c-0.1-0.2-0.3-0.5-0.4-0.7c0.3-0.1,0.6-0.1,0.9-0.2c-0.1-0.4-0.2-0.9-0.3-1.3c0,0,0.4-0.1,0.6-0.2
		c0-0.1,0-0.4,0-0.6c0.1-0.4-0.3-0.8,0.4-1.1c0.2-0.1,0.3-0.6,0.4-0.9c0.1-0.3,0.3-0.6,0.5-1c0.4,0.8,0.7,1.5,0.9,2.1
		c0.1,0.4,0.7,0.7,0.4,1.3c0,0,0.3,0.3,0.6,0.5c0,0.4,0.2,0.9,0.1,1.5c-0.1,0.7,0.3,0.6,0.7,0.7c0.2,0,0.5,0.1,0.9,0.1
		c-0.3-0.6-0.6-1.1-1-1.8c0.4,0.1,0.6,0.1,0.9,0.1c-0.2-0.5-0.4-1-0.6-1.5c0.1,0,0.1-0.1,0.2-0.1c0.2,0.1,0.5,0.2,0.8,0.4
		c-0.5-0.7-0.3-1.2,0.3-1.6c0.2-0.1,0.2-0.4,0.4-0.7c0.3,0.5,0.4,1.4,1.5,0.7c-0.3,0.7-0.4,1.1-0.6,1.6c0.8,0.2,0.8,0.2,0.4,1.2
		c0.2,0,0.3,0,0.5,0c0.2,0,0.3,0,0.5,0.1c-0.1-0.4-0.1-0.8-0.2-1.2c0.7,0,0.9-0.3,0.7-1.1c0.9-0.7,0.7-2,1.4-2.9
		c0.4,1.3,1.2,2.3,1.2,3.6C945.9,563.8,946.4,564,946.7,564.3c-0.1,0.3-0.3,0.6-0.4,0.8c0.3,0.3,0.6,0.6,1.1,1
		C947.1,565.3,946.9,564.8,946.7,564.3z M971.6,567.8c0-0.5-0.1-0.8-0.6-0.7c-0.4,0.1-0.5,1.1-0.1,1.5c0-0.2,0-0.5,0-0.7
		C971.2,567.8,971.4,567.8,971.6,567.8z M1006.6,566.1c0-0.1,0-0.2,0.1-0.2c-0.2-0.4-0.5-0.7-0.8-1.2c-0.2,0.3-0.3,0.5-0.5,0.8
		C1005.8,565.7,1006.2,565.9,1006.6,566.1z M960.9,562.6c0,0-0.1,0-0.1,0c-0.2,0.2-0.4,0.4-0.5,0.6c-0.1,0.2-0.1,0.5-0.2,0.7
		c0.2,0,0.5-0.1,0.7-0.1C960.9,563.4,960.9,563,960.9,562.6z M990,563.5c-0.1,0.4-0.3,0.7-0.2,0.8c0.2,0.2,0.5,0.4,0.8,0.6
		c0.1-0.1,0.1-0.1,0.2-0.2C990.5,564.3,990.3,564,990,563.5z M974.3,567.5c0.4,0,0.7-0.1,1.1-0.1c-0.2-0.4-0.3-0.7-0.4-1
		C974.7,566.8,974.5,567,974.3,567.5z M956.5,565c-0.3-0.4-0.5-0.7-0.7-1.1c-0.2,0.4-0.3,0.7-0.4,1C955.8,565,956.1,565,956.5,565z"
		/>
	<path d="M915.3,582.8c-1.5,1.9-3.1,3.8-4.6,5.6c2.8,0,5.6-0.8,8.3-1.6c2.4-0.7,4.8-1.5,7.2-2.2c3.2-0.9,6.3-1.7,9.5-2.3
		c1.8-0.4,3.6-0.5,5.5-0.6c2-0.1,3.9-0.2,5.9-0.1c2,0.1,4.1,0.4,6.1,0.7c0.9,0.1,1.9,0.3,2.8,0.5c0.3,0,0.5,0.2,0.7,0.3
		c0,0.1,0,0.1,0,0.2c-1-0.1-2-0.1-2.9-0.2c-0.8,0-1.5-0.1-2.3-0.1c-2,0-4,0-6,0.2c-1.8,0.1-3.5,0.5-5.3,0.8
		c-5.7,1.1-11.1,3.2-16.7,4.8c-3,0.9-6,1.7-9,2.3c-1.7,0.4-3.6,0.5-5.4,0.6c-1.5,0.1-3.1,0.1-4.6,0.2c-0.7,0-1.5-0.1-2.4-0.1
		c1.4-1,2.7-1.8,4-2.7c0-0.1-0.1-0.2-0.1-0.3c-4.4,0.4-8.8,0.5-13.1-0.5c7.8-0.3,15.1-2.4,22-5.7
		C915.1,582.6,915.2,582.7,915.3,582.8z"/>
	<path d="M980.4,584.7c-1.7-0.3-3.5-0.7-5.2-0.9c-2.9-0.4-5.8-0.6-8.7-0.2c-0.4,0.1-0.8-0.2-1.2-0.3c-3-1.4-6.1-2.3-9.3-2.8
		c-2.7-0.4-5.5-0.7-8.2-0.8c-2.6-0.1-5.1-0.1-7.7,0.2c-5.3,0.5-10.4,1.5-15.4,3.2c-2.6,0.9-5.2,1.9-7.8,2.8c-0.2,0.1-0.5,0.1-0.8,0
		c0.2-0.1,0.3-0.3,0.5-0.4c4-2.5,8.3-4.3,12.9-5.6c2.1-0.6,4.3-1.1,6.4-1.5c2.3-0.4,4.7-0.7,7-0.8c2.9-0.2,5.8-0.2,8.7-0.1
		c2.7,0.1,5.4,0.4,8.1,0.9c3,0.5,6,1.1,9,1.8c3.9,1,7.8,2.3,11.5,4.2C980.2,584.4,980.3,584.5,980.4,584.7
		C980.4,584.6,980.4,584.6,980.4,584.7z"/>
	<path d="M934.1,500.6c-5.6-4.4-11.9-5.7-18.8-4.9c-6.9,0.7-12.8,3.3-17.1,9c0.2-1.4,1-2.4,1.8-3.4c2.4-3,5.6-4.8,9.2-6
		c2.5-0.9,5.1-1.2,7.8-1.4c3.4-0.2,6.8,0.2,10,1.4c0.3,0.1,0.5,0.2,0.8,0.3c1.2,0.6,2.3,0.4,3.6,0.3c2-0.2,4.1-0.2,6.2,0
		c2,0.1,4,0.9,5.8,1.8c1.7,0.8,3.1,2,4.3,3.5c0.1,0.1,0.2,0.3,0.2,0.5c-2.3-2-4.8-3.5-7.7-4.2c-2.9-0.7-5.8-0.8-8.9-0.1
		C932.3,498.4,933.5,499.2,934.1,500.6z"/>
	<path d="M902.7,562.2c-3,2.1-6.2,3.4-10,3.2c1.9-1.2,3.8-2.2,5.5-3.4c1.8-1.2,3.1-2.9,4.5-4.8c0.1,0.8,0.2,1.4,0.3,2.1
		c0.3-0.4,0.5-0.7,0.8-1.1c0.3,1.1,0.6,2.1,1,3.4c1.2-2.6,2.8-4.4,5.3-5.6c-1,1.5-1.8,2.8-2.7,4.1c0.1,0.1,0.1,0.1,0.2,0.2
		c0.5-0.1,0.9-0.2,1.4-0.2c0.1,0.1,0.1,0.1,0.2,0.2c-2.2,1.7-2.9,4.2-3.6,6.6C904.6,566.4,903.1,564.1,902.7,562.2z"/>
	<path d="M1021.4,562.1c1.7,0.8,3.3,1.3,5.3,1.2c-0.6-0.7-1.1-1.2-1.8-1.9c0.5,0,0.8,0,1,0.1c2.6,0.5,4.9,1.8,7,3.3
		c3.1,2.3,6.1,4.6,9.1,7c0.5,0.4,1,0.8,1.4,1.2c-1.8-0.4-3.3-1.5-4.9-2.4c-2.4-1.4-4.8-2.9-7.2-4.3c-0.5-0.3-1.1-0.5-1.8-0.8
		c0.1,0.4,0.2,0.6,0.3,1c-0.4,0-0.7-0.1-1.1-0.1c0,0.1,0,0.1-0.1,0.2c1.1,0.4,2.2,0.9,3.3,1.3
		C1029.2,568.8,1021.5,564.7,1021.4,562.1z"/>
	<path d="M1021,589.2c-1.9,0.6-4.2,0.8-6.5,0.6c-2.1-0.2-4.2-0.5-6.2-0.9c-3.8-0.7-7.6-1.5-11.4-2.2c-1-0.2-2-0.2-3-0.3
		c1.1-0.7,2.3-0.7,3.7-0.8c-2.9-1.2-5.7-1.9-8.5-2.4c0-0.1,0-0.2,0-0.3c1.1,0,2.2-0.2,3.3,0c2.3,0.4,4.6,0.9,6.9,1.6
		c2.6,0.7,5.2,1.7,7.8,2.4c2.7,0.7,5.4,1.4,8.1,1.9C1017.2,589.1,1019.3,589.1,1021,589.2z"/>
	<path d="M960.6,544.7c0,0.3-0.1,0.5-0.1,0.7c1.1-0.7,2.2-1.4,3.3-2c0.1,0.1,0.1,0.2,0.2,0.2c-1.7,1.6-3.3,3.2-5,4.8
		c0,0.1,0.1,0.1,0.1,0.2c1.4-0.6,2.9-1.1,4.3-1.7c0.1,0.1,0.1,0.2,0.2,0.3c-3.8,2.8-7.1,6.2-10,9.9c0.4-1.8,1.3-3.3,2.1-5
		c-1.3,0.8-2.7,1.7-4,2.6C951.7,553.2,958.7,545.5,960.6,544.7z"/>
	<path d="M1022.5,516.5c0.3-0.4,0.6-0.9,0.9-1.4c-1.2-0.8-2.6-1.3-4.1-1.1c-1.4,0.2-2.8,0.6-4.3,1c0.5-0.4,0.9-0.9,1.4-1.1
		c2.6-1.3,5.1-1.2,7.6,0.2c0.3,0.2,0.7,0.2,1,0.1c3.1-1.3,7.9-0.4,10.2,2.6c0.5,0.7,0.7,1.7,1,2.5c-3-4.7-10-5.9-13.5-2.7
		C1022.6,516.6,1022.5,516.5,1022.5,516.5z"/>
	<path d="M896.9,528.9c8.9-4.5,18.3-7.2,28.2-8.1C915.6,523.1,906.2,525.7,896.9,528.9z"/>
	<path d="M915.1,561.5c-1.7,1.6-3.5,3.2-5.2,4.7c-0.1-0.1-0.2-0.2-0.3-0.2c1-1.3,2.1-2.5,3.2-3.8c-0.2-0.2-0.3-0.4-0.6-0.6
		c1-0.1,1.9-0.2,2.7-0.3C915,561.3,915,561.4,915.1,561.5z"/>
	<path d="M973.1,556.3c1.1-2.7,2.1-4.3,3.6-5.7c-0.1,1,0.1,1.7-0.7,2.5C974.9,554.1,974.1,555.2,973.1,556.3z"/>
	<path d="M1030.3,571c0.9-0.5,1.8-1.2,2.7-1.6c0.5-0.2,1.2,0.3,1.9,0.6c-1.5,0.4-3,0.8-4.5,1.2
		C1030.4,571.2,1030.4,571.1,1030.3,571z"/>
	<path d="M915.2,555.8c0.7-0.8,1.3-1.6,2-2.4c0.2-0.2,0.6-0.3,1-0.4c0.4-0.1,0.7-0.1,1.1-0.2c0,0.1,0.1,0.1,0.1,0.2
		c-1.4,1-2.7,2-4.1,3C915.2,555.9,915.2,555.8,915.2,555.8z"/>
	<path d="M1037.9,571.7c-1.4,0.2-2.7,0.5-4.1,0.7C1034.7,571,1036.6,570.7,1037.9,571.7z"/>
	<path d="M882.1,572.2c-1.4-0.2-2.7-0.4-4-0.7C879.4,570.5,880.7,570.7,882.1,572.2z"/>
	<path d="M881.4,569.9c1.7-1.2,2.8,0.2,4.2,1.1C884.1,570.6,882.7,570.2,881.4,569.9z"/>
	<path d="M1040.9,573.2c-1.4,0.1-2.6,0.2-3.9,0.3C1038.1,572.4,1039.7,572.2,1040.9,573.2z"/>
	<path d="M875,573.1c1.2-0.9,2.3-0.8,3.4,0C877.3,573.1,876.1,573.1,875,573.1z"/>
	<path class="st0" d="M1006.3,515.7c-2.4-0.2-4.8-0.5-7.2-0.7c0-0.1,0-0.2,0-0.2c0.2-0.1,0.4-0.1,0.6-0.2c0.9-0.5,1.9-0.9,2.8-1.4
		c1.1-0.6,1.1-2,0.3-2.9c-1.1-1.4-2.8-1.7-4.3-2.1c-0.5-0.1-1-0.4-1.6-0.5c-1.1-0.2-2.3-0.4-3.4-0.6c-0.9-0.1-1.8-0.3-2.7-0.4
		c-0.6-0.1-1.2,0.1-1.8,0c-2.8-0.4-5.6,0-8.4-0.3c-1.9-0.2-3.8-0.2-5.7,0c-0.6,0.1-1.3-0.2-2-0.2c-1.3,0-2.6,0.2-4,0.3
		c-0.3,0-0.6,0.1-0.9,0c-0.4-0.1-0.8-0.2-0.4-0.9c0.4-0.6,0.5-1.3,0.7-2c0.1-0.3,0.2-0.6,0.4-0.9c0.5-1.1,1-2.1,1.6-3.1
		c0.4-0.7,1.1-1.4,1.6-2c0.6-0.7,1.1-1.4,1.8-2c0.5-0.4,1.1-0.7,1.6-1.1c0.7-0.5,1.4-1.1,2.1-1.5c0.9-0.5,1.8-0.9,2.7-1.2
		c0.8-0.3,1.7-0.6,2.5-0.9c0.3-0.1,0.6,0,0.8-0.1c0.9-0.2,1.8-0.4,2.7-0.5c0.6-0.1,1.2,0,1.9,0.1c0.7,0,1.4,0,2.1,0.1
		c1.1,0.1,2.1,0.4,3.2,0.6c0.7,0.2,1.4,0.4,2.1,0.6c1.1,0.4,2.2,0.9,3.2,1.5c0.7,0.4,1.4,0.7,2,1.2c1.1,0.9,2.1,1.9,3.1,2.9
		c0.5,0.5,1.2,1.1,1.5,1.8c0.4,1,1.7,1.4,1.5,2.7c0,0.2,0.1,0.4,0.2,0.5c1,1,0.9,2.6,1.6,3.7c0.2,0.4,0.2,1,0.3,1.5
		c0.2,1.4,0.4,2.8,0.5,4.2c0,0.9-0.2,1.9-0.3,2.8c-0.1,0.6-0.1,1.1-0.1,1.8c-0.9-0.1-1.7-0.2-2.6-0.3
		C1006.3,515.8,1006.3,515.8,1006.3,515.7z"/>
	<path class="st0" d="M968.2,508.7c1,0,2.1,0.2,3.1-0.1c1.1-0.3,2.2-0.1,3.3-0.1c1.4,0,2.8-0.2,4.2-0.2c1,0,1.9,0.2,2.9,0.2
		c0.2,0,0.4-0.1,0.6-0.1c0.2,0,0.6-0.1,0.7,0c0.5,0.4,0.9,0.3,1.4,0.2c1-0.1,1.9,0,2.9,0c1.4,0.1,2.8,0.2,4.2,0.4
		c0.9,0.1,1.9,0.4,2.8,0.6c0.8,0.2,1.6,0.3,2.4,0.5c1.2,0.3,2.5,0.7,3.7,1.1c0,0.1,0,0.3,0,0.4c-0.8,0.4-1.7,0.8-2.5,1.1
		c-0.9,0.3-1.7,0.9-2.1,1.7c-0.6,1.2,0,2.3,1.3,2.8c0.8,0.3,1.7,0.3,2.5,0.2c0.6,0,1.1,0.2,1.7,0.2c0.4,0,0.9-0.1,1.3-0.1
		c1,0.1,2,0.3,2.9,0.5c0.4,0.1,0.8,0,1.2,0.1c0.4,0.1,0.9,0.2,1,0.4c0.1,0.3,0,0.8-0.2,1.1c-0.5,0.9-1.3,1.1-2.2,0.6
		c-0.2-0.1-0.6,0.1-0.9,0.1c-0.6,0-1.2-0.2-1.7-0.2c-1.2,0.1-2.4,0.2-3.5,0.3c-0.8,0.1-1.6,0-2.4,0.1c-0.5,0-1,0.3-1.6,0.4
		c0.4,0.5,1.2,0.7,1.8,0.6c0.5-0.1,1-0.2,1.5-0.1c1.7,0.2,3.5,0.5,5.3,0.3c0.7,0,1.5,0.3,2.5,0.5c-0.2,0.3-0.3,0.7-0.5,1
		c-0.6,0.8-1.3,1.7-1.9,2.4c-0.6,0.7-1.3,1.3-2,1.9c-0.7,0.6-1.4,1.1-2.1,1.6c-0.5,0.3-1,0.6-1.7,0.9c-0.7-0.7-1.4-1.5-2.1-2.3
		c-0.4-0.4-0.9-0.8-1.2-1.3c-0.3-0.7-0.9-1-1.3-1.5c-0.6-0.9-1.2-1.8-1.8-2.6c-0.5-0.7-1-1.3-1.5-1.9c-0.2-0.3-0.5-0.5-0.8-0.8
		c-0.5-0.7-1.3-0.9-2.1-0.5c-1.5,0.7-2.7,1.7-3.8,2.9c-0.5,0.6-1.3,1.1-2,1.5c-0.2,0.1-0.7-0.1-0.9-0.4c-0.9-1-1.7-2.1-2.5-3.2
		c-0.6-0.8-1.3-1.6-2-2.3c-1-1.1-2.2-2.2-3.2-3.3c-1.2-1.3-2.2-2.7-3.3-4c-0.5-0.6-0.9-1.1-1.4-1.6
		C968.1,508.8,968.1,508.7,968.2,508.7z"/>
	<path class="st0" d="M1012.7,544.4c-1.4-0.5-2.7-1.1-4.1-1.4c-1.4-0.2-2.9-0.1-4.4-0.1c0-0.1,0-0.2-0.1-0.3
		c0.3-0.1,0.5-0.2,0.8-0.3c0.2-0.1,0.4-0.2,0.4-0.3c0-0.1-0.1-0.4-0.3-0.5c-0.3-0.2-0.6-0.4-0.9-0.5c-0.8-0.2-1.6-0.4-2.4-0.4
		c-1.1-0.1-2.2,0-3.3,0.1c-0.2,0-0.4,0.1-0.9,0.1c0.4-0.4,0.7-0.8,1-1.1c0.2-0.2,0.6-0.3,0.9-0.5c0.1-0.1,0.2-0.4,0.1-0.4
		c-0.3-0.2-0.6-0.5-0.9-0.5c-0.8,0.1-1.7,0.4-2.5,0.6c-0.1,0-0.3,0.1-0.4,0c-1.1-0.6-1.8,0.4-2.6,0.8c-0.5,0.2-1,0.7-1.4,1
		c-0.1,0-0.1-0.1-0.2-0.1c0.2-0.4,0.5-0.8,0.7-1.2c0.3-0.4,0.5-0.9,0.7-1.4c0-0.1,0-0.3-0.1-0.4c-0.1-0.1-0.3-0.1-0.4,0
		c-0.9,0.6-1.7,1.1-2.6,1.7c-0.6,0.4-1.2,0.7-1.8,1c-0.6,0.4-1.2,0.9-1.7,1.4c-0.4,0.4-0.8,0.4-1,0.1c0.8-1,1.6-2.1,2.5-3
		c0.8-0.8,1.4-1.9,2.4-2.5c0.3-0.2,0.5-0.6,0.8-0.9c0.1-0.2,0.3-0.3,0.5-0.4c0,0,0.1,0,0.1,0c0.1-1.1,1.6-0.9,1.7-2
		c-0.4-0.6-1.3-0.7-2-0.4c-0.5,0.2-1,0.1-1.8,0.2c0.6-0.6,1-1,1.5-1.4c-0.3-0.8-1.1-0.5-1.3-0.4c-0.5,0.3-1.3,0.1-1.7,0.8
		c-0.2,0.3-0.9,0.3-1.4,0.6c-0.7,0.3-1.5,0.7-2.2,1.1c0.1-0.8,0.7-1.1,1.3-1.5c0.5-0.5,1-1,1.5-1.5c0.5-0.5,1-1,1.5-1.6
		c-0.5-0.9-1.2-0.4-1.8-0.2c-1,0.2-1.9,0.6-2.9,0.8c0.9-0.9,1.7-1.7,2.6-2.6c0-0.1,0-0.1,0-0.2c-0.4,0-0.7-0.1-1.1-0.1
		c-0.3,0-0.7,0.2-1,0.3c-0.1-0.1-0.1-0.2-0.2-0.3c1-0.9,1.9-1.7,3-2.7c0.3,0.4,0.5,0.7,0.8,0.9c0.3,0.2,0.6,0.2,0.9,0.4
		c0.2,0.1,0.4,0.1,0.5,0.2c0.5,0.7,1,1.4,1.6,2.1c0.2,0.3,0.7,0.4,0.8,0.7c0.3,0.9,1.1,1.4,1.6,2.2c0.5,0.8,1.3,1.3,2,2
		c0.8,0.8,1.5,1.7,2.3,2.6c0.1,0.1,0.2,0.2,0.3,0.3c0.4,0.3,0.3,0.5,0.1,0.8c-0.4,0.4-0.2,0.9,0.3,1c0.7,0.1,1.4,0.2,2,0.4
		c1.4,0.4,2.8,0.9,4.2,1.4c1.2,0.5,2.3,1.2,3.4,1.6c1,0.3,1.6,1.1,2.3,1.7c0.5,0.4,1,0.7,1.4,1.1c0.4,0.3,0.7,0.7,1,1.1
		C1012.8,544.3,1012.8,544.4,1012.7,544.4z"/>
	<path class="st0" d="M940.1,533.1c0.8-0.4,1.5-0.7,2.1-1c0,0.1,0.1,0.1,0.1,0.2c-3.9,4.5-8.5,8.1-13.7,11c0-0.1-0.1-0.1-0.1-0.2
		c0.3-0.3,0.6-0.5,0.9-0.8c0.8-0.7,1.6-1.3,2.4-2c0.2-0.2,0.4-0.5,0.6-0.8c0.1-0.1,0-0.3-0.1-0.4c-0.1-0.1-0.3-0.1-0.4-0.1
		c-0.8,0.4-1.6,0.9-2.5,1.4c0.1-0.2,0.1-0.4,0.2-0.5c0.6-0.5,1.3-1,1.9-1.5c0.6-0.6,1.2-1.2,1.8-1.8c0.6-0.6,1.2-1.2,1.8-1.8
		c0.2-0.2,0.4-0.5,0.6-0.7c0.7-0.7,1.5-1.5,2.2-2.2c0.4-0.4,0.6-0.9,0.9-1.4c0,0-0.2-0.4-0.3-0.3c-0.3,0.1-0.7,0.2-1,0.4
		c-1.3,0.8-2.6,1.6-4,2.3c0-0.1-0.1-0.1-0.1-0.2c2.9-2.9,5.7-5.7,8.5-8.6c2.6-2.8,5.2-5.6,7.8-8.4c0.1,0.1,0.1,0.1,0.2,0.2
		c-1.1,1.8-2.2,3.6-3.3,5.5c0.1,0.1,0.3,0.3,0.5,0.5c1.4-1.2,2.8-2.3,4.2-3.5c0,0,0.1,0.1,0.1,0.1c-0.2,0.2-0.3,0.3-0.5,0.5
		c-0.8,1.2-1.6,2.5-2.5,3.7c-0.5,0.7-1.2,1.3-1.7,2c-0.6,0.7-1.1,1.5-1.7,2.2c-0.3,0.4-0.7,0.7-1.1,1.1c-0.7,0.8-1.5,1.6-2.2,2.4
		c-0.6,0.7-1.1,1.5-1.7,2.3C940.1,532.8,940.1,532.9,940.1,533.1z"/>
	<path class="st0" d="M932,528.1c-0.7,0.9-1.2,1.9-2,2.7c-2.7,2.7-5.6,5.1-8.6,7.5c0,0-0.2-0.1-0.4-0.1c0.5-0.6,1.1-1.2,1.6-1.8
		c0.8-1,1.6-2.1,2.3-3.2c0.3-0.4,0-0.6-0.4-0.6c-0.2,0-0.5,0.1-0.6,0.2c-0.8,0.9-2,1.3-3.1,1.8c3.2-3,6.3-5.9,9.5-8.9
		c0,0,0.1,0,0.1,0c-0.3,0.6-0.6,1.2-0.9,1.7c-0.2,0.4-0.1,1-0.6,1.2c-0.1,0-0.1,0.5,0,0.6c0.3,0.1,0.6,0.3,0.9,0.2
		c0.4-0.2,0.8-0.5,1.2-0.8c0.3-0.2,0.7-0.5,1-0.8C931.9,527.9,932,528,932,528.1z"/>
	<path class="st0" d="M971.6,567.8c-0.2,0-0.5,0-0.7,0.1c0,0.2,0,0.4,0,0.7c-0.4-0.3-0.4-1.4,0.1-1.5
		C971.5,567,971.7,567.3,971.6,567.8z"/>
	<path class="st0" d="M1006.6,566.1c-0.4-0.2-0.8-0.4-1.2-0.6c0.2-0.3,0.3-0.5,0.5-0.8c0.3,0.5,0.6,0.8,0.8,1.2
		C1006.6,565.9,1006.6,566,1006.6,566.1z"/>
	<path class="st0" d="M951.3,563.4c0,0.3,0.1,0.6,0.1,1c-0.4,0-0.7,0.1-1,0.1c0-0.1-0.1-0.2-0.1-0.3
		C950.6,564,951,563.7,951.3,563.4C951.3,563.5,951.3,563.4,951.3,563.4z"/>
	<path class="st0" d="M960.9,562.6c0,0.4-0.1,0.7-0.1,1.2c-0.2,0-0.4,0.1-0.7,0.1c0.1-0.2,0.1-0.5,0.2-0.7c0.1-0.2,0.3-0.4,0.5-0.6
		C960.8,562.6,960.9,562.6,960.9,562.6z"/>
	<path class="st0" d="M990,563.5c0.3,0.5,0.5,0.9,0.7,1.2c-0.1,0.1-0.1,0.1-0.2,0.2c-0.3-0.2-0.6-0.3-0.8-0.6
		C989.6,564.2,989.8,563.9,990,563.5z"/>
	<path class="st0" d="M946.7,564.3c0.2,0.5,0.4,1.1,0.7,1.8c-0.5-0.4-0.7-0.7-1.1-1C946.4,564.9,946.5,564.6,946.7,564.3
		C946.7,564.3,946.7,564.3,946.7,564.3z"/>
	<path class="st0" d="M974.3,567.5c0.3-0.5,0.4-0.7,0.6-1.1c0.2,0.4,0.3,0.7,0.4,1C974.9,567.4,974.7,567.5,974.3,567.5z"/>
	<path class="st0" d="M956.5,565c-0.4,0-0.7,0-1.1-0.1c0.1-0.3,0.3-0.6,0.4-1C956,564.3,956.2,564.6,956.5,565z"/>
</g>
</svg>
