<?xml version="1.0" encoding="utf-8"?>
<!-- Generator: Adobe Illustrator 25.2.1, SVG Export Plug-In . SVG Version: 6.00 Build 0)  -->
<svg version="1.1" id="Слой_1" xmlns="http://www.w3.org/2000/svg" xmlns:xlink="http://www.w3.org/1999/xlink" x="0px" y="0px"
	 viewBox="0 0 550.5 314.4" style="enable-background:new 0 0 550.5 314.4;" xml:space="preserve">
<style type="text/css">
	.st0{fill:#FFFFFF;}
</style>
<path class="st0" d="M46.9,89.6L46.9,89.6z M46.9,89.6L46.9,89.6L46.9,89.6z M61.9,245L61.9,245L61.9,245L61.9,245L61.9,245
	L61.9,245z M81.1,205L81.1,205l0.2,0.4L81.1,205z M94.1,194.4L94.1,194.4L94.1,194.4L94.1,194.4z M98.1,190.4L98.1,190.4
	c2.7-2.7,5.3-5.5,7.9-8.2L98.1,190.4z M113.2,248L113.2,248L113.2,248l0-0.1C113.2,247.9,113.2,248,113.2,248L113.2,248z M106,182
	L106,182l8.7-6.6L106,182z M127,174.6L127,174.6l0.3-0.1L127,174.6z M133.5,97.7L133.5,97.7C133.3,97.7,133.4,97.7,133.5,97.7
	L133.5,97.7z M133.7,97.7L133.7,97.7L133.7,97.7L133.7,97.7L133.7,97.7z M155.9,244.9L155.9,244.9
	C155.9,244.9,155.9,244.9,155.9,244.9L155.9,244.9z M156.6,169.9L156.6,169.9l0.1-0.1L156.6,169.9z M156.6,169.8L156.6,169.8
	c0.5-0.5,1-1,1.4-1.6L156.6,169.8z M250.5,149.8L250.5,149.8l0.2-0.1L250.5,149.8z M252.4,120.1L252.4,120.1c0-0.1,0-0.1,0-0.2
	V120.1z M261.7,53l-0.2,0.1L261.7,53c-0.5,0.6-1,1.1-1.5,1.6C260.7,54.1,261.1,53.6,261.7,53L261.7,53L261.7,53L261.7,53z
	 M287.3,166.3L287.3,166.3z M312.3,188.2L312.3,188.2L312.3,188.2L312.3,188.2z M318.9,231.6L318.9,231.6L318.9,231.6z M334.4,283.9
	L334.4,283.9L334.4,283.9L334.4,283.9L334.4,283.9L334.4,283.9C334.4,283.9,334.4,283.9,334.4,283.9L334.4,283.9z M427.7,196.1
	L427.7,196.1c1,0.1,1.9,0.2,2.8,0.3C429.7,196.3,428.7,196.2,427.7,196.1L427.7,196.1z M456.5,255c0,0.1,0,0.2,0,0.2l0,0
	C456.5,255.1,456.5,255,456.5,255L456.5,255z M508.6,247.6c1.7,0.9,3.4,1.7,5.2,2.5C512.1,249.3,510.3,248.5,508.6,247.6
	L508.6,247.6z M515.1,250.6L515.1,250.6z"/>
<path class="st0" d="M46.9,89.6L46.9,89.6L46.9,89.6L46.9,89.6L46.9,89.6z M94.1,194.4L94.1,194.4L94.1,194.4L94.1,194.4z
	 M133.7,97.7h-0.1H133.7L133.7,97.7L133.7,97.7z M156.6,169.9L156.6,169.9l0.1-0.1L156.6,169.9z M261.5,53h0.2l0,0H261.5z
	 M313.8,187L313.8,187L313.8,187L313.8,187z M537.6,255.4c-2.8-2.4-5.8-4.5-8.7-6.8c-1.1-0.9-2.1-2-3.2-3c-1.9-1.5-4-2.8-5.8-4.4
	s-3.3-3.6-5-5.3c-3.1-3.2-6.3-6.3-9.4-9.5c-2.8-2.8-5.7-5.7-8.4-8.6c-1.8-1.9-3.4-4-5.1-6s-3.2-3.7-4.8-5.5
	c-1.9-2.1-3.8-4.2-5.8-6.2c-2.2-2.2-4.5-4.3-6.8-6.5c-0.6-0.6-1.1-1.2-1.7-1.8c-1-0.9-1.5-2.1-2.5-2.9c-1.7-1.4-3.6-2.6-5.5-3.7
	c-2.6-1.6-5.2-3.5-8-4.5c-3.1-1.1-6-1.7-8.1-4.7s-5.1-5.6-7.7-8.4c-3.2-3.3-6.2-6.9-9.6-10c-2-1.8-4.4-3.3-7.2-2.1
	c-1.9-1.5-3.8-2.8-5.5-4.3c-2.4-1.9-5.1-3.5-8-4.5c-3.6-1.5-7.2-3.1-10.7-5c-2.2-1.2-4.3-2.5-6.1-4.2c-1.7-1.7-3.3-3.5-4.7-5.4
	c1.8-0.8,3.6-1.8,5.3-2.9c3.1-2.3,6-4.7,8.8-7.2c2-1.9,3.8-3.9,5.6-6c0.7-0.8,1.2-1.8,1.8-2.6c0.9-1.1,2.1-2,2.8-3.2
	c1.1-2.1,2.1-4.3,4.9-4.2c2.4,0.5,4.8,0.7,7.3,1.1s4.6,1.1,6.9,1.5c2.7,0.5,5.4,0.6,8,1.2c4.3,1,8.6,2.3,12.9,3.5
	c3,0.8,6,1.5,8.9,2.4c2.2,0.6,4.4,1.4,6.6,2.1c2.9,1,5.8,2.1,8.7,3c1.2,0.3,2.4,0.4,3.7,0.5c0.1-0.3,0.2-0.6,0.2-0.9
	c-1-0.9-2.1-1.6-3.3-2.3c-5.4-2.6-10.8-5.1-16.2-7.5c-2.1-0.7-4.1-1.3-6.3-1.9c-3.2-1-6.3-2.2-9.5-3.1c-2.3-0.6-4.7-0.8-7-1.2
	c-4.7-0.9-9.3-1.9-14-2.8c-1.9-0.4-3.9-0.7-6-1l1.7-6c2.3,0.5,4.8,1.1,7.2,1.6s5.2,0.9,7.7,1.4c1.6,0.2,3.1,0.6,4.6,1
	c4.3,1.4,8.6,2.9,12.9,4.3c3.8,1.2,7.7,2.3,11.5,3.7c4.8,1.7,9.5,3.6,14.2,5.6c3.2,1.3,6.3,2.8,9.4,4.3c3.5,1.7,6.9,3.6,10.4,5.4
	c0.9,0.3,1.9,0.4,2.8,0.4c-2.6-4.7-6.9-6.7-10.6-9.3c-2.9-2-5.9-3.7-9.1-5.1c-5.6-2.6-11.3-4.9-17-7.2c-2.7-1.1-5.9-1.4-8.4-2.8
	c-3.7-2.1-7.7-2.5-11.6-3.6c-0.9-0.3-1.8-0.8-2.7-1.1c-5.8-1.4-11.5-2.9-17.4-4.1c-2.5-0.5-2-1.9-1.8-3.4c0.2-0.5,0.3-0.9,0.4-1.4
	c-0.1-4.6,2-9.1,0.5-13.8c-0.1-0.3-0.1-0.6,0-0.9c0.7-5.2-0.9-10-2-14.9c-0.6-2.6-2-5.1-2.9-7.7c-1.3-4-3.4-7.6-6.1-10.8
	c-1.1-1.2-1.9-2.6-2.9-3.8c-2-2.4-3.9-4.9-6-7.2c-1.1-1.1-2.3-2.1-3.6-3.1C381.5,5.2,359.2,1.9,336.2,9c-22.8,7-37.5,23.6-44.7,47.1
	c-1.5-2.3-2.8-4.1-4-6.1c-2.1-3.3-4-6.8-6.4-9.9c-1.2-1.5-3-2.4-4.9-2.6c-1.3-0.1-3,1.5-4,2.7c-2.2,2.5-4.2,5.2-6.3,7.8
	c-1.3,1.6-2.6,3.3-3.9,4.9l0,0l0,0l0,0c-0.5,0.5-1,1-1.5,1.6l-0.5,0.5c-0.7,0.7-1.3,1.4-1.8,2.3c-2.5,4.7-6.6,6-11.5,6.2
	c-3.6,0.2-7.3,0.5-10.9,0.7c-0.6,0-1.2,0.2-1.7,0.3l-7.2,0.9l0,0c-0.3-0.2-0.7-0.2-1-0.2c-2.4,0.3-4.8,0.6-7.2,1
	c-1.5,0.2-3,0.4-4.6,0.5c-3,0.4-6,0.8-9,1.2c-1.7,0.2-3.4,0.2-5.1,0.5s-3.5,1-5.3,1.2c-4.9,0.6-9.8,1.2-15.2,1.8l-0.4,0.4
	c-6.4,0.7-12.1,2.4-18,1.8c0.2-0.4,0.5-0.7,0.9-1c2.4-1.2,4.8-2.3,7.2-3.5c1.6-0.8,3.1-2.4,4.8-2.5c3.6-0.1,5.8-2.3,8.3-4.3
	c2-1.6,4.3-2.9,6.3-4.4c1.4-1.1,1.1-2.5-0.1-3.5c-0.9-0.8-2-1.4-3.1-1.8c-4.9-1.3-10.1-1.7-15.2-1.1c-7,0.8-14.1,1.1-21.1,2
	c-13.7,1.7-27,5.2-40.3,9c-16.6,4.8-32.7,10.7-48,18.6c-4.6,2.4-8.9,5.5-13.3,8.3c1.6-0.4,3.1-0.9,4.6-1.5c17.4-8,35.4-14.6,53.8-20
	c13.3-4,26.9-7.2,40.7-9.5c9.7-1.6,19.6-2.3,29.4-2c1.4,0.2,2.9,0.4,4.2,0.8c0,0.2,0,0.4,0,0.7c-0.4,0.3-0.9,0.5-1.4,0.7
	c-1.9,0.4-3.7,0.9-5.5,1.5c-3,1.2-6,2.8-9,4.2c-2.3,1-4.8,1.9-7,3.1c-1,0.7-2,1.5-2.8,2.4c-1.4,1.3-2.7,2.7-3.8,4.2
	c-0.4,0.7,0,2,0.3,2.9c0.4,0.8,1,1.6,1.6,2.3c1.8,0.5,3.5,1.3,5.3,1.4c3.8,0,7.7-0.2,11.5-0.6c2.5-0.3,4.8-1.2,7.3-1.6
	c3.3-0.5,6.6-0.6,9.9-1c4.7-0.6,9.4-1.2,14-1.9c2.8-0.4,5.6-1.1,8.4-1.5c5.7-0.8,11.4-1.5,17.1-2.2c5.1-0.6,10.2-1.2,15.4-1.8
	c1.6-0.2,3.2-1.2,4.7,0.6l-8.6,9.8c-4.4,0-9.6-0.2-14.7,0.1c-4,0.2-8,0.9-12,1.4c-7.9,0.9-15.8,1.4-23.6,2.8
	c-12.8,2.3-25.6,5-38.2,7.9c-2.3,0.5-4.5,1.2-6.7,2c-2.8,1-5.5,2.1-8.3,3.1c6.6-1.1,13.2-2.2,19.8-3.4c6.9-1.2,13.7-2.5,20.6-3.6
	c6.4-1.1,12.8-2,19.2-2.9c5.1-0.7,10.3-1.5,15.4-1.8c5.9-0.4,11.8,0,17.6-1.4c2.4-0.4,4.8-0.6,7.3-0.6c-4.3,5.9-10,10.3-14.8,15.5
	l-7.9,7.6c-5.1-4.4-8.1-11.1-15.4-11.8c-1.2,0.4-2.4,0.5-3.1,1.2c-3.2,3-6.4,6-9.5,9.2c-1.5,1.5-2.6,3.5-4.1,5.1c-2.9,3.1-6,6-9,9
	c-0.4,0.4-0.6,0.9-1,1.3c-0.8,1-1.6,1.9-2.5,2.8c-1.6,1.3-3,2.7-4.5,4.1c-2.5,2.7-4.9,5.6-7.6,8.2s-5.6,4.9-8.4,7.4l0,0
	c-3.4,3-6.9,5.9-10.2,9c-2.8,2.7-3.1,2.9-5.8,0c-2.2-2.5-6.1-2.9-8.7-0.7c-0.6,0.5-0.9,1.4-1.5,2c-2.7,2.6-5.6,5-8.2,7.6
	c-0.7,0.7-0.9,1.9-1.4,2.9l-0.8-0.8c-7.3,7.8-14.7,15.5-22.1,23.3c-2-1.8-4.7-1.7-5.8-0.1c-1.3,2-2.7,3.9-4.2,5.8
	c-1.7,2.1-3.5,4-5.2,6c-2.7,3.2-5.3,6.4-8,9.5c-2.2,2.6-4.8,5-6.8,7.8c-1.3,1.7-3.5,2.3-4.2,4.7c-0.4,1.3-2.1,2.2-3.3,3.3
	c-1.3,1.3-2.5,2.7-3.8,3.9c-2.2,1.9-4.5,3.7-6.7,5.7c-1.9,1.8-3.5,3.9-5.4,5.6c-1.3,1.2-3,2-4.4,3.2c-2.4,2-4.5,4.4-7,6.3
	c-2.1,1.7-4.4,3-6.6,4.5c-0.8,0.6-1.4,2-2.2,2.1c-2.8,0.4-2.7,2-2.3,4.1c0.6,0.1,1.2,0,1.8-0.2c3.1-1.7,6.2-3.4,9.3-5.2
	c2.9-1.7,5.8-3.3,8.6-5.1c2.2-1.4,4.3-3,6.5-4.6h-0.2c0,0,0.1-0.1,0.1-0.1c3.5-2.5,7.1-4.8,10.4-7.4c2.6-2.1,4.9-4.6,7.4-6.9
	c3-2.7,6.1-5.3,9.1-8.1c2-1.9,3.7-4.1,5.6-6.1c1.5-1.5,3.1-2.9,4.6-4.4c2-2,4-4.1,6-6.1c0,0,0-0.1,0-0.1l0,0l0.2,0.4l0,0l0.4,0.8
	c0.4,0.7,0.7,1.5,1.1,2.4c1.6-1.8,2.8-3.1,3.9-4.4c1.3-1.6,2.5-3.3,3.7-4.9s2.4-3.3,3.6-4.9l0-0.1l4.1-3.9h-0.2l0.1-0.1
	c2.7-2.7,5.3-5.5,7.9-8.2h-0.1l0.1-0.1l8.7-6.6c-1,1.7-2,3.5-3,5.3l1.4,1.5c3.2-1.6,6.4-3.1,9.6-4.8c1.6-0.8,3-1.9,4.5-2.9h-0.2
	l0.1-0.1l0.3-0.1l0.3-0.1l0.6-0.3l1.2-0.6l2.6-1.3l-2.4,4.3c0.5,0.5,0.9,1,1.5,1.7l4.9-3c-0.8,1.1-1.2,1.8-1.7,2.4
	c-1.5,1.7-2.7,3.6-4.5,4.9c-2.4,1.7-4.9,3.1-7.5,4.2c-1.5,0.8-3.2,1-4.9,0.8c-2.5-0.6-4.8-1.9-7.5-3.1c-2,1.7-3.9,3.6-5.6,5.5
	c-2.2,2.8-3.8,6-5.8,8.8s-4.2,5.4-6.4,8.1c-2.6,3.2-4.9,6.7-7.9,9.5c-3.8,3.3-7.8,6.5-12,9.4c-2,1.4-4.1,2.6-6.2,3.8l0.1,0.9
	c0.8,0.2,1.6,0.6,2.3,0.4c2.8-0.6,5.6-1.5,8.3-2.6c4.5-2.2,8.9-4.7,13.1-7.4c2.5-1.8,4.8-3.7,7-5.8c0.7-0.6,1.2-1.5,1.9-2
	c2.3-1.8,4.8-3.6,7.1-5.4c3-2.4,5.8-4.9,8.4-7.1c2.7,2.2,1,6.2,3.9,8.3c1-0.7,1.9-1.5,2.8-2.3c2.6-2.9,5.1-6,7.7-8.9
	c2.6-2.9,5.5-6.2,8.2-9.2c1.8-2.2,3.8-4.4,5.8-6.4c2.8-2.6,5.9-4.8,8.8-7.3c1.1-1,2-2.2,3.1-3.3c0.6-0.5,1.3-0.9,2-1.3
	c0,0,0-0.1,0.1-0.1c0.5-0.5,1-1,1.4-1.6l0.1,0.3l6.2-4.3l0.5,0.5c-1.2,3.6-2.1,7.4-3.6,10.9c-0.9,2-2.6,3.7-3.9,5.5
	c-0.6,1-1.3,1.9-2,2.8c-1.8,1.8-3.7,3.5-5.5,5.2l0.3,0.8c0.8,0.2,1.6,0.2,2.4,0.2c2.2-0.5,4.3-1.1,6.4-1.7c2-0.5,4-0.9,6-1.5
	c1.6-0.5,3.1-1,4.7-1.6c-9.5,11.5-21.3,19.7-35.6,25.7c1.3,1,2.1,2,2.8,2c4.8-0.2,9.7-0.5,14.5-1.1c1.9-0.2,3.8-1.2,5.6-1.9h0.1
	h-0.1c-0.3,1-0.3,2.1-0.9,2.8c-2.2,2.6-4.6,5-6.9,7.5s-4.6,5.4-7.4,7.5c-4.5,3.4-9.4,6.3-14.1,9.5c-1.3,0.8-2.5,1.7-4.2,2.9
	c5.7,0.9,10.1-1.6,14.8-2.8c2-0.5,3.9-1.5,5.8-2.2c2.4-0.9,5-1.5,7.3-2.6c3.1-1.5,6.1-3.5,9.2-5.1s6.4-2.8,9.5-4.4s5.7-3.4,8.5-5.2
	c3.8-2.5,7.6-5,11.9-7.9c-1.6,2.5-2.9,4.4-4.4,6.8c0.9,0.2,1.8,0.3,2.7,0.3c1.5-0.2,3-0.9,4.4-1c4.2,0,7.5-2.6,11.2-3.9
	c3.5-1.3,6.5-3.7,9.8-5.5c4.4-2.5,8.7-4.8,13.6-7.5c-1.8,4.7-3.4,9.2-5.2,13.9l1.4,1.2c1.4-1.4,2.8-2.8,4.2-4.2
	c3.1-3.2,6.2-6.2,9.2-9.5c2.7-3.1,5.3-6.3,7.8-9.5c1.5-1.9,2.7-4,4.1-5.8c2.1-2.8,4.4-5.5,6.7-8.1c3.8-3.9,7.7-7.7,11.7-11.4
	c2.4-2.3,5-4.4,7.6-6.5c1.8-1.5,3.8-2.9,5.7-4.4c-0.2-0.3-0.3-0.7-0.5-1c-7.8,0.3-14.3,4.5-21.3,6.9c-0.4,0.2-1,0-1.3,0.2
	c-1.6,0.9-3.1,2-4.8,2.8c-0.8,0.3-1.7,0.5-2.5,0.5c0.3-0.2,0.7-0.4,0.8-0.6c1.5-4.2,4.8-7,8.1-9.7c1.1-1,2-2.2,2.8-3.4l-1.6-1.4
	l-14.3,6.3c0.3-0.5,0.5-1,0.9-1.4c1.2-1.4,2.4-2.8,3.6-4.2h-0.1c0,0,0,0,0-0.1l0.2-0.1c0.2,0,0.4-0.1,0.5-0.2c2-2,4.1-4,6.1-6.1
	c1-1.1,2-2.2,3-3.3c8.1-8.5,18.9-13.5,28.3-21.5l-3.8-0.8c-9.2,2.5-17.5,7.1-26.3,10.6c4.5-5.9,11.3-9,16.7-14l-1.4-1.5
	c-0.3,0.2-0.8,0.8-1,0.7c-1.5-0.7-2.5-0.1-3.5,1c-0.3,0.3-0.9,0.3-1.4,0.4l-7.2,2.3l-8.2,2.6c0-0.1,0-0.1,0-0.2
	c0-0.6,0.1-1.2,0.3-1.7c1.2-2.2,2.5-4.4,3.8-6.5c1.8-2.8,4.2-5.3,5.7-8.2c1.4-2.8,3.2-5.4,5.4-7.6c3.2-3.3,6.2-6.7,9.3-10.1
	c0.3-0.5,0.5-1.1,0.7-1.7l0.3,0.3l3.5-3.4l-0.1-0.1h0.1l0,0l2.6-2.2l-2.6,8c3.8,0.5,5.7-3.3,8.9-3.4c-0.9,1.6-1.8,3.1-2.8,4.6
	c-2,2.7-4.2,5.4-6.4,8c-1.5,1.7-1.8,3.8-0.6,4.6l18.8-10.4c-2.7,5.2-7.8,8.8-9.1,15c1.6-0.5,3.2-1.3,4.6-2.3
	c0.9-0.6,1.7-1.3,2.6-1.8c1.4-0.7,3-1,4.2-2c2.9-2.4,4.2-2.4,6.4,0.4c1.9,2.3,3.8,4.6,5.6,7c0.5,1,1,2,1.2,3.1l0.8-0.8l9.6,10
	l-23.3,29.4c0.8,0.6,1,0.9,3.6-0.9c5.6-3.9,11-8,16.5-12.1c1.5-1.1,2.9-2.3,4.4-3.5c0.2,0.2,0.4,0.5,0.7,0.7c-1.5,2-2.9,4-4.4,6
	c-1.8,2.5-3.6,4.9-5.3,7.5c-0.3,0.7-0.4,1.5-0.4,2.3l1,0.5c4.1-2.5,8.1-5.2,12.3-7.6c2.1-1,4.3-1.9,6.6-2.6c-2.9,3.3-5.9,6.6-8.8,10
	c-1,1.2-1.7,2.7-2.6,3.8c-1.5,1.8-3.1,3.4-4.5,5.1s-3,3.8-4.6,5.7c-0.9,1.1-2.2,2.1-2.6,3.3c-1.3,4-4.6,6.3-7.1,9.3
	c-1.7,2.1-3.7,3.9-5.5,5.9c-0.3,0.3-0.3,0.9-0.4,1.3l0.5,0.5c11.1-7,21.3-15.2,31.8-23.3c-2.1,2.5-4.6,4.7-6.6,7.2
	c-3.3,4.3-6.5,8.9-9.5,13.5c-1.1,1.9-2.1,4-2.8,6c0.7,0,1.5-0.1,2.2-0.3c3.5-1.7,7-3.5,10.5-5.2c0.7-0.2,1.3-0.5,2-0.6
	c-1,4-1.9,7.5-2.9,10.9c-0.2,0.8-0.6,1.5-1.1,2.2c-3.6,4.4-7.5,8.7-10.9,13.3c-2.4,3.5-4.7,7.2-6.8,10.9c-0.2,0.6-0.3,1.2-0.3,1.8
	l1.2,0.4l0.9,0.3c12.1-9.4,25.2-17.4,39-24.1c-2.5,3.3-4.4,6.8-4.3,11.1c1.2-0.8,2.4-1.7,3.4-2.7c1.8-1.4,3.7-2.7,5.5-4
	c3-2.3,5.9-4.7,9.1-6.8c2.9-1.7,5.8-3.2,8.8-4.6c1.3-0.7,2.6-1.2,3.9-1.7c1.2-0.5,2.5-0.7,3.8-1.1c-3.7,4.2-7.5,8.2-9.4,13.7l1.1,1
	c4.7-2.8,8.8-6,13.5-7.8s9.7-3.5,15-2l-4.5,6.6l0.5,0.6c0.7,0,1.3-0.1,2-0.2c1.9-0.5,3.9-1.8,5.8-1.6c3.1,0.4,6.2,1.6,9.2,2.6
	c0.8,0.3,1.4,1.2,2.1,1.8c1.2,1,2.5,1.9,3.6,3c2,1.9,4,3.8,5.8,5.8c0.8,1,1.6,2.1,2.3,3.2c-0.9,0.2-1.7,0.6-2.5,1
	c-0.6,0.6-1.2,1.3-1.6,2l2,1c0.6,0.1,1,0.9,1.5,1c5.2,1.6,10,4.3,14.1,7.8c2.3,1.8,4.8,3.4,7.4,4.8c1.5,0.9,3.1,1.4,4.6,2.2
	s3.1,1.9,4.7,2.6s3.4,1.9,5.5,0.1c-6.1-5.8-12.5-11.1-17.9-17.3c-5.5-6.4-10-13.7-15-20.7v-1.8h-0.1v0l0,0c1,0.1,1.9,0.2,2.8,0.3
	c2.9,0.2,5.7,0.6,8.5,1.2c6,1.4,12,3.3,17.9,4.9c0,0.3,0,0.6,0,0.9c-4.8,1.4-10.3,0.3-14.9,4.5c5.4,2.3,11.2,0.8,16.2,3.1
	s10.3,3.7,14.9,5.2c1.2,0.9,2,1.4,2.7,1.9c2,1.1,4.1,2.1,6,3.3c3.5,2.3,6.8,4.9,10.2,7.4c4,2.9,8,5.8,12,8.7
	c4.5,3.3,8.8,6.8,13.4,10c2.8,2,6.1,3.2,8.8,5.2c3.7,2.7,7.9,4.5,12.4,5.4C539.1,257.1,538.5,256.1,537.6,255.4z M114.7,175.2
	C114.7,175.2,114.7,175.2,114.7,175.2L114.7,175.2L114.7,175.2z M136.2,175.1l0.1-0.1L136.2,175.1L136.2,175.1z M159.4,143.3
	l-0.1-0.1L159.4,143.3L159.4,143.3z M160.2,142.9c-0.1,0-0.1,0-0.1-0.1c0-0.1,0.1-0.2,0.1-0.4c0.1,0.1,0.2,0.2,0.2,0.2
	S160.3,142.9,160.2,142.9L160.2,142.9z M161.7,142.2h-0.2v-0.7h0.2V142.2z M257.6,128.2c0,0,0.1,0,0.1,0l0.1,0.2l-0.2,0.1
	C257.5,128.3,257.5,128.3,257.6,128.2z M252.4,120.2L252.4,120.2z M247.6,84.4l0.8-1.4l0.4,0.4l-0.6,0.5L247.6,84.4L247.6,84.4z
	 M247.6,84.5L247.6,84.5L247.6,84.5L247.6,84.5L247.6,84.5z M247.6,84.4L247.6,84.4L247.6,84.4L247.6,84.4L247.6,84.4z M199.3,135.7
	L199.3,135.7c-0.1,0-0.1,0.1-0.2,0.1c-0.2,0.1-0.4,0.2-0.5,0.3c0-0.1-0.1-0.3-0.1-0.4L199.3,135.7z M196.4,119.7l0.4,0.1
	c-0.1,0.4-0.1,0.8-0.2,1.1h-0.4L196.4,119.7z M163.4,151.1c2-2.5,4-5,6-7.5h-0.1h0.1l0,0l1.5-1.9l4.5-5.8c-1.2-2.1-2.5-1.5-3.5-0.6
	c-2.3,2.4-5.3,3.5-8,5.2c-0.2,0.1-0.5,0.1-0.7,0.1h-0.3l0,0l-0.1,0.1l-0.2,0.3l-0.2,0.3h-0.2l0.1-0.1l0,0l0.3-0.3
	c0-0.1,0.1-0.1,0.1-0.2c0-0.1,0.1-0.1,0.1-0.2h0.1l0.5-0.5l0.7-0.6l4.6-4.5h-0.2l0.1-0.1l0,0l5.6-5.2c1.9-1.7,3.7-3.4,5.6-5.2
	c3.4-3.2,6.8-6.4,10.5-9.5l-4.8,9.9c1.9,1.3,3.1,0.9,4.4-0.4c1.3-1.1,2.7-2.2,4.2-3l0.5-0.3l0.3-0.2l0,0l0,0l0,0v0.2l-0.1-0.1
	c-0.4,1-0.8,1.9-1.1,2.8l0,0l0.1,0.1h-0.2c-1,1.2-2,2.5-3.1,3.8l-0.8,1l-0.5,0.5l-0.9,1.1c-0.5,0.6-0.9,1.1-1.4,1.8
	C180.4,138.6,172.5,145.6,163.4,151.1L163.4,151.1z M182.7,167.7l-0.3-0.3l0.4-0.2C182.7,167.4,182.7,167.6,182.7,167.7L182.7,167.7
	z M226.2,133.1c0-0.1,0-0.1-0.1-0.2h0.2c0,0.1,0,0.1,0,0.2C226.3,133.1,226.2,133.1,226.2,133.1L226.2,133.1z M237.4,112.7
	L237.4,112.7L237.4,112.7L237.4,112.7l-0.6,0.8l-0.5,0.8c-0.5,0.8-1.1,1.5-1.6,2.3c-0.3,0.4-0.5,0.8-0.8,1.1l-0.2,0.3
	c-0.2,0.2-0.4,0.5-0.6,0.7c-0.7,0.9-2.2,1.3-2.8,2.3c-1.8,3.1-4.1,5.8-6.9,8.1c-0.4,0.3-0.5,1-1.1,1.3l-4,5.2
	c0.2,0.2,0.4,0.5,0.6,0.7l5.8-2.9c-0.2,0.3-0.4,0.7-0.6,1s-0.5,0.8-0.8,1.2s-0.5,0.6-0.7,0.9l0,0c-0.3,0.3-0.5,0.7-0.8,1
	s-0.5,0.6-0.8,0.9s-0.5,0.6-0.7,0.8s-0.5,0.5-0.8,0.8l-0.6,0.6h0c-0.3,0.3-0.6,0.6-0.9,0.9s-0.7,0.7-1.1,1.1l-0.7,0.6l-1.4,1.3
	l-1.9,1.7l-1.9,1.6l0,0v0.1h-0.1c-1.4,1.2-2.7,2.3-4.1,3.4l-1.1,0.9l-1.3,1l0,0l-1.3,1l-1.4,1l-1.4,1l-1.6,1.1l-1.6,1.2l-0.8,0.5
	l-1.4,0.9l-1,0.6l-0.5,0.3l-1.1,0.6l-1,0.5l-1.3,0.7c-0.5,0.2-0.9,0.5-1.4,0.7l-0.7,0.4l-1.5,0.7l-1.3,0.6c1.5-1.3,3-2.6,4.6-3.9
	l-0.1,0.1l0.1-0.1l1.8-1.6l1.8-1.6l1.9-1.6l1.9-1.7l-1.6-1.5l-7.4,4.2c0-0.2-0.1-0.8,0-0.9c1.8-1.6,3.7-3,5.5-4.6
	c1-0.9,1.9-1.9,2.8-2.9h-0.2l0.1-0.1l0,0l0.7-0.7l0.7-0.6c0.9-0.8,1.8-1.7,2.7-2.6l1.3-1.3c3.5-3.5,7-7.1,10.4-10.7
	c1.1-1.4,2.1-2.8,3-4.4c-1.7-1.1-6.8,1.2-11.2,5l0,0h0.1h-0.1l-4.5,2l0,0l0,0v0.1h-0.1l0.1-0.1h0c0-0.3,0-0.6,0.1-0.9
	c0-0.1,0.1-0.2,0.1-0.4c0.1-0.1,0.1-0.2,0.2-0.3c0.1-0.2,0.2-0.3,0.3-0.4c0-0.1,0.1-0.1,0.1-0.1c0.1-0.1,0.2-0.2,0.3-0.2l0.1-0.1
	l0.2-0.2l0.2-0.2l0.6-0.4c0.2-0.1,0.4-0.2,0.5-0.4c0.1-0.1,0.2-0.2,0.3-0.3l0,0c0.1-0.1,0.2-0.1,0.2-0.2l0,0
	c0.1-0.1,0.3-0.1,0.4-0.2c1.9-2.2,4.2-4,6.3-6.1c3.5-3.4,7-6.8,10.4-10.3c1.8-1.8,3.3-3.9,5-5.8l2.1-2H227h0.1c0.3-0.3,0.6-0.6,1-1
	c1.6-1.7,3.3-3.3,5-5c0.2-0.2,0.5-0.5,0.7-0.8s0.7-0.7,1-1.1c2-2.3,3.8-4.9,5.8-7.2c1.8-2.1,3.9-3.9,5.9-5.8l0.6,0.5l-9.4,15.7
	c0.3,0.4,0.7,0.9,1.3,1.5l12-10l0.5,0.4L237.4,112.7z M428.7,168.7c0.1,0.2,0.3,0.4,0.3,0.6l-0.4,0.3c-0.2-0.2-0.3-0.5-0.4-0.7
	C428.4,168.8,428.7,168.6,428.7,168.7L428.7,168.7z M291.5,57.2l-0.6-0.8l0.2-0.2c0.2,0.2,0.5,0.5,0.7,0.7
	C291.7,57,291.6,57.1,291.5,57.2z M297,57.7c1.3-3.7,2.9-7.4,4.6-11c1.8-3.3,3.8-6.5,6-9.5c2.3-3.1,4.8-6.1,7.4-9
	c1.3-1.1,2.7-2.2,4.2-3c2.1-1.6,4.4-3.1,6.7-4.5c2.5-1.3,5.1-2.4,7.8-3.4c2.4-1,4.8-1.8,7.2-2.6c1-0.2,2.1-0.3,3.1-0.4
	c3.6-0.6,7.1-1.6,10.7-1.6c4.4,0,8.9,0.9,13.3,1.3c2.6,0.3,5,1.1,7.3,2.3c2.2,1,4.8,1.3,7.2,2.1c1.1,0.4,2,1.4,3.1,2.1
	c2.4,1.4,5,2.5,7.1,4.2c3.1,2.7,6.1,5.5,9,8.5c1.5,1.5,3.4,3,4.1,4.9c1.1,2.9,4.8,4.2,4.4,7.8c0,0.5,0.2,1,0.6,1.4
	c3,3,2.4,7.5,4.7,10.8c0,0,0,0.1,0,0.1c0,0,0,0.1,0,0.1c0,0.1,0,0.2,0,0.2c0,0,0,0.1,0,0.1l0,0c0,0,0,0.1-0.1,0.1l0,0
	c0.8,2.4,1.3,4.9,1.6,7.5c0.5,4.7,0.5,9.4,0,14.1c0,0.3,0,0.6-0.1,0.9c-0.1,0.6-0.1,1.2-0.2,1.8c-0.2,1.5-0.4,3-0.6,4.6l-7.2-1v-0.4
	l-21.5-2c0.5-0.5,1.1-1,1.6-1.4c3-1.5,6.2-2.6,8.9-4.5c3-2,2.7-5.3,0.5-8.1c-3.2-4-7.8-4.7-12.3-5.9c-1.2-0.3-2.4-0.9-3.7-1.2
	c-1-0.2-2-0.4-3-0.5l-0.3,0.6l-0.9-1.8l-0.4,0.6c-2.4-0.4-4.8-0.8-7.2-1.2c-1.4-0.2-2.8-0.3-4.1-0.5c-1.9-0.2-3.8-0.5-5.8-0.7
	c-2.3-0.2-4.6-0.4-6.9-0.5c-7.6-0.4-15.2-0.8-22.7-1c-3.9-0.1-7.8,0.3-11.7,0.4c-2.3,0-4.7-0.4-7-0.3c-3.8,0.2-7.5,0.6-11.3,0.9
	c-1.1,0-2.3-0.1-3.4-0.5C297.4,58.9,296.8,58,297,57.7L297,57.7z M328.1,130.9l-0.4-0.5l1.3-1l0.3,0.3L328.1,130.9z M336.7,138.3
	L336.7,138.3v-0.1V138.3L336.7,138.3z M342.9,105c-0.9,0.4-1.7,0.9-2.5,1.5c-3.3,3.8-5,3.6-7.7-0.5c-1.8-2.9-4.3-5.3-6.5-7.9
	c-1.3-1.6-2.5-3.2-3.9-4.8c-1.6-1.9-3.3-3.6-4.9-5.5c-2.3-2.7-4.5-5.5-6.9-8.1c-1.5-1.6-3.4-2.9-4.8-4.6c-2.3-2.7-4.3-5.6-6.5-8.4
	c-0.1-0.3-0.1-0.5-0.2-0.8c3.1,0,6.1,0.1,9.2,0c1.7,0,3.4-0.5,5.1-0.5c6-0.2,12.1-0.4,18.2-0.4c2.2,0,4.3,0.5,6.5,0.7
	c0.6,0,1.1-0.2,1.6-0.3c0.8-0.1,1.8-0.5,2.2-0.2c1.5,1.3,3,0.5,4.5,0.6c3.8,0.1,7.5,0.5,11.3,0.8c2.7,0.2,5.3,0.2,8,0.6
	c2.9,0.4,5.7,1.1,8.6,1.6s5.6,0.8,8.4,1.5c3.2,0.9,6.2,2.1,9.3,3.1c0,0.4,0,0.7,0.1,1.1c-2.5,1-4.9,2.1-7.3,3.3
	c-2.2,1.3-4.5,2.7-6,4.7c-1.9,2.5,0.3,6.8,3.3,8c3.4,1.3,6.9,0.4,10.4,0.8c2.5,0.2,5,0.6,7.4,0.8c2.8,0.3,5.6,0.5,8.4,0.7
	c1.1,0.1,2.2,0.2,3.7,0.4l1.8,1.3c-0.8,1.8-1.6,3.6-2.5,5.6c-11.5-0.8-22.9-1.2-34.2,1.6c1.5,1.2,2.8,2.1,4.9,1.6
	c1.4-0.4,2.9-0.5,4.3-0.4c4,0.3,8,1,12,1.3c3.3,0.3,6.5,0.3,10.6,0.5c-0.6,1.2-1.2,2.3-2,3.4c-1.8,2.4-3.6,4.8-5.5,7
	c-1.7,1.9-3.6,3.7-5.5,5.4c-2.2,2-4.5,3.8-7,5.5l-4.4,1.8c-2.1-2.3-4.4-4.8-6.8-7.4c-2-2.2-4-4.3-5.8-6.6c-2.6-3.5-4.8-7.3-7.5-10.7
	c-1.9-2.6-4.2-4.9-6.8-6.8c-1.8-1.3-4.4-0.2-6.2,0.9c-2.4,1.7-4.8,3.5-6.9,5.5C344,103.5,343.4,104.2,342.9,105L342.9,105z
	 M346.8,164.7c0,0-0.1,0-0.2,0c0,0,0-0.1,0-0.2L346.8,164.7C346.9,164.6,346.9,164.7,346.8,164.7L346.8,164.7z M378.1,186.7
	L378.1,186.7L378.1,186.7L378.1,186.7z M426,213.8l-0.8-0.4l0.9-0.2L426,213.8z M427.5,168.9c-4-1.3-7.8-3.2-11.9-3.9
	s-8.3-0.2-12.5-0.2c0-0.3-0.1-0.7-0.1-1l3.7-1.8l0.2-0.8c-1.8-0.9-3.5-1.7-5.3-2.6c-5.4-1.5-11.1-1.6-16.5-0.4l-0.4-0.5l5.5-4.6
	c-1.3-2-2.9-2.1-4.9-1.6c-2.4,0.6-4.8,1.9-7.6,0.9c-0.7-0.3-1.8,0.3-2.5,0.7c-2.6,1.6-5.1,3.3-8.1,5.3c0.6-3.8,5.1-5.6,3.6-10.2
	l-21.4,14.2c-0.1-0.7-0.2-1.2-0.2-1.4c6-6.8,11.9-13.4,17.8-20.1h0.2l2.6-2.2l3.1-2.5c-3.6-4.1-7.5-0.2-11-1.7
	c1.3-1.2,2.5-2.4,3.8-3.6c-0.8-2.1-2.7-1.2-3.8-0.9c-1.7,0.4-3.1,1.8-4.7,2.5c-2.5,1.1-5.1,2.1-7.7,3.2c-1,0.5-2,1-2.9,1.6l-0.5-0.5
	l12.9-13c-1.2-2.7-3.3-1.1-4.8-0.8c-2.8,0.6-5.5,1.8-8.7,2.4l7.3-7.6c-2.2-2.3-4.4,0.9-7.1-0.5l8.3-7.6c2.9,0.4,2.8,5,6.4,2.9
	l8.3,10.6l-0.2,0.1l18.1,19.9c-0.4,0.6-1,1.4-2,2.7c1,0.6,2,1,3,1.4c3.6,1,7.2,1.6,10.8,2.7s7,2.7,10.5,4.2c1.6,0.7,3,2,4.7,2.5
	c3,1,5.1,3.1,7.3,5c0.9,0.8,2,1.4,2.9,2.2c1.5,1.3,3,2.7,4.4,4L427.5,168.9z M185.1,166h0.1l0,0H185.1z M185.2,166
	c0,0.1,0,0.1-0.1,0.2L185.2,166L185.2,166z M158.3,209.6L158.3,209.6L158.3,209.6L158.3,209.6C158.3,209.7,158.3,209.6,158.3,209.6z
	"/>
<path class="st0" d="M524.5,281.1h-3c-4.9,0-9.9,0.2-14.8-0.2c-4.4-0.3-3.4-1.1-3.3-2.8c-2-4.1-3.6-7.4-5.1-10.6
	c-1.5,0.9-0.9,3.9-3.7,3.4c0.4-1.3,0.8-2.4,1.3-3.9l-2.5,0.5l-1-3.1c-1.2,1.9-2.3,3.5-3.4,5.3c-0.4-0.7-0.7-1.3-0.9-1.7
	c0.3-1,0.6-1.6,0.8-2.3l-1.4-0.4c0-0.7,0.1-1.3,0.1-1.9c-0.6-0.1-1-0.2-0.9-0.2c-0.8-2.4-1.5-4.5-2.2-6.6l-0.8,0.1l-2.2,5.6h-3.2
	c0-1.2,0.4-2.7-0.1-3.8c-0.9-1.8-2-3.4-3.2-5c-0.5,0.7-0.9,1.4-1.2,2.2c-0.7,2.7-1.3,3.2-4,2.4c0,0,0,0.1,0.1,0.1h-0.1l0.4-4.1
	c-1.1-1.5-2.1-2.4-2.5-3.5c-0.8-2.3-1.4-4.7-2-7l-0.7,0.2c-1.3,2.5-2.6,5-4.1,7.8c-1.8-0.3-0.6,1.4-0.9,2.2l-3.6,1.3
	c0-0.1,0-0.2,0-0.2c-0.1-0.4-0.2-0.8-0.3-1.2c-0.4-1.4-0.6-2.8-0.5-4.2c0.3-1.9-0.2-3-1.2-3.5l-3.6-8.5c-1,2.8-1.7,4.9-2.5,7l0,0
	c-0.3,1-0.6,2.1-0.8,3.1l-0.5-0.1l0.5,1.5l-2.3,0.8c0.4-1.1,0.6-1.8,0.9-2.5l-2.6-0.8l1.4-4.2l-2.5-0.5l1.2-3.8
	c-3.7-0.4-1.1-2.9-2.3-3.8l-3.2-6.2l-3.3,7.5l-0.3-0.2v2.5c-2.3,0.5-3.1,0.2-3-0.9c0.1-1.9,0.2-3.7,0.3-5.6c-2.1-0.1-2.4-0.7-2-2.1
	c-1.4-3.3-2.5-5.9-3.7-8.9c-1,2.3-1.8,4.2-2.7,6.1l-0.3-0.2c-0.2,1.7-0.5,3.4-0.7,5.1l-1.7,0.4c0.1,0.8,0.1,1.5,0.2,2.4l-2.5,1.1
	c0.7-1.6,1.2-2.6,1.7-3.8l-3.2,0.3c1-1.8,1.7-3.2,2.6-4.8h-2.4c0.6-1.5,1.1-2.8,1.7-4.2l-0.6-0.3l-1.3,0.6c-0.9-2.2-1.8-4.4-2.8-6.6
	c-2,0.6-0.7,4.7-4.3,2.7c0.5,1.7,0.9,3,1.3,4.2l-2,0.5c0.4,1,0.7,1.8,1.2,3.1l-4.9-1.9c0.2-1.2,0.3-2.4,0.4-3.3
	c-0.8-0.6-2-1.2-2-1.5c0.8-3.6-2.2-6-2.9-9.1c-0.2-0.6-0.5-1.2-0.9-1.7c-1.3,3.2-2.5,6.1-3.9,9.7c0.3,1.5,0,2-1.9,2.3v5.6l-3.2,1.2
	c0.4-1.9,0.8-3.3,1.1-4.8l-1.4-0.7V216l-0.4,0.3c-0.6-1.2-1.2-2.4-1.8-3.7l0.1-0.1c-1.2-3-2.4-6-3.9-9.7c-1.3,3.1-2.3,5.6-3.4,8.1
	l-0.7-0.2v5.2l-2.7-1.3c0.8,2.3,1.3,3.9,1.8,5.4l-3.6,0.4c0.9,1.3,1.6,2,1.8,2.8c0.1,0.9-0.1,1.8-0.5,2.5c-0.2,0.3-1.3,0.1-2.4,0.1
	c0.7-1.3,1.1-1.9,1.7-2.9l-3.9,0.6c1.2-2.4,2.2-4.3,3.5-6.7l-3.2,1.2c-0.6-2.4,2.6-3.3,1.4-5.6l-2.8,1.1c0.3-0.8,0.5-1.7,0.6-2.6
	c0-0.7-0.2-1.3-0.6-1.8c-0.4-0.7-1.2-1.2-1.6-1.9c-0.4-0.9-0.8-1.9-1-2.8c-0.6,1-1.3,1.5-1.3,2c0.2,2.4-0.6,3.3-3.5,2l1.7,5.3
	l-2.9-0.2l2.1,4.3l-3.7-0.5c1.1,2,2,3.7,3.2,5.8l-5-1.8c0.2-1.2,0.4-2.5,0.7-4l-1.4,0.2c-1.5-4.3-2.9-8.4-4.5-13
	c-2.2,3.4-1.5,7.3-4.6,9.5c0.6,2.7,0.3,3.1-1.8,3.5v6.8l-1.2,0.8c0.2,1.5,0.3,2.7,0.5,4.5l-2.9-1.2c0.4-0.9,0.6-1.6,0.9-2.2
	l-0.7,0.1c-0.3-2.2-0.6-4.5-0.8-5.9l-1.9-3.6c0.1,0,0.1-0.1,0.2-0.1l-3.5-7.8l-3.2,6.4l-0.5-0.2c0.2,1.1,0.3,2.2,0.5,3.4
	c-0.7,0.3-1.4,0.6-2.3,1c0.2,1.2,0.6,2.4,1.2,3.5l-2.9,0.8c2,4,2,4-2.2,5.4c0.1-1,0.3-2,0.3-2.4c-0.6-0.7-1.2-1.5-1.6-2.3
	c-1-3-1.9-6.1-2.8-9.2l-0.6,0.1l-3.1,8.4c0.7,1.2-0.5,1.8-1.9,2.2c0,1.8,0,3.4-0.1,5.1c0,0.2-0.7,0.4-1.1,0.6l0,0l-2.6-0.8l1.1-2.9
	l-2.2-0.3c0.4-1.2,0.7-2.3,1-3.4l-2.1-0.7c-0.5-1.3-0.8-2.3-1.3-3.8l-3.1,7.6l-2-0.5c0.7,1.6,1.2,2.9,1.6,4l-2.4,1.5
	c0.1,0.1,0.1,0.3,0.2,0.4h-2c0.3-0.9,1.2-2.2,0.9-2.6c-1.3-1.7-0.1-3.1,0.2-4.6c0-0.2,0-0.5,0-0.8c-0.3,0-0.6,0.1-0.8,0.1h-1.3
	c-0.1-1.3-0.2-2.5-0.2-3.8c-1.6-0.7-2.4-2.5-1.9-4.1l-3-5.7c-1,3.1-1.8,5.6-2.6,8.1c0,0,0,0.1,0,0.2c0,0-0.1-0.1-0.1-0.2h-1.2
	c-0.1,1.1-0.2,2.2-0.2,3.1h-2.6c0.2-1.8,0.5-3.5,0.7-5.5l-2.2,0.8c-0.3-2.2-0.5-4.1-0.8-6.1c0-0.3-0.6-0.5-0.9-0.8
	c0.1-0.1,0.3-0.2,0.4-0.3l0.1-0.1c0,0,0.1-0.1,0.1-0.2c0,0,0,0,0-0.1c0.3-0.7-1.1-0.8-1.3-1.3c-0.8-2.2-1.6-4.5-2.6-7.3
	c-1,2.5-1.8,4.4-2.7,6.6c0.8,1.4-0.5,4.1-2.5,4.7c1.4,3.4,0.7,4.7-1.5,4.4l-3.1,2c-0.9-2.7,3.1-3.8,1.5-6.4l-2.7,1.4
	c0.1-1.7,0.2-3.3,0.3-5.1l-1.4,0.7c-0.5-1.8-1.1-3.7-1.8-6.1c-1,2.4-1.7,4.2-2.4,6l-2.8-1.3c0.9,2.3,1.5,4,2.3,6h-3.2l2.1,4.5l-4-1
	l3.4,6.6l-5.7-1.5c-0.1-1.4-0.2-3.1-0.3-5c-0.3,0.1-0.7,0.2-1.2,0.2c0,0,0.1,0.1,0.1,0.1h-0.1c-0.8-2.5-1.6-5.1-2.3-7.6h-0.7
	l-0.4,2.9l-0.4-0.3l-3.1,7.2c0.4,1.7-0.1,2.5-2.3,3c0.1,0.8,0.2,1.5,0.3,2.6l-2.8,0.2c-0.5-2.4,3.4-2.7,1.7-5.2h-1.6
	c-0.9-2.1,2.6-3.1,1.1-5.4l-2.5,1.3c0-0.5,0.1-0.8,0.1-1c0-1.2,1.7-3-1.1-3.2c0,0,0-0.6-0.1-0.8c-0.4-1-0.8-2-1.2-3l-0.6-0.2
	c-0.5,1.4-1,2.8-1.6,4.2l-2.5-0.8l1.8,5l-2.7,0.2c0.7,1.4,1.3,2.6,1.9,3.9l-3.7-0.8l3.1,5.4l-3.2-0.2l1.6,3.5l-1.6-1.9
	c-0.4,0.3-0.7,0.6-1,1c0.3-0.8,0.6-1.7,0.9-2.5l-2.3-1l0.1,0.1H235c0.8-4.3-2.1-7.4-3.4-11.6c-1.2,3.3-2.3,6-3.3,8.7
	c0,1.5,0.1,2.9-2.4,3c0.2,1,0.4,2.1,0.6,3.3l-3.1-0.3c0.4-0.9,0.8-1.8,1.2-2.8l-2.3-0.4l2-4.8c-3.3,2.4-3.3-0.3-4.5-1.9
	c-0.2,2.7-4.5,3.3-1.7,6.9l-2.6-1.1l-0.6,0.3c0.6,1.3,1.1,2.7,1.8,4.2l-2.7-0.3l2.7,4.7l-0.5,0.6l-4.5-1.7v0.1v-0.1
	c0.2-1.8,0.4-3.7,0.6-5.6c-2.4,0.2-2.2-1.2-1.9-2.2l-3.8-8.3l-3.2,6.6l-0.4-0.2v4l-2.1-0.1c0.5,1.6,0.9,3,1.3,4.1l-3.2,0.6
	c1.3,1.8,3.3,3.1,0.9,4.8l-2.8-0.9c0.5-2.8,0.5-2.8-0.6-3.3l-3.6-10.1l-0.6,0.1c-1,2.5-2,5-2.9,7.5c-0.3,1.2,0.2,2.8-1.8,2.8
	c-0.3,2.2-0.5,4.5-0.8,6.7l-0.5-0.1c0.3,1.2,0.5,2.3,0.8,3.5l-0.6,0.2l-0.9-1.5h-2.5c0.9-1.6,1.6-3,2.5-4.7h-2.3l1.7-3.8l-0.7-0.4
	l-2.3,1c2-3.5-1.7-4.9-1.7-7.5c-2,0.8-0.3,5.1-4.4,3.1l1.7,4.5h-2.4c0.5,1.2,0.9,2.2,1.2,3.2l-2.9-0.3l2.7,4.7H174
	c0.5,1.4,0.9,2.6,1.4,4.1l-2.9-0.7c0.8,1.4,1.3,2.3,1.7,3.2l0,0l-2.4,0.3v-6.3c-2.6,0.2-1.8-1.6-1.3-3.2l-0.7,0.3
	c-1.1-2.7-2.2-5.5-3.4-8.2c-1.4,3.2-2.5,6.4-3.4,9.8c-0.1,0.3-0.2,0.9-0.4,1c-2.5,0.7-1.2,2.4-1.1,3.6l-1.7,0.9c0.3,2,0.5,3.5,0.7,5
	c0,0,0,0.1,0,0.1l-0.1-0.1l-3.6-1.2c0.3-1,0.7-2.2,1-3.3l-2-0.5l0,0l0,0l0,0c0,0,0-0.1,0-0.1c0-0.1,0-0.1,0-0.2
	c0.4-1.9-0.5-3.4-1.3-5c-0.7-1.4-1.2-3-1.9-4.8c-2.4,3.6-2.6,8-5.6,11.2c0.5,1.8,0.9,4-0.7,5.6c0.2,1.3,0.3,2.4,0.5,3.5l-0.7,0.1
	c-0.4-0.4-0.7-1.2-1.1-1.2c-1.2-0.2-1.4-0.4-1.7-1.8c-0.2-1-1-1.9-0.6-3.3c0.2-0.6-1-1.6-1.8-2.7c-0.1-0.9-0.4-2.1-0.6-3.4h-0.9
	c-0.7,2.7-1.3,5.3-2,7.9h-0.1c0,0,0.1-0.1,0.1-0.1l-1.2,0.2c-0.3,0.7-0.6,1.4-0.9,2l-0.9-0.2c0.2-1.5,0.4-3,0.5-4.7
	c-3.8,0.8-1.9-3.8-4.1-4.4l-3.2,5.4v3.6l-3.3-0.9l1-1.8l-1.8-0.5l-4.5-9c-2.5,2.2-0.5,6.8-4.4,8.2c0.2,1.5,0.4,2.9,0.5,4.3l-0.7,0.1
	c-0.2-1.1-0.4-2.2-0.7-3.3c-0.2-0.6-0.5-1.2-0.9-1.8l0-0.1c0,0,0-0.1,0.1-0.1c0.1-0.1,0.1-0.2,0.1-0.3c0-0.1,0.1-0.1,0.1-0.2
	c0-0.1,0-0.1,0-0.2c-0.3-0.6-0.8-1.1-1.1-1.7c-0.8-1.8-1.6-3.7-2.4-5.6l-0.7-0.1c-0.7,2.4-1.5,4.8-2.3,7.5l-0.8,0.2
	c0,0.6-0.1,1.2-0.1,1.9l-1.7,0.1c0.4,1,0.7,1.7,0.9,2.2l-3.3,1.4c0.3-1.5,0.5-2.9,0.8-4.4h-1.5c-0.5-1.4-1-2.7-1.7-4.5
	c-0.6,1.1-1.2,1.7-1.2,2.3c-0.1,2.1-1,2.9-3.4,1.8c0.7,1.9,1.2,3.4,1.8,5.1l-2.6,0.3l1.9,3.6l-0.8,0.4l-1.6-3h-0.2
	c-1-2.4-1.9-4.8-3.1-7.6l-3.9,9l-0.3-0.2c-0.2,1.1-0.4,2.2-0.5,3.3l-0.9,0.2l-3.8-8.7l-3.9,9l-0.8-0.3c0.1-0.8,0.3-1.7,0.3-2
	l-2.8-4.3l-2.8,6.3l-1.1-0.1c0-0.3,0-0.8-0.1-1c-0.5-0.9-1.2-1.7-1.8-2.5c-0.3-0.4-0.6-0.7-1-1.1c-0.9,2.1-1.8,4-2.7,6l-1.6-0.6
	c0.4,1.6,0.7,2.7,1,3.9L63,264c-1.1-2.2-2.2-4.5-3.2-6.6l-4.1,6.9l-2-2c-0.3,0.8-0.5,1.6-0.8,2.4l-1.7-0.5c0.5,1.1,0.7,1.8,1,2.5
	c-0.5,0.3-1.1,0.7-1.6,1c-0.4-1-0.8-1.9-1.5-3.4c-1.6,3.7-3,6.8-4.7,10.6H23.7c0.3,0.6,0.9,1.1,1.6,1.3c4.1,0.8,8.2,2.2,12.3,2.1
	c7.6-0.2,15.2-1.3,22.8-1.9c2.6-0.2,5.3-0.1,8-0.1c2.1,0,3.8,2.2,6.1,0.8c1.4-0.7,2.9-1.2,4.5-1.5c10.5-2.8,21.2-4.7,32.1-3.2
	c2.9,0.5,5.7,1.3,8.5,2.1l-0.1,1c-17.9,6.4-36.1,11-55.2,12c6.5,0.4,13.1,0.9,19.6,1c9.2,0.1,18.4-1,27.2-3.5
	c9.4-2.7,18.5-6.4,27.7-9.6c7.8-2.7,15.5-5.3,23.3-7.9l0.4,0.5c-5.7,3.5-10.3,8.3-13.7,14.1c2.4-1.1,4.7-2.2,7-3.5
	c9.3-5.2,19.2-9.3,29.4-12.2c7.1-2.1,14.4-3.8,21.6-5.2c6.8-1.3,13.7-2.2,20.6-2.6c9.3-0.4,18.7-0.2,28,0c4,0.1,8,0.5,12,1.1
	c7,1,14,1.8,20.9,3.5c11.9,2.9,24,5.6,35.5,9.7c12,4.2,23.6,9.9,35.4,15l3.7,1.6l0.5-0.8c-4.8-3.6-9.6-7.4-14.6-10.7
	s-10.3-6.3-15.8-9.6c12.8-3.3,26-4.3,39.2-2.8c-6.4,1.7-12.8,3.3-19.1,7.3c1.6,0.3,2.6,0.5,3.5,0.5c3.9,0.4,7.8,0.5,11.7,1
	c10.4,1.4,20.5,4.3,30.5,7.5c6.6,2.1,13.1,4.5,19.9,6.2c7,1.8,14.2,3.2,21.5,4c9.7,0.9,19.4,0.4,29-1.6c2.6-0.5,5.2-1.2,7.7-1.8
	c-0.1-0.3-0.1-0.6-0.2-0.9c-3.5,0.2-7.1,0.6-10.6,0.6c-6.2,0-12.4-0.3-18.6-0.9c-6.7-0.8-13.4-2.1-19.9-3.9c-7.1-2-14-5.1-21-7.5
	c-5.8-2-11.6-3.7-17.5-5.5c11.9-2.1,24-2.5,36-1.1c-0.4-0.5-0.9-0.9-1.5-1.1c-2.2-0.8-4.4-1.4-6.5-2.2c-10.1-3.7-20.5-6.5-31.2-8.2
	c-9.6-1.6-19.4-2.4-29.2-2.2c-11.2,0-22.3,1.5-33,4.6c-4.6,1.4-8.8,1.5-13-1.4c1.2-0.5,2.3-1,3.4-1.4c12.8-5,26.3-7.6,40-7.8
	c10-0.2,20,0.6,29.8,2.3c12.6,2.3,25,5.8,37.3,9.3c9.6,2.7,18.9,6.2,28.3,9.5c13.1,4.5,26.1,9.3,39.8,12.2c9.3,2,18.7,3.1,28.2,1.5
	c2.5-0.4,4.8-1.5,7.2-2.3C524.6,281.5,524.5,281.3,524.5,281.1z M55.9,266.1l0.1,0.1h-0.1l0,0l0,0l0,0c-0.1-0.6-0.1-1.2-0.2-1.7
	l0.4,0.1h0.1c0,0,0.1,0,0.1,0.1c0.1,0,0.1,0,0.1,0.1l0.1,0.1l0.1,0.1C56.8,265.3,56.6,265.6,55.9,266.1z M69.8,260.9v-1.6l0.5,1.5
	L69.8,260.9z M113.2,248L113.2,248z M114.9,254.2l-0.1-0.1L114.9,254.2L114.9,254.2z M120,275.1l0.1-0.1l0.1,0.1L120,275.1z
	 M158.7,253.9l-0.9-1.1l0.7-0.6l0.9,1.1L158.7,253.9z M159.3,250.7l0.1-0.1L159.3,250.7L159.3,250.7z M163.3,267.3v-0.1h0.1
	L163.3,267.3z M174.1,247.5c0-0.2,0.1-0.5,0.2-0.7c0,0.3,0.1,0.5,0.1,0.8L174.1,247.5z M198.8,239.1c-0.2-0.6-0.4-1.2-0.5-1.9
	l0.7-0.2c0.2,0.6,0.4,1.2,0.6,1.8L198.8,239.1z M214.5,236.1l-2.1-0.7c0.3-0.6,0.6-1.2,1.2-2.4l1.3,2.7L214.5,236.1z M224.4,232.5
	l-0.5-0.3c0.3-0.2,0.5-0.3,0.8-0.5C224.6,232,224.5,232.3,224.4,232.5L224.4,232.5z M224.7,231.7L224.7,231.7L224.7,231.7
	C224.6,231.6,224.6,231.6,224.7,231.7l0-0.2C224.7,231.5,224.7,231.6,224.7,231.7L224.7,231.7z M225.8,235.3L225.8,235.3h-0.1H225.8
	L225.8,235.3z M225.8,235.4C225.8,235.4,225.8,235.3,225.8,235.4L225.8,235.4L225.8,235.4z M224.8,231.5l0.7-2.2l0.8,0.5
	L224.8,231.5z M226.6,231.1v-0.1h0.1L226.6,231.1z M250.6,230.4l-0.7-0.4c0.3-0.5,0.5-1.1,0.8-1.7l0.8,0.3L250.6,230.4z
	 M251.6,227.5l-0.1-0.1L251.6,227.5L251.6,227.5z M262.6,227.8l1.2-3l2.1,3.3L262.6,227.8z M278.3,224.4l-1.6,0.8l-0.8-0.5l2-3.9
	l0.7,0.2L278.3,224.4z M279.5,226.1l-0.1-0.1l0.2-0.1L279.5,226.1z M289.2,211.1L289.2,211.1L289.2,211.1L289.2,211.1z M293.8,229.7
	l0.1-0.1l0,0.2L293.8,229.7z M307.5,236.1c-0.1,0.7-0.1,1.3-0.2,2.3c-2.2-2.2-0.4-3.4,0.4-5.4l2.3,2.9L307.5,236.1z M318.1,238.9
	l-0.4-0.6l0.2-0.2l0.5,0.5L318.1,238.9z M316.6,235l2.3-3.3l0.5,3.3H316.6z M319.6,236c0-0.3,0-0.5-0.1-0.8c0.1,0.2,0.3,0.5,0.4,0.7
	L319.6,236z M331.6,232.1l-0.4-0.6l1-0.7c0.1,0.2,0.3,0.3,0.4,0.5C332.3,231.6,331.9,231.8,331.6,232.1L331.6,232.1z M363.6,227.5
	c-0.8-0.4-1.8-0.7-2.2-1.4c-0.3-0.4,0.2-1.4,0.5-2.8l2.1,3.6L363.6,227.5z M375,227.2v-0.4l0.5-0.1c0,0.2,0,0.3,0,0.5H375z
	 M394.1,231.1c-0.1,0-0.1,0-0.2-0.1c0,0,0.1-0.1,0.1-0.1l0.2,0.1C394.1,231,394.1,231,394.1,231.1L394.1,231.1z M409.1,234.4
	l-0.6,0.4l-0.1-0.3l0.6-0.2l0.3-0.4c0,0,0.1,0.1,0.1,0.1S409.1,234.2,409.1,234.4L409.1,234.4z M409.1,230.8l-0.5,0.1l-1.7,0.2
	l-0.1,0.1l0.1,0.1l-0.1-0.1l0,0l0,0l0,0h0.1c0.2-0.2,0.4-0.4,0.6-0.6l0.3-0.3l-1.4-1l1.5-2.2l2.4,3.7L409.1,230.8z M420.2,239
	c-0.2-0.4-0.3-0.9-0.5-1.3l0.5-0.2l0.5,1.3L420.2,239z M432.1,242.6l-0.5-0.3l1.1-2.5l0.7,0.5L432.1,242.6z M470.6,260.2l-0.1-0.3
	l0.5-0.2c0,0.1,0,0.2,0.1,0.2L470.6,260.2z M51.8,268.9l0.1,0.2L52,269L51.8,268.9z M51.9,269.1C51.9,269.1,51.9,269.1,51.9,269.1
	C51.9,269.1,51.9,269.1,51.9,269.1L51.9,269.1z M125.3,253.8L125.3,253.8L125.3,253.8L125.3,253.8z M125.3,253.8L125.3,253.8
	L125.3,253.8l0.1,0L125.3,253.8z M105.1,253.8L105.1,253.8L105.1,253.8z M105.1,253.6c0,0,0,0.1,0.1,0.1l0.1-0.1L105.1,253.6z
	 M105.2,253.7L105.2,253.7L105.2,253.7L105.2,253.7z M454.7,248.2L454.7,248.2L454.7,248.2L454.7,248.2z M236.7,232.4L236.7,232.4
	l0,0.1C236.8,232.5,236.7,232.4,236.7,232.4z M236.9,232.2l-0.1,0.1l0,0h0.2L236.9,232.2z M292.6,227.9L292.6,227.9l0.1,0.1l0.1-0.2
	L292.6,227.9z"/>
<path class="st0" d="M266.3,279.7c0,0.2-0.1,0.4-0.2,0.5c-2.8-0.2-5.6-0.5-8.4-0.5c-8,0-16.1-0.3-24.1,0.1
	c-5.8,0.4-11.5,1.3-17.1,2.6c-7.1,1.6-14.1,3.6-21,5.8c-10.1,3.1-20,6.7-30.2,9.5s-20.1,5.6-30.5,6.3c-6.8,0.4-13.7,0.7-20.6,0.9
	c-1.4-0.1-2.8-0.3-4.1-0.5l11.1-7.6l-0.4-0.8c-12.6,1.2-25.1,1.5-37.6-1.3c22.3-0.8,43.2-7,63.3-16.4l0.6,0.8
	c-4.4,5.5-8.8,10.9-13.2,16.2c8.9-0.3,17.5-2.7,26.1-5.2c14.8-4.4,29.4-9.3,44.6-12.1c11.7-2.2,23.7-3.1,35.6-2.4
	c8.1,0.5,16.1,2.2,24.1,3.4C265.2,279.1,265.7,279.4,266.3,279.7z"/>
<path class="st0" d="M300.9,271.6c11.4,3.2,22.8,6.8,33.4,12.3c-3.2-0.5-6.5-0.8-9.6-1.4c-8.6-1.6-17.3-2.2-26-1.9
	c-0.4,0-0.7,0-1.1,0.1c-2.9,1-5.3,0-8.1-1c-7.6-2.7-15.3-5-23.2-7c-8.5-2.1-17.3-2.6-26-2.8c-11.4-0.2-22.8,0.6-34.1,2.3
	c-15.8,2.3-31,6.8-46,12c-2.6,0.9-5.2,2.2-7.8,3.3c-0.8,0.3-1.7,0.5-2.5,0.7l-0.3-0.6c2.4-1.5,4.8-3.1,7.3-4.4
	c9.7-5.4,20-9.5,30.7-12.4c9-2.3,18.2-4.3,27.4-5.7c12.4-1.9,25-1.9,37.6-1.3C269,264.5,285.1,267.2,300.9,271.6z"/>
<path class="st0" d="M334.5,284L334.5,284L334.5,284h-0.2H334.5L334.5,284z"/>
<path class="st0" d="M201.7,42.7L201.7,42.7L201.7,42.7z"/>
<path class="st0" d="M240.4,45.9c-6.3-5.9-13.9-10-22.2-12.1c-8.2-2.1-16.7-2.3-24.9-0.5l8.4,9.5l-0.3-0.1c-0.6-0.1-1.2-0.4-1.8-0.8
	c-4.8-4.4-10.5-7.1-16.5-9.3c-7.9-2.8-16.2-4.3-24.6-4.4c-12.5-0.4-24.9,2.1-36.3,7.2c-7.8,3.3-14.7,8.4-20.2,14.9
	c-1.1,1.4-2.3,2.8-3.6,4.1c0.5-3.8,2.8-6.6,5-9.4c8.3-10.3,19.5-15.7,32-18.8c5.5-1.4,11.2-1.8,16.9-2.3c9.7-0.8,19.4,0.5,28.5,3.8
	c0.8,0.2,1.5,0.6,2.2,0.9c3.3,1.9,6.7,1.3,10.4,0.9c5.7-0.7,11.5-0.7,17.3-0.1c7.6,0.8,15,3.5,21.4,7.8
	C235.4,39.2,239.7,43.4,240.4,45.9z"/>
<path class="st0" d="M129.2,213.3l0.5,0.6c-6.1,4.9-8.3,12-10.4,19c-3-1.7-6.6-7.5-8-12.5c-4.5,2.2-9,4.6-13.7,6.4
	c-4.7,2-9.9,2.7-15,1.8c11.5-5.1,21.4-12.1,28.5-23.4c0.4,2.3,0.7,4,1,6l2.3-3c1,3.2,1.9,6,3,9.6c3.4-7.5,8-12.7,15.1-16l-7.7,11.8
	l0.6,0.5L129.2,213.3z"/>
<path class="st0" d="M515.2,250.6L515.2,250.6c-3.5-1.4-7-3.2-10.3-5.1c-5.5-3.2-10.7-6.9-16.2-10.1c-4.1-2.4-8.4-4.5-12.5-6.8
	l-0.4,0.5l1.1,2.5l-3.2-0.4c-0.1,0.2-0.2,0.4-0.2,0.6l9.4,3.8c-8.2,2.9-29.1-8.1-30.5-16c2.5,0.9,4.9,1.9,7.3,2.5s4.9,0.7,7.4,1.1
	c0.1-0.2,0.3-0.4,0.4-0.7c-1.5-1.6-3-3.1-4.4-4.7l0.3-0.8c2.8,0.8,5.6,1.4,8.2,2.4c9.1,3.5,16.7,9.3,24.2,15.2
	c5.8,4.5,11.7,9,17.5,13.6C513.9,248.9,514.6,249.7,515.2,250.6z"/>
<polygon class="st0" points="515.2,250.6 515.2,250.6 515.2,250.6 "/>
<path class="st0" d="M448.3,298.4c-3,0.3-6,0.9-9,1c-8.3,0.2-16.5-1.1-24.7-2.8c-10.8-2.2-21.7-4.3-32.5-6.3c-2.7-0.5-5.6-0.5-8.4-1
	c3-2,6.5-1.9,10.6-2.3c-8.2-3.5-16.2-5.4-24.3-7.4c3.2,0,6.5-0.3,9.6,0c14.5,1.8,27.9,7.4,41.8,11.2c8.7,2.3,17.5,4.1,26.4,5.9
	c2.6,0.5,5.3,0.4,8,0.5c0.8,0,1.7,0.1,2.5,0.2L448.3,298.4z"/>
<path class="st0" d="M278.3,178.7c2.4-1,4.9-1.8,7.5-2.4c-10.7,8.3-20.1,17.9-28.2,28.7c-0.2-0.2-0.5-0.3-0.7-0.4c1-2.3,2-4.7,3.1-7
	s2.4-4.5,3.4-7.2l-11.8,7.5c0.9-4.6,19.8-25.4,25.8-28.4c-0.1,0.8-0.2,1.4-0.3,2.2c2.7-1.7,5.3-3.4,8-5c0.6-0.2,1.3-0.3,2-0.3l0,0
	l-14.8,14.4l0.1,0.1v-0.2C274.5,180,276.4,179.4,278.3,178.7z"/>
<path class="st0" d="M494.4,96.7c-4.3-6.7-10.1-10.9-17.7-12.4S462,83.4,455.9,89l-0.5-0.5l2.7-4c-7.9-4.9-15.8-4.2-24.1,0.3
	c2.7-5.6,16.2-9.9,26.8-2.4C476.7,75.5,494.2,85.8,494.4,96.7z"/>
<path class="st0" d="M94.4,124.4L94.4,124.4z"/>
<path class="st0" d="M175.7,101c-6.2,1.5-12.1,2.9-18,4.4c-21,5.3-41.8,11.5-62.3,18.6c-0.3,0.1-0.6,0.3-1,0.5c0.5-0.5,1-1,1.6-1.3
	c24.8-12.1,51.6-19.7,79.1-22.3C175.3,100.8,175.5,100.9,175.7,101z"/>
<path class="st0" d="M146.8,217.8L132,231.2l-0.7-0.7l9-11l-1.8-1.7l7.8-0.9L146.8,217.8z"/>
<path class="st0" d="M322.3,193c-2.9,3.1-5.7,6.2-8.4,9.2c2-5.8,5.3-11.1,9.7-15.5C323.5,189.2,323.9,191.2,322.3,193z"/>
<path class="st0" d="M491.6,242.5l-13,3.4l-0.4-0.7l7.8-4.8L491.6,242.5z"/>
<path class="st0" d="M147.4,201.1l0.2-0.1C147.5,201,147.5,201,147.4,201.1L147.4,201.1z"/>
<path class="st0" d="M158.5,192.6c0,0.2,0.1,0.5,0,0.6c-3.6,2.6-7.3,5.2-11,7.8c1.9-2.3,3.6-4.7,5.6-6.8c0.6-0.6,2-0.6,3-0.9
	C157,193.1,157.8,192.8,158.5,192.6L158.5,192.6L158.5,192.6L158.5,192.6z"/>
<path class="st0" d="M499.7,247l-11.2,2C490,245.5,496,244.4,499.7,247z"/>
<path class="st0" d="M51.6,248.3l-11.4-1.8C45.1,243.9,48.3,244.5,51.6,248.3z"/>
<path class="st0" d="M54,239.8l6.8,4.9l-10.9-2.8l3.7-1.5L54,239.8z"/>
<path class="st0" d="M60.9,244.7L60.9,244.7l-0.1-0.1L60.9,244.7z"/>
<path class="st0" d="M508.2,251.3l-10.6,1C500.2,249.1,505,248.7,508.2,251.3C508.2,251.3,508.2,251.3,508.2,251.3z"/>
<path class="st0" d="M41.4,251.5l-9.9-0.5C34.5,248.5,39.4,248.9,41.4,251.5L41.4,251.5z"/>
<path class="st0" d="M451.8,297.4h-1v-0.1h1C451.8,297.3,451.8,297.4,451.8,297.4z"/>
<path class="st0" d="M313.3,187.6l-0.6,0.4l-0.3,0.2l0,0l0,0L313.3,187.6L313.3,187.6z"/>
<path class="st0" d="M133.5,97.7L133.5,97.7C133.4,97.7,133.3,97.7,133.5,97.7z"/>
<path class="st0" d="M133.6,97.7L133.6,97.7z"/>
<path class="st0" d="M41.8,251.4l-0.3,0.1l0,0L41.8,251.4z"/>
<path class="st0" d="M515.3,250.6h-0.2l0,0H515.3z"/>
<path class="st0" d="M61.9,245L61.9,245l-1-0.2l0,0L61.9,245L61.9,245L61.9,245z"/>
<path class="st0" d="M94.4,124.4L94.4,124.4l-0.3-0.1L94.4,124.4z"/>
<path class="st0" d="M147.4,201.1l-0.2,0.1L147.4,201.1L147.4,201.1z"/>
<path class="st0" d="M158.6,192.5c0,0,0,0.1,0,0.1V192.5L158.6,192.5L158.6,192.5L158.6,192.5z"/>
<path class="st0" d="M312.4,188.3v-0.1l0,0l0,0l0,0V188.3z"/>
<path class="st0" d="M313.8,187.1l-0.6,0.5l0,0L313.8,187.1L313.8,187.1z"/>
<path class="st0" d="M61.9,245L61.9,245C61.9,245.1,61.9,245,61.9,245L61.9,245L61.9,245L61.9,245z"/>
<path class="st0" d="M287.3,166.3L287.3,166.3z"/>
<path class="st0" d="M287.3,166.3L287.3,166.3z"/>
<path class="st0" d="M46.9,89.6L46.9,89.6v0.1C46.9,89.7,46.9,89.7,46.9,89.6L46.9,89.6L46.9,89.6z"/>
<path class="st0" d="M334.5,284h-0.1l0,0l0,0l0,0l0,0H334.5z"/>
<path class="st0" d="M201.7,42.7l-0.1,0.1L201.7,42.7L201.7,42.7L201.7,42.7z"/>
<path class="st0" d="M415.3,58.7L415.3,58.7z"/>
<path class="st0" d="M189.8,161.1l1.8-1.6L189.8,161.1L189.8,161.1z"/>
<path class="st0" d="M196.4,148.8l0.7-0.6L196.4,148.8L196.4,148.8L196.4,148.8z"/>
<path class="st0" d="M199.5,135.7L199.5,135.7L199.5,135.7L199.5,135.7L199.5,135.7L199.5,135.7z"/>
<path class="st0" d="M204,133.6l-4.5,2L204,133.6L204,133.6L204,133.6z"/>
<path class="st0" d="M227.1,107l1-1C227.8,106.3,227.4,106.6,227.1,107L227.1,107z"/>
<path class="st0" d="M163,140.5L163,140.5L163,140.5L163,140.5L163,140.5z"/>
<path class="st0" d="M163.7,140l-0.5,0.5h0.3h-0.3l0,0L163.7,140z"/>
<path class="st0" d="M168.9,134.9l5.6-5.2L168.9,134.9L168.9,134.9z"/>
<path class="st0" d="M195.3,120.9L195.3,120.9L195.3,120.9z"/>
<path class="st0" d="M329.3,129.8l-1.2,1.1l-0.4-0.5l1.3-1L329.3,129.8z"/>
<path class="st0" d="M247.6,84.6l0.9-1.5l0.4,0.4L247.6,84.6L247.6,84.6z"/>
<path class="st0" d="M428.7,169.6l-0.4-0.7c0.2-0.1,0.5-0.2,0.5-0.2c0.1,0.2,0.3,0.4,0.3,0.6L428.7,169.6z"/>
<path class="st0" d="M196.3,120.9l0.2-1.2l0.4,0.1l-0.2,1.1L196.3,120.9z"/>
<path class="st0" d="M291.5,57.2l-0.6-0.8l0.3-0.2l0.7,0.7L291.5,57.2z"/>
<path class="st0" d="M199.4,135.6l-0.8,0.5l-0.1-0.4h1L199.4,135.6z"/>
<path class="st0" d="M425.1,213.4l1-0.2l-0.1,0.6L425.1,213.4L425.1,213.4z"/>
<path class="st0" d="M182.8,167.2l-0.1,0.6l-0.3-0.3L182.8,167.2z"/>
<path class="st0" d="M114.7,175.4C114.6,175.1,114.5,174.9,114.7,175.4C114.8,174.8,114.8,175.1,114.7,175.4L114.7,175.4z"/>
<path class="st0" d="M161.7,141.5v0.7h-0.2v-0.7L161.7,141.5z"/>
<path class="st0" d="M346.9,164.6v0.1c0,0-0.1,0-0.2,0c0,0,0-0.1,0-0.2L346.9,164.6z"/>
<path class="st0" d="M257.7,128.1l0.1,0.2l-0.2,0.1c0-0.1,0-0.1,0-0.2C257.5,128.2,257.6,128.2,257.7,128.1z"/>
<path class="st0" d="M226.3,133.1c0,0-0.1,0-0.1,0s0-0.1-0.1-0.2h0.2L226.3,133.1z"/>
<path class="st0" d="M160.2,142.5c0.1,0.1,0.2,0.2,0.2,0.2s-0.1,0.2-0.2,0.2c-0.1,0-0.1,0-0.1-0.1
	C160.1,142.7,160.1,142.6,160.2,142.5z"/>
<path class="st0" d="M158.2,209.7l0.1,0.1v-0.1L158.2,209.7z"/>
<polygon class="st0" points="156.9,210.1 156.8,210.1 156.8,210 "/>
<path class="st0" d="M158.3,209.6L158.3,209.6L158.3,209.6z"/>
<path class="st0" d="M81.1,205L81.1,205C81.1,205,81.1,205,81.1,205C81.1,204.9,81.1,205,81.1,205z"/>
<path class="st0" d="M162.5,141.2l-0.1,0.1L162.5,141.2L162.5,141.2z"/>
<path class="st0" d="M427.9,196.1h-0.1v0l0,0L427.9,196.1z"/>
<path class="st0" d="M94.2,194.3v0.1V194.3L94.2,194.3L94.2,194.3z"/>
<path class="st0" d="M162.5,141.3l0.5-0.7c0,0,0-0.1,0-0.1L162.5,141.3L162.5,141.3z"/>
<path class="st0" d="M196.5,148.9h-0.2H196.5L196.5,148.9L196.5,148.9z"/>
<path class="st0" d="M336.6,138.4v-0.2V138.4L336.6,138.4z"/>
<polygon class="st0" points="159.3,143.2 159.5,143.2 159.4,143.3 "/>
<path class="st0" d="M98.1,190.4H98H98.1L98.1,190.4z"/>
<path class="st0" d="M169,134.9h-0.2H169L169,134.9L169,134.9z"/>
<path class="st0" d="M204.1,133.6H204l0,0H204.1z"/>
<path class="st0" d="M146.1,143.4l0.1,0.1C146.2,143.5,146.1,143.4,146.1,143.4L146.1,143.4z"/>
<path class="st0" d="M250.5,149.8h-0.1c0,0,0,0,0-0.1L250.5,149.8z"/>
<path class="st0" d="M378.1,186.7l-0.1-0.1h0.1L378.1,186.7z"/>
<path class="st0" d="M194.1,123.8h0.2H194.1L194.1,123.8z"/>
<path class="st0" d="M106,182.1h-0.1H106L106,182.1z"/>
<path class="st0" d="M169.5,143.7h-0.1h-0.1C169.3,143.7,169.4,143.7,169.5,143.7L169.5,143.7L169.5,143.7z"/>
<path class="st0" d="M195.3,121.1l-0.1-0.1l0,0l0,0l0,0L195.3,121.1z"/>
<polygon class="st0" points="136.3,175 136.3,175.2 136.2,175.1 "/>
<path class="st0" d="M252.3,120l0.1,0.2L252.3,120L252.3,120z"/>
<path class="st0" d="M127.1,174.7h-0.2H127.1L127.1,174.7z"/>
<path class="st0" d="M156.7,169.8l-0.1,0.1l0,0C156.6,169.9,156.6,169.9,156.7,169.8L156.7,169.8L156.7,169.8z"/>
<path class="st0" d="M38,244.1h-0.2C37.9,244.1,37.9,244.1,38,244.1L38,244.1z"/>
<path class="st0" d="M237.5,112.7L237.5,112.7L237.5,112.7L237.5,112.7L237.5,112.7L237.5,112.7L237.5,112.7z"/>
<path class="st0" d="M185.2,165.9l-0.1,0.2L185.2,165.9L185.2,165.9z"/>
<path class="st0" d="M227.1,107H227H227.1L227.1,107z"/>
<polygon class="st0" points="219,99.4 219.1,99.4 219,99.3 "/>
<path class="st0" d="M185.3,166h-0.1H185.3L185.3,166z"/>
<path class="st0" d="M250.3,164.1L250.3,164.1z"/>
<path class="st0" d="M189.8,161.1l-0.1,0.1L189.8,161.1L189.8,161.1L189.8,161.1z"/>
<polygon class="st0" points="211.2,147.8 211.2,147.8 211.1,147.8 "/>
<path class="st0" d="M247.6,84.5l0.1,0.1h-0.1L247.6,84.5z"/>
<path class="st0" d="M281.3,80.8l-0.1-0.1L281.3,80.8L281.3,80.8L281.3,80.8z"/>
<path class="st0" d="M261.7,53L261.7,53L261.7,53L261.7,53h-0.2H261.7L261.7,53z"/>
<path class="st0" d="M406.6,231.1l1-1l-1.4-1l1.5-2.2l2.4,3.7L406.6,231.1L406.6,231.1z"/>
<path class="st0" d="M310,235.9l-2.5,0.2c-0.1,0.7-0.1,1.3-0.2,2.3c-2.2-2.2-0.4-3.4,0.4-5.4L310,235.9z"/>
<path class="st0" d="M275.8,224.8c0.7-1.3,1.3-2.6,2-3.9l0.7,0.2l-0.2,3.4l-1.6,0.8L275.8,224.8z"/>
<path class="st0" d="M361.8,223.3l2.1,3.6l-0.4,0.6c-0.8-0.4-1.8-0.7-2.2-1.4C361,225.6,361.5,224.6,361.8,223.3z"/>
<path class="st0" d="M319,231.6L319,231.6L319,231.6L319,231.6L319,231.6z"/>
<path class="st0" d="M319,231.7l0.5,3.3h-2.8L319,231.7z"/>
<path class="st0" d="M319.5,235L319.5,235L319.5,235z"/>
<path class="st0" d="M237.4,225.9l1.6,3.5l-1.6-1.9c-0.4,0.3-0.7,0.6-1,1c0.3-0.8,0.6-1.7,0.9-2.5L237.4,225.9z"/>
<path class="st0" d="M239.4,229.9v0.4c-0.1-0.3-0.3-0.6-0.4-0.9C239.1,229.6,239.3,229.8,239.4,229.9z"/>
<path class="st0" d="M265.9,228.1l-3.3-0.3l1.2-3L265.9,228.1z"/>
<path class="st0" d="M214.5,236.1l-2.1-0.7l1.2-2.4c0.6,1.2,1,1.9,1.3,2.7L214.5,236.1z"/>
<path class="st0" d="M433.4,240.3l-1.4,2.3l-0.5-0.3l1.1-2.6L433.4,240.3z"/>
<path class="st0" d="M251.4,228.7l-0.8,1.7l-0.7-0.4l0.8-1.7L251.4,228.7z"/>
<path class="st0" d="M224.7,231.7l0.7-2.3l0.8,0.5C225.7,230.4,225.2,231,224.7,231.7L224.7,231.7z"/>
<path class="st0" d="M198.8,239.1l-0.5-1.9l0.7-0.2l0.6,1.8L198.8,239.1z"/>
<path class="st0" d="M420.1,238.9c-0.2-0.4-0.3-0.8-0.5-1.3l0.5-0.2l0.5,1.3L420.1,238.9z"/>
<path class="st0" d="M331.1,231.5l1-0.7l0.4,0.5l-1,0.8L331.1,231.5z"/>
<path class="st0" d="M55.9,266.2l-0.2-1.8l0,0c1.3,0.4,1.3,1,0.2,1.7L55.9,266.2z"/>
<path class="st0" d="M158.5,252.2l0.9,1.1l-0.7,0.7l-0.9-1.1L158.5,252.2z"/>
<path class="st0" d="M318.1,238.9l-0.4-0.6l0.2-0.2l0.5,0.5L318.1,238.9z"/>
<path class="st0" d="M69.8,259.3l0.5,1.5l-0.5,0.1L69.8,259.3L69.8,259.3z"/>
<path class="st0" d="M470.5,259.9l0.5-0.2l0.1,0.2l-0.5,0.2L470.5,259.9z"/>
<path class="st0" d="M224.7,231.7l-0.3,0.9l-0.5-0.3L224.7,231.7L224.7,231.7z"/>
<path class="st0" d="M374.9,226.7l0.5-0.1v0.5h-0.5L374.9,226.7z"/>
<path class="st0" d="M185,243.8C185,243.4,185,243.6,185,243.8z"/>
<path class="st0" d="M319.5,235.1l0.5,0.8l-0.3,0.1c0-0.3,0-0.6-0.1-1L319.5,235.1z"/>
<path class="st0" d="M394.1,230.9c0,0,0,0.1-0.1,0.1c-0.1,0-0.1,0-0.2-0.1l0.1-0.1L394.1,230.9z"/>
<path class="st0" d="M278.9,220.2C278.8,219.8,278.9,220,278.9,220.2z"/>
<path class="st0" d="M174.3,246.7L174.3,246.7C174.3,246.8,174.3,246.7,174.3,246.7L174.3,246.7L174.3,246.7z"/>
<path class="st0" d="M174.1,247.5c0-0.2,0.1-0.5,0.2-0.7c0,0.3,0.1,0.5,0.1,0.8L174.1,247.5z"/>
<path class="st0" d="M409,234.3l-0.6,0.4l-0.1-0.3l0.6-0.2L409,234.3z"/>
<path class="st0" d="M408.9,234.2l0.3-0.4c0,0,0.1,0.1,0.1,0.1s-0.2,0.3-0.3,0.4L408.9,234.2z"/>
<path class="st0" d="M279.5,226.1l-0.1-0.1l0.2-0.1L279.5,226.1z"/>
<path class="st0" d="M289.2,210.9v0.1C289.2,211.1,289.2,211,289.2,210.9L289.2,210.9z"/>
<path class="st0" d="M260.4,218.6h-0.1v-0.1C260.3,218.6,260.3,218.6,260.4,218.6z"/>
<path class="st0" d="M296.4,219.4c0,0-0.1-0.1-0.1-0.2h0.1C296.4,219.3,296.4,219.4,296.4,219.4z"/>
<path class="st0" d="M235,225.1L235,225.1L235,225.1L235,225.1z"/>
<polygon class="st0" points="251.4,227.5 251.6,227.4 251.6,227.6 "/>
<path class="st0" d="M292.6,228l0.1,0.1l0.1-0.2L292.6,228L292.6,228z"/>
<path class="st0" d="M223.3,228.1l0,0.3C223.3,228.3,223.3,228.2,223.3,228.1L223.3,228.1z"/>
<path class="st0" d="M292.6,227.9L292.6,227.9z"/>
<polygon class="st0" points="293.9,229.6 294,229.7 293.8,229.7 "/>
<polygon class="st0" points="226.6,231.1 226.6,231 226.7,231 "/>
<path class="st0" d="M406.6,231l0.1,0.2C406.7,231.1,406.6,231.1,406.6,231C406.6,231.1,406.6,231,406.6,231z"/>
<path class="st0" d="M211.8,232v-0.1l0,0V232z"/>
<path class="st0" d="M236.7,232.4h0.3l-0.1-0.1L236.7,232.4L236.7,232.4z"/>
<path class="st0" d="M236.7,232.3v0.2C236.7,232.5,236.7,232.4,236.7,232.3L236.7,232.3z"/>
<path class="st0" d="M225.8,235.3h-0.1H225.8L225.8,235.3z"/>
<polygon class="st0" points="225.8,235.3 225.7,235.4 225.8,235.3 "/>
<path class="st0" d="M155.9,244.9L155.9,244.9z"/>
<path class="st0" d="M454.6,248.3h0.2H454.6L454.6,248.3z"/>
<path class="st0" d="M113.2,248L113.2,248z"/>
<path class="st0" d="M454.7,248.2L454.7,248.2L454.7,248.2L454.7,248.2z"/>
<path class="st0" d="M160.6,250l-0.1-0.1h0.1C160.6,249.9,160.6,250,160.6,250z"/>
<polygon class="st0" points="159.4,250.6 159.4,250.7 159.3,250.7 "/>
<path class="st0" d="M137.6,250.7h-0.1C137.5,250.7,137.5,250.7,137.6,250.7L137.6,250.7z"/>
<path class="st0" d="M105.3,253.7l-0.1-0.1l0.1,0.2L105.3,253.7L105.3,253.7z"/>
<path class="st0" d="M125.3,253.7l-0.2,0.1L125.3,253.7L125.3,253.7z"/>
<path class="st0" d="M105.3,253.7l-0.1,0.1C105.2,253.8,105.2,253.7,105.3,253.7L105.3,253.7z"/>
<polygon class="st0" points="114.8,254.2 114.9,254.1 114.9,254.2 "/>
<path class="st0" d="M125.4,253.7h-0.1H125.4L125.4,253.7z"/>
<polygon class="st0" points="456.5,255.2 456.5,255.3 456.6,255.3 "/>
<path class="st0" d="M469.9,258.3L469.9,258.3L469.9,258.3C469.9,258.3,469.9,258.3,469.9,258.3z"/>
<path class="st0" d="M55.9,266.1l0.1,0.1h-0.1L55.9,266.1z"/>
<polygon class="st0" points="163.3,267.3 163.3,267.2 163.4,267.2 "/>
<path class="st0" d="M52,269l-0.1-0.1l0.1,0.2L52,269L52,269z"/>
<path class="st0" d="M52,269l-0.1,0.1L52,269L52,269z"/>
<polygon class="st0" points="120.1,275 120.1,275.1 120,275.1 "/>
<path class="st0" d="M272.5,180.9l-0.1-0.1l0,0L272.5,180.9z"/>
</svg>
