<?xml version="1.0" encoding="utf-8"?>
<!-- Generator: Adobe Illustrator 25.2.1, SVG Export Plug-In . SVG Version: 6.00 Build 0)  -->
<svg version="1.1" id="Слой_1" xmlns="http://www.w3.org/2000/svg" xmlns:xlink="http://www.w3.org/1999/xlink" x="0px" y="0px"
	 viewBox="0 0 527.3 399.9" style="enable-background:new 0 0 527.3 399.9;" xml:space="preserve">
<style type="text/css">
	.st0{fill:none;}
	.st1{font-family:'ArialMT';}
	.st2{font-size:108px;}
</style>
<path d="M35.3,176.9L35.3,176.9z M35.3,176.9L35.3,176.9L35.3,176.9z M50.3,332.3L50.3,332.3L50.3,332.3L50.3,332.3L50.3,332.3
	L50.3,332.3z M69.5,292.3L69.5,292.3l0.2,0.4L69.5,292.3z M82.5,281.7L82.5,281.7L82.5,281.7L82.5,281.7z M86.5,277.7L86.5,277.7
	c2.7-2.7,5.3-5.5,7.9-8.2L86.5,277.7z M101.6,335.3L101.6,335.3L101.6,335.3v-0.1V335.3L101.6,335.3z M94.4,269.3L94.4,269.3
	l8.7-6.6L94.4,269.3z M115.4,261.9L115.4,261.9l0.3-0.1L115.4,261.9z M121.9,185L121.9,185C121.7,185,121.8,185,121.9,185L121.9,185
	z M122.1,185L122.1,185L122.1,185L122.1,185L122.1,185z M144.3,332.2L144.3,332.2L144.3,332.2L144.3,332.2z M145,257.2L145,257.2
	l0.1-0.1L145,257.2z M145,257.1L145,257.1c0.5-0.5,1-1,1.4-1.6L145,257.1z M238.9,237.1L238.9,237.1l0.2-0.1L238.9,237.1z
	 M240.8,207.4L240.8,207.4c0-0.1,0-0.1,0-0.2V207.4z M250.1,140.3l-0.2,0.1L250.1,140.3c-0.5,0.6-1,1.1-1.5,1.6
	C249.1,141.4,249.5,140.9,250.1,140.3L250.1,140.3L250.1,140.3L250.1,140.3z M275.7,253.6L275.7,253.6z M300.7,275.5L300.7,275.5
	L300.7,275.5L300.7,275.5z M307.3,318.9L307.3,318.9L307.3,318.9z M322.8,371.2L322.8,371.2L322.8,371.2L322.8,371.2L322.8,371.2
	L322.8,371.2L322.8,371.2L322.8,371.2z M416.1,283.4L416.1,283.4c1,0.1,1.9,0.2,2.8,0.3C418.1,283.6,417.1,283.5,416.1,283.4
	L416.1,283.4z M444.9,342.3c0,0.1,0,0.2,0,0.2l0,0C444.9,342.4,444.9,342.3,444.9,342.3L444.9,342.3z M497,334.9
	c1.7,0.9,3.4,1.7,5.2,2.5C500.5,336.6,498.7,335.8,497,334.9L497,334.9z M503.5,337.9L503.5,337.9z"/>
<path d="M35.3,176.9L35.3,176.9L35.3,176.9L35.3,176.9L35.3,176.9z M82.5,281.7L82.5,281.7L82.5,281.7L82.5,281.7z M122.1,185
	L122.1,185L122.1,185L122.1,185L122.1,185z M145,257.2L145,257.2l0.1-0.1L145,257.2z M249.9,140.3h0.2l0,0H249.9z M302.2,274.3
	L302.2,274.3L302.2,274.3L302.2,274.3z M526,342.7c-2.8-2.4-5.8-4.5-8.7-6.8c-1.1-0.9-2.1-2-3.2-3c-1.9-1.5-4-2.8-5.8-4.4
	s-3.3-3.6-5-5.3c-3.1-3.2-6.3-6.3-9.4-9.5c-2.8-2.8-5.7-5.7-8.4-8.6c-1.8-1.9-3.4-4-5.1-6s-3.2-3.7-4.8-5.5
	c-1.9-2.1-3.8-4.2-5.8-6.2c-2.2-2.2-4.5-4.3-6.8-6.5c-0.6-0.6-1.1-1.2-1.7-1.8c-1-0.9-1.5-2.1-2.5-2.9c-1.7-1.4-3.6-2.6-5.5-3.7
	c-2.6-1.6-5.2-3.5-8-4.5c-3.1-1.1-6-1.7-8.1-4.7s-5.1-5.6-7.7-8.4c-3.2-3.3-6.2-6.9-9.6-10c-2-1.8-4.4-3.3-7.2-2.1
	c-1.9-1.5-3.8-2.8-5.5-4.3c-2.4-1.9-5.1-3.5-8-4.5c-3.6-1.5-7.2-3.1-10.7-5c-2.2-1.2-4.3-2.5-6.1-4.2c-1.7-1.7-3.3-3.5-4.7-5.4
	c1.8-0.8,3.6-1.8,5.3-2.9c3.1-2.3,6-4.7,8.8-7.2c2-1.9,3.8-3.9,5.6-6c0.7-0.8,1.2-1.8,1.8-2.6c0.9-1.1,2.1-2,2.8-3.2
	c1.1-2.1,2.1-4.3,4.9-4.2c2.4,0.5,4.8,0.7,7.3,1.1c2.5,0.4,4.6,1.1,6.9,1.5c2.7,0.5,5.4,0.6,8,1.2c4.3,1,8.6,2.3,12.9,3.5
	c3,0.8,6,1.5,8.9,2.4c2.2,0.6,4.4,1.4,6.6,2.1c2.9,1,5.8,2.1,8.7,3c1.2,0.3,2.4,0.4,3.7,0.5c0.1-0.3,0.2-0.6,0.2-0.9
	c-1-0.9-2.1-1.6-3.3-2.3c-5.4-2.6-10.8-5.1-16.2-7.5c-2.1-0.7-4.1-1.3-6.3-1.9c-3.2-1-6.3-2.2-9.5-3.1c-2.3-0.6-4.7-0.8-7-1.2
	c-4.7-0.9-9.3-1.9-14-2.8c-1.9-0.4-3.9-0.7-6-1l1.7-6c2.3,0.5,4.8,1.1,7.2,1.6s5.2,0.9,7.7,1.4c1.6,0.2,3.1,0.6,4.6,1
	c4.3,1.4,8.6,2.9,12.9,4.3c3.8,1.2,7.7,2.3,11.5,3.7c4.8,1.7,9.5,3.6,14.2,5.6c3.2,1.3,6.3,2.8,9.4,4.3c3.5,1.7,6.9,3.6,10.4,5.4
	c0.9,0.3,1.9,0.4,2.8,0.4c-2.6-4.7-6.9-6.7-10.6-9.3c-2.9-2-5.9-3.7-9.1-5.1c-5.6-2.6-11.3-4.9-17-7.2c-2.7-1.1-5.9-1.4-8.4-2.8
	c-3.7-2.1-7.7-2.5-11.6-3.6c-0.9-0.3-1.8-0.8-2.7-1.1c-5.8-1.4-11.5-2.9-17.4-4.1c-2.5-0.5-2-1.9-1.8-3.4c0.2-0.5,0.3-0.9,0.4-1.4
	c-0.1-4.6,2-9.1,0.5-13.8c-0.1-0.3-0.1-0.6,0-0.9c0.7-5.2-0.9-10-2-14.9c-0.6-2.6-2-5.1-2.9-7.7c-1.3-4-3.4-7.6-6.1-10.8
	c-1.1-1.2-1.9-2.6-2.9-3.8c-2-2.4-3.9-4.9-6-7.2c-1.1-1.1-2.3-2.1-3.6-3.1c-19.1-16.9-41.4-20.2-64.4-13.1
	c-22.8,7-37.5,23.6-44.7,47.1c-1.5-2.3-2.8-4.1-4-6.1c-2.1-3.3-4-6.8-6.4-9.9c-1.2-1.5-3-2.4-4.9-2.6c-1.3-0.1-3,1.5-4,2.7
	c-2.2,2.5-4.2,5.2-6.3,7.8c-1.3,1.6-2.6,3.3-3.9,4.9l0,0l0,0l0,0c-0.5,0.5-1,1-1.5,1.6l-0.5,0.5c-0.7,0.7-1.3,1.4-1.8,2.3
	c-2.5,4.7-6.6,6-11.5,6.2c-3.6,0.2-7.3,0.5-10.9,0.7c-0.6,0-1.2,0.2-1.7,0.3l-7.2,0.9l0,0c-0.3-0.2-0.7-0.2-1-0.2
	c-2.4,0.3-4.8,0.6-7.2,1c-1.5,0.2-3,0.4-4.6,0.5c-3,0.4-6,0.8-9,1.2c-1.7,0.2-3.4,0.2-5.1,0.5s-3.5,1-5.3,1.2
	c-4.9,0.6-9.8,1.2-15.2,1.8l-0.4,0.4c-6.4,0.7-12.1,2.4-18,1.8c0.2-0.4,0.5-0.7,0.9-1c2.4-1.2,4.8-2.3,7.2-3.5
	c1.6-0.8,3.1-2.4,4.8-2.5c3.6-0.1,5.8-2.3,8.3-4.3c2-1.6,4.3-2.9,6.3-4.4c1.4-1.1,1.1-2.5-0.1-3.5c-0.9-0.8-2-1.4-3.1-1.8
	c-4.9-1.3-10.1-1.7-15.2-1.1c-7,0.8-14.1,1.1-21.1,2c-13.7,1.7-27,5.2-40.3,9c-16.6,4.8-32.7,10.7-48,18.6
	c-4.6,2.4-8.9,5.5-13.3,8.3c1.6-0.4,3.1-0.9,4.6-1.5c17.4-8,35.4-14.6,53.8-20c13.3-4,26.9-7.2,40.7-9.5c9.7-1.6,19.6-2.3,29.4-2
	c1.4,0.2,2.9,0.4,4.2,0.8c0,0.2,0,0.4,0,0.7c-0.4,0.3-0.9,0.5-1.4,0.7c-1.9,0.4-3.7,0.9-5.5,1.5c-3,1.2-6,2.8-9,4.2
	c-2.3,1-4.8,1.9-7,3.1c-1,0.7-2,1.5-2.8,2.4c-1.4,1.3-2.7,2.7-3.8,4.2c-0.4,0.7,0,2,0.3,2.9c0.4,0.8,1,1.6,1.6,2.3
	c1.8,0.5,3.5,1.3,5.3,1.4c3.8,0,7.7-0.2,11.5-0.6c2.5-0.3,4.8-1.2,7.3-1.6c3.3-0.5,6.6-0.6,9.9-1c4.7-0.6,9.4-1.2,14-1.9
	c2.8-0.4,5.6-1.1,8.4-1.5c5.7-0.8,11.4-1.5,17.1-2.2c5.1-0.6,10.2-1.2,15.4-1.8c1.6-0.2,3.2-1.2,4.7,0.6l-8.6,9.8
	c-4.4,0-9.6-0.2-14.7,0.1c-4,0.2-8,0.9-12,1.4c-7.9,0.9-15.8,1.4-23.6,2.8c-12.8,2.3-25.6,5-38.2,7.9c-2.3,0.5-4.5,1.2-6.7,2
	c-2.8,1-5.5,2.1-8.3,3.1c6.6-1.1,13.2-2.2,19.8-3.4c6.9-1.2,13.7-2.5,20.6-3.6c6.4-1.1,12.8-2,19.2-2.9c5.1-0.7,10.3-1.5,15.4-1.8
	c5.9-0.4,11.8,0,17.6-1.4c2.4-0.4,4.8-0.6,7.3-0.6c-4.3,5.9-10,10.3-14.8,15.5l-7.9,7.6c-5.1-4.4-8.1-11.1-15.4-11.8
	c-1.2,0.4-2.4,0.5-3.1,1.2c-3.2,3-6.4,6-9.5,9.2c-1.5,1.5-2.6,3.5-4.1,5.1c-2.9,3.1-6,6-9,9c-0.4,0.4-0.6,0.9-1,1.3
	c-0.8,1-1.6,1.9-2.5,2.8c-1.6,1.3-3,2.7-4.5,4.1c-2.5,2.7-4.9,5.6-7.6,8.2s-5.6,4.9-8.4,7.4l0,0c-3.4,3-6.9,5.9-10.2,9
	c-2.8,2.7-3.1,2.9-5.8,0c-2.2-2.5-6.1-2.9-8.7-0.7c-0.6,0.5-0.9,1.4-1.5,2c-2.7,2.6-5.6,5-8.2,7.6c-0.7,0.7-0.9,1.9-1.4,2.9
	l-0.8-0.8c-7.3,7.8-14.7,15.5-22.1,23.3c-2-1.8-4.7-1.7-5.8-0.1c-1.3,2-2.7,3.9-4.2,5.8c-1.7,2.1-3.5,4-5.2,6
	c-2.7,3.2-5.3,6.4-8,9.5c-2.2,2.6-4.8,5-6.8,7.8c-1.3,1.7-3.5,2.3-4.2,4.7c-0.4,1.3-2.1,2.2-3.3,3.3c-1.3,1.3-2.5,2.7-3.8,3.9
	c-2.2,1.9-4.5,3.7-6.7,5.7c-1.9,1.8-3.5,3.9-5.4,5.6c-1.3,1.2-3,2-4.4,3.2c-2.4,2-4.5,4.4-7,6.3c-2.1,1.7-4.4,3-6.6,4.5
	c-0.8,0.6-1.4,2-2.2,2.1c-2.8,0.4-2.7,2-2.3,4.1c0.6,0.1,1.2,0,1.8-0.2c3.1-1.7,6.2-3.4,9.3-5.2c2.9-1.7,5.8-3.3,8.6-5.1
	c2.2-1.4,4.3-3,6.5-4.6H26l0.1-0.1c3.5-2.5,7.1-4.8,10.4-7.4c2.6-2.1,4.9-4.6,7.4-6.9c3-2.7,6.1-5.3,9.1-8.1c2-1.9,3.7-4.1,5.6-6.1
	c1.5-1.5,3.1-2.9,4.6-4.4c2-2,4-4.1,6-6.1v-0.1l0,0l0.2,0.4l0,0l0.4,0.8c0.4,0.7,0.7,1.5,1.1,2.4c1.6-1.8,2.8-3.1,3.9-4.4
	c1.3-1.6,2.5-3.3,3.7-4.9s2.4-3.3,3.6-4.9v-0.1l4.1-3.9H86l0.1-0.1c2.7-2.7,5.3-5.5,7.9-8.2h-0.1l0.1-0.1l8.7-6.6
	c-1,1.7-2,3.5-3,5.3l1.4,1.5c3.2-1.6,6.4-3.1,9.6-4.8c1.6-0.8,3-1.9,4.5-2.9H115l0.1-0.1l0.3-0.1l0.3-0.1l0.6-0.3l1.2-0.6l2.6-1.3
	l-2.4,4.3c0.5,0.5,0.9,1,1.5,1.7l4.9-3c-0.8,1.1-1.2,1.8-1.7,2.4c-1.5,1.7-2.7,3.6-4.5,4.9c-2.4,1.7-4.9,3.1-7.5,4.2
	c-1.5,0.8-3.2,1-4.9,0.8c-2.5-0.6-4.8-1.9-7.5-3.1c-2,1.7-3.9,3.6-5.6,5.5c-2.2,2.8-3.8,6-5.8,8.8s-4.2,5.4-6.4,8.1
	c-2.6,3.2-4.9,6.7-7.9,9.5c-3.8,3.3-7.8,6.5-12,9.4c-2,1.4-4.1,2.6-6.2,3.8l0.1,0.9c0.8,0.2,1.6,0.6,2.3,0.4
	c2.8-0.6,5.6-1.5,8.3-2.6c4.5-2.2,8.9-4.7,13.1-7.4c2.5-1.8,4.8-3.7,7-5.8c0.7-0.6,1.2-1.5,1.9-2c2.3-1.8,4.8-3.6,7.1-5.4
	c3-2.4,5.8-4.9,8.4-7.1c2.7,2.2,1,6.2,3.9,8.3c1-0.7,1.9-1.5,2.8-2.3c2.6-2.9,5.1-6,7.7-8.9s5.5-6.2,8.2-9.2
	c1.8-2.2,3.8-4.4,5.8-6.4c2.8-2.6,5.9-4.8,8.8-7.3c1.1-1,2-2.2,3.1-3.3c0.6-0.5,1.3-0.9,2-1.3c0,0,0-0.1,0.1-0.1
	c0.5-0.5,1-1,1.4-1.6l0.1,0.3l6.2-4.3l0.5,0.5c-1.2,3.6-2.1,7.4-3.6,10.9c-0.9,2-2.6,3.7-3.9,5.5c-0.6,1-1.3,1.9-2,2.8
	c-1.8,1.8-3.7,3.5-5.5,5.2l0.3,0.8c0.8,0.2,1.6,0.2,2.4,0.2c2.2-0.5,4.3-1.1,6.4-1.7c2-0.5,4-0.9,6-1.5c1.6-0.5,3.1-1,4.7-1.6
	c-9.5,11.5-21.3,19.7-35.6,25.7c1.3,1,2.1,2,2.8,2c4.8-0.2,9.7-0.5,14.5-1.1c1.9-0.2,3.8-1.2,5.6-1.9h0.1H145
	c-0.3,1-0.3,2.1-0.9,2.8c-2.2,2.6-4.6,5-6.9,7.5s-4.6,5.4-7.4,7.5c-4.5,3.4-9.4,6.3-14.1,9.5c-1.3,0.8-2.5,1.7-4.2,2.9
	c5.7,0.9,10.1-1.6,14.8-2.8c2-0.5,3.9-1.5,5.8-2.2c2.4-0.9,5-1.5,7.3-2.6c3.1-1.5,6.1-3.5,9.2-5.1s6.4-2.8,9.5-4.4s5.7-3.4,8.5-5.2
	c3.8-2.5,7.6-5,11.9-7.9c-1.6,2.5-2.9,4.4-4.4,6.8c0.9,0.2,1.8,0.3,2.7,0.3c1.5-0.2,3-0.9,4.4-1c4.2,0,7.5-2.6,11.2-3.9
	c3.5-1.3,6.5-3.7,9.8-5.5c4.4-2.5,8.7-4.8,13.6-7.5c-1.8,4.7-3.4,9.2-5.2,13.9l1.4,1.2c1.4-1.4,2.8-2.8,4.2-4.2
	c3.1-3.2,6.2-6.2,9.2-9.5c2.7-3.1,5.3-6.3,7.8-9.5c1.5-1.9,2.7-4,4.1-5.8c2.1-2.8,4.4-5.5,6.7-8.1c3.8-3.9,7.7-7.7,11.7-11.4
	c2.4-2.3,5-4.4,7.6-6.5c1.8-1.5,3.8-2.9,5.7-4.4c-0.2-0.3-0.3-0.7-0.5-1c-7.8,0.3-14.3,4.5-21.3,6.9c-0.4,0.2-1,0-1.3,0.2
	c-1.6,0.9-3.1,2-4.8,2.8c-0.8,0.3-1.7,0.5-2.5,0.5c0.3-0.2,0.7-0.4,0.8-0.6c1.5-4.2,4.8-7,8.1-9.7c1.1-1,2-2.2,2.8-3.4l-1.6-1.4
	l-14.3,6.3c0.3-0.5,0.5-1,0.9-1.4c1.2-1.4,2.4-2.8,3.6-4.2h-0.1c0,0,0,0,0-0.1l0.2-0.1c0.2,0,0.4-0.1,0.5-0.2c2-2,4.1-4,6.1-6.1
	c1-1.1,2-2.2,3-3.3c8.1-8.5,18.9-13.5,28.3-21.5l-3.8-0.8c-9.2,2.5-17.5,7.1-26.3,10.6c4.5-5.9,11.3-9,16.7-14l-1.4-1.5
	c-0.3,0.2-0.8,0.8-1,0.7c-1.5-0.7-2.5-0.1-3.5,1c-0.3,0.3-0.9,0.3-1.4,0.4l-7.2,2.3l-8.2,2.6c0-0.1,0-0.1,0-0.2
	c0-0.6,0.1-1.2,0.3-1.7c1.2-2.2,2.5-4.4,3.8-6.5c1.8-2.8,4.2-5.3,5.7-8.2c1.4-2.8,3.2-5.4,5.4-7.6c3.2-3.3,6.2-6.7,9.3-10.1
	c0.3-0.5,0.5-1.1,0.7-1.7l0.3,0.3l3.5-3.4l-0.1-0.1h0.1l0,0l2.6-2.2l-2.6,8c3.8,0.5,5.7-3.3,8.9-3.4c-0.9,1.6-1.8,3.1-2.8,4.6
	c-2,2.7-4.2,5.4-6.4,8c-1.5,1.7-1.8,3.8-0.6,4.6l18.8-10.4c-2.7,5.2-7.8,8.8-9.1,15c1.6-0.5,3.2-1.3,4.6-2.3
	c0.9-0.6,1.7-1.3,2.6-1.8c1.4-0.7,3-1,4.2-2c2.9-2.4,4.2-2.4,6.4,0.4c1.9,2.3,3.8,4.6,5.6,7c0.5,1,1,2,1.2,3.1l0.8-0.8l9.6,10
	l-23.3,29.4c0.8,0.6,1,0.9,3.6-0.9c5.6-3.9,11-8,16.5-12.1c1.5-1.1,2.9-2.3,4.4-3.5c0.2,0.2,0.4,0.5,0.7,0.7c-1.5,2-2.9,4-4.4,6
	c-1.8,2.5-3.6,4.9-5.3,7.5c-0.3,0.7-0.4,1.5-0.4,2.3l1,0.5c4.1-2.5,8.1-5.2,12.3-7.6c2.1-1,4.3-1.9,6.6-2.6c-2.9,3.3-5.9,6.6-8.8,10
	c-1,1.2-1.7,2.7-2.6,3.8c-1.5,1.8-3.1,3.4-4.5,5.1s-3,3.8-4.6,5.7c-0.9,1.1-2.2,2.1-2.6,3.3c-1.3,4-4.6,6.3-7.1,9.3
	c-1.7,2.1-3.7,3.9-5.5,5.9c-0.3,0.3-0.3,0.9-0.4,1.3l0.5,0.5c11.1-7,21.3-15.2,31.8-23.3c-2.1,2.5-4.6,4.7-6.6,7.2
	c-3.3,4.3-6.5,8.9-9.5,13.5c-1.1,1.9-2.1,4-2.8,6c0.7,0,1.5-0.1,2.2-0.3c3.5-1.7,7-3.5,10.5-5.2c0.7-0.2,1.3-0.5,2-0.6
	c-1,4-1.9,7.5-2.9,10.9c-0.2,0.8-0.6,1.5-1.1,2.2c-3.6,4.4-7.5,8.7-10.9,13.3c-2.4,3.5-4.7,7.2-6.8,10.9c-0.2,0.6-0.3,1.2-0.3,1.8
	l1.2,0.4l0.9,0.3c12.1-9.4,25.2-17.4,39-24.1c-2.5,3.3-4.4,6.8-4.3,11.1c1.2-0.8,2.4-1.7,3.4-2.7c1.8-1.4,3.7-2.7,5.5-4
	c3-2.3,5.9-4.7,9.1-6.8c2.9-1.7,5.8-3.2,8.8-4.6c1.3-0.7,2.6-1.2,3.9-1.7c1.2-0.5,2.5-0.7,3.8-1.1c-3.7,4.2-7.5,8.2-9.4,13.7l1.1,1
	c4.7-2.8,8.8-6,13.5-7.8s9.7-3.5,15-2l-4.5,6.6l0.5,0.6c0.7,0,1.3-0.1,2-0.2c1.9-0.5,3.9-1.8,5.8-1.6c3.1,0.4,6.2,1.6,9.2,2.6
	c0.8,0.3,1.4,1.2,2.1,1.8c1.2,1,2.5,1.9,3.6,3c2,1.9,4,3.8,5.8,5.8c0.8,1,1.6,2.1,2.3,3.2c-0.9,0.2-1.7,0.6-2.5,1
	c-0.6,0.6-1.2,1.3-1.6,2l2,1c0.6,0.1,1,0.9,1.5,1c5.2,1.6,10,4.3,14.1,7.8c2.3,1.8,4.8,3.4,7.4,4.8c1.5,0.9,3.1,1.4,4.6,2.2
	c1.5,0.8,3.1,1.9,4.7,2.6s3.4,1.9,5.5,0.1c-6.1-5.8-12.5-11.1-17.9-17.3c-5.5-6.4-10-13.7-15-20.7V283h-0.1l0,0l0,0
	c1,0.1,1.9,0.2,2.8,0.3c2.9,0.2,5.7,0.6,8.5,1.2c6,1.4,12,3.3,17.9,4.9c0,0.3,0,0.6,0,0.9c-4.8,1.4-10.3,0.3-14.9,4.5
	c5.4,2.3,11.2,0.8,16.2,3.1c5,2.3,10.3,3.7,14.9,5.2c1.2,0.9,2,1.4,2.7,1.9c2,1.1,4.1,2.1,6,3.3c3.5,2.3,6.8,4.9,10.2,7.4
	c4,2.9,8,5.8,12,8.7c4.5,3.3,8.8,6.8,13.4,10c2.8,2,6.1,3.2,8.8,5.2c3.7,2.7,7.9,4.5,12.4,5.4C527.5,344.4,526.9,343.4,526,342.7z
	 M103.1,262.5L103.1,262.5L103.1,262.5L103.1,262.5z M124.6,262.4l0.1-0.1L124.6,262.4L124.6,262.4z M147.8,230.6l-0.1-0.1
	L147.8,230.6L147.8,230.6z M148.6,230.2c-0.1,0-0.1,0-0.1-0.1s0.1-0.2,0.1-0.4c0.1,0.1,0.2,0.2,0.2,0.2S148.7,230.2,148.6,230.2
	L148.6,230.2z M150.1,229.5h-0.2v-0.7h0.2V229.5z M246,215.5h0.1l0.1,0.2l-0.2,0.1C245.9,215.6,245.9,215.6,246,215.5z M240.8,207.5
	L240.8,207.5z M236,171.7l0.8-1.4l0.4,0.4l-0.6,0.5L236,171.7L236,171.7z M236,171.8L236,171.8L236,171.8L236,171.8L236,171.8z
	 M236,171.7L236,171.7L236,171.7L236,171.7L236,171.7z M187.7,223L187.7,223c-0.1,0-0.1,0.1-0.2,0.1c-0.2,0.1-0.4,0.2-0.5,0.3
	c0-0.1-0.1-0.3-0.1-0.4L187.7,223z M184.8,207l0.4,0.1c-0.1,0.4-0.1,0.8-0.2,1.1h-0.4L184.8,207z M151.8,238.4c2-2.5,4-5,6-7.5h-0.1
	h0.1l0,0l1.5-1.9l4.5-5.8c-1.2-2.1-2.5-1.5-3.5-0.6c-2.3,2.4-5.3,3.5-8,5.2c-0.2,0.1-0.5,0.1-0.7,0.1h-0.3l0,0l-0.1,0.1l-0.2,0.3
	l-0.2,0.3h-0.2l0.1-0.1l0,0l0.3-0.3c0-0.1,0.1-0.1,0.1-0.2c0-0.1,0.1-0.1,0.1-0.2h0.1l0.5-0.5l0.7-0.6l4.6-4.5h-0.2l0.1-0.1l0,0
	l5.6-5.2c1.9-1.7,3.7-3.4,5.6-5.2c3.4-3.2,6.8-6.4,10.5-9.5l-4.8,9.9c1.9,1.3,3.1,0.9,4.4-0.4c1.3-1.1,2.7-2.2,4.2-3l0.5-0.3
	l0.3-0.2l0,0l0,0l0,0v0.2l-0.1-0.1c-0.4,1-0.8,1.9-1.1,2.8l0,0l0.1,0.1H182c-1,1.2-2,2.5-3.1,3.8l-0.8,1l-0.5,0.5l-0.9,1.1
	c-0.5,0.6-0.9,1.1-1.4,1.8C168.8,225.9,160.9,232.9,151.8,238.4L151.8,238.4z M171.1,255l-0.3-0.3l0.4-0.2
	C171.1,254.7,171.1,254.9,171.1,255L171.1,255z M214.6,220.4c0-0.1,0-0.1-0.1-0.2h0.2C214.7,220.3,214.7,220.3,214.6,220.4
	C214.7,220.4,214.6,220.4,214.6,220.4L214.6,220.4z M225.8,200L225.8,200L225.8,200L225.8,200l-0.6,0.8l-0.5,0.8
	c-0.5,0.8-1.1,1.5-1.6,2.3c-0.3,0.4-0.5,0.8-0.8,1.1l-0.2,0.3c-0.2,0.2-0.4,0.5-0.6,0.7c-0.7,0.9-2.2,1.3-2.8,2.3
	c-1.8,3.1-4.1,5.8-6.9,8.1c-0.4,0.3-0.5,1-1.1,1.3l-4,5.2c0.2,0.2,0.4,0.5,0.6,0.7l5.8-2.9c-0.2,0.3-0.4,0.7-0.6,1s-0.5,0.8-0.8,1.2
	s-0.5,0.6-0.7,0.9l0,0c-0.3,0.3-0.5,0.7-0.8,1s-0.5,0.6-0.8,0.9s-0.5,0.6-0.7,0.8s-0.5,0.5-0.8,0.8l-0.6,0.6l0,0
	c-0.3,0.3-0.6,0.6-0.9,0.9s-0.7,0.7-1.1,1.1l-0.7,0.6l-1.4,1.3l-1.9,1.7l-1.9,1.6l0,0v0.1h-0.1c-1.4,1.2-2.7,2.3-4.1,3.4l-1.1,0.9
	l-1.3,1l0,0l-1.3,1l-1.4,1l-1.4,1l-1.6,1.1l-1.6,1.2l-0.8,0.5l-1.4,0.9l-1,0.6l-0.5,0.3l-1.1,0.6l-1,0.5l-1.3,0.7
	c-0.5,0.2-0.9,0.5-1.4,0.7l-0.7,0.4l-1.5,0.7l-1.3,0.6c1.5-1.3,3-2.6,4.6-3.9l-0.1,0.1l0.1-0.1l1.8-1.6l1.8-1.6l1.9-1.6l1.9-1.7
	l-1.6-1.5l-7.4,4.2c0-0.2-0.1-0.8,0-0.9c1.8-1.6,3.7-3,5.5-4.6c1-0.9,1.9-1.9,2.8-2.9h-0.2l0.1-0.1l0,0l0.7-0.7l0.7-0.6
	c0.9-0.8,1.8-1.7,2.7-2.6l1.3-1.3c3.5-3.5,7-7.1,10.4-10.7c1.1-1.4,2.1-2.8,3-4.4c-1.7-1.1-6.8,1.2-11.2,5l0,0h0.1h-0.1l-4.5,2l0,0
	l0,0v0.1h-0.1l0.1-0.1l0,0c0-0.3,0-0.6,0.1-0.9c0-0.1,0.1-0.2,0.1-0.4c0.1-0.1,0.1-0.2,0.2-0.3c0.1-0.2,0.2-0.3,0.3-0.4
	c0-0.1,0.1-0.1,0.1-0.1c0.1-0.1,0.2-0.2,0.3-0.2l0.1-0.1l0.2-0.2l0.2-0.2l0.6-0.4c0.2-0.1,0.4-0.2,0.5-0.4c0.1-0.1,0.2-0.2,0.3-0.3
	l0,0c0.1-0.1,0.2-0.1,0.2-0.2l0,0c0.1-0.1,0.3-0.1,0.4-0.2c1.9-2.2,4.2-4,6.3-6.1c3.5-3.4,7-6.8,10.4-10.3c1.8-1.8,3.3-3.9,5-5.8
	l2.1-2h0.2h0.1c0.3-0.3,0.6-0.6,1-1c1.6-1.7,3.3-3.3,5-5c0.2-0.2,0.5-0.5,0.7-0.8s0.7-0.7,1-1.1c2-2.3,3.8-4.9,5.8-7.2
	c1.8-2.1,3.9-3.9,5.9-5.8l0.6,0.5l-9.4,15.7c0.3,0.4,0.7,0.9,1.3,1.5l12-10l0.5,0.4L225.8,200z M417.1,256c0.1,0.2,0.3,0.4,0.3,0.6
	l-0.4,0.3c-0.2-0.2-0.3-0.5-0.4-0.7C416.8,256.1,417.1,255.9,417.1,256L417.1,256z M279.9,144.5l-0.6-0.8l0.2-0.2
	c0.2,0.2,0.5,0.5,0.7,0.7C280.1,144.3,280,144.4,279.9,144.5z M285.4,145c1.3-3.7,2.9-7.4,4.6-11c1.8-3.3,3.8-6.5,6-9.5
	c2.3-3.1,4.8-6.1,7.4-9c1.3-1.1,2.7-2.2,4.2-3c2.1-1.6,4.4-3.1,6.7-4.5c2.5-1.3,5.1-2.4,7.8-3.4c2.4-1,4.8-1.8,7.2-2.6
	c1-0.2,2.1-0.3,3.1-0.4c3.6-0.6,7.1-1.6,10.7-1.6c4.4,0,8.9,0.9,13.3,1.3c2.6,0.3,5,1.1,7.3,2.3c2.2,1,4.8,1.3,7.2,2.1
	c1.1,0.4,2,1.4,3.1,2.1c2.4,1.4,5,2.5,7.1,4.2c3.1,2.7,6.1,5.5,9,8.5c1.5,1.5,3.4,3,4.1,4.9c1.1,2.9,4.8,4.2,4.4,7.8
	c0,0.5,0.2,1,0.6,1.4c3,3,2.4,7.5,4.7,10.8v0.1v0.1c0,0.1,0,0.2,0,0.2v0.1l0,0c0,0,0,0.1-0.1,0.1l0,0c0.8,2.4,1.3,4.9,1.6,7.5
	c0.5,4.7,0.5,9.4,0,14.1c0,0.3,0,0.6-0.1,0.9c-0.1,0.6-0.1,1.2-0.2,1.8c-0.2,1.5-0.4,3-0.6,4.6l-7.2-1v-0.4l-21.5-2
	c0.5-0.5,1.1-1,1.6-1.4c3-1.5,6.2-2.6,8.9-4.5c3-2,2.7-5.3,0.5-8.1c-3.2-4-7.8-4.7-12.3-5.9c-1.2-0.3-2.4-0.9-3.7-1.2
	c-1-0.2-2-0.4-3-0.5l-0.3,0.6l-0.9-1.8l-0.4,0.6c-2.4-0.4-4.8-0.8-7.2-1.2c-1.4-0.2-2.8-0.3-4.1-0.5c-1.9-0.2-3.8-0.5-5.8-0.7
	c-2.3-0.2-4.6-0.4-6.9-0.5c-7.6-0.4-15.2-0.8-22.7-1c-3.9-0.1-7.8,0.3-11.7,0.4c-2.3,0-4.7-0.4-7-0.3c-3.8,0.2-7.5,0.6-11.3,0.9
	c-1.1,0-2.3-0.1-3.4-0.5C285.8,146.2,285.2,145.3,285.4,145L285.4,145z M316.5,218.2l-0.4-0.5l1.3-1l0.3,0.3L316.5,218.2z
	 M325.1,225.6L325.1,225.6v-0.1V225.6L325.1,225.6z M331.3,192.3c-0.9,0.4-1.7,0.9-2.5,1.5c-3.3,3.8-5,3.6-7.7-0.5
	c-1.8-2.9-4.3-5.3-6.5-7.9c-1.3-1.6-2.5-3.2-3.9-4.8c-1.6-1.9-3.3-3.6-4.9-5.5c-2.3-2.7-4.5-5.5-6.9-8.1c-1.5-1.6-3.4-2.9-4.8-4.6
	c-2.3-2.7-4.3-5.6-6.5-8.4c-0.1-0.3-0.1-0.5-0.2-0.8c3.1,0,6.1,0.1,9.2,0c1.7,0,3.4-0.5,5.1-0.5c6-0.2,12.1-0.4,18.2-0.4
	c2.2,0,4.3,0.5,6.5,0.7c0.6,0,1.1-0.2,1.6-0.3c0.8-0.1,1.8-0.5,2.2-0.2c1.5,1.3,3,0.5,4.5,0.6c3.8,0.1,7.5,0.5,11.3,0.8
	c2.7,0.2,5.3,0.2,8,0.6c2.9,0.4,5.7,1.1,8.6,1.6s5.6,0.8,8.4,1.5c3.2,0.9,6.2,2.1,9.3,3.1c0,0.4,0,0.7,0.1,1.1
	c-2.5,1-4.9,2.1-7.3,3.3c-2.2,1.3-4.5,2.7-6,4.7c-1.9,2.5,0.3,6.8,3.3,8c3.4,1.3,6.9,0.4,10.4,0.8c2.5,0.2,5,0.6,7.4,0.8
	c2.8,0.3,5.6,0.5,8.4,0.7c1.1,0.1,2.2,0.2,3.7,0.4l1.8,1.3c-0.8,1.8-1.6,3.6-2.5,5.6c-11.5-0.8-22.9-1.2-34.2,1.6
	c1.5,1.2,2.8,2.1,4.9,1.6c1.4-0.4,2.9-0.5,4.3-0.4c4,0.3,8,1,12,1.3c3.3,0.3,6.5,0.3,10.6,0.5c-0.6,1.2-1.2,2.3-2,3.4
	c-1.8,2.4-3.6,4.8-5.5,7c-1.7,1.9-3.6,3.7-5.5,5.4c-2.2,2-4.5,3.8-7,5.5l-4.4,1.8c-2.1-2.3-4.4-4.8-6.8-7.4c-2-2.2-4-4.3-5.8-6.6
	c-2.6-3.5-4.8-7.3-7.5-10.7c-1.9-2.6-4.2-4.9-6.8-6.8c-1.8-1.3-4.4-0.2-6.2,0.9c-2.4,1.7-4.8,3.5-6.9,5.5
	C332.4,190.8,331.8,191.5,331.3,192.3L331.3,192.3z M335.2,252c0,0-0.1,0-0.2,0c0,0,0-0.1,0-0.2L335.2,252
	C335.3,251.9,335.3,252,335.2,252L335.2,252z M366.5,274L366.5,274L366.5,274L366.5,274z M414.4,301.1l-0.8-0.4l0.9-0.2L414.4,301.1
	z M415.9,256.2c-4-1.3-7.8-3.2-11.9-3.9s-8.3-0.2-12.5-0.2c0-0.3-0.1-0.7-0.1-1l3.7-1.8l0.2-0.8c-1.8-0.9-3.5-1.7-5.3-2.6
	c-5.4-1.5-11.1-1.6-16.5-0.4l-0.4-0.5l5.5-4.6c-1.3-2-2.9-2.1-4.9-1.6c-2.4,0.6-4.8,1.9-7.6,0.9c-0.7-0.3-1.8,0.3-2.5,0.7
	c-2.6,1.6-5.1,3.3-8.1,5.3c0.6-3.8,5.1-5.6,3.6-10.2l-21.4,14.2c-0.1-0.7-0.2-1.2-0.2-1.4c6-6.8,11.9-13.4,17.8-20.1h0.2l2.6-2.2
	l3.1-2.5c-3.6-4.1-7.5-0.2-11-1.7c1.3-1.2,2.5-2.4,3.8-3.6c-0.8-2.1-2.7-1.2-3.8-0.9c-1.7,0.4-3.1,1.8-4.7,2.5
	c-2.5,1.1-5.1,2.1-7.7,3.2c-1,0.5-2,1-2.9,1.6l-0.5-0.5l12.9-13c-1.2-2.7-3.3-1.1-4.8-0.8c-2.8,0.6-5.5,1.8-8.7,2.4l7.3-7.6
	c-2.2-2.3-4.4,0.9-7.1-0.5l8.3-7.6c2.9,0.4,2.8,5,6.4,2.9l8.3,10.6l-0.2,0.1l18.1,19.9c-0.4,0.6-1,1.4-2,2.7c1,0.6,2,1,3,1.4
	c3.6,1,7.2,1.6,10.8,2.7s7,2.7,10.5,4.2c1.6,0.7,3,2,4.7,2.5c3,1,5.1,3.1,7.3,5c0.9,0.8,2,1.4,2.9,2.2c1.5,1.3,3,2.7,4.4,4
	L415.9,256.2z M173.5,253.3h0.1l0,0H173.5z M173.6,253.3c0,0.1,0,0.1-0.1,0.2L173.6,253.3L173.6,253.3z M146.7,296.9L146.7,296.9
	L146.7,296.9L146.7,296.9C146.7,297,146.7,296.9,146.7,296.9z"/>
<path d="M512.9,368.4h-3c-4.9,0-9.9,0.2-14.8-0.2c-4.4-0.3-3.4-1.1-3.3-2.8c-2-4.1-3.6-7.4-5.1-10.6c-1.5,0.9-0.9,3.9-3.7,3.4
	c0.4-1.3,0.8-2.4,1.3-3.9l-2.5,0.5l-1-3.1c-1.2,1.9-2.3,3.5-3.4,5.3c-0.4-0.7-0.7-1.3-0.9-1.7c0.3-1,0.6-1.6,0.8-2.3l-1.4-0.4
	c0-0.7,0.1-1.3,0.1-1.9c-0.6-0.1-1-0.2-0.9-0.2c-0.8-2.4-1.5-4.5-2.2-6.6l-0.8,0.1l-2.2,5.6h-3.2c0-1.2,0.4-2.7-0.1-3.8
	c-0.9-1.8-2-3.4-3.2-5c-0.5,0.7-0.9,1.4-1.2,2.2c-0.7,2.7-1.3,3.2-4,2.4c0,0,0,0.1,0.1,0.1h-0.1l0.4-4.1c-1.1-1.5-2.1-2.4-2.5-3.5
	c-0.8-2.3-1.4-4.7-2-7l-0.7,0.2c-1.3,2.5-2.6,5-4.1,7.8c-1.8-0.3-0.6,1.4-0.9,2.2l-3.6,1.3c0-0.1,0-0.2,0-0.2
	c-0.1-0.4-0.2-0.8-0.3-1.2c-0.4-1.4-0.6-2.8-0.5-4.2c0.3-1.9-0.2-3-1.2-3.5l-3.6-8.5c-1,2.8-1.7,4.9-2.5,7l0,0
	c-0.3,1-0.6,2.1-0.8,3.1l-0.5-0.1l0.5,1.5l-2.3,0.8c0.4-1.1,0.6-1.8,0.9-2.5l-2.6-0.8l1.4-4.2l-2.5-0.5l1.2-3.8
	c-3.7-0.4-1.1-2.9-2.3-3.8l-3.2-6.2l-3.3,7.5l-0.3-0.2v2.5c-2.3,0.5-3.1,0.2-3-0.9c0.1-1.9,0.2-3.7,0.3-5.6c-2.1-0.1-2.4-0.7-2-2.1
	c-1.4-3.3-2.5-5.9-3.7-8.9c-1,2.3-1.8,4.2-2.7,6.1l-0.3-0.2c-0.2,1.7-0.5,3.4-0.7,5.1l-1.7,0.4c0.1,0.8,0.1,1.5,0.2,2.4l-2.5,1.1
	c0.7-1.6,1.2-2.6,1.7-3.8l-3.2,0.3c1-1.8,1.7-3.2,2.6-4.8h-2.4c0.6-1.5,1.1-2.8,1.7-4.2l-0.6-0.3l-1.3,0.6c-0.9-2.2-1.8-4.4-2.8-6.6
	c-2,0.6-0.7,4.7-4.3,2.7c0.5,1.7,0.9,3,1.3,4.2l-2,0.5c0.4,1,0.7,1.8,1.2,3.1l-4.9-1.9c0.2-1.2,0.3-2.4,0.4-3.3
	c-0.8-0.6-2-1.2-2-1.5c0.8-3.6-2.2-6-2.9-9.1c-0.2-0.6-0.5-1.2-0.9-1.7c-1.3,3.2-2.5,6.1-3.9,9.7c0.3,1.5,0,2-1.9,2.3v5.6l-3.2,1.2
	c0.4-1.9,0.8-3.3,1.1-4.8l-1.4-0.7v-6.7l-0.4,0.3c-0.6-1.2-1.2-2.4-1.8-3.7l0.1-0.1c-1.2-3-2.4-6-3.9-9.7c-1.3,3.1-2.3,5.6-3.4,8.1
	L369,298v5.2l-2.7-1.3c0.8,2.3,1.3,3.9,1.8,5.4l-3.6,0.4c0.9,1.3,1.6,2,1.8,2.8c0.1,0.9-0.1,1.8-0.5,2.5c-0.2,0.3-1.3,0.1-2.4,0.1
	c0.7-1.3,1.1-1.9,1.7-2.9l-3.9,0.6c1.2-2.4,2.2-4.3,3.5-6.7l-3.2,1.2c-0.6-2.4,2.6-3.3,1.4-5.6l-2.8,1.1c0.3-0.8,0.5-1.7,0.6-2.6
	c0-0.7-0.2-1.3-0.6-1.8c-0.4-0.7-1.2-1.2-1.6-1.9c-0.4-0.9-0.8-1.9-1-2.8c-0.6,1-1.3,1.5-1.3,2c0.2,2.4-0.6,3.3-3.5,2l1.7,5.3
	l-2.9-0.2l2.1,4.3l-3.7-0.5c1.1,2,2,3.7,3.2,5.8l-5-1.8c0.2-1.2,0.4-2.5,0.7-4l-1.4,0.2c-1.5-4.3-2.9-8.4-4.5-13
	c-2.2,3.4-1.5,7.3-4.6,9.5c0.6,2.7,0.3,3.1-1.8,3.5v6.8l-1.2,0.8c0.2,1.5,0.3,2.7,0.5,4.5l-2.9-1.2c0.4-0.9,0.6-1.6,0.9-2.2
	l-0.7,0.1c-0.3-2.2-0.6-4.5-0.8-5.9l-1.9-3.6c0.1,0,0.1-0.1,0.2-0.1l-3.5-7.8l-3.2,6.4l-0.5-0.2c0.2,1.1,0.3,2.2,0.5,3.4
	c-0.7,0.3-1.4,0.6-2.3,1c0.2,1.2,0.6,2.4,1.2,3.5l-2.9,0.8c2,4,2,4-2.2,5.4c0.1-1,0.3-2,0.3-2.4c-0.6-0.7-1.2-1.5-1.6-2.3
	c-1-3-1.9-6.1-2.8-9.2l-0.6,0.1l-3.1,8.4c0.7,1.2-0.5,1.8-1.9,2.2c0,1.8,0,3.4-0.1,5.1c0,0.2-0.7,0.4-1.1,0.6l0,0l-2.6-0.8l1.1-2.9
	l-2.2-0.3c0.4-1.2,0.7-2.3,1-3.4l-2.1-0.7c-0.5-1.3-0.8-2.3-1.3-3.8l-3.1,7.6l-2-0.5c0.7,1.6,1.2,2.9,1.6,4l-2.4,1.5
	c0.1,0.1,0.1,0.3,0.2,0.4h-2c0.3-0.9,1.2-2.2,0.9-2.6c-1.3-1.7-0.1-3.1,0.2-4.6c0-0.2,0-0.5,0-0.8c-0.3,0-0.6,0.1-0.8,0.1H292
	c-0.1-1.3-0.2-2.5-0.2-3.8c-1.6-0.7-2.4-2.5-1.9-4.1l-3-5.7c-1,3.1-1.8,5.6-2.6,8.1c0,0,0,0.1,0,0.2c0,0-0.1-0.1-0.1-0.2H283
	c-0.1,1.1-0.2,2.2-0.2,3.1h-2.6c0.2-1.8,0.5-3.5,0.7-5.5l-2.2,0.8c-0.3-2.2-0.5-4.1-0.8-6.1c0-0.3-0.6-0.5-0.9-0.8
	c0.1-0.1,0.3-0.2,0.4-0.3l0.1-0.1c0,0,0.1-0.1,0.1-0.2c0,0,0,0,0-0.1c0.3-0.7-1.1-0.8-1.3-1.3c-0.8-2.2-1.6-4.5-2.6-7.3
	c-1,2.5-1.8,4.4-2.7,6.6c0.8,1.4-0.5,4.1-2.5,4.7c1.4,3.4,0.7,4.7-1.5,4.4l-3.1,2c-0.9-2.7,3.1-3.8,1.5-6.4l-2.7,1.4
	c0.1-1.7,0.2-3.3,0.3-5.1l-1.4,0.7c-0.5-1.8-1.1-3.7-1.8-6.1c-1,2.4-1.7,4.2-2.4,6l-2.8-1.3c0.9,2.3,1.5,4,2.3,6h-3.2l2.1,4.5l-4-1
	l3.4,6.6l-5.7-1.5c-0.1-1.4-0.2-3.1-0.3-5c-0.3,0.1-0.7,0.2-1.2,0.2l0.1,0.1H248c-0.8-2.5-1.6-5.1-2.3-7.6H245l-0.4,2.9l-0.4-0.3
	l-3.1,7.2c0.4,1.7-0.1,2.5-2.3,3c0.1,0.8,0.2,1.5,0.3,2.6l-2.8,0.2c-0.5-2.4,3.4-2.7,1.7-5.2h-1.6c-0.9-2.1,2.6-3.1,1.1-5.4
	l-2.5,1.3c0-0.5,0.1-0.8,0.1-1c0-1.2,1.7-3-1.1-3.2c0,0,0-0.6-0.1-0.8c-0.4-1-0.8-2-1.2-3l-0.6-0.2c-0.5,1.4-1,2.8-1.6,4.2l-2.5-0.8
	l1.8,5l-2.7,0.2c0.7,1.4,1.3,2.6,1.9,3.9l-3.7-0.8l3.1,5.4l-3.2-0.2l1.6,3.5l-1.6-1.9c-0.4,0.3-0.7,0.6-1,1c0.3-0.8,0.6-1.7,0.9-2.5
	l-2.3-1l0.1,0.1h0.5c0.8-4.3-2.1-7.4-3.4-11.6c-1.2,3.3-2.3,6-3.3,8.7c0,1.5,0.1,2.9-2.4,3c0.2,1,0.4,2.1,0.6,3.3l-3.1-0.3
	c0.4-0.9,0.8-1.8,1.2-2.8l-2.3-0.4l2-4.8c-3.3,2.4-3.3-0.3-4.5-1.9c-0.2,2.7-4.5,3.3-1.7,6.9l-2.6-1.1l-0.6,0.3
	c0.6,1.3,1.1,2.7,1.8,4.2l-2.7-0.3l2.7,4.7l-0.5,0.6l-4.5-1.7v0.1v-0.1c0.2-1.8,0.4-3.7,0.6-5.6c-2.4,0.2-2.2-1.2-1.9-2.2L195,303
	l-3.2,6.6l-0.4-0.2v4l-2.1-0.1c0.5,1.6,0.9,3,1.3,4.1l-3.2,0.6c1.3,1.8,3.3,3.1,0.9,4.8l-2.8-0.9c0.5-2.8,0.5-2.8-0.6-3.3l-3.6-10.1
	l-0.6,0.1c-1,2.5-2,5-2.9,7.5c-0.3,1.2,0.2,2.8-1.8,2.8c-0.3,2.2-0.5,4.5-0.8,6.7l-0.5-0.1c0.3,1.2,0.5,2.3,0.8,3.5l-0.6,0.2
	l-0.9-1.5h-2.5c0.9-1.6,1.6-3,2.5-4.7h-2.3l1.7-3.8l-0.7-0.4l-2.3,1c2-3.5-1.7-4.9-1.7-7.5c-2,0.8-0.3,5.1-4.4,3.1l1.7,4.5h-2.4
	c0.5,1.2,0.9,2.2,1.2,3.2l-2.9-0.3l2.7,4.7h-2.2c0.5,1.4,0.9,2.6,1.4,4.1l-2.9-0.7c0.8,1.4,1.3,2.3,1.7,3.2l0,0l-2.4,0.3v-6.3
	c-2.6,0.2-1.8-1.6-1.3-3.2l-0.7,0.3c-1.1-2.7-2.2-5.5-3.4-8.2c-1.4,3.2-2.5,6.4-3.4,9.8c-0.1,0.3-0.2,0.9-0.4,1
	c-2.5,0.7-1.2,2.4-1.1,3.6l-1.7,0.9c0.3,2,0.5,3.5,0.7,5v0.1l-0.1-0.1l-3.6-1.2c0.3-1,0.7-2.2,1-3.3l-2-0.5l0,0l0,0l0,0v-0.1
	c0-0.1,0-0.1,0-0.2c0.4-1.9-0.5-3.4-1.3-5c-0.7-1.4-1.2-3-1.9-4.8c-2.4,3.6-2.6,8-5.6,11.2c0.5,1.8,0.9,4-0.7,5.6
	c0.2,1.3,0.3,2.4,0.5,3.5l-0.7,0.1c-0.4-0.4-0.7-1.2-1.1-1.2c-1.2-0.2-1.4-0.4-1.7-1.8c-0.2-1-1-1.9-0.6-3.3c0.2-0.6-1-1.6-1.8-2.7
	c-0.1-0.9-0.4-2.1-0.6-3.4h-0.9c-0.7,2.7-1.3,5.3-2,7.9h-0.1l0.1-0.1l-1.2,0.2c-0.3,0.7-0.6,1.4-0.9,2l-0.9-0.2
	c0.2-1.5,0.4-3,0.5-4.7c-3.8,0.8-1.9-3.8-4.1-4.4l-3.2,5.4v3.6l-3.3-0.9l1-1.8l-1.8-0.5l-4.5-9c-2.5,2.2-0.5,6.8-4.4,8.2
	c0.2,1.5,0.4,2.9,0.5,4.3l-0.7,0.1c-0.2-1.1-0.4-2.2-0.7-3.3c-0.2-0.6-0.5-1.2-0.9-1.8v-0.1c0,0,0-0.1,0.1-0.1
	c0.1-0.1,0.1-0.2,0.1-0.3s0.1-0.1,0.1-0.2s0-0.1,0-0.2c-0.3-0.6-0.8-1.1-1.1-1.7c-0.8-1.8-1.6-3.7-2.4-5.6l-0.7-0.1
	c-0.7,2.4-1.5,4.8-2.3,7.5l-0.8,0.2c0,0.6-0.1,1.2-0.1,1.9l-1.7,0.1c0.4,1,0.7,1.7,0.9,2.2l-3.3,1.4c0.3-1.5,0.5-2.9,0.8-4.4h-1.5
	c-0.5-1.4-1-2.7-1.7-4.5c-0.6,1.1-1.2,1.7-1.2,2.3c-0.1,2.1-1,2.9-3.4,1.8c0.7,1.9,1.2,3.4,1.8,5.1l-2.6,0.3l1.9,3.6l-0.8,0.4
	l-1.6-3h-0.2c-1-2.4-1.9-4.8-3.1-7.6l-3.9,9l-0.3-0.2c-0.2,1.1-0.4,2.2-0.5,3.3l-0.9,0.2l-3.8-8.7l-3.9,9l-0.8-0.3
	c0.1-0.8,0.3-1.7,0.3-2l-2.8-4.3l-2.8,6.3l-1.1-0.1c0-0.3,0-0.8-0.1-1c-0.5-0.9-1.2-1.7-1.8-2.5c-0.3-0.4-0.6-0.7-1-1.1
	c-0.9,2.1-1.8,4-2.7,6l-1.6-0.6c0.4,1.6,0.7,2.7,1,3.9l-0.3,0.2c-1.1-2.2-2.2-4.5-3.2-6.6l-4.1,6.9l-2-2c-0.3,0.8-0.5,1.6-0.8,2.4
	l-1.7-0.5c0.5,1.1,0.7,1.8,1,2.5c-0.5,0.3-1.1,0.7-1.6,1c-0.4-1-0.8-1.9-1.5-3.4c-1.6,3.7-3,6.8-4.7,10.6H12.1
	c0.3,0.6,0.9,1.1,1.6,1.3c4.1,0.8,8.2,2.2,12.3,2.1c7.6-0.2,15.2-1.3,22.8-1.9c2.6-0.2,5.3-0.1,8-0.1c2.1,0,3.8,2.2,6.1,0.8
	c1.4-0.7,2.9-1.2,4.5-1.5c10.5-2.8,21.2-4.7,32.1-3.2c2.9,0.5,5.7,1.3,8.5,2.1l-0.1,1c-17.9,6.4-36.1,11-55.2,12
	c6.5,0.4,13.1,0.9,19.6,1c9.2,0.1,18.4-1,27.2-3.5c9.4-2.7,18.5-6.4,27.7-9.6c7.8-2.7,15.5-5.3,23.3-7.9l0.4,0.5
	c-5.7,3.5-10.3,8.3-13.7,14.1c2.4-1.1,4.7-2.2,7-3.5c9.3-5.2,19.2-9.3,29.4-12.2c7.1-2.1,14.4-3.8,21.6-5.2
	c6.8-1.3,13.7-2.2,20.6-2.6c9.3-0.4,18.7-0.2,28,0c4,0.1,8,0.5,12,1.1c7,1,14,1.8,20.9,3.5c11.9,2.9,24,5.6,35.5,9.7
	c12,4.2,23.6,9.9,35.4,15l3.7,1.6l0.5-0.8c-4.8-3.6-9.6-7.4-14.6-10.7s-10.3-6.3-15.8-9.6c12.8-3.3,26-4.3,39.2-2.8
	c-6.4,1.7-12.8,3.3-19.1,7.3c1.6,0.3,2.6,0.5,3.5,0.5c3.9,0.4,7.8,0.5,11.7,1c10.4,1.4,20.5,4.3,30.5,7.5c6.6,2.1,13.1,4.5,19.9,6.2
	c7,1.8,14.2,3.2,21.5,4c9.7,0.9,19.4,0.4,29-1.6c2.6-0.5,5.2-1.2,7.7-1.8c-0.1-0.3-0.1-0.6-0.2-0.9c-3.5,0.2-7.1,0.6-10.6,0.6
	c-6.2,0-12.4-0.3-18.6-0.9c-6.7-0.8-13.4-2.1-19.9-3.9c-7.1-2-14-5.1-21-7.5c-5.8-2-11.6-3.7-17.5-5.5c11.9-2.1,24-2.5,36-1.1
	c-0.4-0.5-0.9-0.9-1.5-1.1c-2.2-0.8-4.4-1.4-6.5-2.2c-10.1-3.7-20.5-6.5-31.2-8.2c-9.6-1.6-19.4-2.4-29.2-2.2
	c-11.2,0-22.3,1.5-33,4.6c-4.6,1.4-8.8,1.5-13-1.4c1.2-0.5,2.3-1,3.4-1.4c12.8-5,26.3-7.6,40-7.8c10-0.2,20,0.6,29.8,2.3
	c12.6,2.3,25,5.8,37.3,9.3c9.6,2.7,18.9,6.2,28.3,9.5c13.1,4.5,26.1,9.3,39.8,12.2c9.3,2,18.7,3.1,28.2,1.5c2.5-0.4,4.8-1.5,7.2-2.3
	C513,368.8,512.9,368.6,512.9,368.4z M44.3,353.4l0.1,0.1h-0.1l0,0l0,0l0,0c-0.1-0.6-0.1-1.2-0.2-1.7l0.4,0.1h0.1c0,0,0.1,0,0.1,0.1
	c0.1,0,0.1,0,0.1,0.1l0.1,0.1l0.1,0.1C45.2,352.6,45,352.9,44.3,353.4z M58.2,348.2v-1.6l0.5,1.5L58.2,348.2z M101.6,335.3
	L101.6,335.3z M103.3,341.5l-0.1-0.1L103.3,341.5L103.3,341.5z M108.4,362.4l0.1-0.1l0.1,0.1H108.4z M147.1,341.2l-0.9-1.1l0.7-0.6
	l0.9,1.1L147.1,341.2z M147.7,338l0.1-0.1L147.7,338L147.7,338z M151.7,354.6v-0.1h0.1L151.7,354.6z M162.5,334.8
	c0-0.2,0.1-0.5,0.2-0.7c0,0.3,0.1,0.5,0.1,0.8L162.5,334.8z M187.2,326.4c-0.2-0.6-0.4-1.2-0.5-1.9l0.7-0.2c0.2,0.6,0.4,1.2,0.6,1.8
	L187.2,326.4z M202.9,323.4l-2.1-0.7c0.3-0.6,0.6-1.2,1.2-2.4l1.3,2.7L202.9,323.4z M212.8,319.8l-0.5-0.3c0.3-0.2,0.5-0.3,0.8-0.5
	C213,319.3,212.9,319.6,212.8,319.8L212.8,319.8z M213.1,319L213.1,319L213.1,319C213,318.9,213,318.9,213.1,319v-0.2
	C213.1,318.8,213.1,318.9,213.1,319L213.1,319z M214.2,322.6L214.2,322.6h-0.1H214.2L214.2,322.6z M214.2,322.7
	C214.2,322.7,214.2,322.6,214.2,322.7L214.2,322.7L214.2,322.7z M213.2,318.8l0.7-2.2l0.8,0.5L213.2,318.8z M215,318.4v-0.1h0.1
	L215,318.4z M239,317.7l-0.7-0.4c0.3-0.5,0.5-1.1,0.8-1.7l0.8,0.3L239,317.7z M240,314.8l-0.1-0.1L240,314.8L240,314.8z M251,315.1
	l1.2-3l2.1,3.3L251,315.1z M266.7,311.7l-1.6,0.8l-0.8-0.5l2-3.9l0.7,0.2L266.7,311.7z M267.9,313.4l-0.1-0.1l0.2-0.1L267.9,313.4z
	 M277.6,298.4L277.6,298.4L277.6,298.4L277.6,298.4z M282.2,317l0.1-0.1v0.2L282.2,317z M295.9,323.4c-0.1,0.7-0.1,1.3-0.2,2.3
	c-2.2-2.2-0.4-3.4,0.4-5.4l2.3,2.9L295.9,323.4z M306.5,326.2l-0.4-0.6l0.2-0.2l0.5,0.5L306.5,326.2z M305,322.3l2.3-3.3l0.5,3.3
	H305z M308,323.3c0-0.3,0-0.5-0.1-0.8c0.1,0.2,0.3,0.5,0.4,0.7L308,323.3z M320,319.4l-0.4-0.6l1-0.7c0.1,0.2,0.3,0.3,0.4,0.5
	C320.7,318.9,320.3,319.1,320,319.4L320,319.4z M352,314.8c-0.8-0.4-1.8-0.7-2.2-1.4c-0.3-0.4,0.2-1.4,0.5-2.8l2.1,3.6L352,314.8z
	 M363.4,314.5v-0.4l0.5-0.1c0,0.2,0,0.3,0,0.5H363.4z M382.5,318.4c-0.1,0-0.1,0-0.2-0.1l0.1-0.1l0.2,0.1
	C382.5,318.3,382.5,318.3,382.5,318.4L382.5,318.4z M397.5,321.7l-0.6,0.4l-0.1-0.3l0.6-0.2l0.3-0.4l0.1,0.1
	C397.8,321.3,397.5,321.5,397.5,321.7L397.5,321.7z M397.5,318.1l-0.5,0.1l-1.7,0.2l-0.1,0.1l0.1,0.1l-0.1-0.1l0,0l0,0l0,0h0.1
	c0.2-0.2,0.4-0.4,0.6-0.6l0.3-0.3l-1.4-1l1.5-2.2l2.4,3.7L397.5,318.1L397.5,318.1z M408.6,326.3c-0.2-0.4-0.3-0.9-0.5-1.3l0.5-0.2
	l0.5,1.3L408.6,326.3z M420.5,329.9l-0.5-0.3l1.1-2.5l0.7,0.5L420.5,329.9z M459,347.5l-0.1-0.3l0.5-0.2c0,0.1,0,0.2,0.1,0.2
	L459,347.5z M40.2,356.2l0.1,0.2l0.1-0.1L40.2,356.2z M40.3,356.4L40.3,356.4L40.3,356.4L40.3,356.4z M113.7,341.1L113.7,341.1
	L113.7,341.1L113.7,341.1z M113.7,341.1L113.7,341.1L113.7,341.1L113.7,341.1L113.7,341.1z M93.5,341.1L93.5,341.1L93.5,341.1z
	 M93.5,340.9c0,0,0,0.1,0.1,0.1l0.1-0.1H93.5z M93.6,341L93.6,341L93.6,341L93.6,341z M443.1,335.5L443.1,335.5L443.1,335.5
	L443.1,335.5z M225.1,319.7L225.1,319.7v0.1C225.2,319.8,225.1,319.7,225.1,319.7z M225.3,319.5l-0.1,0.1l0,0h0.2L225.3,319.5z
	 M281,315.2L281,315.2l0.1,0.1l0.1-0.2L281,315.2z"/>
<path d="M254.7,367c0,0.2-0.1,0.4-0.2,0.5c-2.8-0.2-5.6-0.5-8.4-0.5c-8,0-16.1-0.3-24.1,0.1c-5.8,0.4-11.5,1.3-17.1,2.6
	c-7.1,1.6-14.1,3.6-21,5.8c-10.1,3.1-20,6.7-30.2,9.5s-20.1,5.6-30.5,6.3c-6.8,0.4-13.7,0.7-20.6,0.9c-1.4-0.1-2.8-0.3-4.1-0.5
	l11.1-7.6l-0.4-0.8c-12.6,1.2-25.1,1.5-37.6-1.3c22.3-0.8,43.2-7,63.3-16.4l0.6,0.8c-4.4,5.5-8.8,10.9-13.2,16.2
	c8.9-0.3,17.5-2.7,26.1-5.2c14.8-4.4,29.4-9.3,44.6-12.1c11.7-2.2,23.7-3.1,35.6-2.4c8.1,0.5,16.1,2.2,24.1,3.4
	C253.6,366.4,254.1,366.7,254.7,367z"/>
<path d="M289.3,358.9c11.4,3.2,22.8,6.8,33.4,12.3c-3.2-0.5-6.5-0.8-9.6-1.4c-8.6-1.6-17.3-2.2-26-1.9c-0.4,0-0.7,0-1.1,0.1
	c-2.9,1-5.3,0-8.1-1c-7.6-2.7-15.3-5-23.2-7c-8.5-2.1-17.3-2.6-26-2.8c-11.4-0.2-22.8,0.6-34.1,2.3c-15.8,2.3-31,6.8-46,12
	c-2.6,0.9-5.2,2.2-7.8,3.3c-0.8,0.3-1.7,0.5-2.5,0.7l-0.3-0.6c2.4-1.5,4.8-3.1,7.3-4.4c9.7-5.4,20-9.5,30.7-12.4
	c9-2.3,18.2-4.3,27.4-5.7c12.4-1.9,25-1.9,37.6-1.3C257.4,351.8,273.5,354.5,289.3,358.9z"/>
<path d="M322.9,371.3L322.9,371.3L322.9,371.3h-0.2H322.9L322.9,371.3z"/>
<path d="M190.1,130L190.1,130L190.1,130z"/>
<path d="M228.8,133.2c-6.3-5.9-13.9-10-22.2-12.1c-8.2-2.1-16.7-2.3-24.9-0.5l8.4,9.5l-0.3-0.1c-0.6-0.1-1.2-0.4-1.8-0.8
	c-4.8-4.4-10.5-7.1-16.5-9.3c-7.9-2.8-16.2-4.3-24.6-4.4c-12.5-0.4-24.9,2.1-36.3,7.2c-7.8,3.3-14.7,8.4-20.2,14.9
	c-1.1,1.4-2.3,2.8-3.6,4.1c0.5-3.8,2.8-6.6,5-9.4c8.3-10.3,19.5-15.7,32-18.8c5.5-1.4,11.2-1.8,16.9-2.3c9.7-0.8,19.4,0.5,28.5,3.8
	c0.8,0.2,1.5,0.6,2.2,0.9c3.3,1.9,6.7,1.3,10.4,0.9c5.7-0.7,11.5-0.7,17.3-0.1c7.6,0.8,15,3.5,21.4,7.8
	C223.8,126.5,228.1,130.7,228.8,133.2z"/>
<path d="M117.6,300.6l0.5,0.6c-6.1,4.9-8.3,12-10.4,19c-3-1.7-6.6-7.5-8-12.5c-4.5,2.2-9,4.6-13.7,6.4c-4.7,2-9.9,2.7-15,1.8
	c11.5-5.1,21.4-12.1,28.5-23.4c0.4,2.3,0.7,4,1,6l2.3-3c1,3.2,1.9,6,3,9.6c3.4-7.5,8-12.7,15.1-16l-7.7,11.8l0.6,0.5L117.6,300.6z"
	/>
<path d="M503.6,337.9L503.6,337.9c-3.5-1.4-7-3.2-10.3-5.1c-5.5-3.2-10.7-6.9-16.2-10.1c-4.1-2.4-8.4-4.5-12.5-6.8l-0.4,0.5l1.1,2.5
	l-3.2-0.4c-0.1,0.2-0.2,0.4-0.2,0.6l9.4,3.8c-8.2,2.9-29.1-8.1-30.5-16c2.5,0.9,4.9,1.9,7.3,2.5s4.9,0.7,7.4,1.1
	c0.1-0.2,0.3-0.4,0.4-0.7c-1.5-1.6-3-3.1-4.4-4.7l0.3-0.8c2.8,0.8,5.6,1.4,8.2,2.4c9.1,3.5,16.7,9.3,24.2,15.2
	c5.8,4.5,11.7,9,17.5,13.6C502.3,336.2,503,337,503.6,337.9z"/>
<path d="M503.6,337.9L503.6,337.9L503.6,337.9z"/>
<path d="M436.7,385.7c-3,0.3-6,0.9-9,1c-8.3,0.2-16.5-1.1-24.7-2.8c-10.8-2.2-21.7-4.3-32.5-6.3c-2.7-0.5-5.6-0.5-8.4-1
	c3-2,6.5-1.9,10.6-2.3c-8.2-3.5-16.2-5.4-24.3-7.4c3.2,0,6.5-0.3,9.6,0c14.5,1.8,27.9,7.4,41.8,11.2c8.7,2.3,17.5,4.1,26.4,5.9
	c2.6,0.5,5.3,0.4,8,0.5c0.8,0,1.7,0.1,2.5,0.2V385.7z"/>
<path d="M266.7,266c2.4-1,4.9-1.8,7.5-2.4c-10.7,8.3-20.1,17.9-28.2,28.7c-0.2-0.2-0.5-0.3-0.7-0.4c1-2.3,2-4.7,3.1-7
	s2.4-4.5,3.4-7.2l-11.8,7.5c0.9-4.6,19.8-25.4,25.8-28.4c-0.1,0.8-0.2,1.4-0.3,2.2c2.7-1.7,5.3-3.4,8-5c0.6-0.2,1.3-0.3,2-0.3l0,0
	l-14.8,14.4l0.1,0.1V268C262.9,267.3,264.8,266.7,266.7,266z"/>
<path d="M482.8,184c-4.3-6.7-10.1-10.9-17.7-12.4s-14.7-0.9-20.8,4.7l-0.5-0.5l2.7-4c-7.9-4.9-15.8-4.2-24.1,0.3
	c2.7-5.6,16.2-9.9,26.8-2.4C465.1,162.8,482.6,173.1,482.8,184z"/>
<path d="M82.8,211.7L82.8,211.7z"/>
<path d="M164.1,188.3c-6.2,1.5-12.1,2.9-18,4.4c-21,5.3-41.8,11.5-62.3,18.6c-0.3,0.1-0.6,0.3-1,0.5c0.5-0.5,1-1,1.6-1.3
	c24.8-12.1,51.6-19.7,79.1-22.3C163.7,188.1,163.9,188.2,164.1,188.3z"/>
<path d="M135.2,305.1l-14.8,13.4l-0.7-0.7l9-11l-1.8-1.7l7.8-0.9L135.2,305.1z"/>
<path d="M310.7,280.3c-2.9,3.1-5.7,6.2-8.4,9.2c2-5.8,5.3-11.1,9.7-15.5C311.9,276.5,312.3,278.5,310.7,280.3z"/>
<path d="M480,329.8l-13,3.4l-0.4-0.7l7.8-4.8L480,329.8z"/>
<path d="M135.8,288.4l0.2-0.1C135.9,288.3,135.9,288.3,135.8,288.4L135.8,288.4z"/>
<path d="M146.9,279.9c0,0.2,0.1,0.5,0,0.6c-3.6,2.6-7.3,5.2-11,7.8c1.9-2.3,3.6-4.7,5.6-6.8c0.6-0.6,2-0.6,3-0.9
	C145.4,280.4,146.2,280.1,146.9,279.9L146.9,279.9L146.9,279.9L146.9,279.9z"/>
<path d="M488.1,334.3l-11.2,2C478.4,332.8,484.4,331.7,488.1,334.3z"/>
<path d="M40,335.6l-11.4-1.8C33.5,331.2,36.7,331.8,40,335.6z"/>
<path d="M42.4,327.1l6.8,4.9l-10.9-2.8l3.7-1.5L42.4,327.1z"/>
<path d="M49.3,332L49.3,332l-0.1-0.1L49.3,332z"/>
<path d="M496.6,338.6l-10.6,1C488.6,336.4,493.4,336,496.6,338.6L496.6,338.6z"/>
<path d="M29.8,338.8l-9.9-0.5C22.9,335.8,27.8,336.2,29.8,338.8L29.8,338.8z"/>
<path d="M440.2,384.7h-1v-0.1h1V384.7z"/>
<path d="M301.7,274.9l-0.6,0.4l-0.3,0.2l0,0l0,0L301.7,274.9L301.7,274.9z"/>
<path d="M121.9,185L121.9,185C121.8,185,121.7,185,121.9,185z"/>
<path d="M122,185L122,185z"/>
<path d="M30.2,338.7l-0.3,0.1l0,0L30.2,338.7z"/>
<path d="M503.7,337.9h-0.2l0,0H503.7z"/>
<path d="M50.3,332.3L50.3,332.3l-1-0.2l0,0L50.3,332.3L50.3,332.3L50.3,332.3z"/>
<path d="M82.8,211.7L82.8,211.7l-0.3-0.1L82.8,211.7z"/>
<path d="M135.8,288.4l-0.2,0.1L135.8,288.4L135.8,288.4z"/>
<path d="M147,279.8v0.1V279.8L147,279.8L147,279.8L147,279.8z"/>
<path d="M300.8,275.6v-0.1l0,0l0,0l0,0V275.6z"/>
<path d="M302.2,274.4l-0.6,0.5l0,0L302.2,274.4L302.2,274.4z"/>
<path d="M50.3,332.3L50.3,332.3C50.3,332.4,50.3,332.3,50.3,332.3L50.3,332.3L50.3,332.3L50.3,332.3z"/>
<path d="M275.7,253.6L275.7,253.6z"/>
<path d="M275.7,253.6L275.7,253.6z"/>
<path d="M35.3,176.9L35.3,176.9v0.1C35.3,177,35.3,177,35.3,176.9L35.3,176.9L35.3,176.9z"/>
<path d="M322.9,371.3h-0.1l0,0l0,0l0,0l0,0H322.9z"/>
<path d="M190.1,130l-0.1,0.1L190.1,130L190.1,130L190.1,130z"/>
<path d="M403.7,146L403.7,146z"/>
<path d="M178.2,248.4l1.8-1.6L178.2,248.4L178.2,248.4z"/>
<path d="M184.8,236.1l0.7-0.6L184.8,236.1L184.8,236.1L184.8,236.1z"/>
<path d="M187.9,223L187.9,223L187.9,223L187.9,223L187.9,223L187.9,223z"/>
<path d="M192.4,220.9l-4.5,2L192.4,220.9L192.4,220.9L192.4,220.9z"/>
<path d="M215.5,194.3l1-1C216.2,193.6,215.8,193.9,215.5,194.3L215.5,194.3z"/>
<path d="M151.4,227.8L151.4,227.8L151.4,227.8L151.4,227.8L151.4,227.8z"/>
<path d="M152.1,227.3l-0.5,0.5h0.3h-0.3l0,0L152.1,227.3z"/>
<path d="M157.3,222.2l5.6-5.2L157.3,222.2L157.3,222.2z"/>
<path d="M183.7,208.2L183.7,208.2L183.7,208.2z"/>
<path d="M317.7,217.1l-1.2,1.1l-0.4-0.5l1.3-1L317.7,217.1z"/>
<path d="M236,171.9l0.9-1.5l0.4,0.4L236,171.9L236,171.9z"/>
<path d="M417.1,256.9l-0.4-0.7c0.2-0.1,0.5-0.2,0.5-0.2c0.1,0.2,0.3,0.4,0.3,0.6L417.1,256.9z"/>
<path d="M184.7,208.2l0.2-1.2l0.4,0.1l-0.2,1.1L184.7,208.2L184.7,208.2z"/>
<path d="M279.9,144.5l-0.6-0.8l0.3-0.2l0.7,0.7L279.9,144.5z"/>
<path d="M187.8,222.9l-0.8,0.5l-0.1-0.4h1L187.8,222.9z"/>
<path d="M413.5,300.7l1-0.2l-0.1,0.6L413.5,300.7L413.5,300.7z"/>
<path d="M171.2,254.5l-0.1,0.6l-0.3-0.3L171.2,254.5z"/>
<path d="M103.1,262.7C103,262.4,102.9,262.2,103.1,262.7C103.2,262.1,103.2,262.4,103.1,262.7L103.1,262.7z"/>
<path d="M150.1,228.8v0.7h-0.2v-0.7H150.1z"/>
<path d="M335.3,251.9v0.1c0,0-0.1,0-0.2,0c0,0,0-0.1,0-0.2L335.3,251.9z"/>
<path d="M246.1,215.4l0.1,0.2l-0.2,0.1c0-0.1,0-0.1,0-0.2C245.9,215.5,246,215.5,246.1,215.4z"/>
<path d="M214.7,220.4h-0.1c0,0,0-0.1-0.1-0.2h0.2L214.7,220.4z"/>
<path d="M148.6,229.8c0.1,0.1,0.2,0.2,0.2,0.2s-0.1,0.2-0.2,0.2c-0.1,0-0.1,0-0.1-0.1C148.5,230,148.5,229.9,148.6,229.8z"/>
<path d="M146.6,297l0.1,0.1V297H146.6z"/>
<polygon points="145.3,297.4 145.2,297.4 145.2,297.3 "/>
<path d="M146.7,296.9L146.7,296.9L146.7,296.9z"/>
<path d="M69.5,292.3L69.5,292.3L69.5,292.3C69.5,292.2,69.5,292.3,69.5,292.3z"/>
<path d="M150.9,228.5l-0.1,0.1L150.9,228.5L150.9,228.5z"/>
<path d="M416.3,283.4h-0.1l0,0l0,0H416.3z"/>
<path d="M82.6,281.6v0.1V281.6L82.6,281.6L82.6,281.6z"/>
<path d="M150.9,228.6l0.5-0.7v-0.1L150.9,228.6L150.9,228.6z"/>
<path d="M184.9,236.2h-0.2H184.9L184.9,236.2L184.9,236.2z"/>
<path d="M325,225.7v-0.2V225.7L325,225.7z"/>
<polygon points="147.7,230.5 147.9,230.5 147.8,230.6 "/>
<path d="M86.5,277.7L86.5,277.7L86.5,277.7L86.5,277.7z"/>
<path d="M157.4,222.2h-0.2H157.4L157.4,222.2L157.4,222.2z"/>
<path d="M192.5,220.9h-0.1l0,0H192.5z"/>
<path d="M134.5,230.7l0.1,0.1L134.5,230.7L134.5,230.7z"/>
<path d="M238.9,237.1h-0.1c0,0,0,0,0-0.1L238.9,237.1z"/>
<path d="M366.5,274l-0.1-0.1h0.1V274z"/>
<path d="M182.5,211.1h0.2H182.5L182.5,211.1z"/>
<path d="M94.4,269.4L94.4,269.4L94.4,269.4L94.4,269.4z"/>
<path d="M157.9,231h-0.1h-0.1C157.7,231,157.8,231,157.9,231L157.9,231L157.9,231z"/>
<path d="M183.7,208.4l-0.1-0.1l0,0l0,0l0,0L183.7,208.4z"/>
<polygon points="124.7,262.3 124.7,262.5 124.6,262.4 "/>
<path d="M240.7,207.3l0.1,0.2L240.7,207.3L240.7,207.3z"/>
<path d="M115.5,262h-0.2H115.5L115.5,262z"/>
<path d="M145.1,257.1l-0.1,0.1l0,0C145,257.2,145,257.2,145.1,257.1L145.1,257.1L145.1,257.1z"/>
<path d="M26.4,331.4h-0.2C26.3,331.4,26.3,331.4,26.4,331.4L26.4,331.4z"/>
<path d="M225.9,200L225.9,200L225.9,200L225.9,200L225.9,200L225.9,200L225.9,200z"/>
<path d="M173.6,253.2l-0.1,0.2L173.6,253.2L173.6,253.2z"/>
<path d="M215.5,194.3h-0.1H215.5L215.5,194.3z"/>
<polygon points="207.4,186.7 207.5,186.7 207.4,186.6 "/>
<path d="M173.7,253.3h-0.1H173.7L173.7,253.3z"/>
<path d="M238.7,251.4L238.7,251.4z"/>
<path d="M178.2,248.4l-0.1,0.1L178.2,248.4L178.2,248.4L178.2,248.4z"/>
<polygon points="199.6,235.1 199.6,235.1 199.5,235.1 "/>
<path d="M236,171.8l0.1,0.1L236,171.8L236,171.8z"/>
<path d="M269.7,168.1l-0.1-0.1L269.7,168.1L269.7,168.1L269.7,168.1z"/>
<path d="M250.1,140.3L250.1,140.3L250.1,140.3L250.1,140.3h-0.2H250.1L250.1,140.3z"/>
<path d="M395,318.4l1-1l-1.4-1l1.5-2.2l2.4,3.7L395,318.4L395,318.4z"/>
<path d="M298.4,323.2l-2.5,0.2c-0.1,0.7-0.1,1.3-0.2,2.3c-2.2-2.2-0.4-3.4,0.4-5.4L298.4,323.2z"/>
<path d="M264.2,312.1c0.7-1.3,1.3-2.6,2-3.9l0.7,0.2l-0.2,3.4l-1.6,0.8L264.2,312.1z"/>
<path d="M350.2,310.6l2.1,3.6l-0.4,0.6c-0.8-0.4-1.8-0.7-2.2-1.4C349.4,312.9,349.9,311.9,350.2,310.6z"/>
<path d="M307.4,318.9L307.4,318.9L307.4,318.9L307.4,318.9L307.4,318.9z"/>
<path d="M307.4,319l0.5,3.3h-2.8L307.4,319z"/>
<path d="M307.9,322.3L307.9,322.3L307.9,322.3z"/>
<path d="M225.8,313.2l1.6,3.5l-1.6-1.9c-0.4,0.3-0.7,0.6-1,1c0.3-0.8,0.6-1.7,0.9-2.5L225.8,313.2z"/>
<path d="M227.8,317.2v0.4c-0.1-0.3-0.3-0.6-0.4-0.9C227.5,316.9,227.7,317.1,227.8,317.2z"/>
<path d="M254.3,315.4l-3.3-0.3l1.2-3L254.3,315.4z"/>
<path d="M202.9,323.4l-2.1-0.7l1.2-2.4c0.6,1.2,1,1.9,1.3,2.7L202.9,323.4z"/>
<path d="M421.8,327.6l-1.4,2.3l-0.5-0.3l1.1-2.6L421.8,327.6z"/>
<path d="M239.8,316l-0.8,1.7l-0.7-0.4l0.8-1.7L239.8,316z"/>
<path d="M213.1,319l0.7-2.3l0.8,0.5C214.1,317.7,213.6,318.3,213.1,319L213.1,319z"/>
<path d="M187.2,326.4l-0.5-1.9l0.7-0.2l0.6,1.8L187.2,326.4z"/>
<path d="M408.5,326.2c-0.2-0.4-0.3-0.8-0.5-1.3l0.5-0.2l0.5,1.3L408.5,326.2z"/>
<path d="M319.5,318.8l1-0.7l0.4,0.5l-1,0.8L319.5,318.8z"/>
<path d="M44.3,353.5l-0.2-1.8l0,0C45.4,352.1,45.4,352.7,44.3,353.5L44.3,353.5z"/>
<path d="M146.9,339.5l0.9,1.1l-0.7,0.7l-0.9-1.1L146.9,339.5z"/>
<path d="M306.5,326.2l-0.4-0.6l0.2-0.2l0.5,0.5L306.5,326.2z"/>
<path d="M58.2,346.6l0.5,1.5l-0.5,0.1V346.6L58.2,346.6z"/>
<path d="M458.9,347.2l0.5-0.2l0.1,0.2l-0.5,0.2L458.9,347.2z"/>
<path d="M213.1,319l-0.3,0.9l-0.5-0.3L213.1,319L213.1,319z"/>
<path d="M363.3,314l0.5-0.1v0.5h-0.5V314z"/>
<path d="M173.4,331.1C173.4,330.7,173.4,330.9,173.4,331.1z"/>
<path d="M307.9,322.4l0.5,0.8l-0.3,0.1c0-0.3,0-0.6-0.1-1L307.9,322.4z"/>
<path d="M382.5,318.2c0,0,0,0.1-0.1,0.1s-0.1,0-0.2-0.1l0.1-0.1L382.5,318.2z"/>
<path d="M267.3,307.5C267.2,307.1,267.3,307.3,267.3,307.5z"/>
<path d="M162.7,334L162.7,334C162.7,334.1,162.7,334,162.7,334L162.7,334L162.7,334z"/>
<path d="M162.5,334.8c0-0.2,0.1-0.5,0.2-0.7c0,0.3,0.1,0.5,0.1,0.8L162.5,334.8z"/>
<path d="M397.4,321.6l-0.6,0.4l-0.1-0.3l0.6-0.2L397.4,321.6z"/>
<path d="M397.3,321.5l0.3-0.4l0.1,0.1c0,0-0.2,0.3-0.3,0.4L397.3,321.5z"/>
<path d="M267.9,313.4l-0.1-0.1l0.2-0.1L267.9,313.4z"/>
<path d="M277.6,298.2v0.1C277.6,298.4,277.6,298.3,277.6,298.2L277.6,298.2z"/>
<path d="M248.8,305.9h-0.1v-0.1C248.7,305.9,248.7,305.9,248.8,305.9z"/>
<path d="M284.8,306.7c0,0-0.1-0.1-0.1-0.2h0.1C284.8,306.6,284.8,306.7,284.8,306.7z"/>
<path d="M223.4,312.4L223.4,312.4L223.4,312.4L223.4,312.4z"/>
<polygon points="239.8,314.8 240,314.7 240,314.9 "/>
<path d="M281,315.3l0.1,0.1l0.1-0.2L281,315.3L281,315.3z"/>
<path d="M211.7,315.4v0.3C211.7,315.6,211.7,315.5,211.7,315.4L211.7,315.4z"/>
<path d="M281,315.2L281,315.2z"/>
<polygon points="282.3,316.9 282.4,317 282.2,317 "/>
<polygon points="215,318.4 215,318.3 215.1,318.3 "/>
<path d="M395,318.3l0.1,0.2C395.1,318.4,395,318.4,395,318.3C395,318.4,395,318.3,395,318.3z"/>
<path d="M200.2,319.3v-0.1l0,0V319.3z"/>
<path d="M225.1,319.7h0.3l-0.1-0.1L225.1,319.7L225.1,319.7z"/>
<path d="M225.1,319.6v0.2C225.1,319.8,225.1,319.7,225.1,319.6L225.1,319.6z"/>
<path d="M214.2,322.6h-0.1H214.2L214.2,322.6z"/>
<path d="M214.2,322.6l-0.1,0.1L214.2,322.6z"/>
<path d="M144.3,332.2L144.3,332.2z"/>
<path d="M443,335.6h0.2H443L443,335.6z"/>
<path d="M101.6,335.3L101.6,335.3z"/>
<path d="M443.1,335.5L443.1,335.5L443.1,335.5L443.1,335.5z"/>
<path d="M149,337.3l-0.1-0.1h0.1V337.3z"/>
<polygon points="147.8,337.9 147.8,338 147.7,338 "/>
<path d="M126,338L126,338C125.9,338,125.9,338,126,338L126,338z"/>
<path d="M93.7,341l-0.1-0.1l0.1,0.2V341L93.7,341z"/>
<path d="M113.7,341l-0.2,0.1L113.7,341L113.7,341z"/>
<path d="M93.7,341l-0.1,0.1C93.6,341.1,93.6,341,93.7,341L93.7,341z"/>
<polygon points="103.2,341.5 103.3,341.4 103.3,341.5 "/>
<path d="M113.8,341L113.8,341L113.8,341L113.8,341z"/>
<polygon points="444.9,342.5 444.9,342.6 445,342.6 "/>
<path d="M458.3,345.6L458.3,345.6L458.3,345.6L458.3,345.6z"/>
<path d="M44.3,353.4l0.1,0.1h-0.1V353.4z"/>
<polygon points="151.7,354.6 151.7,354.5 151.8,354.5 "/>
<path d="M40.4,356.3l-0.1-0.1l0.1,0.2V356.3L40.4,356.3z"/>
<path d="M40.4,356.3l-0.1,0.1L40.4,356.3L40.4,356.3z"/>
<polygon points="108.5,362.3 108.5,362.4 108.4,362.4 "/>
<path d="M260.9,268.2l-0.1-0.1l0,0L260.9,268.2z"/>
<rect x="26.8" y="5.8" class="st0" width="614" height="86.6"/>
<text transform="matrix(1 0 0 1 26.8 83.1487)" class="st1 st2">Vершина</text>
</svg>
