<svg id="Слой_1" data-name="Слой 1" xmlns="http://www.w3.org/2000/svg" viewBox="0 0 1080 1080"><defs><style>.cls-1{fill:#141313;}</style></defs><path class="cls-1" d="M311.62,474.43h0Zm0,0,0,0v0Zm15,155.33h0v0h0l.05,0Zm19.26-40h0l.21.42Zm13-10.61,0,.05v-.11Zm3.95-4h0q4-4.12,7.94-8.24Zm15.08,57.68h0v0l.05-.12A1.47,1.47,0,0,0,377.89,632.8Zm-7.22-66h0l8.68-6.62Zm21.06-7.43h0l.29-.14Zm6.53-76.9h0C398,482.5,398.12,482.5,398.26,482.51Zm.2-.05-.09,0h0l.17-.06Zm22.17,147.28h0a.38.38,0,0,0,0-.1Zm.67-75a0,0,0,0,1,0,0l.14-.1Zm.05-.1h0c.47-.52,1-1,1.44-1.56Zm93.82-20.05h0l.2-.06Zm1.91-29.72h0a1.64,1.64,0,0,0,0-.22Zm9.31-67.08-.2.07.18,0c-.48.54-1,1.05-1.52,1.57.52-.52,1-1,1.53-1.57l0,0h0ZM552,551.1h0Zm25,21.88h0l0,0h0Zm6.64,43.41a0,0,0,0,0,0,0h0Zm15.45,52.33h0v0l0,0h0l.07,0S599.15,668.74,599.14,668.72Zm93.39-87.84h0c1,.12,1.9.21,2.85.3C694.43,581.1,693.48,581,692.53,580.88Zm28.71,58.87c0,.08,0,.16,0,.24h0C721.27,639.91,721.25,639.83,721.24,639.75Zm52.15-7.35c1.69.89,3.41,1.73,5.18,2.48C776.8,634.12,775.08,633.29,773.39,632.4Zm6.51,3h0Z"/><path class="cls-1" d="M311.68,474.38l-.05.05,0,0,.05,0Zm47.18,104.78,0,.05v-.11Zm39.6-96.7-.13,0h.05l.17-.06ZM421.3,554.7a0,0,0,0,1,0,0l.14-.1ZM526.19,437.82l.18,0,0,0Zm52.34,134,.05,0s0,0,0,0Zm223.79,68.36c-2.82-2.37-5.82-4.54-8.7-6.85-1.13-.9-2.08-2-3.21-3-1.89-1.5-4-2.78-5.76-4.39s-3.34-3.57-5-5.31c-3.13-3.18-6.3-6.31-9.44-9.48-2.83-2.85-5.68-5.68-8.43-8.61-1.8-1.93-3.42-4-5.14-6s-3.21-3.7-4.85-5.51c-1.9-2.1-3.8-4.22-5.8-6.22-2.21-2.22-4.54-4.31-6.81-6.48-.6-.58-1.13-1.22-1.69-1.84-1-.86-1.52-2.13-2.47-2.92a46.38,46.38,0,0,0-5.46-3.71c-2.63-1.59-5.19-3.49-8-4.48-3.07-1.07-6-1.68-8.14-4.68s-5.1-5.6-7.71-8.36c-3.19-3.35-6.24-6.87-9.64-10-2-1.8-4.44-3.28-7.25-2.14-1.93-1.49-3.8-2.83-5.53-4.33a26.73,26.73,0,0,0-8-4.47,106.88,106.88,0,0,1-10.68-5,32.33,32.33,0,0,1-6.13-4.17,52.8,52.8,0,0,1-4.74-5.36,38.76,38.76,0,0,0,5.26-2.86,110.92,110.92,0,0,0,8.8-7.24,72.79,72.79,0,0,0,5.6-6c.7-.79,1.17-1.77,1.84-2.6.89-1.1,2.11-2,2.76-3.22,1.13-2.11,2.07-4.27,4.91-4.23,2.36.45,4.83.67,7.26,1.09s4.57,1.08,6.88,1.49c2.66.47,5.39.59,8,1.2,4.33,1,8.59,2.31,12.88,3.47,3,.81,5.95,1.55,8.91,2.4,2.21.64,4.38,1.4,6.57,2.14,2.91,1,5.78,2.08,8.72,3a21.18,21.18,0,0,0,3.68.5c.07-.29.15-.57.23-.86a25.08,25.08,0,0,0-3.31-2.29c-5.38-2.58-10.76-5.14-16.21-7.53a62.83,62.83,0,0,0-6.27-1.85c-3.18-1-6.3-2.22-9.5-3.09-2.29-.62-4.7-.79-7-1.23-4.67-.9-9.33-1.87-14-2.78-1.93-.37-3.88-.68-6-1.05l1.7-6c2.35.54,4.78,1.15,7.22,1.64s5.15.88,7.73,1.35a37.71,37.71,0,0,1,4.61,1c4.31,1.37,8.57,2.88,12.87,4.29,3.83,1.25,7.74,2.31,11.54,3.68,4.79,1.74,9.53,3.64,14.24,5.6,3.18,1.32,6.3,2.78,9.38,4.31,3.5,1.73,6.92,3.64,10.41,5.36a10.51,10.51,0,0,0,2.85.43c-2.61-4.69-6.89-6.7-10.61-9.29a58.94,58.94,0,0,0-9.13-5.15c-5.57-2.57-11.26-4.92-17-7.2-2.73-1.09-5.87-1.35-8.38-2.77-3.68-2.09-7.72-2.54-11.63-3.65-.92-.26-1.77-.83-2.7-1.06-5.78-1.41-11.54-2.92-17.38-4.06-2.47-.49-2-1.88-1.76-3.4a9.6,9.6,0,0,0,.37-1.42c-.08-4.61,2-9.15.45-13.8a2.14,2.14,0,0,1,0-.87c.68-5.17-.87-10-2-14.94-.64-2.65-2-5.15-2.88-7.74a31.42,31.42,0,0,0-6.11-10.81c-1.06-1.17-1.88-2.57-2.88-3.81-2-2.44-3.93-4.9-6-7.23a35.51,35.51,0,0,0-3.6-3.07c-18.79-16.74-41.12-20-64.1-12.91-22.75,7-37.49,23.63-44.74,47.14-1.51-2.26-2.81-4.14-4-6.07-2.12-3.31-4-6.82-6.4-9.89a7.36,7.36,0,0,0-4.88-2.62c-1.32-.07-3,1.46-4.05,2.66-2.25,2.48-4.23,5.21-6.32,7.84-1.31,1.65-2.63,3.29-3.94,4.93h0l0,0h0c-.48.54-1,1.05-1.52,1.57l-.52.53a10.37,10.37,0,0,0-1.76,2.29c-2.52,4.68-6.64,6-11.48,6.22-3.65.18-7.3.46-10.94.72-.58,0-1.16.21-1.74.29l-7.2.9h0a2.06,2.06,0,0,0-1-.21c-2.41.27-4.81.63-7.22,1-1.52.2-3,.35-4.56.55-3,.39-6,.82-8.95,1.19-1.7.22-3.42.25-5.1.54s-3.54,1-5.33,1.2c-4.87.65-9.76,1.16-15.23,1.78l-.44.41c-6.37.67-12.1,2.37-18,1.84a2.2,2.2,0,0,1,.94-.95c2.39-1.19,4.81-2.33,7.18-3.54,1.61-.82,3.15-2.39,4.76-2.45,3.6-.14,5.81-2.33,8.32-4.29,2-1.59,4.29-2.86,6.32-4.43,1.39-1.07,1.12-2.51-.06-3.54a8.24,8.24,0,0,0-3.15-1.78,40.69,40.69,0,0,0-15.2-1.15c-7,.83-14.1,1.07-21.1,2-13.7,1.74-27,5.2-40.29,9.05-16.57,4.81-32.7,10.67-48,18.64-4.62,2.4-8.87,5.5-13.29,8.3a36.34,36.34,0,0,0,4.63-1.52,395.71,395.71,0,0,1,53.8-20,318.55,318.55,0,0,1,40.66-9.48,147.83,147.83,0,0,1,29.4-2,30.13,30.13,0,0,1,4.25.77c0,.22,0,.44,0,.67a6.56,6.56,0,0,1-1.39.72,50.31,50.31,0,0,0-5.49,1.45c-3.05,1.25-6,2.81-9,4.18-2.33,1.05-4.76,1.91-7,3.07a12,12,0,0,0-2.77,2.4,29.41,29.41,0,0,0-3.82,4.25c-.42.66,0,2,.31,2.94a10.89,10.89,0,0,0,1.65,2.31c1.77.48,3.53,1.34,5.3,1.35a93.64,93.64,0,0,0,11.48-.62c2.45-.27,4.81-1.24,7.26-1.6,3.29-.48,6.63-.61,9.93-1,4.69-.57,9.37-1.22,14.05-1.91,2.82-.43,5.59-1.12,8.42-1.51,5.7-.79,11.42-1.49,17.14-2.18,5.11-.62,10.24-1.19,15.36-1.78,1.57-.18,3.24-1.22,4.74.59l-8.59,9.84c-4.44,0-9.56-.18-14.67.06-4,.19-8,.9-12,1.36-7.88.9-15.84,1.4-23.63,2.79-12.81,2.28-25.56,5-38.25,7.85a56.73,56.73,0,0,0-6.67,2c-2.76,1-5.5,2.1-8.28,3.06,6.61-1.13,13.22-2.24,19.83-3.39,6.86-1.19,13.73-2.47,20.61-3.6q9.56-1.59,19.17-2.93c5.13-.71,10.28-1.49,15.44-1.81,5.88-.38,11.79-.05,17.61-1.38a55.22,55.22,0,0,1,7.26-.65c-4.33,5.93-10,10.32-14.75,15.46l-7.93,7.61c-5.09-4.42-8.11-11.08-15.39-11.75-1.21.43-2.42.53-3.13,1.18-3.24,3-6.41,6-9.47,9.18-1.51,1.55-2.57,3.53-4.06,5.09-2.94,3.06-6,6-9.05,9-.39.39-.63.92-1,1.33-.8.95-1.63,1.87-2.45,2.79a53.33,53.33,0,0,0-4.45,4.11c-2.55,2.7-4.94,5.58-7.6,8.17s-5.57,4.94-8.37,7.38l0,0c-3.41,3-6.89,5.91-10.19,9-2.84,2.69-3.11,2.89-5.82,0a6.26,6.26,0,0,0-8.7-.7c-.61.49-.87,1.4-1.45,2-2.72,2.56-5.56,5-8.2,7.62-.72.71-.92,1.94-1.36,2.94l-.76-.78q-11,11.65-22.06,23.29c-2-1.75-4.7-1.71-5.77-.1-1.32,2-2.7,3.9-4.18,5.75-1.66,2.06-3.48,4-5.18,6-2.67,3.16-5.26,6.39-7.95,9.53-2.24,2.63-4.75,5.05-6.82,7.8-1.27,1.68-3.51,2.33-4.22,4.69-.4,1.33-2.15,2.22-3.26,3.33-1.28,1.28-2.46,2.66-3.81,3.86-2.18,1.94-4.53,3.67-6.66,5.66-1.9,1.77-3.5,3.86-5.41,5.63-1.31,1.23-3,2-4.36,3.22-2.38,2-4.55,4.36-7,6.34-2.06,1.66-4.42,3-6.58,4.49-.81.59-1.38,2-2.18,2.06-2.78.38-2.71,2-2.3,4.14a5.11,5.11,0,0,0,1.77-.16c3.13-1.7,6.22-3.44,9.3-5.22,2.9-1.67,5.81-3.32,8.64-5.13,2.22-1.42,4.31-3.05,6.46-4.58l-.16,0a.7.7,0,0,0,.1-.08c3.48-2.46,7.07-4.78,10.41-7.43,2.63-2.09,4.92-4.62,7.42-6.89,3-2.73,6.15-5.31,9.08-8.1,2-1.9,3.68-4.11,5.59-6.1,1.47-1.52,3.08-2.88,4.59-4.37,2-2,4-4.08,6.05-6.13a.61.61,0,0,0,0-.11.11.11,0,0,1,0,0l.21.42h0l.42.85c.36.73.72,1.49,1.15,2.36,1.6-1.8,2.81-3.06,3.91-4.42,1.29-1.59,2.49-3.26,3.71-4.91s2.39-3.27,3.58-4.91l-.05-.07,4.07-3.92-.16,0,.09-.06q4-4.12,7.94-8.24l-.15,0,.08-.07,8.68-6.62c-1,1.73-2,3.47-3,5.35l1.4,1.52c3.21-1.59,6.42-3.12,9.56-4.78,1.57-.82,3-1.9,4.5-2.87l-.17,0,.11-.06.29-.14.3-.14.59-.28,1.21-.57,2.65-1.26-2.35,4.26c.46.53.88,1,1.46,1.65l4.92-3c-.81,1.13-1.21,1.8-1.72,2.39-1.45,1.69-2.72,3.64-4.48,4.94a39.22,39.22,0,0,1-7.54,4.16,8.35,8.35,0,0,1-4.91.78c-2.47-.58-4.77-1.91-7.48-3.07a55.77,55.77,0,0,0-5.62,5.55c-2.16,2.77-3.77,6-5.82,8.83s-4.2,5.43-6.35,8.12c-2.58,3.21-4.87,6.72-7.85,9.49a132.38,132.38,0,0,1-12,9.36c-2,1.43-4.13,2.56-6.2,3.83l.15.92c.77.16,1.61.6,2.28.42a44.93,44.93,0,0,0,8.26-2.63,136.89,136.89,0,0,0,13.14-7.44,63.44,63.44,0,0,0,7-5.85c.69-.6,1.16-1.47,1.87-2,2.34-1.85,4.78-3.56,7.09-5.44,3-2.4,5.82-4.89,8.44-7.11,2.7,2.22,1,6.19,3.93,8.29a26.11,26.11,0,0,0,2.77-2.34c2.59-2.94,5.09-6,7.66-8.93s5.48-6.16,8.22-9.23a85.91,85.91,0,0,1,5.79-6.4c2.81-2.59,5.93-4.83,8.84-7.32,1.14-1,2-2.23,3.1-3.26a11.67,11.67,0,0,1,2-1.3.53.53,0,0,0,.06-.1c.47-.52,1-1,1.44-1.56l.13.26,6.22-4.35.47.54c-1.17,3.64-2.13,7.38-3.62,10.89-.87,2-2.62,3.66-3.94,5.49a26.27,26.27,0,0,1-2,2.84c-1.77,1.81-3.66,3.49-5.49,5.21l.28.84a8.68,8.68,0,0,0,2.41.17c2.16-.46,4.27-1.12,6.41-1.66,2-.52,4-.93,5.95-1.49,1.59-.45,3.12-1,4.68-1.59-9.46,11.48-21.32,19.68-35.64,25.71,1.33,1,2.09,2,2.8,2,4.83-.23,9.66-.55,14.45-1.13,1.92-.24,3.76-1.25,5.63-1.91l.13,0-.14,0c-.28,1-.31,2.13-.89,2.82-2.21,2.59-4.57,5.05-6.92,7.52s-4.65,5.39-7.43,7.49c-4.52,3.42-9.42,6.35-14.15,9.5-1.29.85-2.55,1.73-4.23,2.87,5.74.89,10.13-1.59,14.77-2.83,2-.53,3.88-1.51,5.84-2.24,2.43-.89,5-1.52,7.31-2.63,3.15-1.52,6.07-3.5,9.18-5.08s6.4-2.78,9.47-4.4,5.73-3.4,8.53-5.22c3.83-2.47,7.6-5,11.93-7.92-1.61,2.45-2.89,4.42-4.44,6.8a11.93,11.93,0,0,0,2.72.27c1.5-.23,3-.94,4.44-1,4.19-.05,7.5-2.56,11.18-3.91,3.47-1.28,6.51-3.69,9.78-5.53,4.35-2.45,8.74-4.84,13.62-7.53-1.75,4.69-3.44,9.18-5.19,13.87l1.35,1.22c1.44-1.42,2.83-2.76,4.18-4.15,3.08-3.16,6.25-6.25,9.19-9.53,2.73-3.06,5.27-6.3,7.79-9.53,1.47-1.88,2.66-4,4.13-5.85a100.8,100.8,0,0,1,6.74-8.1c3.78-3.92,7.74-7.66,11.73-11.37,2.44-2.27,5-4.36,7.62-6.47,1.85-1.52,3.78-2.94,5.67-4.41-.16-.35-.34-.7-.51-1-7.75.28-14.28,4.48-21.35,6.93-.38.25-1,0-1.3.18-1.62.88-3.13,2-4.77,2.81a9.24,9.24,0,0,1-2.52.5c.28-.2.66-.36.76-.62,1.52-4.24,4.75-7,8.11-9.69a22.83,22.83,0,0,0,2.84-3.36l-1.63-1.38-14.34,6.34a10.14,10.14,0,0,1,.87-1.41c1.19-1.41,2.42-2.8,3.64-4.19l-.12,0s0,0,0-.07l.2-.06a1.15,1.15,0,0,0,.53-.22q3.06-3,6.07-6.09c1-1.06,2-2.17,3-3.26,8.06-8.49,18.9-13.45,28.27-21.54l-3.81-.8c-9.22,2.48-17.5,7.08-26.33,10.55,4.46-5.88,11.35-9,16.69-14l-1.38-1.46c-.35.25-.82.76-1,.67-1.5-.66-2.49-.07-3.45,1.05-.27.32-.93.29-1.4.44l-7.23,2.34-8.24,2.63a1.64,1.64,0,0,0,0-.22,4.85,4.85,0,0,1,.32-1.7c1.21-2.21,2.45-4.42,3.84-6.52,1.84-2.78,4.15-5.29,5.68-8.22a32.33,32.33,0,0,1,5.36-7.62c3.18-3.29,6.22-6.71,9.27-10.12a5.17,5.17,0,0,0,.66-1.74l.29.29,3.47-3.36-.12-.07.09,0h0l2.61-2.24-2.58,8c3.84.47,5.71-3.33,8.9-3.39a51.67,51.67,0,0,1-2.82,4.59c-2,2.73-4.19,5.39-6.39,8-1.46,1.73-1.75,3.75-.61,4.65l18.81-10.39c-2.7,5.16-7.78,8.78-9.06,15a17.72,17.72,0,0,0,4.58-2.3c.88-.57,1.66-1.3,2.56-1.79,1.37-.71,3-1,4.17-2,2.9-2.36,4.15-2.38,6.39.41,1.86,2.32,3.8,4.58,5.56,7a13,13,0,0,1,1.25,3.09l.78-.8,9.63,10-23.31,29.39c.81.6,1,.87,3.56-.9,5.61-3.86,11-8,16.53-12.06,1.5-1.11,2.94-2.31,4.4-3.46.23.23.44.46.66.7-1.46,2-2.93,4-4.39,6-1.78,2.48-3.6,4.93-5.28,7.47a5.87,5.87,0,0,0-.39,2.28l1,.53c4.08-2.55,8.1-5.23,12.28-7.6a48.35,48.35,0,0,1,6.59-2.62c-2.92,3.32-5.89,6.61-8.76,10-1,1.18-1.66,2.65-2.63,3.84-1.45,1.77-3.08,3.38-4.55,5.12s-3,3.8-4.56,5.71c-.88,1.1-2.17,2.08-2.57,3.34-1.26,4-4.57,6.34-7.08,9.32-1.74,2.06-3.72,3.92-5.55,5.92-.28.31-.27.88-.4,1.33l.53.55c11.12-7,21.35-15.24,31.76-23.26-2.12,2.51-4.64,4.66-6.62,7.23-3.35,4.35-6.45,8.9-9.46,13.49a44,44,0,0,0-2.85,6.05,7.16,7.16,0,0,0,2.21-.34c3.53-1.69,7-3.5,10.5-5.24a16.56,16.56,0,0,1,2-.62c-1,4-1.9,7.45-2.86,10.91a6.34,6.34,0,0,1-1.13,2.17c-3.62,4.43-7.48,8.69-10.89,13.28a125.2,125.2,0,0,0-6.75,10.93,5.12,5.12,0,0,0-.26,1.83l1.25.43.92.26a221.86,221.86,0,0,1,39-24.11c-2.51,3.34-4.37,6.78-4.28,11.09a19.88,19.88,0,0,0,3.38-2.66c1.79-1.42,3.71-2.68,5.54-4,3-2.26,5.92-4.73,9.09-6.76a94.18,94.18,0,0,1,8.81-4.58,38.26,38.26,0,0,1,3.94-1.73c1.23-.45,2.51-.74,3.76-1.09-3.65,4.17-7.45,8.25-9.43,13.68l1.14,1c4.67-2.76,8.83-6,13.54-7.77s9.71-3.52,15.05-2l-4.52,6.6.45.56a11,11,0,0,0,2-.19c1.94-.55,3.93-1.85,5.76-1.64,3.14.37,6.2,1.6,9.23,2.63.8.28,1.38,1.18,2.09,1.77,1.19,1,2.45,1.91,3.57,3,2,1.88,4,3.78,5.83,5.78a28,28,0,0,1,2.27,3.17,10.43,10.43,0,0,0-2.47,1,9,9,0,0,0-1.62,2l2,1c.64.13,1,.86,1.5,1a39.09,39.09,0,0,1,14.09,7.81,49.53,49.53,0,0,0,7.39,4.8c1.45.86,3.08,1.43,4.57,2.21s3.09,1.94,4.74,2.64,3.36,1.87,5.53.1c-6.06-5.81-12.49-11.13-17.87-17.35-5.52-6.38-10-13.65-15-20.65v-1.75h-.13l0-.05h0c1,.12,1.9.21,2.85.3a67.12,67.12,0,0,1,8.5,1.19c6,1.4,12,3.26,17.91,4.93,0,.3,0,.6,0,.9-4.76,1.41-10.31.3-14.92,4.53,5.44,2.34,11.2.83,16.24,3.12s10.33,3.66,14.92,5.24c1.24.86,2,1.43,2.73,1.88,2,1.13,4.09,2.06,6,3.33,3.47,2.35,6.81,4.9,10.21,7.36,4,2.9,8,5.77,12,8.72,4.48,3.33,8.83,6.85,13.4,10.05,2.8,2,6.08,3.22,8.82,5.24a32,32,0,0,0,12.43,5.43A5,5,0,0,0,802.32,640.18ZM379.45,560s0,0,0,.06h0Zm21.47-.07.09-.12,0,.15Zm23.26-31.84-.13-.09.14,0Zm.76-.36a.29.29,0,0,1-.15-.09,1.9,1.9,0,0,1,.12-.36c.08.08.23.15.22.21S425,527.67,424.94,527.74Zm1.49-.7h-.2v-.69h.2ZM522.3,513s.08,0,.13-.05l.07.18-.24.06A.65.65,0,0,1,522.3,513Zm-5.13-8h0Zm-4.8-35.79.8-1.4.4.39-.6.51-.6.5Zm-.07.13,0-.05.1.1-.07,0Zm.06-.12h0a0,0,0,0,1,0,0l0,0,0,0ZM464,520.49h0a1.53,1.53,0,0,0-.16.11c-.18.1-.35.21-.51.32-.05-.13-.09-.26-.13-.39Zm-2.82-16,.41.08c-.07.38-.13.77-.2,1.15l-.42,0Zm-33,31.43q3-3.73,6.05-7.46l-.15,0,.12,0h0l1.53-1.94,4.55-5.82c-1.18-2.1-2.54-1.53-3.47-.56-2.26,2.38-5.26,3.53-8,5.16a1.25,1.25,0,0,1-.71.06l-.28,0h0l-.08.08-.25.32-.24.33-.2,0,.14-.09h0l.27-.34a.83.83,0,0,1,.11-.15c0-.07.1-.14.15-.21h.11l.55-.55.66-.63,4.64-4.45-.16,0,.1-.07h0l5.58-5.17c1.87-1.72,3.74-3.44,5.59-5.18,3.41-3.19,6.79-6.43,10.47-9.46l-4.81,9.89c1.89,1.28,3.06.92,4.42-.39a28.72,28.72,0,0,1,4.22-3.05l.47-.31.32-.21,0,0,0,0h0l0,.16-.07-.12c-.38,1-.76,1.89-1.15,2.83l.05-.05.12.06h-.17c-1,1.24-2,2.48-3.1,3.81l-.84,1-.45.55-.88,1.08c-.46.56-.94,1.14-1.43,1.75C445.11,523.38,437.27,530.44,428.18,535.93Zm19.22,16.59-.27-.33.37-.24C447.46,552.19,447.43,552.35,447.4,552.52Zm43.5-34.59a.67.67,0,0,1-.06-.17l.22,0a.57.57,0,0,1,0,.18S490.91,517.94,490.9,517.93Zm11.28-20.42-.07.08,0,0a.08.08,0,0,0,0,0l-.49.69-.54.76c-.54.76-1.08,1.53-1.63,2.28-.27.38-.55.75-.84,1.12l-.25.33c-.19.25-.38.49-.58.72-.74.91-2.16,1.3-2.76,2.26a31.1,31.1,0,0,1-6.88,8.06c-.42.33-.54,1-1.11,1.28l-3.95,5.19c.22.24.43.49.64.73l5.81-2.92c-.2.35-.41.68-.62,1s-.52.81-.8,1.2-.46.64-.69.94v0c-.26.33-.51.67-.78,1s-.5.62-.77.92-.48.56-.74.84-.49.55-.75.81l-.6.63-.05,0c-.29.3-.58.59-.89.88s-.74.71-1.11,1.06l-.69.64-1.39,1.26-1.88,1.65-1.89,1.64h0v.06l-.06,0c-1.35,1.15-2.7,2.29-4.08,3.4l-1.15.93-1.33,1h0l-1.34,1-1.35,1-1.37,1-1.59,1.12L462,543.23l-.82.53-1.44.91-1,.63-.47.27-1.1.64-1,.54-1.28.68c-.47.25-.94.49-1.42.72l-.73.37-1.48.68-1.27.56q2.28-1.93,4.57-3.86l-.14.08.07-.11,1.81-1.58,1.84-1.6,1.88-1.62,1.92-1.66-1.64-1.52-7.41,4.2c0-.25-.15-.78,0-.94,1.79-1.56,3.66-3,5.45-4.59,1-.88,1.89-1.91,2.82-2.88l-.17,0,.12-.07h0l.66-.65.66-.64c.89-.85,1.79-1.7,2.67-2.57l1.31-1.31c3.49-3.55,7-7.08,10.35-10.74a35.55,35.55,0,0,0,3-4.38c-1.68-1.11-6.83,1.25-11.18,5h0l.13,0h-.11l-4.47,2,0,0h0v.08h-.14l.09-.06.05,0a2.55,2.55,0,0,1,.12-.9,2.6,2.6,0,0,1,.13-.36,3.24,3.24,0,0,1,.17-.32,2.79,2.79,0,0,1,.34-.43.53.53,0,0,1,.13-.13,3.2,3.2,0,0,1,.27-.25l.14-.12.22-.17.24-.16.63-.42c.18-.13.37-.25.54-.38a2.91,2.91,0,0,0,.33-.26l0,0a1.7,1.7,0,0,0,.24-.22l0,0A3.2,3.2,0,0,0,468,516c1.85-2.24,4.23-4.05,6.34-6.1,3.49-3.4,7-6.79,10.4-10.29,1.77-1.83,3.31-3.89,5-5.77l2.11-2-.16,0h.12c.31-.33.63-.65.95-1,1.65-1.67,3.33-3.32,5-5,.23-.25.47-.5.7-.76s.67-.72,1-1.09c2.05-2.3,3.75-4.91,5.79-7.21,1.83-2.07,3.91-3.9,5.87-5.84l.61.49-9.37,15.74c.34.39.74.85,1.28,1.49l12-10,.49.38Zm191.28,56a2.75,2.75,0,0,1,.35.63l-.41.28c-.15-.24-.3-.47-.44-.71C693.13,553.59,693.41,553.42,693.46,553.46ZM556.19,442l-.62-.79.25-.24c.23.23.47.45.71.67C556.42,441.75,556.3,441.86,556.19,442Zm5.51.45a115.47,115.47,0,0,1,4.58-10.95,75,75,0,0,1,6-9.5,108.06,108.06,0,0,1,7.42-9,24.13,24.13,0,0,1,4.16-3,78.5,78.5,0,0,1,6.68-4.54,70.58,70.58,0,0,1,7.76-3.39c2.37-.95,4.77-1.82,7.2-2.58a22.12,22.12,0,0,1,3.09-.35c3.56-.56,7.11-1.62,10.66-1.63,4.43,0,8.86.94,13.3,1.29a21.66,21.66,0,0,1,7.33,2.28c2.24,1,4.82,1.26,7.16,2.08,1.14.4,2,1.42,3.13,2.06,2.36,1.41,5,2.46,7.09,4.17a120.45,120.45,0,0,1,9,8.48c1.52,1.52,3.39,3,4.11,4.91,1.1,2.87,4.76,4.19,4.44,7.8a2,2,0,0,0,.57,1.38c3,2.95,2.39,7.48,4.67,10.76a.17.17,0,0,1,0,.12.32.32,0,0,1,0,.14,1,1,0,0,1,0,.24c0,.05,0,.11,0,.15a0,0,0,0,0,0,0,.53.53,0,0,1-.06.13s0,0,0,0a43.72,43.72,0,0,1,1.63,7.47,63.83,63.83,0,0,1,0,14.09c0,.31,0,.61-.08.91-.07.61-.13,1.22-.2,1.82-.17,1.53-.37,3.05-.57,4.6l-7.24-.95,0-.35-21.5-2a12.68,12.68,0,0,1,1.64-1.38c3-1.49,6.19-2.63,8.93-4.47,3-2,2.66-5.33.45-8.07-3.24-4-7.82-4.74-12.3-5.92-1.24-.33-2.43-.85-3.68-1.16a30.74,30.74,0,0,0-3-.48l-.32.59-.88-1.77-.37.63c-2.39-.39-4.77-.8-7.16-1.16-1.37-.2-2.76-.3-4.13-.46-1.92-.22-3.84-.5-5.77-.67-2.31-.21-4.61-.35-6.92-.46-7.58-.36-15.15-.8-22.73-1-3.9-.11-7.81.3-11.72.35-2.33,0-4.67-.41-7-.31-3.76.16-7.51.64-11.28.87a10.32,10.32,0,0,1-3.39-.46C562.1,443.66,561.57,442.75,561.7,442.43Zm31.11,73.25-.38-.45,1.29-1,.27.31Zm8.6,7.43,0,0V523l0,.08Zm6.25-33.35a11,11,0,0,0-2.48,1.53c-3.27,3.84-5,3.6-7.74-.52-1.85-2.85-4.33-5.27-6.52-7.9-1.31-1.59-2.54-3.24-3.87-4.8-1.59-1.87-3.29-3.65-4.89-5.51-2.31-2.69-4.51-5.47-6.89-8.09-1.5-1.65-3.39-2.93-4.83-4.61-2.29-2.69-4.35-5.58-6.5-8.39a3.41,3.41,0,0,1-.16-.78c3.1,0,6.13.07,9.15,0,1.72-.05,3.42-.49,5.14-.55,6-.2,12.11-.39,18.16-.41,2.17,0,4.34.52,6.52.72a8.28,8.28,0,0,0,1.64-.31c.75-.11,1.82-.52,2.2-.18,1.45,1.31,3,.54,4.51.6,3.76.15,7.51.5,11.27.77,2.66.19,5.34.21,8,.57,2.89.4,5.74,1.11,8.61,1.65s5.64.81,8.37,1.54c3.17.85,6.24,2.07,9.35,3.13,0,.36,0,.72.07,1.07a71.54,71.54,0,0,0-7.28,3.33c-2.18,1.28-4.53,2.71-6,4.67-1.88,2.51.32,6.82,3.35,8,3.42,1.32,6.94.44,10.39.77,2.48.23,5,.59,7.44.82,2.8.27,5.61.46,8.41.7,1.08.1,2.15.24,3.69.42l1.84,1.33c-.81,1.78-1.62,3.59-2.54,5.61-11.48-.84-22.88-1.16-34.16,1.61,1.45,1.17,2.84,2.1,4.88,1.61a13.42,13.42,0,0,1,4.33-.35c4,.34,8,.95,12,1.29,3.27.28,6.55.34,10.62.52a35.42,35.42,0,0,1-1.95,3.37c-1.8,2.4-3.58,4.81-5.55,7a66.74,66.74,0,0,1-5.51,5.39,64.7,64.7,0,0,1-7,5.46l-4.36,1.83c-2.1-2.29-4.44-4.82-6.75-7.38-2-2.17-4-4.26-5.76-6.58-2.61-3.49-4.82-7.28-7.52-10.69a33.55,33.55,0,0,0-6.81-6.81c-1.85-1.29-4.42-.22-6.25.94a65.27,65.27,0,0,0-6.94,5.51A12.2,12.2,0,0,0,607.66,489.76Zm3.91,59.73a.19.19,0,0,1-.15,0s0-.1,0-.15l.17.06S611.59,549.49,611.57,549.49Zm31.28,22-.06-.06h.1Zm47.9,27.07-.85-.4.91-.17Zm1.48-44.9c-4-1.35-7.8-3.23-11.86-3.89s-8.34-.16-12.52-.16c0-.35-.09-.69-.14-1l3.73-1.77.18-.85c-1.76-.86-3.53-1.71-5.29-2.58A34.91,34.91,0,0,0,649.8,543l-.41-.54,5.53-4.63c-1.35-2-2.9-2.1-4.91-1.56-2.42.64-4.85,1.94-7.59.88-.66-.26-1.8.26-2.53.71-2.57,1.6-5.07,3.33-8.11,5.35.58-3.81,5.09-5.59,3.58-10.23L614,547.23c-.09-.65-.17-1.16-.21-1.39,6-6.81,11.93-13.44,17.8-20.07h.17l2.62-2.23,3.09-2.53c-3.62-4.09-7.48-.24-11-1.7,1.28-1.22,2.5-2.39,3.77-3.58-.85-2.07-2.71-1.2-3.79-.93-1.67.42-3.09,1.75-4.71,2.49-2.53,1.14-5.14,2.09-7.69,3.19a31.59,31.59,0,0,0-2.91,1.58l-.53-.49,12.88-13c-1.23-2.66-3.34-1.12-4.85-.8-2.82.6-5.53,1.77-8.72,2.42l7.33-7.62c-2.19-2.34-4.36.93-7.11-.47l8.34-7.56c2.87.35,2.76,5,6.36,2.88L633.15,508l-.25.15L651,528.07c-.42.59-1,1.38-2,2.7a17.37,17.37,0,0,0,3,1.39c3.57,1,7.25,1.6,10.76,2.74s7,2.71,10.47,4.21c1.62.71,3,1.95,4.69,2.51,3,1,5.1,3.07,7.34,5,.92.8,2,1.4,2.94,2.19,1.52,1.31,3,2.69,4.44,4Zm-242.42-2.93.1,0v0Zm.1,0a.89.89,0,0,1-.08.17l.12-.16ZM423,594.41l0,0h0l.09.09A.65.65,0,0,0,423,594.41Z"/><path class="cls-1" d="M789.21,665.88h-3c-4.92,0-9.86.23-14.75-.16-4.36-.34-3.43-1.06-3.31-2.85-2-4.12-3.56-7.36-5.12-10.59-1.47.94-.88,3.89-3.69,3.39.44-1.28.84-2.44,1.35-3.9l-2.45.53-1-3.08c-1.25,1.93-2.27,3.53-3.38,5.26-.36-.7-.69-1.35-.86-1.66.35-1,.57-1.62.81-2.3l-1.4-.36c0-.68.07-1.29.1-1.89-.56-.13-1-.24-.91-.23-.84-2.44-1.55-4.5-2.25-6.56l-.84.09-2.17,5.61h-3.25c0-1.17.38-2.68-.09-3.83a30.9,30.9,0,0,0-3.18-5,8.84,8.84,0,0,0-1.21,2.18c-.7,2.74-1.34,3.19-4,2.41a.52.52,0,0,0,.06.13l-.09,0L735,639c-1.11-1.49-2.12-2.38-2.53-3.5-.85-2.28-1.38-4.69-2-7l-.68.22c-1.31,2.5-2.62,5-4.08,7.78-1.83-.34-.64,1.36-.87,2.22L721.28,640c0-.08,0-.16,0-.24-.08-.42-.18-.83-.28-1.25a11.81,11.81,0,0,1-.51-4.19c.28-1.93-.15-3-1.24-3.51l-3.58-8.54c-1,2.8-1.73,4.88-2.47,7l0,0c-.28,1-.57,2.08-.85,3.13l-.51-.12.47,1.49-2.35.77c.4-1.12.64-1.8.9-2.55l-2.59-.75,1.42-4.21-2.5-.49,1.18-3.76c-3.67-.44-1.12-2.86-2.28-3.82l-3.19-6.24-3.3,7.55-.28-.16v2.45c-2.35.47-3.09.22-3-.92.1-1.86.19-3.7.28-5.56-2.11-.11-2.44-.66-2-2.14-1.37-3.27-2.48-5.94-3.7-8.88-1,2.31-1.83,4.21-2.66,6.1l-.3-.16c-.23,1.68-.47,3.37-.71,5.07l-1.69.37c.08.83.14,1.52.22,2.44l-2.54,1.09c.72-1.6,1.16-2.59,1.71-3.8l-3.16.3c1-1.81,1.74-3.22,2.63-4.84H682c.6-1.49,1.13-2.84,1.67-4.18l-.59-.3-1.26.6c-.93-2.23-1.83-4.42-2.75-6.61-2,.64-.65,4.67-4.27,2.67.53,1.71.93,2.95,1.32,4.22l-2,.49c.4,1,.72,1.83,1.22,3.11l-4.91-1.88c.15-1.22.29-2.42.4-3.28-.83-.63-2-1.23-2-1.55.81-3.63-2.15-6-2.89-9.11a9.34,9.34,0,0,0-.86-1.73c-1.3,3.25-2.46,6.13-3.87,9.66.29,1.53,0,2-1.9,2.35v5.57l-3.24,1.22c.44-1.94.77-3.34,1.11-4.81l-1.38-.73v-6.51l-.36.26c-.6-1.21-1.21-2.44-1.82-3.65l.06-.07c-1.22-3-2.44-6-3.93-9.69-1.3,3.13-2.34,5.61-3.37,8.1l-.71-.25v5.16L643,599.37c.78,2.26,1.34,3.9,1.85,5.41l-3.61.4c.87,1.29,1.64,2,1.83,2.83a3.61,3.61,0,0,1-.53,2.49c-.2.32-1.29.06-2.36.06.73-1.28,1.1-1.91,1.66-2.88l-3.93.56c1.22-2.37,2.2-4.26,3.46-6.73l-3.21,1.25c-.56-2.36,2.64-3.28,1.42-5.61l-2.77,1.07a12.75,12.75,0,0,0,.58-2.56,3.7,3.7,0,0,0-.61-1.85c-.43-.69-1.17-1.19-1.57-1.89a17.16,17.16,0,0,1-1-2.84c-.64.95-1.3,1.48-1.26,1.95.2,2.39-.64,3.29-3.47,2.05l1.72,5.31-2.94-.17,2.13,4.35-3.73-.52c1.13,2,2,3.69,3.21,5.83l-5-1.75c.21-1.25.42-2.55.68-4l-1.41.2c-1.49-4.34-2.89-8.42-4.47-13-2.22,3.36-1.5,7.3-4.56,9.46.57,2.7.31,3.14-1.8,3.49v6.84l-1.24.85c.18,1.47.34,2.74.55,4.47l-2.9-1.17c.36-.94.62-1.59.88-2.24l-.66.07c-.29-2.22-.57-4.45-.76-5.93l-1.86-3.64a2.25,2.25,0,0,0,.21-.12L604,593.59,600.84,600l-.46-.17c.16,1.1.31,2.19.48,3.41-.7.31-1.41.6-2.33,1a10.07,10.07,0,0,0,1.19,3.48l-2.86.81c2,4,2,4-2.24,5.43.14-1,.26-2,.31-2.39a11.46,11.46,0,0,1-1.6-2.33c-1-3-1.88-6.12-2.8-9.19l-.64.07-3.12,8.4c.74,1.19-.54,1.82-1.91,2.17,0,1.8,0,3.43-.06,5.06,0,.23-.72.42-1.11.62a0,0,0,0,0,0,0l-2.57-.81,1.1-2.89-2.19-.31c.37-1.24.68-2.31,1-3.39l-2.06-.7c-.48-1.34-.82-2.3-1.35-3.77l-3.09,7.59-2-.49c.66,1.6,1.19,2.88,1.63,4l-2.44,1.49c.06.14.11.3.17.44h-2c.35-.91,1.24-2.22.94-2.62-1.32-1.73-.06-3.11.22-4.62a6.13,6.13,0,0,0,0-.75c-.33,0-.59.06-.85.07h-1.34c-.09-1.33-.17-2.54-.25-3.85a3.5,3.5,0,0,1-1.91-4.14l-3-5.67c-1,3.1-1.78,5.62-2.58,8.13a.76.76,0,0,1,0,.15,1,1,0,0,1-.07-.15h-1.2c-.09,1.13-.18,2.15-.25,3.08h-2.56c.25-1.8.48-3.52.74-5.46l-2.21.85c-.27-2.17-.47-4.13-.79-6.07,0-.29-.58-.51-.9-.75a4,4,0,0,0,.39-.32l.08-.09a.48.48,0,0,0,.11-.15.16.16,0,0,0,0-.07c.29-.65-1.13-.79-1.3-1.3-.76-2.25-1.57-4.48-2.57-7.3-1,2.46-1.84,4.41-2.74,6.59.75,1.37-.52,4.07-2.55,4.72,1.41,3.36.7,4.68-1.49,4.41l-3.1,2c-.91-2.74,3.06-3.77,1.53-6.43l-2.72,1.37c.1-1.72.2-3.27.32-5.1l-1.37.69c-.55-1.85-1.08-3.66-1.81-6.09-1,2.36-1.68,4.15-2.44,6l-2.85-1.28c.88,2.3,1.53,4,2.29,6h-3.15l2.14,4.53-4-1,3.38,6.59-5.65-1.5c-.09-1.44-.18-3.14-.29-4.95-.33.07-.73.15-1.15.22a.6.6,0,0,0,.12.11H525q-1.17-3.79-2.32-7.59l-.73,0-.42,2.92-.4-.28L518,605.67c.41,1.67-.07,2.53-2.32,3,.1.75.2,1.52.35,2.61l-2.79.17c-.54-2.4,3.37-2.67,1.71-5.23h-1.56c-.87-2.12,2.56-3.08,1.08-5.36l-2.45,1.3c0-.48.07-.77.08-1.05,0-1.22,1.74-3-1.13-3.23,0,0,0-.56-.11-.82-.37-1-.79-2-1.18-3l-.61-.23c-.53,1.41-1.05,2.82-1.57,4.2l-2.53-.79,1.81,5-2.72.18c.7,1.41,1.27,2.56,1.93,3.87l-3.69-.82,3.06,5.43-3.24-.19,1.59,3.48-1.56-1.91c-.35.32-.7.64-1,1,.3-.83.6-1.65.91-2.47l-2.29-1,.06.11-.08,0c.83-4.3-2.09-7.43-3.37-11.62-1.24,3.27-2.28,6-3.32,8.72,0,1.49.07,2.88-2.38,3,.18,1,.36,2.07.57,3.29l-3.08-.33c.39-.89.79-1.77,1.25-2.79l-2.32-.41,2-4.76c-3.32,2.37-3.33-.28-4.45-1.89-.24,2.7-4.55,3.34-1.68,6.89l-2.61-1.14-.57.32c.56,1.33,1.12,2.65,1.8,4.24l-2.68-.33,2.66,4.73-.51.56-4.48-1.68,0,.13,0-.11c.21-1.84.43-3.69.65-5.59-2.43.17-2.19-1.24-1.85-2.23l-3.77-8.3-3.25,6.56-.37-.22v4l-2.14-.12c.52,1.63.94,3,1.32,4.14l-3.16.57c1.34,1.83,3.26,3.12.85,4.75l-2.82-.86c.47-2.8.47-2.8-.64-3.33L457.77,606l-.56.07c-1,2.52-2,5-2.94,7.54-.29,1.23.23,2.83-1.84,2.76-.27,2.25-.54,4.47-.8,6.69l-.53-.11c.27,1.17.54,2.35.82,3.53l-.6.2-.88-1.53h-2.55c.85-1.58,1.61-3,2.54-4.67h-2.34l1.69-3.84-.69-.39-2.32,1c2-3.54-1.68-4.87-1.7-7.48-1.95.82-.32,5.11-4.35,3.1l1.72,4.48h-2.35c.46,1.2.85,2.18,1.24,3.2l-2.87-.35,2.68,4.74h-2.39c.49,1.38.92,2.61,1.43,4.07l-2.9-.72c.78,1.42,1.26,2.31,1.74,3.19h0l-2.38.35v-6.26c-2.59.15-1.81-1.63-1.34-3.25l-.74.34q-1.68-4.1-3.37-8.18a70.32,70.32,0,0,0-3.4,9.79c-.11.34-.21.9-.43,1-2.53.66-1.18,2.39-1.06,3.59l-1.68.86c.28,1.95.5,3.46.72,5a.59.59,0,0,0,0,.13l-.08-.13-3.63-1.15c.32-1,.66-2.15,1-3.29l-2-.53h0s0,0,0,0h0a.38.38,0,0,0,0-.1c0-.07,0-.14,0-.2.42-1.88-.54-3.42-1.31-5-.69-1.44-1.19-3-1.89-4.75-2.41,3.64-2.59,8-5.57,11.15.53,1.79.93,4-.69,5.58.16,1.31.31,2.43.46,3.55l-.7.09c-.35-.43-.66-1.16-1.07-1.23-1.16-.17-1.42-.39-1.68-1.77-.2-1-1-1.89-.62-3.3.16-.64-1-1.62-1.79-2.69-.15-.86-.38-2.13-.61-3.41l-.91,0c-.67,2.65-1.34,5.29-2,7.94l-.13,0a.34.34,0,0,1,.09-.08l-1.23.18c-.32.72-.62,1.36-.9,2l-.9-.18c.18-1.51.35-3,.55-4.66-3.82.83-1.94-3.81-4.07-4.37l-3.19,5.39v3.58l-3.28-.92,1-1.85-1.79-.45-4.48-9c-2.47,2.17-.51,6.84-4.38,8.19.19,1.48.37,2.88.54,4.28l-.72.14c-.21-1.1-.36-2.2-.66-3.27a10,10,0,0,0-.86-1.77l.05-.12s.05-.09.07-.14a1.82,1.82,0,0,0,.15-.27,1.45,1.45,0,0,0,.08-.21.28.28,0,0,0,0-.18c-.27-.59-.8-1.07-1.07-1.66-.84-1.84-1.59-3.71-2.38-5.56l-.7-.08c-.73,2.38-1.45,4.75-2.27,7.46l-.76.19c0,.58-.08,1.19-.12,1.93l-1.73.12c.36,1,.66,1.7.85,2.21l-3.27,1.4c.27-1.51.52-2.87.79-4.37h-1.53c-.52-1.41-1-2.73-1.66-4.55-.59,1.07-1.18,1.65-1.21,2.26-.08,2.13-1,2.88-3.38,1.81.68,1.91,1.21,3.41,1.79,5.06l-2.61.31L360.8,642l-.8.41-1.65-3-.19,0c-1-2.37-1.93-4.75-3.08-7.56l-3.91,9-.31-.24c-.17,1.1-.35,2.21-.53,3.32l-.92.15-3.82-8.68-3.89,9-.75-.34c.13-.84.27-1.67.33-2l-2.84-4.35-2.8,6.32-1.12-.08c0-.34.05-.76-.11-1-.55-.86-1.18-1.67-1.81-2.49-.28-.37-.6-.71-1-1.12-.93,2.06-1.8,3.95-2.74,6l-1.62-.57c.4,1.56.7,2.72,1,3.87l-.5.16c-1.09-2.23-2.16-4.46-3.21-6.63l-4.11,6.86-2-2c-.28.85-.55,1.64-.8,2.41l-1.74-.51c.46,1.11.73,1.79,1,2.49-.54.33-1.07.65-1.61,1-.44-1-.83-1.9-1.49-3.41-1.62,3.7-3,6.84-4.66,10.61H288.46a2.48,2.48,0,0,0,1.59,1.27c4.09.78,8.2,2.19,12.27,2.09,7.62-.19,15.21-1.31,22.83-1.93,2.63-.21,5.3-.09,8-.11,2.06,0,3.77,2.17,6.15.79a17.76,17.76,0,0,1,4.51-1.45c10.53-2.77,21.16-4.67,32.09-3.23a76.11,76.11,0,0,1,8.54,2.13l-.12,1c-17.87,6.42-36.15,11-55.25,12,6.53.43,13.06.9,19.6,1a94.45,94.45,0,0,0,27.2-3.54c9.38-2.74,18.5-6.38,27.75-9.57,7.75-2.68,15.52-5.29,23.28-7.93l.35.54a40,40,0,0,0-13.66,14.08,73.07,73.07,0,0,0,7-3.53A142.74,142.74,0,0,1,450,651c7.11-2.06,14.35-3.83,21.63-5.19a150.44,150.44,0,0,1,20.57-2.61c9.33-.44,18.69-.21,28-.05a94.21,94.21,0,0,1,12,1.07c7,1,14,1.81,20.87,3.46,11.93,2.87,24,5.64,35.52,9.68,12.05,4.23,23.6,9.91,35.37,15L627.7,674l.5-.83c-4.85-3.59-9.58-7.37-14.59-10.73s-10.32-6.31-15.78-9.6A109.61,109.61,0,0,1,637,650c-6.42,1.69-12.83,3.35-19.06,7.35,1.62.26,2.57.47,3.54.55,3.9.36,7.81.52,11.67,1,10.42,1.4,20.48,4.31,30.47,7.49,6.6,2.11,13.14,4.51,19.86,6.18a153.91,153.91,0,0,0,21.45,4A97.28,97.28,0,0,0,733.89,675c2.59-.52,5.15-1.2,7.72-1.81-.06-.32-.12-.63-.17-.94-3.53.2-7.06.64-10.58.57a178.15,178.15,0,0,1-18.64-.93A132.84,132.84,0,0,1,692.31,668c-7.14-2-14-5.09-21-7.5-5.77-2-11.64-3.69-17.52-5.53a122.69,122.69,0,0,1,36-1.1,3.21,3.21,0,0,0-1.55-1.14c-2.17-.76-4.38-1.42-6.53-2.25a170.69,170.69,0,0,0-31.15-8.25,158.13,158.13,0,0,0-29.17-2.19,117.36,117.36,0,0,0-33,4.59c-4.6,1.38-8.76,1.54-13-1.38,1.22-.52,2.31-1,3.42-1.42a113.64,113.64,0,0,1,40.05-7.75,159,159,0,0,1,29.81,2.3c12.59,2.3,25,5.79,37.31,9.32,9.57,2.73,18.91,6.25,28.32,9.51,13.11,4.54,26.13,9.31,39.76,12.22,9.34,2,18.69,3.08,28.17,1.47,2.46-.42,4.8-1.55,7.19-2.35C789.33,666.34,789.27,666.11,789.21,665.88Zm-468.54-15,.09.12-.11,0h0v0h0c-.06-.58-.12-1.15-.18-1.74l.35.13.11,0a.45.45,0,0,1,.12.06.38.38,0,0,1,.15.09l.11.09.08.1C321.58,650.05,321.33,650.44,320.67,650.88Zm13.85-5.15V644.1l.51,1.53Zm43.37-12.92h0Zm1.74,6.21-.1-.06.11,0Zm5.11,20.92.07-.13.06.14Zm38.69-21.22-.89-1.11.73-.62.86,1.06Zm.63-3.23.08-.11,0,.12Zm4,16.63,0-.12h.12Zm10.81-19.82c.05-.24.11-.48.16-.73.05.26.09.51.13.77Zm24.71-8.4c-.18-.63-.35-1.25-.53-1.87l.68-.19c.2.61.39,1.22.59,1.84Zm15.65-3-2.08-.65c.31-.62.61-1.21,1.23-2.42l1.34,2.67Zm9.88-3.56-.49-.34c.26-.16.51-.33.77-.48C489.29,616.82,489.2,617.09,489.11,617.37Zm.35-.88h0l-.07,0a.32.32,0,0,1,0-.09l.09-.11A.88.88,0,0,1,489.46,616.49Zm1.07,3.62h0l-.11,0h.12Zm0,.1a.15.15,0,0,1,0-.08h0Zm-1-3.87.69-2.18.78.45Zm1.82-.46,0-.11h.11Zm24-.68-.74-.37c.26-.55.51-1.11.77-1.67l.78.3Zm.94-2.83-.13-.09.14,0Zm11,.22,1.18-3,2.09,3.3ZM543,609.23l-1.6.84-.83-.5,2-3.92.67.18Zm1.24,1.7-.14-.06.2-.12Zm9.66-15.06-.06-.08.06,0Zm4.66,18.64.08-.13.05.15Zm13.67,6.41c-.07.69-.13,1.33-.22,2.34-2.25-2.2-.42-3.41.44-5.43l2.3,2.87Zm10.6,2.77-.42-.56.22-.22.54.48Zm-1.45-3.9,2.32-3.32.51,3.32Zm3,1c0-.27,0-.52-.07-.78.14.22.28.45.41.68Zm11.93-3.87-.41-.57,1-.72c.13.18.26.35.38.53C597,616.36,596.62,616.62,596.27,616.87Zm32-4.65c-.77-.43-1.79-.7-2.24-1.36-.3-.43.23-1.42.52-2.8l2.13,3.57Zm11.4-.3v-.39l.51-.14c0,.18,0,.35,0,.53Zm19.08,3.91a.61.61,0,0,1-.17-.07,1,1,0,0,0,.08-.14l.16.09S658.79,615.83,658.77,615.83Zm15,3.28-.6.4-.14-.28.63-.22.26-.41s.12.11.12.13S673.81,619,673.72,619.11Zm0-3.6-.55.07-1.72.21-.07.06.07.1-.07-.07v0h0l0,0h.11c.19-.2.4-.4.64-.63l.3-.27-1.39-1,1.46-2.23,2.41,3.7Zm11.15,8.24c-.16-.43-.31-.87-.46-1.3l.53-.19.48,1.28Zm11.89,3.62-.45-.27,1.12-2.55.71.55ZM735.31,645l-.12-.28.54-.19c0,.08,0,.15.08.22ZM316.56,653.7l.07.18.06-.1Zm.07.18a.14.14,0,0,1,0,.07,1,1,0,0,0,.07-.15ZM390,638.55h0l.06,0Zm0,0h0l-.07,0,.21-.05Zm-20.13,0,0,0h0Zm0-.17a.49.49,0,0,1,.06.13l.07-.07Zm.06.15,0,.08.06-.14ZM719.39,633l.09.07h0ZM501.47,617.17h-.05l.07.12S501.48,617.21,501.47,617.17Zm.12-.16-.13.12a.06.06,0,0,1,0,0l.22,0Zm55.75-4.28,0,0,.07.13.08-.23Z"/><path class="cls-1" d="M531,664.49c0,.18-.11.36-.16.54-2.8-.18-5.6-.49-8.4-.51-8,0-16.08-.31-24.08.14a102.8,102.8,0,0,0-17.07,2.61c-7.09,1.61-14.09,3.64-21.05,5.77-10.09,3.08-20,6.68-30.16,9.54s-20.06,5.64-30.52,6.3c-6.85.43-13.71.65-20.58.88a26.79,26.79,0,0,1-4.13-.55L386,681.6l-.35-.84c-12.58,1.17-25.12,1.49-37.56-1.31,22.31-.81,43.19-7,63.26-16.42l.59.82c-4.41,5.45-8.83,10.89-13.17,16.24,8.86-.27,17.49-2.66,26.13-5.25,14.75-4.43,29.38-9.31,44.6-12.08a148.31,148.31,0,0,1,35.65-2.42c8.09.5,16.1,2.2,24.14,3.4A6.54,6.54,0,0,1,531,664.49Z"/><path class="cls-1" d="M565.61,656.4c11.42,3.24,22.79,6.75,33.38,12.3-3.22-.46-6.45-.81-9.64-1.38a120.3,120.3,0,0,0-26-1.92,3.45,3.45,0,0,0-1.07.11c-2.86,1-5.3,0-8.06-1-7.6-2.66-15.34-5-23.16-7-8.51-2.1-17.27-2.58-26-2.8A200.83,200.83,0,0,0,470.93,657c-15.8,2.27-31,6.85-46,12-2.64.92-5.17,2.2-7.76,3.26a24.76,24.76,0,0,1-2.55.73l-.26-.62c2.43-1.47,4.81-3.07,7.31-4.41a136.2,136.2,0,0,1,30.71-12.4c9.05-2.29,18.22-4.26,27.44-5.7,12.43-1.93,25.05-1.92,37.57-1.3A215.21,215.21,0,0,1,565.61,656.4Z"/><path class="cls-1" d="M599.19,668.79l-.08,0h0l-.1,0h.14Z"/><path class="cls-1" d="M466.4,427.52h0l0,0Z"/><path class="cls-1" d="M505.17,430.66a50.64,50.64,0,0,0-22.24-12.14,54.05,54.05,0,0,0-24.93-.47l8.4,9.46-.26-.09a4.87,4.87,0,0,1-1.78-.76c-4.77-4.4-10.5-7.1-16.47-9.32a75.45,75.45,0,0,0-24.62-4.44A81.53,81.53,0,0,0,387,420.12,55.32,55.32,0,0,0,366.78,435a48.37,48.37,0,0,1-3.61,4.12c.55-3.77,2.75-6.62,5-9.41,8.27-10.3,19.54-15.67,32-18.75,5.49-1.36,11.23-1.79,16.89-2.34a67,67,0,0,1,28.52,3.79,14.23,14.23,0,0,1,2.2.93c3.34,1.9,6.71,1.29,10.37.85a79.86,79.86,0,0,1,17.28-.15,47.83,47.83,0,0,1,21.36,7.75C500.17,424,504.41,428.16,505.17,430.66Z"/><path class="cls-1" d="M393.92,598.12l.53.57c-6.15,4.93-8.32,12-10.44,19-2.95-1.74-6.56-7.5-8-12.55-4.54,2.17-9,4.61-13.69,6.43a26.85,26.85,0,0,1-15,1.81c11.53-5.07,21.41-12.13,28.55-23.37.38,2.31.66,4,1,6l2.28-3c1,3.16,1.85,6,2.95,9.6,3.39-7.47,8-12.74,15.12-16.05l-7.73,11.82.6.45Z"/><path class="cls-1" d="M779.89,635.41v0a75.55,75.55,0,0,1-10.26-5.13c-5.48-3.21-10.73-6.87-16.22-10.09-4.1-2.41-8.36-4.53-12.55-6.78l-.42.5,1.09,2.52-3.17-.36c-.08.19-.15.38-.22.57l9.36,3.76c-8.17,2.92-29.08-8.07-30.53-16,2.49.86,4.87,1.86,7.34,2.45s4.94.74,7.41,1.08c.13-.21.26-.43.38-.66-1.48-1.56-3-3.13-4.43-4.7l.26-.75c2.75.78,5.58,1.36,8.23,2.38,9.06,3.47,16.68,9.28,24.23,15.16,5.83,4.54,11.71,9,17.53,13.57A14.27,14.27,0,0,1,779.89,635.41Z"/><polygon class="cls-1" points="779.91 635.43 779.91 635.44 779.9 635.43 779.91 635.43"/><path class="cls-1" d="M713,683.17c-3,.33-6,.88-9.05,1-8.34.23-16.53-1.14-24.69-2.79q-16.23-3.26-32.52-6.27c-2.74-.51-5.57-.45-8.41-1,3-2,6.5-1.93,10.6-2.32-8.24-3.55-16.24-5.4-24.29-7.44,3.2,0,6.45-.34,9.61,0,14.45,1.8,27.9,7.42,41.83,11.2,8.69,2.35,17.55,4.09,26.38,5.9,2.59.54,5.33.38,8,.55.83.05,1.66.13,2.49.2Z"/><path class="cls-1" d="M543.08,563.52a58.09,58.09,0,0,1,7.5-2.4,149,149,0,0,0-28.21,28.73c-.23-.15-.47-.28-.71-.43,1-2.35,2-4.72,3.14-7s2.43-4.55,3.44-7.18l-11.77,7.45c.89-4.64,19.8-25.43,25.75-28.39-.09.77-.17,1.43-.26,2.24,2.72-1.73,5.34-3.44,8-5a5.73,5.73,0,0,1,2-.33h0l-14.8,14.41.06.13,0-.15C539.2,564.84,541.15,564.22,543.08,563.52Z"/><path class="cls-1" d="M759.14,481.47c-4.29-6.71-10.11-10.9-17.69-12.42s-14.71-.83-20.78,4.7l-.51-.51,2.7-4c-7.93-4.86-15.85-4.25-24.07.34,2.67-5.65,16.24-9.85,26.77-2.44C741.41,460.27,758.89,470.59,759.14,481.47Z"/><path class="cls-1" d="M359.18,509.2h0Z"/><path class="cls-1" d="M440.39,485.77c-6.16,1.5-12.08,2.91-18,4.39q-31.53,7.93-62.26,18.57c-.33.12-.63.32-.95.47a8.58,8.58,0,0,1,1.58-1.33,229.81,229.81,0,0,1,79.12-22.29A3.56,3.56,0,0,1,440.39,485.77Z"/><path class="cls-1" d="M411.5,602.56,396.72,616l-.7-.68,9-11-1.8-1.7,7.75-.92Z"/><path class="cls-1" d="M587,577.82c-2.87,3.08-5.69,6.22-8.42,9.2a40.18,40.18,0,0,1,9.67-15.47C588.28,574,588.66,576,587,577.82Z"/><path class="cls-1" d="M756.34,627.26l-13,3.4-.41-.67,7.82-4.8Z"/><path class="cls-1" d="M412.12,585.85l.17-.12a1.83,1.83,0,0,1-.13.16Z"/><path class="cls-1" d="M423.26,577.36c0,.21.1.53,0,.59-3.65,2.61-7.32,5.19-11,7.78,1.85-2.28,3.61-4.65,5.63-6.77.61-.64,2-.57,3-.86.81-.23,1.61-.53,2.42-.79l-.05,0h0Z"/><path class="cls-1" d="M764.39,631.83l-11.24,2C754.73,630.31,760.72,629.17,764.39,631.83Z"/><path class="cls-1" d="M316.38,633.14l-11.44-1.82C309.87,628.73,313,629.25,316.38,633.14Z"/><path class="cls-1" d="M318.74,624.61l6.79,4.9-10.87-2.8,3.71-1.51Z"/><path class="cls-1" d="M325.66,629.54l0,0-.1-.07Z"/><path class="cls-1" d="M772.92,636.12l-10.63,1A7.54,7.54,0,0,1,772.92,636.12Z"/><path class="cls-1" d="M306.17,636.31l-9.88-.53c2.91-2.46,7.8-2.12,9.87.53Z"/><path class="cls-1" d="M716.54,682.21h-1v-.11h1A.37.37,0,0,0,716.54,682.21Z"/><path class="cls-1" d="M578,572.38l-.58.36-.32.21,0,0,0,0,.86-.62Z"/><path class="cls-1" d="M398.28,482.5h0C398.12,482.5,398,482.5,398.28,482.5Z"/><path class="cls-1" d="M398.37,482.5h0Z"/><path class="cls-1" d="M306.49,636.21l-.31.1h0Z"/><path class="cls-1" d="M780.07,635.41l-.16,0,0,0Z"/><path class="cls-1" d="M326.68,629.81l-.05,0-1-.21,0,0,1,.22h0Z"/><path class="cls-1" d="M359.18,509.2h0l-.33-.07Z"/><path class="cls-1" d="M412.16,585.89,412,586l.09-.12Z"/><path class="cls-1" d="M423.33,577.31a.93.93,0,0,1,0,.13l0-.09h0l.05,0Z"/><path class="cls-1" d="M577.1,573.11l0-.13h0l0,0h0Z"/><path class="cls-1" d="M578.58,571.87l-.59.51,0,0,.58-.51Z"/><path class="cls-1" d="M326.68,629.81l-.06.1a.75.75,0,0,1,0-.12h0v0Z"/><path class="cls-1" d="M552,551.11h0Z"/><path class="cls-1" d="M552,551.1h0Z"/><path class="cls-1" d="M311.68,474.38v0l0,.12a.32.32,0,0,0,0-.08h0Z"/><path class="cls-1" d="M599.19,668.79l-.12,0a.15.15,0,0,1,0,0h0v0h0Z"/><path class="cls-1" d="M466.43,427.54l-.07.12,0-.14h0Z"/><path class="cls-1" d="M680,443.53s0,0,0,0Z"/><path class="cls-1" d="M454.5,545.87l1.82-1.58-1.81,1.58Z"/><path class="cls-1" d="M461.16,533.64l.67-.64-.66.65h0Z"/><path class="cls-1" d="M464.2,520.49l-.05-.06.05,0h0v.08Z"/><path class="cls-1" d="M468.72,518.4l-4.48,2,4.47-2h0Z"/><path class="cls-1" d="M491.82,491.79l1-1c-.32.32-.64.64-.95,1Z"/><path class="cls-1" d="M427.75,525.34h.07l-.06.06h0Z"/><path class="cls-1" d="M428.41,524.78l-.55.55.28,0-.29,0h0Z"/><path class="cls-1" d="M433.65,519.66l5.59-5.16-5.58,5.17Z"/><path class="cls-1" d="M460,505.74l0,0,0,0Z"/><path class="cls-1" d="M594,514.56l-1.18,1.12-.38-.45,1.29-1Z"/><path class="cls-1" d="M512.29,469.36l.87-1.54.41.39-1.26,1.06Z"/><path class="cls-1" d="M693.4,554.37l-.44-.71c.17-.07.45-.25.5-.2a2.56,2.56,0,0,1,.35.63Z"/><path class="cls-1" d="M461,505.71l.22-1.21.4.08-.19,1.15Z"/><path class="cls-1" d="M556.19,442l-.63-.78.26-.24.7.67Z"/><path class="cls-1" d="M464.15,520.43l-.8.5-.12-.39,1,0Z"/><path class="cls-1" d="M689.79,598.16l1-.18-.06.56-.92-.43Z"/><path class="cls-1" d="M447.5,552l-.1.57-.27-.33Z"/><path class="cls-1" d="M379.47,560.15c-.1-.25-.2-.5,0-.09.11-.42.05-.18,0,.06Z"/><path class="cls-1" d="M426.43,526.34V527h-.2v-.69Z"/><path class="cls-1" d="M611.62,549.36s0,.13,0,.13a.19.19,0,0,1-.15,0s0-.1,0-.15Z"/><path class="cls-1" d="M522.43,512.93l.07.18-.24.06a.65.65,0,0,1,0-.19S522.38,513,522.43,512.93Z"/><path class="cls-1" d="M491,517.9s-.12.05-.13,0,0-.11-.06-.16l.23,0Z"/><path class="cls-1" d="M424.91,527.29c.09.08.23.15.22.21s-.11.17-.19.24a.34.34,0,0,1-.15-.09A1.9,1.9,0,0,1,424.91,527.29Z"/><path class="cls-1" d="M422.91,594.46l.1.08,0-.13Z"/><polygon class="cls-1" points="421.67 594.86 421.53 594.85 421.54 594.83 421.67 594.86"/><path class="cls-1" d="M423,594.41l-.05.05Z"/><path class="cls-1" d="M345.88,589.77l-.05.06a.61.61,0,0,0,0-.11A.11.11,0,0,1,345.88,589.77Z"/><path class="cls-1" d="M427.22,526l-.13.09.19,0Z"/><path class="cls-1" d="M692.61,580.93h-.13l0-.05h0Z"/><path class="cls-1" d="M358.9,579.1v.11l0-.05-.05-.07Z"/><path class="cls-1" d="M427.28,526.07l.48-.66s0-.06,0-.07l-.53.69Z"/><path class="cls-1" d="M461.21,533.68l-.17,0,.12-.08h0Z"/><path class="cls-1" d="M601.37,523.17V523l.06.08Z"/><polygon class="cls-1" points="424.05 528.01 424.19 527.96 424.18 528.09 424.05 528.01"/><path class="cls-1" d="M362.88,575.17l-.16,0,.09-.06Z"/><path class="cls-1" d="M433.71,519.7l-.16,0,.1-.07h0Z"/><path class="cls-1" d="M468.82,518.39h-.11s0,0,0,0Z"/><path class="cls-1" d="M410.8,528.24l.12.09a.65.65,0,0,0-.08-.13Z"/><path class="cls-1" d="M515.25,534.6l-.12,0s0,0,0-.07Z"/><path class="cls-1" d="M642.88,571.53l-.09-.11.1,0Z"/><path class="cls-1" d="M458.82,508.6H459l-.12-.06Z"/><path class="cls-1" d="M370.75,566.89l-.15,0,.08-.07Z"/><path class="cls-1" d="M434.23,528.47l-.15,0-.15,0a1.28,1.28,0,0,0,.27,0h0Z"/><path class="cls-1" d="M460,505.89l-.07-.12h0l0,0h0Z"/><polygon class="cls-1" points="401.01 559.82 401.05 559.96 400.92 559.94 401.01 559.82"/><path class="cls-1" d="M517.06,504.84l.11.16-.09-.14Z"/><path class="cls-1" d="M391.79,559.45l-.17,0,.11-.06Z"/><path class="cls-1" d="M421.43,554.63l-.14.1a0,0,0,0,0,0,0,.53.53,0,0,0,.06-.1l0,0Z"/><path class="cls-1" d="M302.75,628.9l-.16,0a.7.7,0,0,0,.1-.08Z"/><path class="cls-1" d="M502.19,497.47v0l-.08.09h0l0,0a.08.08,0,0,0,0,0Z"/><path class="cls-1" d="M449.92,550.72l-.09.2.12-.16Z"/><path class="cls-1" d="M491.87,491.83l-.16,0h.12Z"/><polygon class="cls-1" points="483.72 484.15 483.8 484.19 483.77 484.1 483.72 484.15"/><path class="cls-1" d="M450,550.76l-.14,0h.11Z"/><path class="cls-1" d="M515,548.91l0,0Z"/><path class="cls-1" d="M454.58,545.9l-.14.08.06-.11h0Z"/><polygon class="cls-1" points="475.91 532.57 475.9 532.63 475.85 532.61 475.91 532.57"/><path class="cls-1" d="M512.31,469.27l.12.13-.14,0Z"/><path class="cls-1" d="M546,465.62l-.12-.07.09,0h0Z"/><path class="cls-1" d="M526.4,437.75h0l0,0h0l-.18,0,.2-.07Z"/><path class="cls-1" d="M671.34,615.85l1-1-1.39-1,1.46-2.23,2.41,3.7-3.53.44Z"/><path class="cls-1" d="M574.75,620.7l-2.52.22c-.07.69-.13,1.33-.22,2.33-2.25-2.19-.42-3.41.44-5.42Z"/><path class="cls-1" d="M540.57,609.57c.67-1.3,1.33-2.61,2-3.92l.67.18-.23,3.41-1.6.82Z"/><path class="cls-1" d="M626.57,608.06l2.13,3.57-.41.59c-.77-.43-1.79-.7-2.24-1.36C625.75,610.43,626.28,609.44,626.57,608.06Z"/><path class="cls-1" d="M583.73,616.43s0,0,0,0v-.05a0,0,0,0,1,0,0Z"/><path class="cls-1" d="M583.7,616.47l.51,3.32h-2.83Z"/><path class="cls-1" d="M584.26,619.79l0,.06v-.06Z"/><path class="cls-1" d="M502.11,610.74l1.59,3.48-1.56-1.91c-.35.32-.7.64-1,1,.3-.83.6-1.65.91-2.47Z"/><path class="cls-1" d="M504.13,614.74v.41c-.14-.31-.28-.62-.43-.93C503.85,614.39,504,614.57,504.13,614.74Z"/><path class="cls-1" d="M530.59,612.9l-3.27-.31,1.18-3Z"/><path class="cls-1" d="M479.23,620.93l-2.09-.65,1.24-2.42c.58,1.17,1,1.92,1.34,2.67Z"/><path class="cls-1" d="M698.13,625.09l-1.38,2.28-.45-.26,1.12-2.56Z"/><path class="cls-1" d="M516.16,613.46l-.81,1.74-.73-.37.76-1.67Z"/><path class="cls-1" d="M489.46,616.5l.74-2.34.78.45c-.52.61-1,1.23-1.57,1.84Z"/><path class="cls-1" d="M463.57,623.9l-.52-1.87.68-.19.59,1.84Z"/><path class="cls-1" d="M684.86,623.74c-.16-.42-.31-.85-.46-1.28l.53-.2.48,1.28Z"/><path class="cls-1" d="M595.86,616.3l1-.72.38.53-1,.76Z"/><path class="cls-1" d="M320.65,651l-.19-1.81,0,0c1.34.38,1.34.95.25,1.68Z"/><path class="cls-1" d="M423.26,637l.87,1.06-.69.68-.9-1.12Z"/><path class="cls-1" d="M582.83,623.69l-.42-.56.22-.22.55.48Z"/><path class="cls-1" d="M334.51,644.08l.52,1.55-.51.1v-1.65Z"/><path class="cls-1" d="M735.19,644.67l.53-.19.09.22-.5.25Z"/><path class="cls-1" d="M489.41,616.45l-.3.92-.49-.34.84-.53Z"/><path class="cls-1" d="M639.68,611.54l.51-.14,0,.52h-.53Z"/><path class="cls-1" d="M449.7,628.58c0-.36,0-.18,0,0Z"/><path class="cls-1" d="M584.21,619.85l.47.79-.34.1c0-.32-.05-.63-.08-1Z"/><path class="cls-1" d="M658.84,615.71s-.05.12-.07.12a.61.61,0,0,1-.17-.07l.08-.14Z"/><path class="cls-1" d="M543.62,605c-.07-.39,0-.2,0,0Z"/><path class="cls-1" d="M439.05,631.51l0,.06a.07.07,0,0,0,0-.05h0Z"/><path class="cls-1" d="M438.87,632.3c.05-.24.11-.48.16-.73.05.26.09.51.13.77Z"/><path class="cls-1" d="M673.72,619.11l-.6.4-.14-.28.63-.22Z"/><path class="cls-1" d="M673.61,619l.26-.41s.13.12.12.13-.18.26-.27.38Z"/><path class="cls-1" d="M544.24,610.93l-.14-.06.2-.12Z"/><path class="cls-1" d="M553.9,595.73v.14a.22.22,0,0,0,0-.08Z"/><path class="cls-1" d="M525.11,603.42H525v-.1A.6.6,0,0,0,525.11,603.42Z"/><path class="cls-1" d="M561.15,604.24a1,1,0,0,1-.07-.15h.06A.76.76,0,0,1,561.15,604.24Z"/><path class="cls-1" d="M499.78,609.89l-.08,0,0-.08Z"/><polygon class="cls-1" points="516.16 612.28 516.31 612.23 516.29 612.37 516.16 612.28"/><path class="cls-1" d="M557.31,612.75l.07.14.08-.23-.13.07Z"/><path class="cls-1" d="M488.05,612.89l-.05.33c0-.1.07-.19.1-.29Z"/><path class="cls-1" d="M557.33,612.73l0,0Z"/><polygon class="cls-1" points="558.64 614.38 558.69 614.53 558.55 614.51 558.64 614.38"/><polygon class="cls-1" points="491.33 615.88 491.29 615.76 491.4 615.78 491.33 615.88"/><path class="cls-1" d="M671.33,615.8l.12.17a1,1,0,0,0-.1-.11A.21.21,0,0,1,671.33,615.8Z"/><path class="cls-1" d="M476.56,616.77l0-.11,0,0Z"/><path class="cls-1" d="M501.41,617.18l.28,0-.1-.14-.13.12Z"/><path class="cls-1" d="M501.46,617.13l0,.17a.75.75,0,0,1-.07-.12S501.46,617.13,501.46,617.13Z"/><path class="cls-1" d="M490.53,620.1h-.13l.16,0Z"/><polygon class="cls-1" points="490.56 620.13 490.47 620.21 490.53 620.1 490.56 620.13"/><path class="cls-1" d="M420.66,629.71l0,0Z"/><path class="cls-1" d="M719.35,633.07h.16l-.12-.08Z"/><path class="cls-1" d="M377.91,632.78l0,0Z"/><path class="cls-1" d="M719.39,633l.09.08h-.12S719.39,633,719.39,633Z"/><path class="cls-1" d="M425.36,634.81l-.08-.13h.06A.59.59,0,0,0,425.36,634.81Z"/><polygon class="cls-1" points="424.14 635.38 424.18 635.51 424.07 635.49 424.14 635.38"/><path class="cls-1" d="M402.31,635.52l-.13,0a.34.34,0,0,1,.09-.08Z"/><path class="cls-1" d="M370,638.48l-.13-.06.09.23.06-.14Z"/><path class="cls-1" d="M390.07,638.5l-.16.09.2-.05Z"/><path class="cls-1" d="M370,638.51l-.13.08a1.14,1.14,0,0,1,.11-.11Z"/><polygon class="cls-1" points="379.53 638.96 379.64 638.91 379.63 639.02 379.53 638.96"/><path class="cls-1" d="M390.11,638.54H390l.12-.06Z"/><polygon class="cls-1" points="721.25 640.01 721.2 640.07 721.29 640.06 721.25 640.01"/><path class="cls-1" d="M734.68,643.11l-.09,0,0-.09A.52.52,0,0,0,734.68,643.11Z"/><path class="cls-1" d="M320.67,650.88l.08.12-.1,0Z"/><polygon class="cls-1" points="428.06 652.12 428.02 652 428.14 652.01 428.06 652.12"/><path class="cls-1" d="M316.7,653.78l-.14-.08.09.24.08-.14Z"/><path class="cls-1" d="M316.73,653.8l-.1.08.06-.1Z"/><polygon class="cls-1" points="384.81 659.81 384.87 659.94 384.74 659.93 384.81 659.81"/><path class="cls-1" d="M537.28,565.65l-.06-.13,0,0Z"/></svg>